ISO-10303-21;
HEADER;

/* File generated by Shapr3D Version 26.100.0.11031 */

FILE_DESCRIPTION(('HOOPS Exchange Step'),'2;1');

FILE_NAME('/Users/colinostermann/Library/Containers/com.shapr3d.shapr/Data/tmp/export/temp_export',
'2026-07-13T01:07:58-22:00',
('colinostermann'),
('Shapr3D Limited'),
'HOOPS Exchange 2026.3',
'Shapr3D',
'Authorized');

FILE_SCHEMA( ('AP242_MANAGED_MODEL_BASED_3D_ENGINEERING_MIM_LF {1 0 10303 442 1 1 4}') );

ENDSEC;

DATA;
#3=(NAMED_UNIT(*)PLANE_ANGLE_UNIT()SI_UNIT($,.RADIAN.));
#4=PLANE_ANGLE_MEASURE_WITH_UNIT(PLANE_ANGLE_MEASURE(0.0174532925),#3);
#5=(CONVERSION_BASED_UNIT('DEGREE',#4)NAMED_UNIT(#6)PLANE_ANGLE_UNIT());
#6=DIMENSIONAL_EXPONENTS(0.,0.,0.,0.,0.,0.,0.);
#7=(NAMED_UNIT(*)SI_UNIT($,.STERADIAN.)SOLID_ANGLE_UNIT());
#8=(LENGTH_UNIT()NAMED_UNIT(*)SI_UNIT(.MILLI.,.METRE.));
#9=UNCERTAINTY_MEASURE_WITH_UNIT(LENGTH_MEASURE(1.000000E-05),#8,'DISTANCE_ACCURACY_VALUE','Maximum Tolerance applied to model');
#10=(GEOMETRIC_REPRESENTATION_CONTEXT(3)GLOBAL_UNCERTAINTY_ASSIGNED_CONTEXT((#9))GLOBAL_UNIT_ASSIGNED_CONTEXT((#8,#5,#7))REPRESENTATION_CONTEXT('','root'));
#12=CARTESIAN_POINT('',(0.,0.,0.));
#13=DIRECTION('',(0.,0.,1.));
#14=DIRECTION('',(1.,0.,0.));
#15=AXIS2_PLACEMENT_3D('TS3D_PRODUCT_CSYS',#12,#13,#14);
#27=CARTESIAN_POINT('',(0.,0.,76.6000009));
#28=DIRECTION('',(0.,0.,1.));
#29=DIRECTION('',(1.,0.,0.));
#30=AXIS2_PLACEMENT_3D('',#27,#28,#29);
#31=PLANE('',#30);
#32=CARTESIAN_POINT('',(23.323807579,7.5,76.6000009));
#33=VERTEX_POINT('',#32);
#34=CARTESIAN_POINT('',(-23.323807579,7.5,76.6000009));
#35=VERTEX_POINT('',#34);
#36=CARTESIAN_POINT('',(0.,0.,76.6000009));
#37=DIRECTION('',(0.,0.,1.));
#38=DIRECTION('',(1.,0.,-0.));
#39=AXIS2_PLACEMENT_3D('',#36,#37,#38);
#40=CIRCLE('',#39,24.5);
#41=EDGE_CURVE('',#33,#35,#40,.T.);
#42=ORIENTED_EDGE('',*,*,#41,.T.);
#43=CARTESIAN_POINT('',(-22.376550226,7.5,76.6000009));
#44=VERTEX_POINT('',#43);
#45=CARTESIAN_POINT('',(-23.323807579,7.5,76.6000009));
#46=DIRECTION('',(1.,0.,0.));
#47=VECTOR('',#46,0.947257354);
#48=LINE('',#45,#47);
#49=EDGE_CURVE('',#35,#44,#48,.T.);
#50=ORIENTED_EDGE('',*,*,#49,.T.);
#51=CARTESIAN_POINT('',(22.376550226,7.5,76.6000009));
#52=VERTEX_POINT('',#51);
#53=CARTESIAN_POINT('',(0.,0.,76.6000009));
#54=DIRECTION('',(0.,0.,1.));
#55=DIRECTION('',(1.,0.,-0.));
#56=AXIS2_PLACEMENT_3D('',#53,#54,#55);
#57=CIRCLE('',#56,23.6);
#58=EDGE_CURVE('',#52,#44,#57,.T.);
#59=ORIENTED_EDGE('',*,*,#58,.F.);
#60=CARTESIAN_POINT('',(22.376550226,7.5,76.6000009));
#61=DIRECTION('',(1.,0.,0.));
#62=VECTOR('',#61,0.947257354);
#63=LINE('',#60,#62);
#64=EDGE_CURVE('',#52,#33,#63,.T.);
#65=ORIENTED_EDGE('',*,*,#64,.T.);
#66=EDGE_LOOP('',(#42,#50,#59,#65));
#67=FACE_BOUND('',#66,.T.);
#68=ADVANCED_FACE('',(#67),#31,.T.);
#69=CARTESIAN_POINT('',(0.,0.,76.6000009));
#70=DIRECTION('',(0.,0.,1.));
#71=DIRECTION('',(1.,0.,0.));
#72=AXIS2_PLACEMENT_3D('',#69,#70,#71);
#73=PLANE('',#72);
#74=CARTESIAN_POINT('',(-22.376550226,-7.5,76.6000009));
#75=VERTEX_POINT('',#74);
#76=CARTESIAN_POINT('',(-7.5,-22.376550226,76.6000009));
#77=VERTEX_POINT('',#76);
#78=CARTESIAN_POINT('',(0.,0.,76.6000009));
#79=DIRECTION('',(0.,0.,1.));
#80=DIRECTION('',(1.,0.,-0.));
#81=AXIS2_PLACEMENT_3D('',#78,#79,#80);
#82=CIRCLE('',#81,23.6);
#83=EDGE_CURVE('',#75,#77,#82,.T.);
#84=ORIENTED_EDGE('',*,*,#83,.F.);
#85=CARTESIAN_POINT('',(-23.323807579,-7.5,76.6000009));
#86=VERTEX_POINT('',#85);
#87=CARTESIAN_POINT('',(-22.376550226,-7.5,76.6000009));
#88=DIRECTION('',(-1.,-0.,0.));
#89=VECTOR('',#88,0.947257354);
#90=LINE('',#87,#89);
#91=EDGE_CURVE('',#75,#86,#90,.T.);
#92=ORIENTED_EDGE('',*,*,#91,.T.);
#93=CARTESIAN_POINT('',(-7.5,-23.323807579,76.6000009));
#94=VERTEX_POINT('',#93);
#95=CARTESIAN_POINT('',(0.,0.,76.6000009));
#96=DIRECTION('',(0.,0.,1.));
#97=DIRECTION('',(1.,0.,-0.));
#98=AXIS2_PLACEMENT_3D('',#95,#96,#97);
#99=CIRCLE('',#98,24.5);
#100=EDGE_CURVE('',#86,#94,#99,.T.);
#101=ORIENTED_EDGE('',*,*,#100,.T.);
#102=CARTESIAN_POINT('',(-7.5,-23.323807579,76.6000009));
#103=DIRECTION('',(0.,1.,0.));
#104=VECTOR('',#103,0.947257354);
#105=LINE('',#102,#104);
#106=EDGE_CURVE('',#94,#77,#105,.T.);
#107=ORIENTED_EDGE('',*,*,#106,.T.);
#108=EDGE_LOOP('',(#84,#92,#101,#107));
#109=FACE_BOUND('',#108,.T.);
#110=ADVANCED_FACE('',(#109),#73,.T.);
#111=CARTESIAN_POINT('',(0.,0.,61.9044));
#112=DIRECTION('',(0.,0.,1.));
#113=DIRECTION('',(1.,0.,-0.));
#114=AXIS2_PLACEMENT_3D('',#111,#112,#113);
#115=CYLINDRICAL_SURFACE('',#114,24.5);
#116=CARTESIAN_POINT('',(24.5,0.,75.3000009));
#117=VERTEX_POINT('',#116);
#118=CARTESIAN_POINT('',(24.5,0.,65.2000009));
#119=VERTEX_POINT('',#118);
#120=CARTESIAN_POINT('',(24.5,0.,75.3000009));
#121=DIRECTION('',(-0.,-0.,-1.));
#122=VECTOR('',#121,10.1);
#123=LINE('',#120,#122);
#124=EDGE_CURVE('',#117,#119,#123,.T.);
#125=ORIENTED_EDGE('',*,*,#124,.T.);
#126=CARTESIAN_POINT('',(0.,24.5,65.2000009));
#127=VERTEX_POINT('',#126);
#128=CARTESIAN_POINT('',(0.,0.,65.2000009));
#129=DIRECTION('',(0.,0.,-1.));
#130=DIRECTION('',(-1.,0.,0.));
#131=AXIS2_PLACEMENT_3D('',#128,#129,#130);
#132=CIRCLE('',#131,24.5);
#133=EDGE_CURVE('',#127,#119,#132,.T.);
#134=ORIENTED_EDGE('',*,*,#133,.F.);
#135=CARTESIAN_POINT('',(-7.5,-23.323807579,65.2000009));
#136=VERTEX_POINT('',#135);
#137=CARTESIAN_POINT('',(0.,0.,65.2000009));
#138=DIRECTION('',(0.,0.,-1.));
#139=DIRECTION('',(-1.,0.,0.));
#140=AXIS2_PLACEMENT_3D('',#137,#138,#139);
#141=CIRCLE('',#140,24.5);
#142=EDGE_CURVE('',#136,#127,#141,.T.);
#143=ORIENTED_EDGE('',*,*,#142,.F.);
#144=CARTESIAN_POINT('',(-7.5,-23.323807579,65.2000009));
#145=DIRECTION('',(0.,0.,1.));
#146=VECTOR('',#145,11.4);
#147=LINE('',#144,#146);
#148=EDGE_CURVE('',#136,#94,#147,.T.);
#149=ORIENTED_EDGE('',*,*,#148,.T.);
#150=ORIENTED_EDGE('',*,*,#100,.F.);
#151=CARTESIAN_POINT('',(-23.323807579,-7.5,75.3000009));
#152=VERTEX_POINT('',#151);
#153=CARTESIAN_POINT('',(-23.323807579,-7.5,75.3000009));
#154=DIRECTION('',(0.,0.,1.));
#155=VECTOR('',#154,1.3);
#156=LINE('',#153,#155);
#157=EDGE_CURVE('',#152,#86,#156,.T.);
#158=ORIENTED_EDGE('',*,*,#157,.F.);
#159=CARTESIAN_POINT('',(-23.323807579,7.5,75.3000009));
#160=VERTEX_POINT('',#159);
#161=CARTESIAN_POINT('',(0.,0.,75.3000009));
#162=DIRECTION('',(0.,-0.,1.));
#163=DIRECTION('',(0.951992146,0.306122449,0.));
#164=AXIS2_PLACEMENT_3D('',#161,#162,#163);
#165=CIRCLE('',#164,24.5);
#166=EDGE_CURVE('',#160,#152,#165,.T.);
#167=ORIENTED_EDGE('',*,*,#166,.F.);
#168=CARTESIAN_POINT('',(-23.323807579,7.5,75.3000009));
#169=DIRECTION('',(0.,0.,1.));
#170=VECTOR('',#169,1.3);
#171=LINE('',#168,#170);
#172=EDGE_CURVE('',#160,#35,#171,.T.);
#173=ORIENTED_EDGE('',*,*,#172,.T.);
#174=ORIENTED_EDGE('',*,*,#41,.F.);
#175=CARTESIAN_POINT('',(23.323807579,7.5,75.3000009));
#176=VERTEX_POINT('',#175);
#177=CARTESIAN_POINT('',(23.323807579,7.5,75.3000009));
#178=DIRECTION('',(0.,0.,1.));
#179=VECTOR('',#178,1.3);
#180=LINE('',#177,#179);
#181=EDGE_CURVE('',#176,#33,#180,.T.);
#182=ORIENTED_EDGE('',*,*,#181,.F.);
#183=CARTESIAN_POINT('',(0.,-0.,75.3000009));
#184=DIRECTION('',(0.,0.,1.));
#185=DIRECTION('',(0.204081633,-0.978953874,0.));
#186=AXIS2_PLACEMENT_3D('',#183,#184,#185);
#187=CIRCLE('',#186,24.5);
#188=EDGE_CURVE('',#117,#176,#187,.T.);
#189=ORIENTED_EDGE('',*,*,#188,.F.);
#190=EDGE_LOOP('',(#125,#134,#143,#149,#150,#158,#167,#173,#174,#182,#189));
#191=FACE_BOUND('',#190,.T.);
#192=CARTESIAN_POINT('',(-2.699999631,24.350770049,68.7));
#193=VERTEX_POINT('',#192);
#194=CARTESIAN_POINT('',(2.700000369,24.350769967,68.7));
#195=VERTEX_POINT('',#194);
#196=CARTESIAN_POINT('',(0.,0.,68.7));
#197=DIRECTION('',(-0.,-0.,-1.));
#198=DIRECTION('',(1.,0.,-0.));
#199=AXIS2_PLACEMENT_3D('',#196,#197,#198);
#200=CIRCLE('',#199,24.5);
#201=EDGE_CURVE('',#193,#195,#200,.T.);
#202=ORIENTED_EDGE('',*,*,#201,.T.);
#203=CARTESIAN_POINT('',(4.550325055,24.073731366,69.709916576));
#204=VERTEX_POINT('',#203);
#205=CARTESIAN_POINT('',(4.550325055,24.073731366,69.709916576));
#206=CARTESIAN_POINT('',(4.350007997,24.111594534,69.398467433));
#207=CARTESIAN_POINT('',(4.074054384,24.161064065,69.143591705));
#208=CARTESIAN_POINT('',(3.753941572,24.210698517,68.968884276));
#209=CARTESIAN_POINT('',(3.673913368,24.22310713,68.925207418));
#210=CARTESIAN_POINT('',(3.590207697,24.235673132,68.886061424));
#211=CARTESIAN_POINT('',(3.504819496,24.248015183,68.852497577));
#212=CARTESIAN_POINT('',(3.419431296,24.260357233,68.81893373));
#213=CARTESIAN_POINT('',(3.332651501,24.27243996,68.790965017));
#214=CARTESIAN_POINT('',(3.244508518,24.284216365,68.768448716));
#215=CARTESIAN_POINT('',(3.068222553,24.307769175,68.723416115));
#216=CARTESIAN_POINT('',(2.884981261,24.330259385,68.70000003));
#217=CARTESIAN_POINT('',(2.700000369,24.350769967,68.7));
#218=B_SPLINE_CURVE_WITH_KNOTS('',3,(#205,#206,#207,#208,#209,#210,#211,#212,#213,#214,#215,#216,#217),.UNSPECIFIED.,.F.,.F.,(4,3,3,3,4),(0.,0.001107929,0.001384911,0.001661893,0.002215858),.UNSPECIFIED.);
#219=EDGE_CURVE('',#204,#195,#218,.T.);
#220=ORIENTED_EDGE('',*,*,#219,.F.);
#221=CARTESIAN_POINT('',(3.715034329,24.216699196,72.851846833));
#222=VERTEX_POINT('',#221);
#223=CARTESIAN_POINT('',(4.550325055,24.073731366,69.709916576));
#224=CARTESIAN_POINT('',(4.63343611,24.058022031,69.839136456));
#225=CARTESIAN_POINT('',(4.701813903,24.044666534,69.974874255));
#226=CARTESIAN_POINT('',(4.755927816,24.03395828,70.116953172));
#227=CARTESIAN_POINT('',(4.810041728,24.023250026,70.25903209));
#228=CARTESIAN_POINT('',(4.850007322,24.015162049,70.409295301));
#229=CARTESIAN_POINT('',(4.873596142,24.010374021,70.560174435));
#230=CARTESIAN_POINT('',(4.897184962,24.005585994,70.711053568));
#231=CARTESIAN_POINT('',(4.905039021,24.003971773,70.863115983));
#232=CARTESIAN_POINT('',(4.896919944,24.005627987,71.016380317));
#233=CARTESIAN_POINT('',(4.892860406,24.006456094,71.093012484));
#234=CARTESIAN_POINT('',(4.884696452,24.008121357,71.170108145));
#235=CARTESIAN_POINT('',(4.872673006,24.01056138,71.24567848));
#236=CARTESIAN_POINT('',(4.86064956,24.013001402,71.321248815));
#237=CARTESIAN_POINT('',(4.844764597,24.016216581,71.395750951));
#238=CARTESIAN_POINT('',(4.825089682,24.020168808,71.469205947));
#239=CARTESIAN_POINT('',(4.805414768,24.024121035,71.542660943));
#240=CARTESIAN_POINT('',(4.781949674,24.028810464,71.615068729));
#241=CARTESIAN_POINT('',(4.754641251,24.034212835,71.686416459));
#242=CARTESIAN_POINT('',(4.727332827,24.039615205,71.757764188));
#243=CARTESIAN_POINT('',(4.695967856,24.045771552,71.82841535));
#244=CARTESIAN_POINT('',(4.661347394,24.052480963,71.896552983));
#245=CARTESIAN_POINT('',(4.592106471,24.065899786,72.032828248));
#246=CARTESIAN_POINT('',(4.509787391,24.081552699,72.160057533));
#247=CARTESIAN_POINT('',(4.414610694,24.098987788,72.278445296));
#248=CARTESIAN_POINT('',(4.319433997,24.116422877,72.396833058));
#249=CARTESIAN_POINT('',(4.210737614,24.135735949,72.506395471));
#250=CARTESIAN_POINT('',(4.093825867,24.155549875,72.602131159));
#251=CARTESIAN_POINT('',(3.97691412,24.175363802,72.697866846));
#252=CARTESIAN_POINT('',(3.850782656,24.195874322,72.781252584));
#253=CARTESIAN_POINT('',(3.715034329,24.216699196,72.851846833));
#254=B_SPLINE_CURVE_WITH_KNOTS('',3,(#223,#224,#225,#226,#227,#228,#229,#230,#231,#232,#233,#234,#235,#236,#237,#238,#239,#240,#241,#242,#243,#244,#245,#246,#247,#248,
#249,#250,#251,#252,#253),.UNSPECIFIED.,.F.,.F.,(4,3,3,3,3,3,3,3,3,3,4),(0.,0.000456837,0.000913675,0.001370512,0.001598931,0.001827349,0.002055768,0.002284187,0.002741024,0.003197861,0.003654699),.UNSPECIFIED.);
#255=EDGE_CURVE('',#204,#222,#254,.T.);
#256=ORIENTED_EDGE('',*,*,#255,.T.);
#257=CARTESIAN_POINT('',(2.700000369,24.350769967,73.1));
#258=VERTEX_POINT('',#257);
#259=CARTESIAN_POINT('',(3.715034329,24.216699196,72.851846833));
#260=CARTESIAN_POINT('',(3.558753403,24.240673933,72.933118808));
#261=CARTESIAN_POINT('',(3.393257275,24.26449401,72.99534727));
#262=CARTESIAN_POINT('',(3.221986256,24.287214838,73.037178218));
#263=CARTESIAN_POINT('',(3.050715238,24.309935665,73.079009165));
#264=CARTESIAN_POINT('',(2.876698105,24.331177817,73.099999339));
#265=CARTESIAN_POINT('',(2.700000369,24.350769967,73.1));
#266=B_SPLINE_CURVE_WITH_KNOTS('',3,(#259,#260,#261,#262,#263,#264,#265),.UNSPECIFIED.,.F.,.F.,(4,3,4),(0.,0.000532372,0.001064744),.UNSPECIFIED.);
#267=EDGE_CURVE('',#222,#258,#266,.T.);
#268=ORIENTED_EDGE('',*,*,#267,.T.);
#269=CARTESIAN_POINT('',(-2.699999631,24.350770049,73.1));
#270=VERTEX_POINT('',#269);
#271=CARTESIAN_POINT('',(0.,0.,73.1));
#272=DIRECTION('',(-0.,-0.,-1.));
#273=DIRECTION('',(1.,0.,-0.));
#274=AXIS2_PLACEMENT_3D('',#271,#272,#273);
#275=CIRCLE('',#274,24.5);
#276=EDGE_CURVE('',#270,#258,#275,.T.);
#277=ORIENTED_EDGE('',*,*,#276,.F.);
#278=CARTESIAN_POINT('',(-3.715033331,24.216699349,72.851846968));
#279=VERTEX_POINT('',#278);
#280=CARTESIAN_POINT('',(-2.699999631,24.350770049,73.1));
#281=CARTESIAN_POINT('',(-2.876691252,24.331178582,73.1));
#282=CARTESIAN_POINT('',(-3.052523445,24.309708535,73.078716962));
#283=CARTESIAN_POINT('',(-3.223756699,24.286979902,73.036744845));
#284=CARTESIAN_POINT('',(-3.394989953,24.264251268,72.994772729));
#285=CARTESIAN_POINT('',(-3.558755878,24.240673547,72.933116932));
#286=CARTESIAN_POINT('',(-3.715033331,24.216699349,72.851846968));
#287=B_SPLINE_CURVE_WITH_KNOTS('',3,(#280,#281,#282,#283,#284,#285,#286),.UNSPECIFIED.,.F.,.F.,(4,3,4),(0.,0.000532356,0.001064711),.UNSPECIFIED.);
#288=EDGE_CURVE('',#270,#279,#287,.T.);
#289=ORIENTED_EDGE('',*,*,#288,.T.);
#290=CARTESIAN_POINT('',(-4.550324546,24.073731462,69.709916932));
#291=VERTEX_POINT('',#290);
#292=CARTESIAN_POINT('',(-3.715033331,24.216699349,72.851846968));
#293=CARTESIAN_POINT('',(-3.850782942,24.195874284,72.781252074));
#294=CARTESIAN_POINT('',(-3.976891341,24.175367366,72.697878151));
#295=CARTESIAN_POINT('',(-4.093766308,24.155559969,72.602179324));
#296=CARTESIAN_POINT('',(-4.210641276,24.135752572,72.506480496));
#297=CARTESIAN_POINT('',(-4.319327886,24.1164419,72.396946372));
#298=CARTESIAN_POINT('',(-4.41450903,24.099006412,72.278570825));
#299=CARTESIAN_POINT('',(-4.509690175,24.081570923,72.160195279));
#300=CARTESIAN_POINT('',(-4.59193374,24.06593248,72.033078607));
#301=CARTESIAN_POINT('',(-4.66108622,24.052531577,71.897065389));
#302=CARTESIAN_POINT('',(-4.695662461,24.045831125,71.82905878));
#303=CARTESIAN_POINT('',(-4.727064626,24.039668012,71.758405308));
#304=CARTESIAN_POINT('',(-4.754429361,24.034254751,71.686967905));
#305=CARTESIAN_POINT('',(-4.781794097,24.028841491,71.615530502));
#306=CARTESIAN_POINT('',(-4.805280289,24.024147939,71.543094763));
#307=CARTESIAN_POINT('',(-4.824962405,24.020194375,71.469678164));
#308=CARTESIAN_POINT('',(-4.864326636,24.012287245,71.322844964));
#309=CARTESIAN_POINT('',(-4.888646222,24.007315728,71.171153706));
#310=CARTESIAN_POINT('',(-4.896863304,24.005639541,71.017430851));
#311=CARTESIAN_POINT('',(-4.905080385,24.003963355,70.863707997));
#312=CARTESIAN_POINT('',(-4.897210435,24.005580717,70.711529573));
#313=CARTESIAN_POINT('',(-4.873701184,24.0103527,70.560851713));
#314=CARTESIAN_POINT('',(-4.850191932,24.015124683,70.410173853));
#315=CARTESIAN_POINT('',(-4.810297404,24.023199023,70.259800677));
#316=CARTESIAN_POINT('',(-4.756101303,24.033923949,70.117410764));
#317=CARTESIAN_POINT('',(-4.701905203,24.044648875,69.97502085));
#318=CARTESIAN_POINT('',(-4.633439394,24.058021412,69.839142763));
#319=CARTESIAN_POINT('',(-4.550324546,24.073731462,69.709916932));
#320=B_SPLINE_CURVE_WITH_KNOTS('',3,(#292,#293,#294,#295,#296,#297,#298,#299,#300,#301,#302,#303,#304,#305,#306,#307,#308,#309,#310,#311,#312,#313,#314,#315,#316,#317,
#318,#319),.UNSPECIFIED.,.F.,.F.,(4,3,3,3,3,3,3,3,3,4),(0.,0.000456738,0.000913477,0.001370215,0.001598584,0.001826954,0.002283692,0.00274043,0.003197169,0.003653907),.UNSPECIFIED.);
#321=EDGE_CURVE('',#279,#291,#320,.T.);
#322=ORIENTED_EDGE('',*,*,#321,.T.);
#323=CARTESIAN_POINT('',(-2.699999631,24.350770049,68.7));
#324=CARTESIAN_POINT('',(-3.069958895,24.309749175,68.7));
#325=CARTESIAN_POINT('',(-3.433611714,24.260363888,68.794102142));
#326=CARTESIAN_POINT('',(-3.753739593,24.210729834,68.968774458));
#327=CARTESIAN_POINT('',(-3.833771562,24.19832132,69.012442537));
#328=CARTESIAN_POINT('',(-3.911985917,24.185782139,69.06165593));
#329=CARTESIAN_POINT('',(-3.986422569,24.173506885,69.115310664));
#330=CARTESIAN_POINT('',(-4.060859221,24.16123163,69.168965398));
#331=CARTESIAN_POINT('',(-4.131345089,24.14925596,69.226820287));
#332=CARTESIAN_POINT('',(-4.197987059,24.137665684,69.288778828));
#333=CARTESIAN_POINT('',(-4.331271,24.114485131,69.41269591));
#334=CARTESIAN_POINT('',(-4.450163428,24.092663533,69.55418827));
#335=CARTESIAN_POINT('',(-4.550324546,24.073731462,69.709916932));
#336=B_SPLINE_CURVE_WITH_KNOTS('',3,(#323,#324,#325,#326,#327,#328,#329,#330,#331,#332,#333,#334,#335),.UNSPECIFIED.,.F.,.F.,(4,3,3,3,4),(0.,0.00110797,0.001384962,0.001661954,0.002215939),.UNSPECIFIED.);
#337=EDGE_CURVE('',#193,#291,#336,.T.);
#338=ORIENTED_EDGE('',*,*,#337,.F.);
#339=EDGE_LOOP('',(#202,#220,#256,#268,#277,#289,#322,#338));
#340=FACE_BOUND('',#339,.T.);
#341=ADVANCED_FACE('',(#191,#340),#115,.T.);
#342=CARTESIAN_POINT('',(0.,0.,76.6000009));
#343=DIRECTION('',(0.,0.,1.));
#344=DIRECTION('',(1.,0.,0.));
#345=AXIS2_PLACEMENT_3D('',#342,#343,#344);
#346=PLANE('',#345);
#347=CARTESIAN_POINT('',(7.5,-23.323807579,76.6000009));
#348=VERTEX_POINT('',#347);
#349=CARTESIAN_POINT('',(23.323807579,-7.5,76.6000009));
#350=VERTEX_POINT('',#349);
#351=CARTESIAN_POINT('',(0.,0.,76.6000009));
#352=DIRECTION('',(0.,0.,1.));
#353=DIRECTION('',(1.,0.,-0.));
#354=AXIS2_PLACEMENT_3D('',#351,#352,#353);
#355=CIRCLE('',#354,24.5);
#356=EDGE_CURVE('',#348,#350,#355,.T.);
#357=ORIENTED_EDGE('',*,*,#356,.T.);
#358=CARTESIAN_POINT('',(22.376550226,-7.5,76.6000009));
#359=VERTEX_POINT('',#358);
#360=CARTESIAN_POINT('',(23.323807579,-7.5,76.6000009));
#361=DIRECTION('',(-1.,-0.,0.));
#362=VECTOR('',#361,0.947257354);
#363=LINE('',#360,#362);
#364=EDGE_CURVE('',#350,#359,#363,.T.);
#365=ORIENTED_EDGE('',*,*,#364,.T.);
#366=CARTESIAN_POINT('',(7.5,-22.376550226,76.6000009));
#367=VERTEX_POINT('',#366);
#368=CARTESIAN_POINT('',(0.,0.,76.6000009));
#369=DIRECTION('',(0.,0.,1.));
#370=DIRECTION('',(1.,0.,-0.));
#371=AXIS2_PLACEMENT_3D('',#368,#369,#370);
#372=CIRCLE('',#371,23.6);
#373=EDGE_CURVE('',#367,#359,#372,.T.);
#374=ORIENTED_EDGE('',*,*,#373,.F.);
#375=CARTESIAN_POINT('',(7.5,-22.376550226,76.6000009));
#376=DIRECTION('',(0.,-1.,0.));
#377=VECTOR('',#376,0.947257354);
#378=LINE('',#375,#377);
#379=EDGE_CURVE('',#367,#348,#378,.T.);
#380=ORIENTED_EDGE('',*,*,#379,.T.);
#381=EDGE_LOOP('',(#357,#365,#374,#380));
#382=FACE_BOUND('',#381,.T.);
#383=ADVANCED_FACE('',(#382),#346,.T.);
#384=CARTESIAN_POINT('',(0.,0.,76.4044));
#385=DIRECTION('',(0.,0.,1.));
#386=DIRECTION('',(1.,0.,-0.));
#387=AXIS2_PLACEMENT_3D('',#384,#385,#386);
#388=CYLINDRICAL_SURFACE('',#387,23.6);
#389=CARTESIAN_POINT('',(23.6,0.,75.3000009));
#390=VERTEX_POINT('',#389);
#391=CARTESIAN_POINT('',(23.6,0.,62.3000009));
#392=VERTEX_POINT('',#391);
#393=CARTESIAN_POINT('',(23.6,0.,75.3000009));
#394=DIRECTION('',(-0.,-0.,-1.));
#395=VECTOR('',#394,13.);
#396=LINE('',#393,#395);
#397=EDGE_CURVE('',#390,#392,#396,.T.);
#398=ORIENTED_EDGE('',*,*,#397,.F.);
#399=CARTESIAN_POINT('',(22.376550226,7.5,75.3000009));
#400=VERTEX_POINT('',#399);
#401=CARTESIAN_POINT('',(0.,-0.,75.3000009));
#402=DIRECTION('',(0.,0.,1.));
#403=DIRECTION('',(0.211864407,-0.97729907,0.));
#404=AXIS2_PLACEMENT_3D('',#401,#402,#403);
#405=CIRCLE('',#404,23.6);
#406=EDGE_CURVE('',#390,#400,#405,.T.);
#407=ORIENTED_EDGE('',*,*,#406,.T.);
#408=CARTESIAN_POINT('',(22.376550226,7.5,75.3000009));
#409=DIRECTION('',(0.,0.,1.));
#410=VECTOR('',#409,1.3);
#411=LINE('',#408,#410);
#412=EDGE_CURVE('',#400,#52,#411,.T.);
#413=ORIENTED_EDGE('',*,*,#412,.T.);
#414=ORIENTED_EDGE('',*,*,#58,.T.);
#415=CARTESIAN_POINT('',(-22.376550226,7.5,75.3000009));
#416=VERTEX_POINT('',#415);
#417=CARTESIAN_POINT('',(-22.376550226,7.5,75.3000009));
#418=DIRECTION('',(0.,0.,1.));
#419=VECTOR('',#418,1.3);
#420=LINE('',#417,#419);
#421=EDGE_CURVE('',#416,#44,#420,.T.);
#422=ORIENTED_EDGE('',*,*,#421,.F.);
#423=CARTESIAN_POINT('',(-22.376550226,-7.5,75.3000009));
#424=VERTEX_POINT('',#423);
#425=CARTESIAN_POINT('',(0.,0.,75.3000009));
#426=DIRECTION('',(0.,-0.,1.));
#427=DIRECTION('',(0.948158908,0.31779661,0.));
#428=AXIS2_PLACEMENT_3D('',#425,#426,#427);
#429=CIRCLE('',#428,23.6);
#430=EDGE_CURVE('',#416,#424,#429,.T.);
#431=ORIENTED_EDGE('',*,*,#430,.T.);
#432=CARTESIAN_POINT('',(-22.376550226,-7.5,75.3000009));
#433=DIRECTION('',(0.,0.,1.));
#434=VECTOR('',#433,1.3);
#435=LINE('',#432,#434);
#436=EDGE_CURVE('',#424,#75,#435,.T.);
#437=ORIENTED_EDGE('',*,*,#436,.T.);
#438=ORIENTED_EDGE('',*,*,#83,.T.);
#439=CARTESIAN_POINT('',(-7.5,-22.376550226,75.4044));
#440=VERTEX_POINT('',#439);
#441=CARTESIAN_POINT('',(-7.5,-22.376550226,75.4044));
#442=DIRECTION('',(0.,0.,1.));
#443=VECTOR('',#442,1.1956009);
#444=LINE('',#441,#443);
#445=EDGE_CURVE('',#440,#77,#444,.T.);
#446=ORIENTED_EDGE('',*,*,#445,.F.);
#447=CARTESIAN_POINT('',(-20.608493395,-11.5,75.4044));
#448=VERTEX_POINT('',#447);
#449=CARTESIAN_POINT('',(0.,0.,75.4044));
#450=DIRECTION('',(0.,0.,1.));
#451=DIRECTION('',(1.,0.,-0.));
#452=AXIS2_PLACEMENT_3D('',#449,#450,#451);
#453=CIRCLE('',#452,23.6);
#454=EDGE_CURVE('',#448,#440,#453,.T.);
#455=ORIENTED_EDGE('',*,*,#454,.F.);
#456=CARTESIAN_POINT('',(-20.608493395,-11.5,74.4044));
#457=VERTEX_POINT('',#456);
#458=CARTESIAN_POINT('',(-20.608493395,-11.5,75.4044));
#459=DIRECTION('',(-0.,-0.,-1.));
#460=VECTOR('',#459,1.);
#461=LINE('',#458,#460);
#462=EDGE_CURVE('',#448,#457,#461,.T.);
#463=ORIENTED_EDGE('',*,*,#462,.T.);
#464=CARTESIAN_POINT('',(-7.5,-22.376550226,74.4044));
#465=VERTEX_POINT('',#464);
#466=CARTESIAN_POINT('',(0.,0.,74.4044));
#467=DIRECTION('',(0.,0.,-1.));
#468=DIRECTION('',(-1.,0.,0.));
#469=AXIS2_PLACEMENT_3D('',#466,#467,#468);
#470=CIRCLE('',#469,23.6);
#471=EDGE_CURVE('',#465,#457,#470,.T.);
#472=ORIENTED_EDGE('',*,*,#471,.F.);
#473=CARTESIAN_POINT('',(-7.5,-22.376550226,62.3000009));
#474=VERTEX_POINT('',#473);
#475=CARTESIAN_POINT('',(-7.5,-22.376550226,62.3000009));
#476=DIRECTION('',(0.,0.,1.));
#477=VECTOR('',#476,12.1043991);
#478=LINE('',#475,#477);
#479=EDGE_CURVE('',#474,#465,#478,.T.);
#480=ORIENTED_EDGE('',*,*,#479,.F.);
#481=CARTESIAN_POINT('',(0.,0.,62.3000009));
#482=DIRECTION('',(0.,0.,-1.));
#483=DIRECTION('',(-1.,0.,0.));
#484=AXIS2_PLACEMENT_3D('',#481,#482,#483);
#485=CIRCLE('',#484,23.6);
#486=EDGE_CURVE('',#474,#392,#485,.T.);
#487=ORIENTED_EDGE('',*,*,#486,.T.);
#488=EDGE_LOOP('',(#398,#407,#413,#414,#422,#431,#437,#438,#446,#455,#463,#472,#480,#487));
#489=FACE_BOUND('',#488,.T.);
#490=CARTESIAN_POINT('',(-21.376622745,10.,74.4044));
#491=VERTEX_POINT('',#490);
#492=CARTESIAN_POINT('',(22.01613045,8.5,74.4044));
#493=VERTEX_POINT('',#492);
#494=CARTESIAN_POINT('',(0.,0.,74.4044));
#495=DIRECTION('',(0.,0.,-1.));
#496=DIRECTION('',(-1.,0.,0.));
#497=AXIS2_PLACEMENT_3D('',#494,#495,#496);
#498=CIRCLE('',#497,23.6);
#499=EDGE_CURVE('',#491,#493,#498,.T.);
#500=ORIENTED_EDGE('',*,*,#499,.F.);
#501=CARTESIAN_POINT('',(-21.376622745,10.,75.4044));
#502=VERTEX_POINT('',#501);
#503=CARTESIAN_POINT('',(-21.376622745,10.,75.4044));
#504=DIRECTION('',(-0.,-0.,-1.));
#505=VECTOR('',#504,1.);
#506=LINE('',#503,#505);
#507=EDGE_CURVE('',#502,#491,#506,.T.);
#508=ORIENTED_EDGE('',*,*,#507,.F.);
#509=CARTESIAN_POINT('',(22.01613045,8.5,75.4044));
#510=VERTEX_POINT('',#509);
#511=CARTESIAN_POINT('',(0.,0.,75.4044));
#512=DIRECTION('',(0.,0.,1.));
#513=DIRECTION('',(1.,0.,-0.));
#514=AXIS2_PLACEMENT_3D('',#511,#512,#513);
#515=CIRCLE('',#514,23.6);
#516=EDGE_CURVE('',#510,#502,#515,.T.);
#517=ORIENTED_EDGE('',*,*,#516,.F.);
#518=CARTESIAN_POINT('',(22.01613045,8.5,75.4044));
#519=DIRECTION('',(-0.,-0.,-1.));
#520=VECTOR('',#519,1.);
#521=LINE('',#518,#520);
#522=EDGE_CURVE('',#510,#493,#521,.T.);
#523=ORIENTED_EDGE('',*,*,#522,.T.);
#524=EDGE_LOOP('',(#500,#508,#517,#523));
#525=FACE_BOUND('',#524,.T.);
#526=CARTESIAN_POINT('',(4.550323622,23.157170702,69.709914349));
#527=VERTEX_POINT('',#526);
#528=CARTESIAN_POINT('',(3.715037237,23.305761055,72.851845321));
#529=VERTEX_POINT('',#528);
#530=CARTESIAN_POINT('',(4.550323622,23.157170702,69.709914349));
#531=CARTESIAN_POINT('',(4.63342584,23.140841333,69.839120146));
#532=CARTESIAN_POINT('',(4.70180765,23.126955217,69.974857344));
#533=CARTESIAN_POINT('',(4.755928689,23.115820174,70.116955467));
#534=CARTESIAN_POINT('',(4.810049728,23.10468513,70.259053589));
#535=CARTESIAN_POINT('',(4.850023706,23.096273533,70.409356272));
#536=CARTESIAN_POINT('',(4.873611202,23.091295196,70.560270778));
#537=CARTESIAN_POINT('',(4.897198699,23.08631686,70.711185284));
#538=CARTESIAN_POINT('',(4.905046389,23.08463968,70.863295798));
#539=CARTESIAN_POINT('',(4.896907135,23.086366118,71.016621876));
#540=CARTESIAN_POINT('',(4.892837508,23.087229336,71.093284915));
#541=CARTESIAN_POINT('',(4.884661109,23.088963537,71.170397988));
#542=CARTESIAN_POINT('',(4.87262484,23.091503355,71.245981082));
#543=CARTESIAN_POINT('',(4.860588571,23.094043172,71.321564177));
#544=CARTESIAN_POINT('',(4.844689268,23.097389261,71.396079328));
#545=CARTESIAN_POINT('',(4.824998145,23.101501962,71.469547586));
#546=CARTESIAN_POINT('',(4.805307021,23.105614663,71.543015845));
#547=CARTESIAN_POINT('',(4.781823844,23.110494137,71.61543714));
#548=CARTESIAN_POINT('',(4.75449493,23.116115114,71.686798638));
#549=CARTESIAN_POINT('',(4.727166017,23.121736091,71.758160136));
#550=CARTESIAN_POINT('',(4.695781682,23.128140483,71.828814483));
#551=CARTESIAN_POINT('',(4.66115352,23.1351172,71.89693446));
#552=CARTESIAN_POINT('',(4.591897197,23.149070634,72.033174413));
#553=CARTESIAN_POINT('',(4.509565081,23.165345096,72.160376173));
#554=CARTESIAN_POINT('',(4.414370885,23.183471045,72.278743534));
#555=CARTESIAN_POINT('',(4.319176689,23.201596994,72.397110895));
#556=CARTESIAN_POINT('',(4.210515268,23.221663176,72.506596831));
#557=CARTESIAN_POINT('',(4.093657485,23.242245339,72.602269028));
#558=CARTESIAN_POINT('',(3.976799702,23.262827502,72.697941224));
#559=CARTESIAN_POINT('',(3.850727539,23.284131444,72.78128099));
#560=CARTESIAN_POINT('',(3.715037237,23.305761055,72.851845321));
#561=B_SPLINE_CURVE_WITH_KNOTS('',3,(#530,#531,#532,#533,#534,#535,#536,#537,#538,#539,#540,#541,#542,#543,#544,#545,#546,#547,#548,#549,#550,#551,#552,#553,#554,#555,
#556,#557,#558,#559,#560),.UNSPECIFIED.,.F.,.F.,(4,3,3,3,3,3,3,3,3,3,4),(0.,0.000456986,0.000913972,0.001370958,0.001599451,0.001827944,0.002056437,0.00228493,0.002741916,0.003198902,0.003655888),.UNSPECIFIED.);
#562=EDGE_CURVE('',#527,#529,#561,.T.);
#563=ORIENTED_EDGE('',*,*,#562,.F.);
#564=CARTESIAN_POINT('',(2.700000369,23.445042077,68.7));
#565=VERTEX_POINT('',#564);
#566=CARTESIAN_POINT('',(4.550323622,23.157170702,69.709914349));
#567=CARTESIAN_POINT('',(4.350467466,23.196441916,69.399181807));
#568=CARTESIAN_POINT('',(4.076957756,23.247462828,69.145483451));
#569=CARTESIAN_POINT('',(3.755359194,23.299297786,68.969658644));
#570=CARTESIAN_POINT('',(3.433760632,23.351132744,68.793833837));
#571=CARTESIAN_POINT('',(3.069066521,23.402539328,68.7));
#572=CARTESIAN_POINT('',(2.700000369,23.445042077,68.7));
#573=B_SPLINE_CURVE_WITH_KNOTS('',3,(#566,#567,#568,#569,#570,#571,#572),.UNSPECIFIED.,.F.,.F.,(4,3,4),(0.008633438,0.009745312,0.010857186),.UNSPECIFIED.);
#574=EDGE_CURVE('',#527,#565,#573,.T.);
#575=ORIENTED_EDGE('',*,*,#574,.T.);
#576=CARTESIAN_POINT('',(-2.699999631,23.445042162,68.7));
#577=VERTEX_POINT('',#576);
#578=CARTESIAN_POINT('',(0.,0.,68.7));
#579=DIRECTION('',(-0.,-0.,-1.));
#580=DIRECTION('',(1.,0.,-0.));
#581=AXIS2_PLACEMENT_3D('',#578,#579,#580);
#582=CIRCLE('',#581,23.6);
#583=EDGE_CURVE('',#577,#565,#582,.T.);
#584=ORIENTED_EDGE('',*,*,#583,.F.);
#585=CARTESIAN_POINT('',(-4.5503231,23.157170805,69.709914683));
#586=VERTEX_POINT('',#585);
#587=CARTESIAN_POINT('',(-2.699999631,23.445042162,68.7));
#588=CARTESIAN_POINT('',(-2.885203691,23.423713521,68.7));
#589=CARTESIAN_POINT('',(-3.066529483,23.400604894,68.723075489));
#590=CARTESIAN_POINT('',(-3.24347431,23.376053439,68.768184982));
#591=CARTESIAN_POINT('',(-3.420419138,23.351501985,68.813294474));
#592=CARTESIAN_POINT('',(-3.593715128,23.325345528,68.881374795));
#593=CARTESIAN_POINT('',(-3.754528359,23.299431684,68.969205044));
#594=CARTESIAN_POINT('',(-3.91534159,23.27351784,69.057035293));
#595=CARTESIAN_POINT('',(-4.066089861,23.247476881,69.16598163));
#596=CARTESIAN_POINT('',(-4.199090866,23.223428599,69.289805766));
#597=CARTESIAN_POINT('',(-4.332091871,23.199380317,69.413629903));
#598=CARTESIAN_POINT('',(-4.450057937,23.176872645,69.554024254));
#599=CARTESIAN_POINT('',(-4.5503231,23.157170805,69.709914683));
#600=B_SPLINE_CURVE_WITH_KNOTS('',3,(#587,#588,#589,#590,#591,#592,#593,#594,#595,#596,#597,#598,#599),.UNSPECIFIED.,.F.,.F.,(4,3,3,3,4),(0.008742403,0.009301327,0.009860251,0.010419174,0.010978098),.UNSPECIFIED.);
#601=EDGE_CURVE('',#577,#586,#600,.T.);
#602=ORIENTED_EDGE('',*,*,#601,.T.);
#603=CARTESIAN_POINT('',(-3.715036235,23.305761214,72.851845458));
#604=VERTEX_POINT('',#603);
#605=CARTESIAN_POINT('',(-3.715036235,23.305761214,72.851845458));
#606=CARTESIAN_POINT('',(-3.850727637,23.284131435,72.781280579));
#607=CARTESIAN_POINT('',(-3.976787948,23.262829412,72.697946785));
#608=CARTESIAN_POINT('',(-4.09362656,23.242250786,72.602293742));
#609=CARTESIAN_POINT('',(-4.210465172,23.221672159,72.506640699));
#610=CARTESIAN_POINT('',(-4.319128459,23.201605907,72.397158924));
#611=CARTESIAN_POINT('',(-4.414307418,23.183483129,72.278821529));
#612=CARTESIAN_POINT('',(-4.509486378,23.165360352,72.160484135));
#613=CARTESIAN_POINT('',(-4.591739874,23.149101575,72.033400776));
#614=CARTESIAN_POINT('',(-4.660911238,23.135166013,71.897409479));
#615=CARTESIAN_POINT('',(-4.69549692,23.128198231,71.829413831));
#616=CARTESIAN_POINT('',(-4.726913384,23.121787804,71.758763482));
#617=CARTESIAN_POINT('',(-4.7542948,23.116156276,71.687319096));
#618=CARTESIAN_POINT('',(-4.781676216,23.110524747,71.61587471));
#619=CARTESIAN_POINT('',(-4.8051782,23.105641458,71.543430492));
#620=CARTESIAN_POINT('',(-4.824875088,23.101527664,71.470003767));
#621=CARTESIAN_POINT('',(-4.864268863,23.093300074,71.323150315));
#622=CARTESIAN_POINT('',(-4.888613862,23.088125203,71.171449154));
#623=CARTESIAN_POINT('',(-4.896850686,23.086378091,71.017666665));
#624=CARTESIAN_POINT('',(-4.90508751,23.084630979,70.863884176));
#625=CARTESIAN_POINT('',(-4.897224081,23.086311394,70.711655897));
#626=CARTESIAN_POINT('',(-4.873714494,23.091273396,70.560937035));
#627=CARTESIAN_POINT('',(-4.850204907,23.096235398,70.410218172));
#628=CARTESIAN_POINT('',(-4.81030141,23.104632928,70.259810249));
#629=CARTESIAN_POINT('',(-4.756099536,23.115785023,70.117406119));
#630=CARTESIAN_POINT('',(-4.701897661,23.126937117,69.975001989));
#631=CARTESIAN_POINT('',(-4.633429269,23.140840661,69.839126675));
#632=CARTESIAN_POINT('',(-4.5503231,23.157170805,69.709914683));
#633=B_SPLINE_CURVE_WITH_KNOTS('',3,(#605,#606,#607,#608,#609,#610,#611,#612,#613,#614,#615,#616,#617,#618,#619,#620,#621,#622,#623,#624,#625,#626,#627,#628,#629,#630,
#631,#632),.UNSPECIFIED.,.F.,.F.,(4,3,3,3,3,3,3,3,3,4),(0.,0.000456878,0.000913756,0.001370634,0.001599073,0.001827511,0.002284389,0.002741267,0.003198145,0.003655023),.UNSPECIFIED.);
#634=EDGE_CURVE('',#604,#586,#633,.T.);
#635=ORIENTED_EDGE('',*,*,#634,.F.);
#636=CARTESIAN_POINT('',(-2.699999631,23.445042162,73.1));
#637=VERTEX_POINT('',#636);
#638=CARTESIAN_POINT('',(-2.699999631,23.445042162,73.1));
#639=CARTESIAN_POINT('',(-2.876719008,23.424690642,73.1));
#640=CARTESIAN_POINT('',(-3.052561006,23.402387516,73.078710887));
#641=CARTESIAN_POINT('',(-3.223792935,23.378775826,73.036735963));
#642=CARTESIAN_POINT('',(-3.395024864,23.355164135,72.994761039));
#643=CARTESIAN_POINT('',(-3.558773107,23.330670213,72.933108151));
#644=CARTESIAN_POINT('',(-3.715036235,23.305761214,72.851845458));
#645=B_SPLINE_CURVE_WITH_KNOTS('',3,(#638,#639,#640,#641,#642,#643,#644),.UNSPECIFIED.,.F.,.F.,(4,3,4),(0.,0.000532695,0.001065391),.UNSPECIFIED.);
#646=EDGE_CURVE('',#637,#604,#645,.T.);
#647=ORIENTED_EDGE('',*,*,#646,.F.);
#648=CARTESIAN_POINT('',(2.700000369,23.445042077,73.1));
#649=VERTEX_POINT('',#648);
#650=CARTESIAN_POINT('',(0.,0.,73.1));
#651=DIRECTION('',(-0.,-0.,-1.));
#652=DIRECTION('',(1.,0.,-0.));
#653=AXIS2_PLACEMENT_3D('',#650,#651,#652);
#654=CIRCLE('',#653,23.6);
#655=EDGE_CURVE('',#637,#649,#654,.T.);
#656=ORIENTED_EDGE('',*,*,#655,.T.);
#657=CARTESIAN_POINT('',(3.715037237,23.305761055,72.851845321));
#658=CARTESIAN_POINT('',(3.403438997,23.355431137,73.013888157));
#659=CARTESIAN_POINT('',(3.052913541,23.404399552,73.1));
#660=CARTESIAN_POINT('',(2.700000369,23.445042077,73.1));
#661=B_SPLINE_CURVE_WITH_KNOTS('',3,(#657,#658,#659,#660),.UNSPECIFIED.,.F.,.F.,(4,4),(0.004308002,0.005371432),.UNSPECIFIED.);
#662=EDGE_CURVE('',#529,#649,#661,.T.);
#663=ORIENTED_EDGE('',*,*,#662,.F.);
#664=EDGE_LOOP('',(#563,#575,#584,#602,#635,#647,#656,#663));
#665=FACE_BOUND('',#664,.T.);
#666=ADVANCED_FACE('',(#489,#525,#665),#388,.F.);
#667=CARTESIAN_POINT('',(0.,0.,65.2000009));
#668=DIRECTION('',(0.,0.,-1.));
#669=DIRECTION('',(0.,1.,0.));
#670=AXIS2_PLACEMENT_3D('',#667,#668,#669);
#671=PLANE('',#670);
#672=CARTESIAN_POINT('',(-28.05,-0.,65.2000009));
#673=VERTEX_POINT('',#672);
#674=CARTESIAN_POINT('',(-26.55,-0.,65.2000009));
#675=DIRECTION('',(0.,0.,-1.));
#676=DIRECTION('',(-1.,0.,0.));
#677=AXIS2_PLACEMENT_3D('',#674,#675,#676);
#678=CIRCLE('',#677,1.5);
#679=EDGE_CURVE('',#673,#673,#678,.T.);
#680=ORIENTED_EDGE('',*,*,#679,.T.);
#681=EDGE_LOOP('',(#680));
#682=FACE_BOUND('',#681,.T.);
#683=ORIENTED_EDGE('',*,*,#142,.T.);
#684=CARTESIAN_POINT('',(-14.754999153,24.5,65.2000009));
#685=VERTEX_POINT('',#684);
#686=CARTESIAN_POINT('',(-14.754999153,24.5,65.2000009));
#687=DIRECTION('',(1.,0.,-0.));
#688=VECTOR('',#687,14.754999153);
#689=LINE('',#686,#688);
#690=EDGE_CURVE('',#685,#127,#689,.T.);
#691=ORIENTED_EDGE('',*,*,#690,.F.);
#692=CARTESIAN_POINT('',(-28.6,-0.,65.2000009));
#693=VERTEX_POINT('',#692);
#694=CARTESIAN_POINT('',(0.,0.,65.2000009));
#695=DIRECTION('',(0.,0.,-1.));
#696=DIRECTION('',(-0.,1.,0.));
#697=AXIS2_PLACEMENT_3D('',#694,#695,#696);
#698=CIRCLE('',#697,28.6);
#699=EDGE_CURVE('',#693,#685,#698,.T.);
#700=ORIENTED_EDGE('',*,*,#699,.F.);
#701=CARTESIAN_POINT('',(-14.754999153,-24.5,65.2000009));
#702=VERTEX_POINT('',#701);
#703=CARTESIAN_POINT('',(0.,0.,65.2000009));
#704=DIRECTION('',(0.,0.,-1.));
#705=DIRECTION('',(-0.,1.,0.));
#706=AXIS2_PLACEMENT_3D('',#703,#704,#705);
#707=CIRCLE('',#706,28.6);
#708=EDGE_CURVE('',#702,#693,#707,.T.);
#709=ORIENTED_EDGE('',*,*,#708,.F.);
#710=CARTESIAN_POINT('',(-7.5,-24.5,65.2000009));
#711=VERTEX_POINT('',#710);
#712=CARTESIAN_POINT('',(-14.754999153,-24.5,65.2000009));
#713=DIRECTION('',(1.,0.,-0.));
#714=VECTOR('',#713,7.254999153);
#715=LINE('',#712,#714);
#716=EDGE_CURVE('',#702,#711,#715,.T.);
#717=ORIENTED_EDGE('',*,*,#716,.T.);
#718=CARTESIAN_POINT('',(-7.5,-23.323807579,65.2000009));
#719=DIRECTION('',(0.,-1.,0.));
#720=VECTOR('',#719,1.176192421);
#721=LINE('',#718,#720);
#722=EDGE_CURVE('',#136,#711,#721,.T.);
#723=ORIENTED_EDGE('',*,*,#722,.F.);
#724=EDGE_LOOP('',(#683,#691,#700,#709,#717,#723));
#725=FACE_BOUND('',#724,.T.);
#726=ADVANCED_FACE('',(#682,#725),#671,.F.);
#727=CARTESIAN_POINT('',(0.,0.,65.2000009));
#728=DIRECTION('',(0.,0.,-1.));
#729=DIRECTION('',(0.,1.,0.));
#730=AXIS2_PLACEMENT_3D('',#727,#728,#729);
#731=PLANE('',#730);
#732=CARTESIAN_POINT('',(14.754999153,24.5,65.2000009));
#733=VERTEX_POINT('',#732);
#734=CARTESIAN_POINT('',(14.754999153,-24.5,65.2000009));
#735=VERTEX_POINT('',#734);
#736=CARTESIAN_POINT('',(0.,0.,65.2000009));
#737=DIRECTION('',(0.,0.,-1.));
#738=DIRECTION('',(-0.,1.,0.));
#739=AXIS2_PLACEMENT_3D('',#736,#737,#738);
#740=CIRCLE('',#739,28.6);
#741=EDGE_CURVE('',#733,#735,#740,.T.);
#742=ORIENTED_EDGE('',*,*,#741,.F.);
#743=CARTESIAN_POINT('',(0.,24.5,65.2000009));
#744=DIRECTION('',(1.,0.,-0.));
#745=VECTOR('',#744,14.754999153);
#746=LINE('',#743,#745);
#747=EDGE_CURVE('',#127,#733,#746,.T.);
#748=ORIENTED_EDGE('',*,*,#747,.F.);
#749=ORIENTED_EDGE('',*,*,#133,.T.);
#750=CARTESIAN_POINT('',(7.5,-23.323807579,65.2000009));
#751=VERTEX_POINT('',#750);
#752=CARTESIAN_POINT('',(0.,0.,65.2000009));
#753=DIRECTION('',(0.,0.,-1.));
#754=DIRECTION('',(-1.,0.,0.));
#755=AXIS2_PLACEMENT_3D('',#752,#753,#754);
#756=CIRCLE('',#755,24.5);
#757=EDGE_CURVE('',#119,#751,#756,.T.);
#758=ORIENTED_EDGE('',*,*,#757,.T.);
#759=CARTESIAN_POINT('',(7.5,-24.5,65.2000009));
#760=VERTEX_POINT('',#759);
#761=CARTESIAN_POINT('',(7.5,-24.5,65.2000009));
#762=DIRECTION('',(0.,1.,0.));
#763=VECTOR('',#762,1.176192421);
#764=LINE('',#761,#763);
#765=EDGE_CURVE('',#760,#751,#764,.T.);
#766=ORIENTED_EDGE('',*,*,#765,.F.);
#767=CARTESIAN_POINT('',(7.5,-24.5,65.2000009));
#768=DIRECTION('',(1.,0.,-0.));
#769=VECTOR('',#768,7.254999153);
#770=LINE('',#767,#769);
#771=EDGE_CURVE('',#760,#735,#770,.T.);
#772=ORIENTED_EDGE('',*,*,#771,.T.);
#773=EDGE_LOOP('',(#742,#748,#749,#758,#766,#772));
#774=FACE_BOUND('',#773,.T.);
#775=CARTESIAN_POINT('',(25.05,-0.,65.2000009));
#776=VERTEX_POINT('',#775);
#777=CARTESIAN_POINT('',(26.55,-0.,65.2000009));
#778=DIRECTION('',(0.,0.,-1.));
#779=DIRECTION('',(-1.,0.,0.));
#780=AXIS2_PLACEMENT_3D('',#777,#778,#779);
#781=CIRCLE('',#780,1.5);
#782=EDGE_CURVE('',#776,#776,#781,.T.);
#783=ORIENTED_EDGE('',*,*,#782,.T.);
#784=EDGE_LOOP('',(#783));
#785=FACE_BOUND('',#784,.T.);
#786=ADVANCED_FACE('',(#774,#785),#731,.F.);
#787=CARTESIAN_POINT('',(0.,0.,62.3000009));
#788=DIRECTION('',(0.,0.,-1.));
#789=DIRECTION('',(0.,1.,0.));
#790=AXIS2_PLACEMENT_3D('',#787,#788,#789);
#791=PLANE('',#790);
#792=CARTESIAN_POINT('',(-28.05,-0.,62.3000009));
#793=VERTEX_POINT('',#792);
#794=CARTESIAN_POINT('',(-25.05,-0.,62.3000009));
#795=VERTEX_POINT('',#794);
#796=CARTESIAN_POINT('',(-26.55,-0.,62.3000009));
#797=DIRECTION('',(0.,0.,-1.));
#798=DIRECTION('',(1.,0.,0.));
#799=AXIS2_PLACEMENT_3D('',#796,#797,#798);
#800=CIRCLE('',#799,1.5);
#801=EDGE_CURVE('',#793,#795,#800,.T.);
#802=ORIENTED_EDGE('',*,*,#801,.F.);
#803=CARTESIAN_POINT('',(-26.55,-0.,62.3000009));
#804=DIRECTION('',(0.,0.,-1.));
#805=DIRECTION('',(1.,0.,0.));
#806=AXIS2_PLACEMENT_3D('',#803,#804,#805);
#807=CIRCLE('',#806,1.5);
#808=EDGE_CURVE('',#795,#793,#807,.T.);
#809=ORIENTED_EDGE('',*,*,#808,.F.);
#810=EDGE_LOOP('',(#802,#809));
#811=FACE_BOUND('',#810,.T.);
#812=CARTESIAN_POINT('',(-14.754999153,-24.5,62.3000009));
#813=VERTEX_POINT('',#812);
#814=CARTESIAN_POINT('',(-28.6,-0.,62.3000009));
#815=VERTEX_POINT('',#814);
#816=CARTESIAN_POINT('',(0.,0.,62.3000009));
#817=DIRECTION('',(0.,0.,-1.));
#818=DIRECTION('',(-0.,1.,0.));
#819=AXIS2_PLACEMENT_3D('',#816,#817,#818);
#820=CIRCLE('',#819,28.6);
#821=EDGE_CURVE('',#813,#815,#820,.T.);
#822=ORIENTED_EDGE('',*,*,#821,.T.);
#823=CARTESIAN_POINT('',(-14.754999153,24.5,62.3000009));
#824=VERTEX_POINT('',#823);
#825=CARTESIAN_POINT('',(0.,0.,62.3000009));
#826=DIRECTION('',(0.,0.,-1.));
#827=DIRECTION('',(-0.,1.,0.));
#828=AXIS2_PLACEMENT_3D('',#825,#826,#827);
#829=CIRCLE('',#828,28.6);
#830=EDGE_CURVE('',#815,#824,#829,.T.);
#831=ORIENTED_EDGE('',*,*,#830,.T.);
#832=CARTESIAN_POINT('',(14.754999153,24.5,62.3000009));
#833=VERTEX_POINT('',#832);
#834=CARTESIAN_POINT('',(14.754999153,24.5,62.3000009));
#835=DIRECTION('',(-1.,0.,0.));
#836=VECTOR('',#835,29.509998306);
#837=LINE('',#834,#836);
#838=EDGE_CURVE('',#833,#824,#837,.T.);
#839=ORIENTED_EDGE('',*,*,#838,.F.);
#840=CARTESIAN_POINT('',(14.754999153,-24.5,62.3000009));
#841=VERTEX_POINT('',#840);
#842=CARTESIAN_POINT('',(0.,0.,62.3000009));
#843=DIRECTION('',(0.,0.,-1.));
#844=DIRECTION('',(-0.,1.,0.));
#845=AXIS2_PLACEMENT_3D('',#842,#843,#844);
#846=CIRCLE('',#845,28.6);
#847=EDGE_CURVE('',#833,#841,#846,.T.);
#848=ORIENTED_EDGE('',*,*,#847,.T.);
#849=CARTESIAN_POINT('',(7.5,-24.5,62.3000009));
#850=VERTEX_POINT('',#849);
#851=CARTESIAN_POINT('',(14.754999153,-24.5,62.3000009));
#852=DIRECTION('',(-1.,0.,0.));
#853=VECTOR('',#852,7.254999153);
#854=LINE('',#851,#853);
#855=EDGE_CURVE('',#841,#850,#854,.T.);
#856=ORIENTED_EDGE('',*,*,#855,.T.);
#857=CARTESIAN_POINT('',(7.5,-22.376550226,62.3000009));
#858=VERTEX_POINT('',#857);
#859=CARTESIAN_POINT('',(7.5,-24.5,62.3000009));
#860=DIRECTION('',(0.,1.,0.));
#861=VECTOR('',#860,2.123449774);
#862=LINE('',#859,#861);
#863=EDGE_CURVE('',#850,#858,#862,.T.);
#864=ORIENTED_EDGE('',*,*,#863,.T.);
#865=CARTESIAN_POINT('',(0.,0.,62.3000009));
#866=DIRECTION('',(0.,0.,-1.));
#867=DIRECTION('',(-1.,0.,0.));
#868=AXIS2_PLACEMENT_3D('',#865,#866,#867);
#869=CIRCLE('',#868,23.6);
#870=EDGE_CURVE('',#392,#858,#869,.T.);
#871=ORIENTED_EDGE('',*,*,#870,.F.);
#872=ORIENTED_EDGE('',*,*,#486,.F.);
#873=CARTESIAN_POINT('',(-7.5,-24.5,62.3000009));
#874=VERTEX_POINT('',#873);
#875=CARTESIAN_POINT('',(-7.5,-22.376550226,62.3000009));
#876=DIRECTION('',(0.,-1.,0.));
#877=VECTOR('',#876,2.123449774);
#878=LINE('',#875,#877);
#879=EDGE_CURVE('',#474,#874,#878,.T.);
#880=ORIENTED_EDGE('',*,*,#879,.T.);
#881=CARTESIAN_POINT('',(-7.5,-24.5,62.3000009));
#882=DIRECTION('',(-1.,0.,0.));
#883=VECTOR('',#882,7.254999153);
#884=LINE('',#881,#883);
#885=EDGE_CURVE('',#874,#813,#884,.T.);
#886=ORIENTED_EDGE('',*,*,#885,.T.);
#887=EDGE_LOOP('',(#822,#831,#839,#848,#856,#864,#871,#872,#880,#886));
#888=FACE_BOUND('',#887,.T.);
#889=CARTESIAN_POINT('',(25.05,-0.,62.3000009));
#890=VERTEX_POINT('',#889);
#891=CARTESIAN_POINT('',(28.05,-0.,62.3000009));
#892=VERTEX_POINT('',#891);
#893=CARTESIAN_POINT('',(26.55,-0.,62.3000009));
#894=DIRECTION('',(0.,0.,-1.));
#895=DIRECTION('',(1.,0.,0.));
#896=AXIS2_PLACEMENT_3D('',#893,#894,#895);
#897=CIRCLE('',#896,1.5);
#898=EDGE_CURVE('',#890,#892,#897,.T.);
#899=ORIENTED_EDGE('',*,*,#898,.F.);
#900=CARTESIAN_POINT('',(26.55,-0.,62.3000009));
#901=DIRECTION('',(0.,0.,-1.));
#902=DIRECTION('',(1.,0.,0.));
#903=AXIS2_PLACEMENT_3D('',#900,#901,#902);
#904=CIRCLE('',#903,1.5);
#905=EDGE_CURVE('',#892,#890,#904,.T.);
#906=ORIENTED_EDGE('',*,*,#905,.F.);
#907=EDGE_LOOP('',(#899,#906));
#908=FACE_BOUND('',#907,.T.);
#909=ADVANCED_FACE('',(#811,#888,#908),#791,.T.);
#910=CARTESIAN_POINT('',(12.5,24.5,61.9000009));
#911=DIRECTION('',(0.,-1.,0.));
#912=DIRECTION('',(0.,0.,-1.));
#913=AXIS2_PLACEMENT_3D('',#910,#911,#912);
#914=PLANE('',#913);
#915=CARTESIAN_POINT('',(14.754999153,24.5,62.3000009));
#916=DIRECTION('',(0.,0.,1.));
#917=VECTOR('',#916,2.9);
#918=LINE('',#915,#917);
#919=EDGE_CURVE('',#833,#733,#918,.T.);
#920=ORIENTED_EDGE('',*,*,#919,.F.);
#921=ORIENTED_EDGE('',*,*,#838,.T.);
#922=CARTESIAN_POINT('',(-14.754999153,24.5,62.3000009));
#923=DIRECTION('',(0.,0.,1.));
#924=VECTOR('',#923,2.9);
#925=LINE('',#922,#924);
#926=EDGE_CURVE('',#824,#685,#925,.T.);
#927=ORIENTED_EDGE('',*,*,#926,.T.);
#928=ORIENTED_EDGE('',*,*,#690,.T.);
#929=ORIENTED_EDGE('',*,*,#747,.T.);
#930=EDGE_LOOP('',(#920,#921,#927,#928,#929));
#931=FACE_BOUND('',#930,.T.);
#932=ADVANCED_FACE('',(#931),#914,.F.);
#933=CARTESIAN_POINT('',(8.1,-24.5,58.5000009));
#934=DIRECTION('',(0.,-1.,0.));
#935=DIRECTION('',(0.,0.,-1.));
#936=AXIS2_PLACEMENT_3D('',#933,#934,#935);
#937=PLANE('',#936);
#938=ORIENTED_EDGE('',*,*,#885,.F.);
#939=CARTESIAN_POINT('',(-7.5,-24.5,62.3000009));
#940=DIRECTION('',(0.,0.,1.));
#941=VECTOR('',#940,2.9);
#942=LINE('',#939,#941);
#943=EDGE_CURVE('',#874,#711,#942,.T.);
#944=ORIENTED_EDGE('',*,*,#943,.T.);
#945=ORIENTED_EDGE('',*,*,#716,.F.);
#946=CARTESIAN_POINT('',(-14.754999153,-24.5,62.3000009));
#947=DIRECTION('',(0.,0.,1.));
#948=VECTOR('',#947,2.9);
#949=LINE('',#946,#948);
#950=EDGE_CURVE('',#813,#702,#949,.T.);
#951=ORIENTED_EDGE('',*,*,#950,.F.);
#952=EDGE_LOOP('',(#938,#944,#945,#951));
#953=FACE_BOUND('',#952,.T.);
#954=ADVANCED_FACE('',(#953),#937,.T.);
#955=CARTESIAN_POINT('',(8.1,-24.5,58.5000009));
#956=DIRECTION('',(0.,-1.,0.));
#957=DIRECTION('',(0.,0.,-1.));
#958=AXIS2_PLACEMENT_3D('',#955,#956,#957);
#959=PLANE('',#958);
#960=ORIENTED_EDGE('',*,*,#771,.F.);
#961=CARTESIAN_POINT('',(7.5,-24.5,65.2000009));
#962=DIRECTION('',(0.,0.,-1.));
#963=VECTOR('',#962,2.9);
#964=LINE('',#961,#963);
#965=EDGE_CURVE('',#760,#850,#964,.T.);
#966=ORIENTED_EDGE('',*,*,#965,.T.);
#967=ORIENTED_EDGE('',*,*,#855,.F.);
#968=CARTESIAN_POINT('',(14.754999153,-24.5,62.3000009));
#969=DIRECTION('',(0.,0.,1.));
#970=VECTOR('',#969,2.9);
#971=LINE('',#968,#970);
#972=EDGE_CURVE('',#841,#735,#971,.T.);
#973=ORIENTED_EDGE('',*,*,#972,.T.);
#974=EDGE_LOOP('',(#960,#966,#967,#973));
#975=FACE_BOUND('',#974,.T.);
#976=ADVANCED_FACE('',(#975),#959,.T.);
#977=CARTESIAN_POINT('',(0.,0.,65.2000009));
#978=DIRECTION('',(0.,0.,-1.));
#979=DIRECTION('',(-1.,0.,0.));
#980=AXIS2_PLACEMENT_3D('',#977,#978,#979);
#981=CYLINDRICAL_SURFACE('',#980,28.6);
#982=CARTESIAN_POINT('',(-28.6,0.,62.3000009));
#983=DIRECTION('',(-0.,-0.,1.));
#984=VECTOR('',#983,2.9);
#985=LINE('',#982,#984);
#986=EDGE_CURVE('',#815,#693,#985,.T.);
#987=ORIENTED_EDGE('',*,*,#986,.T.);
#988=ORIENTED_EDGE('',*,*,#699,.T.);
#989=ORIENTED_EDGE('',*,*,#926,.F.);
#990=ORIENTED_EDGE('',*,*,#830,.F.);
#991=EDGE_LOOP('',(#987,#988,#989,#990));
#992=FACE_BOUND('',#991,.T.);
#993=ADVANCED_FACE('',(#992),#981,.T.);
#994=CARTESIAN_POINT('',(0.,0.,65.2000009));
#995=DIRECTION('',(0.,0.,-1.));
#996=DIRECTION('',(-1.,0.,0.));
#997=AXIS2_PLACEMENT_3D('',#994,#995,#996);
#998=CYLINDRICAL_SURFACE('',#997,28.6);
#999=ORIENTED_EDGE('',*,*,#972,.F.);
#1000=ORIENTED_EDGE('',*,*,#847,.F.);
#1001=ORIENTED_EDGE('',*,*,#919,.T.);
#1002=ORIENTED_EDGE('',*,*,#741,.T.);
#1003=EDGE_LOOP('',(#999,#1000,#1001,#1002));
#1004=FACE_BOUND('',#1003,.T.);
#1005=ADVANCED_FACE('',(#1004),#998,.T.);
#1006=CARTESIAN_POINT('',(0.,0.,61.9044));
#1007=DIRECTION('',(0.,0.,1.));
#1008=DIRECTION('',(1.,0.,-0.));
#1009=AXIS2_PLACEMENT_3D('',#1006,#1007,#1008);
#1010=CYLINDRICAL_SURFACE('',#1009,20.);
#1011=CARTESIAN_POINT('',(-16.363068172,-11.5,75.4044));
#1012=VERTEX_POINT('',#1011);
#1013=CARTESIAN_POINT('',(-16.363068172,-11.5,74.4044));
#1014=VERTEX_POINT('',#1013);
#1015=CARTESIAN_POINT('',(-16.363068172,-11.5,75.4044));
#1016=DIRECTION('',(-0.,-0.,-1.));
#1017=VECTOR('',#1016,1.);
#1018=LINE('',#1015,#1017);
#1019=EDGE_CURVE('',#1012,#1014,#1018,.T.);
#1020=ORIENTED_EDGE('',*,*,#1019,.F.);
#1021=CARTESIAN_POINT('',(-7.5,-18.540496218,75.4044));
#1022=VERTEX_POINT('',#1021);
#1023=CARTESIAN_POINT('',(0.,0.,75.4044));
#1024=DIRECTION('',(0.,0.,1.));
#1025=DIRECTION('',(1.,0.,-0.));
#1026=AXIS2_PLACEMENT_3D('',#1023,#1024,#1025);
#1027=CIRCLE('',#1026,20.);
#1028=EDGE_CURVE('',#1012,#1022,#1027,.T.);
#1029=ORIENTED_EDGE('',*,*,#1028,.T.);
#1030=CARTESIAN_POINT('',(-7.5,-18.540496218,74.4044));
#1031=VERTEX_POINT('',#1030);
#1032=CARTESIAN_POINT('',(-7.5,-18.540496218,75.4044));
#1033=DIRECTION('',(-0.,-0.,-1.));
#1034=VECTOR('',#1033,1.);
#1035=LINE('',#1032,#1034);
#1036=EDGE_CURVE('',#1022,#1031,#1035,.T.);
#1037=ORIENTED_EDGE('',*,*,#1036,.T.);
#1038=CARTESIAN_POINT('',(0.,0.,74.4044));
#1039=DIRECTION('',(0.,0.,-1.));
#1040=DIRECTION('',(-1.,0.,0.));
#1041=AXIS2_PLACEMENT_3D('',#1038,#1039,#1040);
#1042=CIRCLE('',#1041,20.);
#1043=EDGE_CURVE('',#1031,#1014,#1042,.T.);
#1044=ORIENTED_EDGE('',*,*,#1043,.T.);
#1045=EDGE_LOOP('',(#1020,#1029,#1037,#1044));
#1046=FACE_BOUND('',#1045,.T.);
#1047=ADVANCED_FACE('',(#1046),#1010,.F.);
#1048=CARTESIAN_POINT('',(0.,0.,75.4044));
#1049=DIRECTION('',(0.,0.,1.));
#1050=DIRECTION('',(1.,0.,0.));
#1051=AXIS2_PLACEMENT_3D('',#1048,#1049,#1050);
#1052=PLANE('',#1051);
#1053=CARTESIAN_POINT('',(-17.3,-12.7,75.4044));
#1054=VERTEX_POINT('',#1053);
#1055=CARTESIAN_POINT('',(-19.3,-12.7,75.4044));
#1056=VERTEX_POINT('',#1055);
#1057=CARTESIAN_POINT('',(-18.3,-12.7,75.4044));
#1058=DIRECTION('',(-0.,-0.,-1.));
#1059=DIRECTION('',(1.,0.,-0.));
#1060=AXIS2_PLACEMENT_3D('',#1057,#1058,#1059);
#1061=CIRCLE('',#1060,1.);
#1062=EDGE_CURVE('',#1054,#1056,#1061,.T.);
#1063=ORIENTED_EDGE('',*,*,#1062,.T.);
#1064=CARTESIAN_POINT('',(-18.3,-12.7,75.4044));
#1065=DIRECTION('',(-0.,-0.,-1.));
#1066=DIRECTION('',(1.,0.,-0.));
#1067=AXIS2_PLACEMENT_3D('',#1064,#1065,#1066);
#1068=CIRCLE('',#1067,1.);
#1069=EDGE_CURVE('',#1056,#1054,#1068,.T.);
#1070=ORIENTED_EDGE('',*,*,#1069,.T.);
#1071=EDGE_LOOP('',(#1063,#1070));
#1072=FACE_BOUND('',#1071,.T.);
#1073=CARTESIAN_POINT('',(-20.608493395,-11.5,75.4044));
#1074=DIRECTION('',(1.,0.,-0.));
#1075=VECTOR('',#1074,4.245425223);
#1076=LINE('',#1073,#1075);
#1077=EDGE_CURVE('',#448,#1012,#1076,.T.);
#1078=ORIENTED_EDGE('',*,*,#1077,.F.);
#1079=ORIENTED_EDGE('',*,*,#454,.T.);
#1080=CARTESIAN_POINT('',(-7.5,-18.540496218,75.4044));
#1081=DIRECTION('',(0.,-1.,0.));
#1082=VECTOR('',#1081,3.836054008);
#1083=LINE('',#1080,#1082);
#1084=EDGE_CURVE('',#1022,#440,#1083,.T.);
#1085=ORIENTED_EDGE('',*,*,#1084,.F.);
#1086=ORIENTED_EDGE('',*,*,#1028,.F.);
#1087=EDGE_LOOP('',(#1078,#1079,#1085,#1086));
#1088=FACE_BOUND('',#1087,.T.);
#1089=ADVANCED_FACE('',(#1072,#1088),#1052,.T.);
#1090=CARTESIAN_POINT('',(0.,0.,74.4044));
#1091=DIRECTION('',(0.,0.,-1.));
#1092=DIRECTION('',(0.,1.,0.));
#1093=AXIS2_PLACEMENT_3D('',#1090,#1091,#1092);
#1094=PLANE('',#1093);
#1095=CARTESIAN_POINT('',(-19.3,-12.7,74.4044));
#1096=VERTEX_POINT('',#1095);
#1097=CARTESIAN_POINT('',(-18.3,-12.7,74.4044));
#1098=DIRECTION('',(-0.,-0.,1.));
#1099=DIRECTION('',(-1.,0.,0.));
#1100=AXIS2_PLACEMENT_3D('',#1097,#1098,#1099);
#1101=CIRCLE('',#1100,1.);
#1102=EDGE_CURVE('',#1096,#1096,#1101,.T.);
#1103=ORIENTED_EDGE('',*,*,#1102,.T.);
#1104=EDGE_LOOP('',(#1103));
#1105=FACE_BOUND('',#1104,.T.);
#1106=CARTESIAN_POINT('',(-16.363068172,-11.5,74.4044));
#1107=DIRECTION('',(-1.,0.,0.));
#1108=VECTOR('',#1107,4.245425223);
#1109=LINE('',#1106,#1108);
#1110=EDGE_CURVE('',#1014,#457,#1109,.T.);
#1111=ORIENTED_EDGE('',*,*,#1110,.F.);
#1112=ORIENTED_EDGE('',*,*,#1043,.F.);
#1113=CARTESIAN_POINT('',(-7.5,-22.376550226,74.4044));
#1114=DIRECTION('',(0.,1.,0.));
#1115=VECTOR('',#1114,3.836054008);
#1116=LINE('',#1113,#1115);
#1117=EDGE_CURVE('',#465,#1031,#1116,.T.);
#1118=ORIENTED_EDGE('',*,*,#1117,.F.);
#1119=ORIENTED_EDGE('',*,*,#471,.T.);
#1120=EDGE_LOOP('',(#1111,#1112,#1118,#1119));
#1121=FACE_BOUND('',#1120,.T.);
#1122=ADVANCED_FACE('',(#1105,#1121),#1094,.T.);
#1123=CARTESIAN_POINT('',(0.,0.,61.9044));
#1124=DIRECTION('',(0.,0.,1.));
#1125=DIRECTION('',(1.,0.,-0.));
#1126=AXIS2_PLACEMENT_3D('',#1123,#1124,#1125);
#1127=CYLINDRICAL_SURFACE('',#1126,20.);
#1128=CARTESIAN_POINT('',(18.10386699,8.5,75.4044));
#1129=VERTEX_POINT('',#1128);
#1130=CARTESIAN_POINT('',(-17.320508076,10.,75.4044));
#1131=VERTEX_POINT('',#1130);
#1132=CARTESIAN_POINT('',(0.,0.,75.4044));
#1133=DIRECTION('',(0.,0.,1.));
#1134=DIRECTION('',(1.,0.,-0.));
#1135=AXIS2_PLACEMENT_3D('',#1132,#1133,#1134);
#1136=CIRCLE('',#1135,20.);
#1137=EDGE_CURVE('',#1129,#1131,#1136,.T.);
#1138=ORIENTED_EDGE('',*,*,#1137,.T.);
#1139=CARTESIAN_POINT('',(-17.320508076,10.,74.4044));
#1140=VERTEX_POINT('',#1139);
#1141=CARTESIAN_POINT('',(-17.320508076,10.,75.4044));
#1142=DIRECTION('',(-0.,-0.,-1.));
#1143=VECTOR('',#1142,1.);
#1144=LINE('',#1141,#1143);
#1145=EDGE_CURVE('',#1131,#1140,#1144,.T.);
#1146=ORIENTED_EDGE('',*,*,#1145,.T.);
#1147=CARTESIAN_POINT('',(18.10386699,8.5,74.4044));
#1148=VERTEX_POINT('',#1147);
#1149=CARTESIAN_POINT('',(0.,0.,74.4044));
#1150=DIRECTION('',(0.,0.,-1.));
#1151=DIRECTION('',(-1.,0.,0.));
#1152=AXIS2_PLACEMENT_3D('',#1149,#1150,#1151);
#1153=CIRCLE('',#1152,20.);
#1154=EDGE_CURVE('',#1140,#1148,#1153,.T.);
#1155=ORIENTED_EDGE('',*,*,#1154,.T.);
#1156=CARTESIAN_POINT('',(18.10386699,8.5,75.4044));
#1157=DIRECTION('',(-0.,-0.,-1.));
#1158=VECTOR('',#1157,1.);
#1159=LINE('',#1156,#1158);
#1160=EDGE_CURVE('',#1129,#1148,#1159,.T.);
#1161=ORIENTED_EDGE('',*,*,#1160,.F.);
#1162=EDGE_LOOP('',(#1138,#1146,#1155,#1161));
#1163=FACE_BOUND('',#1162,.T.);
#1164=ADVANCED_FACE('',(#1163),#1127,.F.);
#1165=CARTESIAN_POINT('',(0.,0.,75.4044));
#1166=DIRECTION('',(0.,0.,1.));
#1167=DIRECTION('',(1.,0.,0.));
#1168=AXIS2_PLACEMENT_3D('',#1165,#1166,#1167);
#1169=PLANE('',#1168);
#1170=CARTESIAN_POINT('',(17.5,15.,75.4044));
#1171=VERTEX_POINT('',#1170);
#1172=CARTESIAN_POINT('',(15.5,15.,75.4044));
#1173=VERTEX_POINT('',#1172);
#1174=CARTESIAN_POINT('',(16.5,15.,75.4044));
#1175=DIRECTION('',(-0.,-0.,-1.));
#1176=DIRECTION('',(1.,0.,-0.));
#1177=AXIS2_PLACEMENT_3D('',#1174,#1175,#1176);
#1178=CIRCLE('',#1177,1.);
#1179=EDGE_CURVE('',#1171,#1173,#1178,.T.);
#1180=ORIENTED_EDGE('',*,*,#1179,.T.);
#1181=CARTESIAN_POINT('',(16.5,15.,75.4044));
#1182=DIRECTION('',(-0.,-0.,-1.));
#1183=DIRECTION('',(1.,0.,-0.));
#1184=AXIS2_PLACEMENT_3D('',#1181,#1182,#1183);
#1185=CIRCLE('',#1184,1.);
#1186=EDGE_CURVE('',#1173,#1171,#1185,.T.);
#1187=ORIENTED_EDGE('',*,*,#1186,.T.);
#1188=EDGE_LOOP('',(#1180,#1187));
#1189=FACE_BOUND('',#1188,.T.);
#1190=CARTESIAN_POINT('',(-17.320508076,10.,75.4044));
#1191=DIRECTION('',(-1.,0.,0.));
#1192=VECTOR('',#1191,4.05611467);
#1193=LINE('',#1190,#1192);
#1194=EDGE_CURVE('',#1131,#502,#1193,.T.);
#1195=ORIENTED_EDGE('',*,*,#1194,.F.);
#1196=ORIENTED_EDGE('',*,*,#1137,.F.);
#1197=CARTESIAN_POINT('',(22.01613045,8.5,75.4044));
#1198=DIRECTION('',(-1.,0.,0.));
#1199=VECTOR('',#1198,3.91226346);
#1200=LINE('',#1197,#1199);
#1201=EDGE_CURVE('',#510,#1129,#1200,.T.);
#1202=ORIENTED_EDGE('',*,*,#1201,.F.);
#1203=ORIENTED_EDGE('',*,*,#516,.T.);
#1204=EDGE_LOOP('',(#1195,#1196,#1202,#1203));
#1205=FACE_BOUND('',#1204,.T.);
#1206=ADVANCED_FACE('',(#1189,#1205),#1169,.T.);
#1207=CARTESIAN_POINT('',(0.,0.,74.4044));
#1208=DIRECTION('',(0.,0.,-1.));
#1209=DIRECTION('',(0.,1.,0.));
#1210=AXIS2_PLACEMENT_3D('',#1207,#1208,#1209);
#1211=PLANE('',#1210);
#1212=CARTESIAN_POINT('',(15.5,15.,74.4044));
#1213=VERTEX_POINT('',#1212);
#1214=CARTESIAN_POINT('',(16.5,15.,74.4044));
#1215=DIRECTION('',(-0.,-0.,1.));
#1216=DIRECTION('',(-1.,0.,0.));
#1217=AXIS2_PLACEMENT_3D('',#1214,#1215,#1216);
#1218=CIRCLE('',#1217,1.);
#1219=EDGE_CURVE('',#1213,#1213,#1218,.T.);
#1220=ORIENTED_EDGE('',*,*,#1219,.T.);
#1221=EDGE_LOOP('',(#1220));
#1222=FACE_BOUND('',#1221,.T.);
#1223=CARTESIAN_POINT('',(-21.376622745,10.,74.4044));
#1224=DIRECTION('',(1.,0.,-0.));
#1225=VECTOR('',#1224,4.05611467);
#1226=LINE('',#1223,#1225);
#1227=EDGE_CURVE('',#491,#1140,#1226,.T.);
#1228=ORIENTED_EDGE('',*,*,#1227,.F.);
#1229=ORIENTED_EDGE('',*,*,#499,.T.);
#1230=CARTESIAN_POINT('',(18.10386699,8.5,74.4044));
#1231=DIRECTION('',(1.,0.,-0.));
#1232=VECTOR('',#1231,3.91226346);
#1233=LINE('',#1230,#1232);
#1234=EDGE_CURVE('',#1148,#493,#1233,.T.);
#1235=ORIENTED_EDGE('',*,*,#1234,.F.);
#1236=ORIENTED_EDGE('',*,*,#1154,.F.);
#1237=EDGE_LOOP('',(#1228,#1229,#1235,#1236));
#1238=FACE_BOUND('',#1237,.T.);
#1239=ADVANCED_FACE('',(#1222,#1238),#1211,.T.);
#1240=CARTESIAN_POINT('',(26.55,-0.,71.4000009));
#1241=DIRECTION('',(0.,0.,-1.));
#1242=DIRECTION('',(-1.,0.,0.));
#1243=AXIS2_PLACEMENT_3D('',#1240,#1241,#1242);
#1244=CYLINDRICAL_SURFACE('',#1243,1.5);
#1245=CARTESIAN_POINT('',(25.05,-0.,62.3000009));
#1246=DIRECTION('',(-0.,-0.,1.));
#1247=VECTOR('',#1246,2.9);
#1248=LINE('',#1245,#1247);
#1249=EDGE_CURVE('',#890,#776,#1248,.T.);
#1250=ORIENTED_EDGE('',*,*,#1249,.F.);
#1251=ORIENTED_EDGE('',*,*,#898,.T.);
#1252=ORIENTED_EDGE('',*,*,#905,.T.);
#1253=ORIENTED_EDGE('',*,*,#1249,.T.);
#1254=ORIENTED_EDGE('',*,*,#782,.F.);
#1255=EDGE_LOOP('',(#1250,#1251,#1252,#1253,#1254));
#1256=FACE_BOUND('',#1255,.T.);
#1257=ADVANCED_FACE('',(#1256),#1244,.F.);
#1258=CARTESIAN_POINT('',(-26.55,-0.,68.2000009));
#1259=DIRECTION('',(0.,0.,-1.));
#1260=DIRECTION('',(-1.,0.,0.));
#1261=AXIS2_PLACEMENT_3D('',#1258,#1259,#1260);
#1262=CYLINDRICAL_SURFACE('',#1261,1.5);
#1263=CARTESIAN_POINT('',(-28.05,-0.,62.3000009));
#1264=DIRECTION('',(-0.,-0.,1.));
#1265=VECTOR('',#1264,2.9);
#1266=LINE('',#1263,#1265);
#1267=EDGE_CURVE('',#793,#673,#1266,.T.);
#1268=ORIENTED_EDGE('',*,*,#1267,.F.);
#1269=ORIENTED_EDGE('',*,*,#801,.T.);
#1270=ORIENTED_EDGE('',*,*,#808,.T.);
#1271=ORIENTED_EDGE('',*,*,#1267,.T.);
#1272=ORIENTED_EDGE('',*,*,#679,.F.);
#1273=EDGE_LOOP('',(#1268,#1269,#1270,#1271,#1272));
#1274=FACE_BOUND('',#1273,.T.);
#1275=ADVANCED_FACE('',(#1274),#1262,.F.);
#1276=CARTESIAN_POINT('',(0.,0.,75.4044));
#1277=DIRECTION('',(0.,0.,1.));
#1278=DIRECTION('',(1.,0.,0.));
#1279=AXIS2_PLACEMENT_3D('',#1276,#1277,#1278);
#1280=PLANE('',#1279);
#1281=CARTESIAN_POINT('',(18.10386699,-8.5,75.4044));
#1282=VERTEX_POINT('',#1281);
#1283=CARTESIAN_POINT('',(22.01613045,-8.5,75.4044));
#1284=VERTEX_POINT('',#1283);
#1285=CARTESIAN_POINT('',(18.10386699,-8.5,75.4044));
#1286=DIRECTION('',(1.,0.,-0.));
#1287=VECTOR('',#1286,3.91226346);
#1288=LINE('',#1285,#1287);
#1289=EDGE_CURVE('',#1282,#1284,#1288,.T.);
#1290=ORIENTED_EDGE('',*,*,#1289,.F.);
#1291=CARTESIAN_POINT('',(7.5,-18.540496218,75.4044));
#1292=VERTEX_POINT('',#1291);
#1293=CARTESIAN_POINT('',(0.,0.,75.4044));
#1294=DIRECTION('',(0.,0.,1.));
#1295=DIRECTION('',(1.,0.,-0.));
#1296=AXIS2_PLACEMENT_3D('',#1293,#1294,#1295);
#1297=CIRCLE('',#1296,20.);
#1298=EDGE_CURVE('',#1292,#1282,#1297,.T.);
#1299=ORIENTED_EDGE('',*,*,#1298,.F.);
#1300=CARTESIAN_POINT('',(7.5,-22.376550226,75.4044));
#1301=VERTEX_POINT('',#1300);
#1302=CARTESIAN_POINT('',(7.5,-22.376550226,75.4044));
#1303=DIRECTION('',(0.,1.,0.));
#1304=VECTOR('',#1303,3.836054008);
#1305=LINE('',#1302,#1304);
#1306=EDGE_CURVE('',#1301,#1292,#1305,.T.);
#1307=ORIENTED_EDGE('',*,*,#1306,.F.);
#1308=CARTESIAN_POINT('',(0.,0.,75.4044));
#1309=DIRECTION('',(0.,0.,1.));
#1310=DIRECTION('',(1.,0.,-0.));
#1311=AXIS2_PLACEMENT_3D('',#1308,#1309,#1310);
#1312=CIRCLE('',#1311,23.6);
#1313=EDGE_CURVE('',#1301,#1284,#1312,.T.);
#1314=ORIENTED_EDGE('',*,*,#1313,.T.);
#1315=EDGE_LOOP('',(#1290,#1299,#1307,#1314));
#1316=FACE_BOUND('',#1315,.T.);
#1317=ADVANCED_FACE('',(#1316),#1280,.T.);
#1318=CARTESIAN_POINT('',(0.,0.,74.4044));
#1319=DIRECTION('',(0.,0.,-1.));
#1320=DIRECTION('',(0.,1.,0.));
#1321=AXIS2_PLACEMENT_3D('',#1318,#1319,#1320);
#1322=PLANE('',#1321);
#1323=CARTESIAN_POINT('',(22.01613045,-8.5,74.4044));
#1324=VERTEX_POINT('',#1323);
#1325=CARTESIAN_POINT('',(18.10386699,-8.5,74.4044));
#1326=VERTEX_POINT('',#1325);
#1327=CARTESIAN_POINT('',(22.01613045,-8.5,74.4044));
#1328=DIRECTION('',(-1.,0.,0.));
#1329=VECTOR('',#1328,3.91226346);
#1330=LINE('',#1327,#1329);
#1331=EDGE_CURVE('',#1324,#1326,#1330,.T.);
#1332=ORIENTED_EDGE('',*,*,#1331,.F.);
#1333=CARTESIAN_POINT('',(7.5,-22.376550226,74.4044));
#1334=VERTEX_POINT('',#1333);
#1335=CARTESIAN_POINT('',(0.,0.,74.4044));
#1336=DIRECTION('',(0.,0.,-1.));
#1337=DIRECTION('',(-1.,0.,0.));
#1338=AXIS2_PLACEMENT_3D('',#1335,#1336,#1337);
#1339=CIRCLE('',#1338,23.6);
#1340=EDGE_CURVE('',#1324,#1334,#1339,.T.);
#1341=ORIENTED_EDGE('',*,*,#1340,.T.);
#1342=CARTESIAN_POINT('',(7.5,-18.540496218,74.4044));
#1343=VERTEX_POINT('',#1342);
#1344=CARTESIAN_POINT('',(7.5,-18.540496218,74.4044));
#1345=DIRECTION('',(0.,-1.,0.));
#1346=VECTOR('',#1345,3.836054008);
#1347=LINE('',#1344,#1346);
#1348=EDGE_CURVE('',#1343,#1334,#1347,.T.);
#1349=ORIENTED_EDGE('',*,*,#1348,.F.);
#1350=CARTESIAN_POINT('',(0.,0.,74.4044));
#1351=DIRECTION('',(0.,0.,-1.));
#1352=DIRECTION('',(-1.,0.,0.));
#1353=AXIS2_PLACEMENT_3D('',#1350,#1351,#1352);
#1354=CIRCLE('',#1353,20.);
#1355=EDGE_CURVE('',#1326,#1343,#1354,.T.);
#1356=ORIENTED_EDGE('',*,*,#1355,.F.);
#1357=EDGE_LOOP('',(#1332,#1341,#1349,#1356));
#1358=FACE_BOUND('',#1357,.T.);
#1359=ADVANCED_FACE('',(#1358),#1322,.T.);
#1360=CARTESIAN_POINT('',(0.,0.,61.9044));
#1361=DIRECTION('',(0.,0.,1.));
#1362=DIRECTION('',(1.,0.,-0.));
#1363=AXIS2_PLACEMENT_3D('',#1360,#1361,#1362);
#1364=CYLINDRICAL_SURFACE('',#1363,20.);
#1365=ORIENTED_EDGE('',*,*,#1298,.T.);
#1366=CARTESIAN_POINT('',(18.10386699,-8.5,75.4044));
#1367=DIRECTION('',(-0.,-0.,-1.));
#1368=VECTOR('',#1367,1.);
#1369=LINE('',#1366,#1368);
#1370=EDGE_CURVE('',#1282,#1326,#1369,.T.);
#1371=ORIENTED_EDGE('',*,*,#1370,.T.);
#1372=ORIENTED_EDGE('',*,*,#1355,.T.);
#1373=CARTESIAN_POINT('',(7.5,-18.540496218,75.4044));
#1374=DIRECTION('',(-0.,-0.,-1.));
#1375=VECTOR('',#1374,1.);
#1376=LINE('',#1373,#1375);
#1377=EDGE_CURVE('',#1292,#1343,#1376,.T.);
#1378=ORIENTED_EDGE('',*,*,#1377,.F.);
#1379=EDGE_LOOP('',(#1365,#1371,#1372,#1378));
#1380=FACE_BOUND('',#1379,.T.);
#1381=ADVANCED_FACE('',(#1380),#1364,.F.);
#1382=CARTESIAN_POINT('',(7.5,-21.076762301,80.3044));
#1383=DIRECTION('',(1.,0.,0.));
#1384=DIRECTION('',(0.,0.,-1.));
#1385=AXIS2_PLACEMENT_3D('',#1382,#1383,#1384);
#1386=PLANE('',#1385);
#1387=ORIENTED_EDGE('',*,*,#1306,.T.);
#1388=ORIENTED_EDGE('',*,*,#1377,.T.);
#1389=ORIENTED_EDGE('',*,*,#1348,.T.);
#1390=CARTESIAN_POINT('',(7.5,-22.376550226,74.4044));
#1391=DIRECTION('',(-0.,-0.,-1.));
#1392=VECTOR('',#1391,12.1043991);
#1393=LINE('',#1390,#1392);
#1394=EDGE_CURVE('',#1334,#858,#1393,.T.);
#1395=ORIENTED_EDGE('',*,*,#1394,.T.);
#1396=ORIENTED_EDGE('',*,*,#863,.F.);
#1397=ORIENTED_EDGE('',*,*,#965,.F.);
#1398=ORIENTED_EDGE('',*,*,#765,.T.);
#1399=CARTESIAN_POINT('',(7.5,-23.323807579,65.2000009));
#1400=DIRECTION('',(0.,0.,1.));
#1401=VECTOR('',#1400,11.4);
#1402=LINE('',#1399,#1401);
#1403=EDGE_CURVE('',#751,#348,#1402,.T.);
#1404=ORIENTED_EDGE('',*,*,#1403,.T.);
#1405=ORIENTED_EDGE('',*,*,#379,.F.);
#1406=CARTESIAN_POINT('',(7.5,-22.376550226,76.6000009));
#1407=DIRECTION('',(-0.,-0.,-1.));
#1408=VECTOR('',#1407,1.1956009);
#1409=LINE('',#1406,#1408);
#1410=EDGE_CURVE('',#367,#1301,#1409,.T.);
#1411=ORIENTED_EDGE('',*,*,#1410,.T.);
#1412=EDGE_LOOP('',(#1387,#1388,#1389,#1395,#1396,#1397,#1398,#1404,#1405,#1411));
#1413=FACE_BOUND('',#1412,.T.);
#1414=ADVANCED_FACE('',(#1413),#1386,.F.);
#1415=CARTESIAN_POINT('',(-7.5,-21.076762301,80.3044));
#1416=DIRECTION('',(-1.,0.,0.));
#1417=DIRECTION('',(0.,0.,1.));
#1418=AXIS2_PLACEMENT_3D('',#1415,#1416,#1417);
#1419=PLANE('',#1418);
#1420=ORIENTED_EDGE('',*,*,#1084,.T.);
#1421=ORIENTED_EDGE('',*,*,#445,.T.);
#1422=ORIENTED_EDGE('',*,*,#106,.F.);
#1423=ORIENTED_EDGE('',*,*,#148,.F.);
#1424=ORIENTED_EDGE('',*,*,#722,.T.);
#1425=ORIENTED_EDGE('',*,*,#943,.F.);
#1426=ORIENTED_EDGE('',*,*,#879,.F.);
#1427=ORIENTED_EDGE('',*,*,#479,.T.);
#1428=ORIENTED_EDGE('',*,*,#1117,.T.);
#1429=ORIENTED_EDGE('',*,*,#1036,.F.);
#1430=EDGE_LOOP('',(#1420,#1421,#1422,#1423,#1424,#1425,#1426,#1427,#1428,#1429));
#1431=FACE_BOUND('',#1430,.T.);
#1432=ADVANCED_FACE('',(#1431),#1419,.F.);
#1433=CARTESIAN_POINT('',(20.692424502,8.5,83.3044));
#1434=DIRECTION('',(0.,1.,0.));
#1435=DIRECTION('',(0.,0.,1.));
#1436=AXIS2_PLACEMENT_3D('',#1433,#1434,#1435);
#1437=PLANE('',#1436);
#1438=ORIENTED_EDGE('',*,*,#1201,.T.);
#1439=ORIENTED_EDGE('',*,*,#1160,.T.);
#1440=ORIENTED_EDGE('',*,*,#1234,.T.);
#1441=ORIENTED_EDGE('',*,*,#522,.F.);
#1442=EDGE_LOOP('',(#1438,#1439,#1440,#1441));
#1443=FACE_BOUND('',#1442,.T.);
#1444=ADVANCED_FACE('',(#1443),#1437,.F.);
#1445=CARTESIAN_POINT('',(20.692424502,-8.5,83.3044));
#1446=DIRECTION('',(0.,-1.,0.));
#1447=DIRECTION('',(0.,0.,-1.));
#1448=AXIS2_PLACEMENT_3D('',#1445,#1446,#1447);
#1449=PLANE('',#1448);
#1450=ORIENTED_EDGE('',*,*,#1289,.T.);
#1451=CARTESIAN_POINT('',(22.01613045,-8.5,75.4044));
#1452=DIRECTION('',(-0.,-0.,-1.));
#1453=VECTOR('',#1452,1.);
#1454=LINE('',#1451,#1453);
#1455=EDGE_CURVE('',#1284,#1324,#1454,.T.);
#1456=ORIENTED_EDGE('',*,*,#1455,.T.);
#1457=ORIENTED_EDGE('',*,*,#1331,.T.);
#1458=ORIENTED_EDGE('',*,*,#1370,.F.);
#1459=EDGE_LOOP('',(#1450,#1456,#1457,#1458));
#1460=FACE_BOUND('',#1459,.T.);
#1461=ADVANCED_FACE('',(#1460),#1449,.F.);
#1462=CARTESIAN_POINT('',(-20.692424502,-11.5,83.3044));
#1463=DIRECTION('',(0.,-1.,0.));
#1464=DIRECTION('',(0.,0.,-1.));
#1465=AXIS2_PLACEMENT_3D('',#1462,#1463,#1464);
#1466=PLANE('',#1465);
#1467=ORIENTED_EDGE('',*,*,#1077,.T.);
#1468=ORIENTED_EDGE('',*,*,#1019,.T.);
#1469=ORIENTED_EDGE('',*,*,#1110,.T.);
#1470=ORIENTED_EDGE('',*,*,#462,.F.);
#1471=EDGE_LOOP('',(#1467,#1468,#1469,#1470));
#1472=FACE_BOUND('',#1471,.T.);
#1473=ADVANCED_FACE('',(#1472),#1466,.F.);
#1474=CARTESIAN_POINT('',(-20.692424502,10.,83.3044));
#1475=DIRECTION('',(0.,1.,0.));
#1476=DIRECTION('',(0.,0.,1.));
#1477=AXIS2_PLACEMENT_3D('',#1474,#1475,#1476);
#1478=PLANE('',#1477);
#1479=ORIENTED_EDGE('',*,*,#1194,.T.);
#1480=ORIENTED_EDGE('',*,*,#507,.T.);
#1481=ORIENTED_EDGE('',*,*,#1227,.T.);
#1482=ORIENTED_EDGE('',*,*,#1145,.F.);
#1483=EDGE_LOOP('',(#1479,#1480,#1481,#1482));
#1484=FACE_BOUND('',#1483,.T.);
#1485=ADVANCED_FACE('',(#1484),#1478,.F.);
#1486=CARTESIAN_POINT('',(-18.3,-12.7,89.));
#1487=DIRECTION('',(0.,0.,-1.));
#1488=DIRECTION('',(-1.,0.,0.));
#1489=AXIS2_PLACEMENT_3D('',#1486,#1487,#1488);
#1490=CYLINDRICAL_SURFACE('',#1489,1.);
#1491=CARTESIAN_POINT('',(-19.3,-12.7,74.4044));
#1492=DIRECTION('',(-0.,-0.,1.));
#1493=VECTOR('',#1492,1.);
#1494=LINE('',#1491,#1493);
#1495=EDGE_CURVE('',#1096,#1056,#1494,.T.);
#1496=ORIENTED_EDGE('',*,*,#1495,.F.);
#1497=ORIENTED_EDGE('',*,*,#1102,.F.);
#1498=ORIENTED_EDGE('',*,*,#1495,.T.);
#1499=ORIENTED_EDGE('',*,*,#1062,.F.);
#1500=ORIENTED_EDGE('',*,*,#1069,.F.);
#1501=EDGE_LOOP('',(#1496,#1497,#1498,#1499,#1500));
#1502=FACE_BOUND('',#1501,.T.);
#1503=ADVANCED_FACE('',(#1502),#1490,.F.);
#1504=CARTESIAN_POINT('',(16.5,15.,89.));
#1505=DIRECTION('',(0.,0.,-1.));
#1506=DIRECTION('',(-1.,0.,0.));
#1507=AXIS2_PLACEMENT_3D('',#1504,#1505,#1506);
#1508=CYLINDRICAL_SURFACE('',#1507,1.);
#1509=CARTESIAN_POINT('',(15.5,15.,74.4044));
#1510=DIRECTION('',(-0.,-0.,1.));
#1511=VECTOR('',#1510,1.);
#1512=LINE('',#1509,#1511);
#1513=EDGE_CURVE('',#1213,#1173,#1512,.T.);
#1514=ORIENTED_EDGE('',*,*,#1513,.F.);
#1515=ORIENTED_EDGE('',*,*,#1219,.F.);
#1516=ORIENTED_EDGE('',*,*,#1513,.T.);
#1517=ORIENTED_EDGE('',*,*,#1179,.F.);
#1518=ORIENTED_EDGE('',*,*,#1186,.F.);
#1519=EDGE_LOOP('',(#1514,#1515,#1516,#1517,#1518));
#1520=FACE_BOUND('',#1519,.T.);
#1521=ADVANCED_FACE('',(#1520),#1508,.F.);
#1522=CARTESIAN_POINT('',(2.700000369,24.350769967,68.7));
#1523=CARTESIAN_POINT('',(2.700000369,23.157170747,68.7));
#1524=CARTESIAN_POINT('',(3.462262499,24.350769967,68.7));
#1525=CARTESIAN_POINT('',(3.462262499,23.157170747,68.7));
#1526=CARTESIAN_POINT('',(4.135018188,24.350769967,69.064205378));
#1527=CARTESIAN_POINT('',(4.135018188,23.157170747,69.064205378));
#1528=CARTESIAN_POINT('',(4.550323396,24.350769967,69.709913997));
#1529=CARTESIAN_POINT('',(4.550323396,23.157170747,69.709913997));
#1530=CARTESIAN_POINT('',(4.550323949,24.350769967,69.709914857));
#1531=CARTESIAN_POINT('',(4.550323949,23.157170747,69.709914857));
#1532=CARTESIAN_POINT('',(4.550324502,24.350769967,69.709915716));
#1533=CARTESIAN_POINT('',(4.550324502,23.157170747,69.709915716));
#1534=CARTESIAN_POINT('',(4.550325055,24.350769967,69.709916576));
#1535=CARTESIAN_POINT('',(4.550325055,23.157170747,69.709916576));
#1536=(BOUNDED_SURFACE()
B_SPLINE_SURFACE(3,1,((#1522,#1523),(#1524,#1525),(#1526,#1527),(#1528,#1529),(#1530,#1531),(#1532,#1533),(#1534,#1535)),.UNSPECIFIED.,.F.,.F.,.U.)
B_SPLINE_SURFACE_WITH_KNOTS((4,3,4),(2,2),(0.,0.925397211,0.925398544),(0.435016938,0.462710656),.UNSPECIFIED.)
GEOMETRIC_REPRESENTATION_ITEM()
RATIONAL_B_SPLINE_SURFACE(((1.,1.),(0.912770765,0.912770765),(0.906263221,0.906263221),(0.980477367,0.980477367),(0.980477367,0.980477367),(0.980477367,0.980477367),(0.980477367,0.980477367)))
REPRESENTATION_ITEM('')
SURFACE()
);
#1537=ORIENTED_EDGE('',*,*,#219,.T.);
#1538=CARTESIAN_POINT('',(2.700000369,24.350769967,68.7));
#1539=DIRECTION('',(0.,-1.,0.));
#1540=VECTOR('',#1539,0.90572789);
#1541=LINE('',#1538,#1540);
#1542=EDGE_CURVE('',#195,#565,#1541,.T.);
#1543=ORIENTED_EDGE('',*,*,#1542,.T.);
#1544=ORIENTED_EDGE('',*,*,#574,.F.);
#1545=CARTESIAN_POINT('',(4.550323396,24.073731366,69.709913997));
#1546=DIRECTION('',(0.,-1.,0.));
#1547=VECTOR('',#1546,0.916560664);
#1548=LINE('',#1545,#1547);
#1549=EDGE_CURVE('',#204,#527,#1548,.T.);
#1550=ORIENTED_EDGE('',*,*,#1549,.F.);
#1551=EDGE_LOOP('',(#1537,#1543,#1544,#1550));
#1552=FACE_BOUND('',#1551,.T.);
#1553=ADVANCED_FACE('',(#1552),#1536,.F.);
#1554=CARTESIAN_POINT('',(0.000000369,43.1,68.7));
#1555=DIRECTION('',(0.,0.,1.));
#1556=DIRECTION('',(1.,0.,0.));
#1557=AXIS2_PLACEMENT_3D('',#1554,#1555,#1556);
#1558=PLANE('',#1557);
#1559=CARTESIAN_POINT('',(-2.699999631,24.350770049,68.7));
#1560=DIRECTION('',(0.,-1.,0.));
#1561=VECTOR('',#1560,0.905727887);
#1562=LINE('',#1559,#1561);
#1563=EDGE_CURVE('',#193,#577,#1562,.T.);
#1564=ORIENTED_EDGE('',*,*,#1563,.T.);
#1565=ORIENTED_EDGE('',*,*,#583,.T.);
#1566=ORIENTED_EDGE('',*,*,#1542,.F.);
#1567=ORIENTED_EDGE('',*,*,#201,.F.);
#1568=EDGE_LOOP('',(#1564,#1565,#1566,#1567));
#1569=FACE_BOUND('',#1568,.T.);
#1570=ADVANCED_FACE('',(#1569),#1558,.T.);
#1571=CARTESIAN_POINT('',(-4.550324546,24.350770049,69.709916932));
#1572=CARTESIAN_POINT('',(-4.550324546,23.157170805,69.709916932));
#1573=CARTESIAN_POINT('',(-4.550323994,24.350770049,69.709916073));
#1574=CARTESIAN_POINT('',(-4.550323994,23.157170805,69.709916073));
#1575=CARTESIAN_POINT('',(-4.550323441,24.350770049,69.709915214));
#1576=CARTESIAN_POINT('',(-4.550323441,23.157170805,69.709915214));
#1577=CARTESIAN_POINT('',(-4.550322888,24.350770049,69.709914354));
#1578=CARTESIAN_POINT('',(-4.550322888,23.157170805,69.709914354));
#1579=CARTESIAN_POINT('',(-4.135017721,24.350770049,69.064205525));
#1580=CARTESIAN_POINT('',(-4.135017721,23.157170805,69.064205525));
#1581=CARTESIAN_POINT('',(-3.462261928,24.350770049,68.7));
#1582=CARTESIAN_POINT('',(-3.462261928,23.157170805,68.7));
#1583=CARTESIAN_POINT('',(-2.699999631,24.350770049,68.7));
#1584=CARTESIAN_POINT('',(-2.699999631,23.157170805,68.7));
#1585=(BOUNDED_SURFACE()
B_SPLINE_SURFACE(3,1,((#1571,#1572),(#1573,#1574),(#1575,#1576),(#1577,#1578),(#1579,#1580),(#1581,#1582),(#1583,#1584)),.UNSPECIFIED.,.F.,.F.,.U.)
B_SPLINE_SURFACE_WITH_KNOTS((4,3,4),(2,2),(0.074601266,0.074602598,1.),(0.435016936,0.462710654),.UNSPECIFIED.)
GEOMETRIC_REPRESENTATION_ITEM()
RATIONAL_B_SPLINE_SURFACE(((0.980477413,0.980477413),(0.980477413,0.980477413),(0.980477413,0.980477413),(0.980477413,0.980477413),(0.906263219,0.906263219),(0.912770748,0.912770748),(1.,1.)))
REPRESENTATION_ITEM('')
SURFACE()
);
#1586=ORIENTED_EDGE('',*,*,#337,.T.);
#1587=CARTESIAN_POINT('',(-4.550322888,24.073731462,69.709914354));
#1588=DIRECTION('',(0.,-1.,0.));
#1589=VECTOR('',#1588,0.916560657);
#1590=LINE('',#1587,#1589);
#1591=EDGE_CURVE('',#291,#586,#1590,.T.);
#1592=ORIENTED_EDGE('',*,*,#1591,.T.);
#1593=ORIENTED_EDGE('',*,*,#601,.F.);
#1594=ORIENTED_EDGE('',*,*,#1563,.F.);
#1595=EDGE_LOOP('',(#1586,#1592,#1593,#1594));
#1596=FACE_BOUND('',#1595,.T.);
#1597=ADVANCED_FACE('',(#1596),#1585,.F.);
#1598=CARTESIAN_POINT('',(-2.699999631,43.1,70.9));
#1599=DIRECTION('',(0.,-1.,0.));
#1600=DIRECTION('',(0.,0.,-1.));
#1601=AXIS2_PLACEMENT_3D('',#1598,#1599,#1600);
#1602=CYLINDRICAL_SURFACE('',#1601,2.2);
#1603=CARTESIAN_POINT('',(-3.715033331,24.216699349,72.851846968));
#1604=DIRECTION('',(0.,-1.,0.));
#1605=VECTOR('',#1604,0.910938135);
#1606=LINE('',#1603,#1605);
#1607=EDGE_CURVE('',#279,#604,#1606,.T.);
#1608=ORIENTED_EDGE('',*,*,#1607,.T.);
#1609=ORIENTED_EDGE('',*,*,#634,.T.);
#1610=ORIENTED_EDGE('',*,*,#1591,.F.);
#1611=ORIENTED_EDGE('',*,*,#321,.F.);
#1612=EDGE_LOOP('',(#1608,#1609,#1610,#1611));
#1613=FACE_BOUND('',#1612,.T.);
#1614=ADVANCED_FACE('',(#1613),#1602,.F.);
#1615=CARTESIAN_POINT('',(-3.715033331,24.350770049,72.851846968));
#1616=CARTESIAN_POINT('',(-3.715033331,23.305762138,72.851846968));
#1617=CARTESIAN_POINT('',(-3.399279725,24.350770049,73.016050698));
#1618=CARTESIAN_POINT('',(-3.399279725,23.305762138,73.016050698));
#1619=CARTESIAN_POINT('',(-3.054262828,24.350770049,73.1));
#1620=CARTESIAN_POINT('',(-3.054262828,23.305762138,73.1));
#1621=CARTESIAN_POINT('',(-2.699999631,24.350770049,73.1));
#1622=CARTESIAN_POINT('',(-2.699999631,23.305762138,73.1));
#1623=(BOUNDED_SURFACE()
B_SPLINE_SURFACE(3,1,((#1615,#1616),(#1617,#1618),(#1619,#1620),(#1621,#1622)),.UNSPECIFIED.,.F.,.F.,.U.)
B_SPLINE_SURFACE_WITH_KNOTS((4,4),(2,2),(0.191311678,1.),(0.435016936,0.459263059),.UNSPECIFIED.)
GEOMETRIC_REPRESENTATION_ITEM()
RATIONAL_B_SPLINE_SURFACE(((0.98654478,0.98654478),(0.972071123,0.972071123),(0.976556197,0.976556197),(1.,1.)))
REPRESENTATION_ITEM('')
SURFACE()
);
#1624=CARTESIAN_POINT('',(-2.699999631,24.350770049,73.1));
#1625=DIRECTION('',(0.,-1.,0.));
#1626=VECTOR('',#1625,0.905727887);
#1627=LINE('',#1624,#1626);
#1628=EDGE_CURVE('',#270,#637,#1627,.T.);
#1629=ORIENTED_EDGE('',*,*,#1628,.T.);
#1630=ORIENTED_EDGE('',*,*,#646,.T.);
#1631=ORIENTED_EDGE('',*,*,#1607,.F.);
#1632=ORIENTED_EDGE('',*,*,#288,.F.);
#1633=EDGE_LOOP('',(#1629,#1630,#1631,#1632));
#1634=FACE_BOUND('',#1633,.T.);
#1635=ADVANCED_FACE('',(#1634),#1623,.T.);
#1636=CARTESIAN_POINT('',(0.000000369,43.1,73.1));
#1637=DIRECTION('',(0.,0.,1.));
#1638=DIRECTION('',(1.,0.,0.));
#1639=AXIS2_PLACEMENT_3D('',#1636,#1637,#1638);
#1640=PLANE('',#1639);
#1641=ORIENTED_EDGE('',*,*,#276,.T.);
#1642=CARTESIAN_POINT('',(2.700000369,24.350769967,73.1));
#1643=DIRECTION('',(0.,-1.,0.));
#1644=VECTOR('',#1643,0.90572789);
#1645=LINE('',#1642,#1644);
#1646=EDGE_CURVE('',#258,#649,#1645,.T.);
#1647=ORIENTED_EDGE('',*,*,#1646,.T.);
#1648=ORIENTED_EDGE('',*,*,#655,.F.);
#1649=ORIENTED_EDGE('',*,*,#1628,.F.);
#1650=EDGE_LOOP('',(#1641,#1647,#1648,#1649));
#1651=FACE_BOUND('',#1650,.T.);
#1652=ADVANCED_FACE('',(#1651),#1640,.F.);
#1653=CARTESIAN_POINT('',(2.700000369,24.350769967,73.1));
#1654=CARTESIAN_POINT('',(2.700000369,23.305761055,73.1));
#1655=CARTESIAN_POINT('',(3.054263667,24.350769967,73.1));
#1656=CARTESIAN_POINT('',(3.054263667,23.305761055,73.1));
#1657=CARTESIAN_POINT('',(3.399280656,24.350769967,73.016050651));
#1658=CARTESIAN_POINT('',(3.399280656,23.305761055,73.016050651));
#1659=CARTESIAN_POINT('',(3.715034329,24.350769967,72.851846833));
#1660=CARTESIAN_POINT('',(3.715034329,23.305761055,72.851846833));
#1661=(BOUNDED_SURFACE()
B_SPLINE_SURFACE(3,1,((#1653,#1654),(#1655,#1656),(#1657,#1658),(#1659,#1660)),.UNSPECIFIED.,.F.,.F.,.U.)
B_SPLINE_SURFACE_WITH_KNOTS((4,4),(2,2),(0.,0.808688548),(0.435016938,0.459263085),.UNSPECIFIED.)
GEOMETRIC_REPRESENTATION_ITEM()
RATIONAL_B_SPLINE_SURFACE(((1.,1.),(0.97655619,0.97655619),(0.972071121,0.972071121),(0.986544792,0.986544792)))
REPRESENTATION_ITEM('')
SURFACE()
);
#1662=CARTESIAN_POINT('',(3.715034329,24.216699196,72.851846833));
#1663=DIRECTION('',(0.,-1.,0.));
#1664=VECTOR('',#1663,0.910938141);
#1665=LINE('',#1662,#1664);
#1666=EDGE_CURVE('',#222,#529,#1665,.T.);
#1667=ORIENTED_EDGE('',*,*,#1666,.T.);
#1668=ORIENTED_EDGE('',*,*,#662,.T.);
#1669=ORIENTED_EDGE('',*,*,#1646,.F.);
#1670=ORIENTED_EDGE('',*,*,#267,.F.);
#1671=EDGE_LOOP('',(#1667,#1668,#1669,#1670));
#1672=FACE_BOUND('',#1671,.T.);
#1673=ADVANCED_FACE('',(#1672),#1661,.T.);
#1674=CARTESIAN_POINT('',(2.700000369,43.1,70.9));
#1675=DIRECTION('',(0.,-1.,0.));
#1676=DIRECTION('',(0.,0.,-1.));
#1677=AXIS2_PLACEMENT_3D('',#1674,#1675,#1676);
#1678=CYLINDRICAL_SURFACE('',#1677,2.2);
#1679=ORIENTED_EDGE('',*,*,#1549,.T.);
#1680=ORIENTED_EDGE('',*,*,#562,.T.);
#1681=ORIENTED_EDGE('',*,*,#1666,.F.);
#1682=ORIENTED_EDGE('',*,*,#255,.F.);
#1683=EDGE_LOOP('',(#1679,#1680,#1681,#1682));
#1684=FACE_BOUND('',#1683,.T.);
#1685=ADVANCED_FACE('',(#1684),#1678,.F.);
#1686=CARTESIAN_POINT('',(0.,-7.5,75.3000009));
#1687=DIRECTION('',(-0.,1.,0.));
#1688=DIRECTION('',(-1.,-0.,0.));
#1689=AXIS2_PLACEMENT_3D('',#1686,#1687,#1688);
#1690=PLANE('',#1689);
#1691=ORIENTED_EDGE('',*,*,#364,.F.);
#1692=CARTESIAN_POINT('',(23.323807579,-7.5,75.3000009));
#1693=VERTEX_POINT('',#1692);
#1694=CARTESIAN_POINT('',(23.323807579,-7.5,75.3000009));
#1695=DIRECTION('',(0.,0.,1.));
#1696=VECTOR('',#1695,1.3);
#1697=LINE('',#1694,#1696);
#1698=EDGE_CURVE('',#1693,#350,#1697,.T.);
#1699=ORIENTED_EDGE('',*,*,#1698,.F.);
#1700=CARTESIAN_POINT('',(22.376550226,-7.5,75.3000009));
#1701=VERTEX_POINT('',#1700);
#1702=CARTESIAN_POINT('',(23.323807579,-7.5,75.3000009));
#1703=DIRECTION('',(-1.,-0.,0.));
#1704=VECTOR('',#1703,0.947257354);
#1705=LINE('',#1702,#1704);
#1706=EDGE_CURVE('',#1693,#1701,#1705,.T.);
#1707=ORIENTED_EDGE('',*,*,#1706,.T.);
#1708=CARTESIAN_POINT('',(22.376550226,-7.5,75.3000009));
#1709=DIRECTION('',(0.,0.,1.));
#1710=VECTOR('',#1709,1.3);
#1711=LINE('',#1708,#1710);
#1712=EDGE_CURVE('',#1701,#359,#1711,.T.);
#1713=ORIENTED_EDGE('',*,*,#1712,.T.);
#1714=EDGE_LOOP('',(#1691,#1699,#1707,#1713));
#1715=FACE_BOUND('',#1714,.T.);
#1716=ADVANCED_FACE('',(#1715),#1690,.T.);
#1717=CARTESIAN_POINT('',(0.,7.5,75.3000009));
#1718=DIRECTION('',(0.,-1.,0.));
#1719=DIRECTION('',(1.,0.,0.));
#1720=AXIS2_PLACEMENT_3D('',#1717,#1718,#1719);
#1721=PLANE('',#1720);
#1722=ORIENTED_EDGE('',*,*,#64,.F.);
#1723=ORIENTED_EDGE('',*,*,#412,.F.);
#1724=CARTESIAN_POINT('',(22.376550226,7.5,75.3000009));
#1725=DIRECTION('',(1.,0.,0.));
#1726=VECTOR('',#1725,0.947257354);
#1727=LINE('',#1724,#1726);
#1728=EDGE_CURVE('',#400,#176,#1727,.T.);
#1729=ORIENTED_EDGE('',*,*,#1728,.T.);
#1730=ORIENTED_EDGE('',*,*,#181,.T.);
#1731=EDGE_LOOP('',(#1722,#1723,#1729,#1730));
#1732=FACE_BOUND('',#1731,.T.);
#1733=ADVANCED_FACE('',(#1732),#1721,.T.);
#1734=CARTESIAN_POINT('',(0.,0.,75.3000009));
#1735=DIRECTION('',(0.,0.,1.));
#1736=DIRECTION('',(1.,0.,0.));
#1737=AXIS2_PLACEMENT_3D('',#1734,#1735,#1736);
#1738=PLANE('',#1737);
#1739=ORIENTED_EDGE('',*,*,#1706,.F.);
#1740=CARTESIAN_POINT('',(0.,-0.,75.3000009));
#1741=DIRECTION('',(0.,0.,1.));
#1742=DIRECTION('',(0.204081633,-0.978953874,0.));
#1743=AXIS2_PLACEMENT_3D('',#1740,#1741,#1742);
#1744=CIRCLE('',#1743,24.5);
#1745=EDGE_CURVE('',#1693,#117,#1744,.T.);
#1746=ORIENTED_EDGE('',*,*,#1745,.T.);
#1747=ORIENTED_EDGE('',*,*,#188,.T.);
#1748=ORIENTED_EDGE('',*,*,#1728,.F.);
#1749=ORIENTED_EDGE('',*,*,#406,.F.);
#1750=CARTESIAN_POINT('',(0.,-0.,75.3000009));
#1751=DIRECTION('',(0.,0.,1.));
#1752=DIRECTION('',(0.211864407,-0.97729907,0.));
#1753=AXIS2_PLACEMENT_3D('',#1750,#1751,#1752);
#1754=CIRCLE('',#1753,23.6);
#1755=EDGE_CURVE('',#1701,#390,#1754,.T.);
#1756=ORIENTED_EDGE('',*,*,#1755,.F.);
#1757=EDGE_LOOP('',(#1739,#1746,#1747,#1748,#1749,#1756));
#1758=FACE_BOUND('',#1757,.T.);
#1759=ADVANCED_FACE('',(#1758),#1738,.T.);
#1760=CARTESIAN_POINT('',(0.,7.5,75.3000009));
#1761=DIRECTION('',(0.,-1.,0.));
#1762=DIRECTION('',(1.,0.,0.));
#1763=AXIS2_PLACEMENT_3D('',#1760,#1761,#1762);
#1764=PLANE('',#1763);
#1765=ORIENTED_EDGE('',*,*,#49,.F.);
#1766=ORIENTED_EDGE('',*,*,#172,.F.);
#1767=CARTESIAN_POINT('',(-23.323807579,7.5,75.3000009));
#1768=DIRECTION('',(1.,0.,0.));
#1769=VECTOR('',#1768,0.947257354);
#1770=LINE('',#1767,#1769);
#1771=EDGE_CURVE('',#160,#416,#1770,.T.);
#1772=ORIENTED_EDGE('',*,*,#1771,.T.);
#1773=ORIENTED_EDGE('',*,*,#421,.T.);
#1774=EDGE_LOOP('',(#1765,#1766,#1772,#1773));
#1775=FACE_BOUND('',#1774,.T.);
#1776=ADVANCED_FACE('',(#1775),#1764,.T.);
#1777=CARTESIAN_POINT('',(0.,-7.5,75.3000009));
#1778=DIRECTION('',(-0.,1.,0.));
#1779=DIRECTION('',(-1.,-0.,0.));
#1780=AXIS2_PLACEMENT_3D('',#1777,#1778,#1779);
#1781=PLANE('',#1780);
#1782=ORIENTED_EDGE('',*,*,#91,.F.);
#1783=ORIENTED_EDGE('',*,*,#436,.F.);
#1784=CARTESIAN_POINT('',(-22.376550226,-7.5,75.3000009));
#1785=DIRECTION('',(-1.,-0.,0.));
#1786=VECTOR('',#1785,0.947257354);
#1787=LINE('',#1784,#1786);
#1788=EDGE_CURVE('',#424,#152,#1787,.T.);
#1789=ORIENTED_EDGE('',*,*,#1788,.T.);
#1790=ORIENTED_EDGE('',*,*,#157,.T.);
#1791=EDGE_LOOP('',(#1782,#1783,#1789,#1790));
#1792=FACE_BOUND('',#1791,.T.);
#1793=ADVANCED_FACE('',(#1792),#1781,.T.);
#1794=CARTESIAN_POINT('',(0.,0.,75.3000009));
#1795=DIRECTION('',(0.,0.,1.));
#1796=DIRECTION('',(1.,0.,0.));
#1797=AXIS2_PLACEMENT_3D('',#1794,#1795,#1796);
#1798=PLANE('',#1797);
#1799=ORIENTED_EDGE('',*,*,#1771,.F.);
#1800=ORIENTED_EDGE('',*,*,#166,.T.);
#1801=ORIENTED_EDGE('',*,*,#1788,.F.);
#1802=ORIENTED_EDGE('',*,*,#430,.F.);
#1803=EDGE_LOOP('',(#1799,#1800,#1801,#1802));
#1804=FACE_BOUND('',#1803,.T.);
#1805=ADVANCED_FACE('',(#1804),#1798,.T.);
#1806=CARTESIAN_POINT('',(0.,0.,61.9044));
#1807=DIRECTION('',(0.,0.,1.));
#1808=DIRECTION('',(1.,0.,-0.));
#1809=AXIS2_PLACEMENT_3D('',#1806,#1807,#1808);
#1810=CYLINDRICAL_SURFACE('',#1809,24.5);
#1811=ORIENTED_EDGE('',*,*,#124,.F.);
#1812=ORIENTED_EDGE('',*,*,#1745,.F.);
#1813=ORIENTED_EDGE('',*,*,#1698,.T.);
#1814=ORIENTED_EDGE('',*,*,#356,.F.);
#1815=ORIENTED_EDGE('',*,*,#1403,.F.);
#1816=ORIENTED_EDGE('',*,*,#757,.F.);
#1817=EDGE_LOOP('',(#1811,#1812,#1813,#1814,#1815,#1816));
#1818=FACE_BOUND('',#1817,.T.);
#1819=ADVANCED_FACE('',(#1818),#1810,.T.);
#1820=CARTESIAN_POINT('',(0.,0.,76.4044));
#1821=DIRECTION('',(0.,0.,1.));
#1822=DIRECTION('',(1.,0.,-0.));
#1823=AXIS2_PLACEMENT_3D('',#1820,#1821,#1822);
#1824=CYLINDRICAL_SURFACE('',#1823,23.6);
#1825=ORIENTED_EDGE('',*,*,#397,.T.);
#1826=ORIENTED_EDGE('',*,*,#870,.T.);
#1827=ORIENTED_EDGE('',*,*,#1394,.F.);
#1828=ORIENTED_EDGE('',*,*,#1340,.F.);
#1829=ORIENTED_EDGE('',*,*,#1455,.F.);
#1830=ORIENTED_EDGE('',*,*,#1313,.F.);
#1831=ORIENTED_EDGE('',*,*,#1410,.F.);
#1832=ORIENTED_EDGE('',*,*,#373,.T.);
#1833=ORIENTED_EDGE('',*,*,#1712,.F.);
#1834=ORIENTED_EDGE('',*,*,#1755,.T.);
#1835=EDGE_LOOP('',(#1825,#1826,#1827,#1828,#1829,#1830,#1831,#1832,#1833,#1834));
#1836=FACE_BOUND('',#1835,.T.);
#1837=ADVANCED_FACE('',(#1836),#1824,.F.);
#1838=CARTESIAN_POINT('',(0.,0.,65.2000009));
#1839=DIRECTION('',(0.,0.,-1.));
#1840=DIRECTION('',(-1.,0.,0.));
#1841=AXIS2_PLACEMENT_3D('',#1838,#1839,#1840);
#1842=CYLINDRICAL_SURFACE('',#1841,28.6);
#1843=ORIENTED_EDGE('',*,*,#986,.F.);
#1844=ORIENTED_EDGE('',*,*,#821,.F.);
#1845=ORIENTED_EDGE('',*,*,#950,.T.);
#1846=ORIENTED_EDGE('',*,*,#708,.T.);
#1847=EDGE_LOOP('',(#1843,#1844,#1845,#1846));
#1848=FACE_BOUND('',#1847,.T.);
#1849=ADVANCED_FACE('',(#1848),#1842,.T.);
#1850=CLOSED_SHELL('',(#68,#110,#341,#383,#666,#726,#786,#909,#932,#954,#976,#993,#1005,#1047,#1089,#1122,#1164,#1206,#1239,#1257,#1275,#1317,#1359,#1381,#1414,#1432,
#1444,#1461,#1473,#1485,#1503,#1521,#1553,#1570,#1597,#1614,#1635,#1652,#1673,#1685,#1716,#1733,#1759,#1776,#1793,#1805,#1819,#1837,#1849));
#1851=MANIFOLD_SOLID_BREP('Einsatz',#1850);
#1852=COLOUR_RGB('',0.627451003,0.627451003,0.643137276);
#1853=FILL_AREA_STYLE_COLOUR('',#1852);
#1854=FILL_AREA_STYLE('',(#1853));
#1855=SURFACE_STYLE_FILL_AREA(#1854);
#1856=SURFACE_SIDE_STYLE('',(#1855));
#1857=SURFACE_STYLE_USAGE(.BOTH.,#1856);
#1858=PRESENTATION_STYLE_ASSIGNMENT((#1857));
#26=STYLED_ITEM('',(#1858),#1851);
#16=SHAPE_REPRESENTATION('root',(#15),#10);
#17=ADVANCED_BREP_SHAPE_REPRESENTATION('root',(#1851),#10);
#1866=SHAPE_REPRESENTATION_RELATIONSHIP('','',#16,#17);
#1867=CARTESIAN_POINT('',(0.,0.,0.));
#1868=DIRECTION('',(0.,0.,1.));
#1869=DIRECTION('',(1.,0.,0.));
#1870=AXIS2_PLACEMENT_3D('',#1867,#1868,#1869);
#1872=MAPPED_ITEM('',#1871,#1870);
#1871=REPRESENTATION_MAP(#1870,#16);
#1873=APPLICATION_CONTEXT('Managed model based 3d engineering');
#1874=APPLICATION_PROTOCOL_DEFINITION('international standard','ap242_managed_model_based_3d_engineering',2014,#1873);
#1875=PRODUCT_CONTEXT('',#1873,'mechanical');
#1876=PRODUCT_DEFINITION_CONTEXT('part definition',#1873,'design');
#24=PRODUCT('root','root','',(#1875));
#1877=PRODUCT_RELATED_PRODUCT_CATEGORY('part','',(#24));
#1878=PRODUCT_DEFINITION_FORMATION_WITH_SPECIFIED_SOURCE('','',#24,.NOT_KNOWN.);
#25=PRODUCT_DEFINITION('design','',#1878,#1876);
#23=PRODUCT_DEFINITION_SHAPE('','',#25);
#1879=SHAPE_DEFINITION_REPRESENTATION(#23,#16);
#11=DRAUGHTING_MODEL('',(#1872),#10);
#1880=DESCRIPTIVE_REPRESENTATION_ITEM('KEY','/Users/colinostermann/Library/Containers/com.shapr3d.shapr/Data/tmp/286DB23A-7248-445A-BD95-C4B1B375AABC.tmp');
#1881=PROPERTY_DEFINITION('KEY','',#25);
#1882=REPRESENTATION('',(#1880),#10);
#1883=PROPERTY_DEFINITION_REPRESENTATION(#1881,#1882);
#1884=GENERAL_PROPERTY('','KEY','');
#1885=GENERAL_PROPERTY_ASSOCIATION('','',#1884,#1881);
#1=MECHANICAL_DESIGN_GEOMETRIC_PRESENTATION_REPRESENTATION('',(#26),#10);
ENDSEC;
END-ISO-10303-21;
