ISO-10303-21;
HEADER;

/* File generated by Shapr3D Version 26.100.0.11031 */

FILE_DESCRIPTION(('HOOPS Exchange Step'),'2;1');

FILE_NAME('/Users/colinostermann/Library/Containers/com.shapr3d.shapr/Data/tmp/export/temp_export',
'2026-07-13T01:07:46-22:00',
('colinostermann'),
('Shapr3D Limited'),
'HOOPS Exchange 2026.3',
'Shapr3D',
'Authorized');

FILE_SCHEMA( ('AP242_MANAGED_MODEL_BASED_3D_ENGINEERING_MIM_LF {1 0 10303 442 1 1 4}') );

ENDSEC;

DATA;
#3=(NAMED_UNIT(*)PLANE_ANGLE_UNIT()SI_UNIT($,.RADIAN.));
#4=PLANE_ANGLE_MEASURE_WITH_UNIT(PLANE_ANGLE_MEASURE(0.0174532925),#3);
#5=(CONVERSION_BASED_UNIT('DEGREE',#4)NAMED_UNIT(#6)PLANE_ANGLE_UNIT());
#6=DIMENSIONAL_EXPONENTS(0.,0.,0.,0.,0.,0.,0.);
#7=(NAMED_UNIT(*)SI_UNIT($,.STERADIAN.)SOLID_ANGLE_UNIT());
#8=(LENGTH_UNIT()NAMED_UNIT(*)SI_UNIT(.MILLI.,.METRE.));
#9=UNCERTAINTY_MEASURE_WITH_UNIT(LENGTH_MEASURE(1.000000E-05),#8,'DISTANCE_ACCURACY_VALUE','Maximum Tolerance applied to model');
#10=(GEOMETRIC_REPRESENTATION_CONTEXT(3)GLOBAL_UNCERTAINTY_ASSIGNED_CONTEXT((#9))GLOBAL_UNIT_ASSIGNED_CONTEXT((#8,#5,#7))REPRESENTATION_CONTEXT('','root'));
#12=CARTESIAN_POINT('',(0.,0.,0.));
#13=DIRECTION('',(0.,0.,1.));
#14=DIRECTION('',(1.,0.,0.));
#15=AXIS2_PLACEMENT_3D('TS3D_PRODUCT_CSYS',#12,#13,#14);
#27=CARTESIAN_POINT('',(-16.,2.5,82.3));
#28=DIRECTION('',(-1.,0.,0.));
#29=DIRECTION('',(0.,0.,1.));
#30=AXIS2_PLACEMENT_3D('',#27,#28,#29);
#31=PLANE('',#30);
#32=CARTESIAN_POINT('',(-16.,7.,83.8));
#33=VERTEX_POINT('',#32);
#34=CARTESIAN_POINT('',(-16.,-2.,83.8));
#35=VERTEX_POINT('',#34);
#36=CARTESIAN_POINT('',(-16.,7.,83.8));
#37=DIRECTION('',(0.,-1.,0.));
#38=VECTOR('',#37,9.);
#39=LINE('',#36,#38);
#40=EDGE_CURVE('',#33,#35,#39,.T.);
#41=ORIENTED_EDGE('',*,*,#40,.F.);
#42=CARTESIAN_POINT('',(-16.,7.,82.3));
#43=VERTEX_POINT('',#42);
#44=CARTESIAN_POINT('',(-16.,7.,82.3));
#45=DIRECTION('',(0.,0.,1.));
#46=VECTOR('',#45,1.5);
#47=LINE('',#44,#46);
#48=EDGE_CURVE('',#43,#33,#47,.T.);
#49=ORIENTED_EDGE('',*,*,#48,.F.);
#50=CARTESIAN_POINT('',(-16.,-2.,82.3));
#51=VERTEX_POINT('',#50);
#52=CARTESIAN_POINT('',(-16.,7.,82.3));
#53=DIRECTION('',(0.,-1.,0.));
#54=VECTOR('',#53,9.);
#55=LINE('',#52,#54);
#56=EDGE_CURVE('',#43,#51,#55,.T.);
#57=ORIENTED_EDGE('',*,*,#56,.T.);
#58=CARTESIAN_POINT('',(-16.,-2.,82.3));
#59=DIRECTION('',(0.,0.,1.));
#60=VECTOR('',#59,1.5);
#61=LINE('',#58,#60);
#62=EDGE_CURVE('',#51,#35,#61,.T.);
#63=ORIENTED_EDGE('',*,*,#62,.T.);
#64=EDGE_LOOP('',(#41,#49,#57,#63));
#65=FACE_BOUND('',#64,.T.);
#66=CARTESIAN_POINT('',(-16.,-1.8,82.45));
#67=VERTEX_POINT('',#66);
#68=CARTESIAN_POINT('',(-16.,6.8,82.45));
#69=VERTEX_POINT('',#68);
#70=CARTESIAN_POINT('',(-16.,-1.8,82.45));
#71=DIRECTION('',(0.,1.,0.));
#72=VECTOR('',#71,8.6);
#73=LINE('',#70,#72);
#74=EDGE_CURVE('',#67,#69,#73,.T.);
#75=ORIENTED_EDGE('',*,*,#74,.T.);
#76=CARTESIAN_POINT('',(-16.,6.8,83.65));
#77=VERTEX_POINT('',#76);
#78=CARTESIAN_POINT('',(-16.,6.8,82.45));
#79=DIRECTION('',(0.,0.,1.));
#80=VECTOR('',#79,1.2);
#81=LINE('',#78,#80);
#82=EDGE_CURVE('',#69,#77,#81,.T.);
#83=ORIENTED_EDGE('',*,*,#82,.T.);
#84=CARTESIAN_POINT('',(-16.,-1.8,83.65));
#85=VERTEX_POINT('',#84);
#86=CARTESIAN_POINT('',(-16.,6.8,83.65));
#87=DIRECTION('',(0.,-1.,0.));
#88=VECTOR('',#87,8.6);
#89=LINE('',#86,#88);
#90=EDGE_CURVE('',#77,#85,#89,.T.);
#91=ORIENTED_EDGE('',*,*,#90,.T.);
#92=CARTESIAN_POINT('',(-16.,-1.8,83.65));
#93=DIRECTION('',(0.,0.,-1.));
#94=VECTOR('',#93,1.2);
#95=LINE('',#92,#94);
#96=EDGE_CURVE('',#85,#67,#95,.T.);
#97=ORIENTED_EDGE('',*,*,#96,.T.);
#98=EDGE_LOOP('',(#75,#83,#91,#97));
#99=FACE_BOUND('',#98,.T.);
#100=ADVANCED_FACE('',(#65,#99),#31,.T.);
#101=CARTESIAN_POINT('',(15.500337196,7.75,82.3));
#102=DIRECTION('',(0.,-1.,0.));
#103=DIRECTION('',(0.,0.,-1.));
#104=AXIS2_PLACEMENT_3D('',#101,#102,#103);
#105=PLANE('',#104);
#106=CARTESIAN_POINT('',(10.2,7.75,82.4));
#107=VERTEX_POINT('',#106);
#108=CARTESIAN_POINT('',(10.2,7.75,83.6));
#109=VERTEX_POINT('',#108);
#110=CARTESIAN_POINT('',(10.2,7.75,82.4));
#111=DIRECTION('',(0.,0.,1.));
#112=VECTOR('',#111,1.2);
#113=LINE('',#110,#112);
#114=EDGE_CURVE('',#107,#109,#113,.T.);
#115=ORIENTED_EDGE('',*,*,#114,.T.);
#116=CARTESIAN_POINT('',(11.000337196,7.75,83.6));
#117=VERTEX_POINT('',#116);
#118=CARTESIAN_POINT('',(10.2,7.75,83.6));
#119=DIRECTION('',(1.,0.,-0.));
#120=VECTOR('',#119,0.800337196);
#121=LINE('',#118,#120);
#122=EDGE_CURVE('',#109,#117,#121,.T.);
#123=ORIENTED_EDGE('',*,*,#122,.T.);
#124=CARTESIAN_POINT('',(11.000337196,7.75,83.8));
#125=VERTEX_POINT('',#124);
#126=CARTESIAN_POINT('',(11.000337196,7.75,83.6));
#127=DIRECTION('',(0.,0.,1.));
#128=VECTOR('',#127,0.2);
#129=LINE('',#126,#128);
#130=EDGE_CURVE('',#117,#125,#129,.T.);
#131=ORIENTED_EDGE('',*,*,#130,.T.);
#132=CARTESIAN_POINT('',(10.000337196,7.75,83.8));
#133=VERTEX_POINT('',#132);
#134=CARTESIAN_POINT('',(10.000337196,7.75,83.8));
#135=DIRECTION('',(1.,0.,-0.));
#136=VECTOR('',#135,1.);
#137=LINE('',#134,#136);
#138=EDGE_CURVE('',#133,#125,#137,.T.);
#139=ORIENTED_EDGE('',*,*,#138,.F.);
#140=CARTESIAN_POINT('',(10.000337196,7.75,82.3));
#141=VERTEX_POINT('',#140);
#142=CARTESIAN_POINT('',(10.000337196,7.75,82.3));
#143=DIRECTION('',(0.,0.,1.));
#144=VECTOR('',#143,1.5);
#145=LINE('',#142,#144);
#146=EDGE_CURVE('',#141,#133,#145,.T.);
#147=ORIENTED_EDGE('',*,*,#146,.F.);
#148=CARTESIAN_POINT('',(16.000337196,7.75,82.3));
#149=VERTEX_POINT('',#148);
#150=CARTESIAN_POINT('',(10.000337196,7.75,82.3));
#151=DIRECTION('',(1.,0.,-0.));
#152=VECTOR('',#151,6.);
#153=LINE('',#150,#152);
#154=EDGE_CURVE('',#141,#149,#153,.T.);
#155=ORIENTED_EDGE('',*,*,#154,.T.);
#156=CARTESIAN_POINT('',(16.000337196,7.75,83.8));
#157=VERTEX_POINT('',#156);
#158=CARTESIAN_POINT('',(16.000337196,7.75,82.3));
#159=DIRECTION('',(0.,0.,1.));
#160=VECTOR('',#159,1.5);
#161=LINE('',#158,#160);
#162=EDGE_CURVE('',#149,#157,#161,.T.);
#163=ORIENTED_EDGE('',*,*,#162,.T.);
#164=CARTESIAN_POINT('',(15.000337196,7.75,83.8));
#165=VERTEX_POINT('',#164);
#166=CARTESIAN_POINT('',(15.000337196,7.75,83.8));
#167=DIRECTION('',(1.,0.,-0.));
#168=VECTOR('',#167,1.);
#169=LINE('',#166,#168);
#170=EDGE_CURVE('',#165,#157,#169,.T.);
#171=ORIENTED_EDGE('',*,*,#170,.F.);
#172=CARTESIAN_POINT('',(15.000337196,7.75,83.6));
#173=VERTEX_POINT('',#172);
#174=CARTESIAN_POINT('',(15.000337196,7.75,83.6));
#175=DIRECTION('',(0.,0.,1.));
#176=VECTOR('',#175,0.2);
#177=LINE('',#174,#176);
#178=EDGE_CURVE('',#173,#165,#177,.T.);
#179=ORIENTED_EDGE('',*,*,#178,.F.);
#180=CARTESIAN_POINT('',(15.8,7.75,83.6));
#181=VERTEX_POINT('',#180);
#182=CARTESIAN_POINT('',(15.000337196,7.75,83.6));
#183=DIRECTION('',(1.,0.,-0.));
#184=VECTOR('',#183,0.799662804);
#185=LINE('',#182,#184);
#186=EDGE_CURVE('',#173,#181,#185,.T.);
#187=ORIENTED_EDGE('',*,*,#186,.T.);
#188=CARTESIAN_POINT('',(15.8,7.75,82.4));
#189=VERTEX_POINT('',#188);
#190=CARTESIAN_POINT('',(15.8,7.75,83.6));
#191=DIRECTION('',(0.,0.,-1.));
#192=VECTOR('',#191,1.2);
#193=LINE('',#190,#192);
#194=EDGE_CURVE('',#181,#189,#193,.T.);
#195=ORIENTED_EDGE('',*,*,#194,.T.);
#196=CARTESIAN_POINT('',(15.8,7.75,82.4));
#197=DIRECTION('',(-1.,0.,0.));
#198=VECTOR('',#197,5.6);
#199=LINE('',#196,#198);
#200=EDGE_CURVE('',#189,#107,#199,.T.);
#201=ORIENTED_EDGE('',*,*,#200,.T.);
#202=EDGE_LOOP('',(#115,#123,#131,#139,#147,#155,#163,#171,#179,#187,#195,#201));
#203=FACE_BOUND('',#202,.T.);
#204=ADVANCED_FACE('',(#203),#105,.T.);
#205=CARTESIAN_POINT('',(0.,0.,83.8));
#206=DIRECTION('',(0.,0.,-1.));
#207=DIRECTION('',(1.,0.,0.));
#208=AXIS2_PLACEMENT_3D('',#205,#206,#207);
#209=PLANE('',#208);
#210=CARTESIAN_POINT('',(23.,0.,83.8));
#211=VERTEX_POINT('',#210);
#212=CARTESIAN_POINT('',(0.,-0.,83.8));
#213=DIRECTION('',(0.,0.,-1.));
#214=DIRECTION('',(1.,0.,0.));
#215=AXIS2_PLACEMENT_3D('',#212,#213,#214);
#216=CIRCLE('',#215,23.);
#217=EDGE_CURVE('',#211,#211,#216,.T.);
#218=ORIENTED_EDGE('',*,*,#217,.T.);
#219=EDGE_LOOP('',(#218));
#220=FACE_BOUND('',#219,.T.);
#221=CARTESIAN_POINT('',(-15.,-2.,83.8));
#222=VERTEX_POINT('',#221);
#223=CARTESIAN_POINT('',(-15.,-3.,83.8));
#224=VERTEX_POINT('',#223);
#225=CARTESIAN_POINT('',(-15.,-2.,83.8));
#226=DIRECTION('',(0.,-1.,0.));
#227=VECTOR('',#226,1.);
#228=LINE('',#225,#227);
#229=EDGE_CURVE('',#222,#224,#228,.T.);
#230=ORIENTED_EDGE('',*,*,#229,.T.);
#231=CARTESIAN_POINT('',(-12.,-3.,83.8));
#232=VERTEX_POINT('',#231);
#233=CARTESIAN_POINT('',(-15.,-3.,83.8));
#234=DIRECTION('',(1.,0.,-0.));
#235=VECTOR('',#234,3.);
#236=LINE('',#233,#235);
#237=EDGE_CURVE('',#224,#232,#236,.T.);
#238=ORIENTED_EDGE('',*,*,#237,.T.);
#239=CARTESIAN_POINT('',(-12.,-2.5,83.8));
#240=VERTEX_POINT('',#239);
#241=CARTESIAN_POINT('',(-12.,-3.,83.8));
#242=DIRECTION('',(0.,1.,0.));
#243=VECTOR('',#242,0.5);
#244=LINE('',#241,#243);
#245=EDGE_CURVE('',#232,#240,#244,.T.);
#246=ORIENTED_EDGE('',*,*,#245,.T.);
#247=CARTESIAN_POINT('',(-12.204931118,-2.5,83.8));
#248=VERTEX_POINT('',#247);
#249=CARTESIAN_POINT('',(-12.,-2.5,83.8));
#250=DIRECTION('',(-1.,0.,0.));
#251=VECTOR('',#250,0.204931118);
#252=LINE('',#249,#251);
#253=EDGE_CURVE('',#240,#248,#252,.T.);
#254=ORIENTED_EDGE('',*,*,#253,.T.);
#255=CARTESIAN_POINT('',(-12.204931118,7.5,83.8));
#256=VERTEX_POINT('',#255);
#257=CARTESIAN_POINT('',(-12.204931118,-2.5,83.8));
#258=DIRECTION('',(0.,1.,0.));
#259=VECTOR('',#258,10.);
#260=LINE('',#257,#259);
#261=EDGE_CURVE('',#248,#256,#260,.T.);
#262=ORIENTED_EDGE('',*,*,#261,.T.);
#263=CARTESIAN_POINT('',(-12.,7.5,83.8));
#264=VERTEX_POINT('',#263);
#265=CARTESIAN_POINT('',(-12.204931118,7.5,83.8));
#266=DIRECTION('',(1.,0.,-0.));
#267=VECTOR('',#266,0.204931118);
#268=LINE('',#265,#267);
#269=EDGE_CURVE('',#256,#264,#268,.T.);
#270=ORIENTED_EDGE('',*,*,#269,.T.);
#271=CARTESIAN_POINT('',(-12.,8.,83.8));
#272=VERTEX_POINT('',#271);
#273=CARTESIAN_POINT('',(-12.,7.5,83.8));
#274=DIRECTION('',(0.,1.,0.));
#275=VECTOR('',#274,0.5);
#276=LINE('',#273,#275);
#277=EDGE_CURVE('',#264,#272,#276,.T.);
#278=ORIENTED_EDGE('',*,*,#277,.T.);
#279=CARTESIAN_POINT('',(-15.,8.,83.8));
#280=VERTEX_POINT('',#279);
#281=CARTESIAN_POINT('',(-12.,8.,83.8));
#282=DIRECTION('',(-1.,0.,0.));
#283=VECTOR('',#282,3.);
#284=LINE('',#281,#283);
#285=EDGE_CURVE('',#272,#280,#284,.T.);
#286=ORIENTED_EDGE('',*,*,#285,.T.);
#287=CARTESIAN_POINT('',(-15.,7.,83.8));
#288=VERTEX_POINT('',#287);
#289=CARTESIAN_POINT('',(-15.,7.,83.8));
#290=DIRECTION('',(0.,1.,0.));
#291=VECTOR('',#290,1.);
#292=LINE('',#289,#291);
#293=EDGE_CURVE('',#288,#280,#292,.T.);
#294=ORIENTED_EDGE('',*,*,#293,.F.);
#295=CARTESIAN_POINT('',(-16.,7.,83.8));
#296=DIRECTION('',(1.,0.,-0.));
#297=VECTOR('',#296,1.);
#298=LINE('',#295,#297);
#299=EDGE_CURVE('',#33,#288,#298,.T.);
#300=ORIENTED_EDGE('',*,*,#299,.F.);
#301=ORIENTED_EDGE('',*,*,#40,.T.);
#302=CARTESIAN_POINT('',(-16.,-2.,83.8));
#303=DIRECTION('',(1.,0.,-0.));
#304=VECTOR('',#303,1.);
#305=LINE('',#302,#304);
#306=EDGE_CURVE('',#35,#222,#305,.T.);
#307=ORIENTED_EDGE('',*,*,#306,.T.);
#308=EDGE_LOOP('',(#230,#238,#246,#254,#262,#270,#278,#286,#294,#300,#301,#307));
#309=FACE_BOUND('',#308,.T.);
#310=CARTESIAN_POINT('',(11.000337196,-11.000013488,83.8));
#311=VERTEX_POINT('',#310);
#312=CARTESIAN_POINT('',(11.000337196,-11.000013488,83.8));
#313=DIRECTION('',(0.,1.,0.));
#314=VECTOR('',#313,18.750013488);
#315=LINE('',#312,#314);
#316=EDGE_CURVE('',#311,#125,#315,.T.);
#317=ORIENTED_EDGE('',*,*,#316,.F.);
#318=CARTESIAN_POINT('',(9.699986512,-12.200337196,83.8));
#319=VERTEX_POINT('',#318);
#320=CARTESIAN_POINT('',(9.75,-10.95,83.8));
#321=DIRECTION('',(0.,0.,-1.));
#322=DIRECTION('',(0.039968038,-0.999200959,0.));
#323=AXIS2_PLACEMENT_3D('',#320,#321,#322);
#324=CIRCLE('',#323,1.251337066);
#325=EDGE_CURVE('',#311,#319,#324,.T.);
#326=ORIENTED_EDGE('',*,*,#325,.T.);
#327=CARTESIAN_POINT('',(5.75,-12.200337196,83.8));
#328=VERTEX_POINT('',#327);
#329=CARTESIAN_POINT('',(9.699986512,-12.200337196,83.8));
#330=DIRECTION('',(-1.,0.,0.));
#331=VECTOR('',#330,3.949986512);
#332=LINE('',#329,#331);
#333=EDGE_CURVE('',#319,#328,#332,.T.);
#334=ORIENTED_EDGE('',*,*,#333,.T.);
#335=CARTESIAN_POINT('',(5.75,-12.25,83.8));
#336=VERTEX_POINT('',#335);
#337=CARTESIAN_POINT('',(5.75,-12.25,83.8));
#338=DIRECTION('',(0.,1.,0.));
#339=VECTOR('',#338,0.049662804);
#340=LINE('',#337,#339);
#341=EDGE_CURVE('',#336,#328,#340,.T.);
#342=ORIENTED_EDGE('',*,*,#341,.F.);
#343=CARTESIAN_POINT('',(-1.75,-12.25,83.8));
#344=VERTEX_POINT('',#343);
#345=CARTESIAN_POINT('',(5.75,-12.25,83.8));
#346=DIRECTION('',(-1.,0.,0.));
#347=VECTOR('',#346,7.5);
#348=LINE('',#345,#347);
#349=EDGE_CURVE('',#336,#344,#348,.T.);
#350=ORIENTED_EDGE('',*,*,#349,.T.);
#351=CARTESIAN_POINT('',(-1.75,-19.75,83.8));
#352=VERTEX_POINT('',#351);
#353=CARTESIAN_POINT('',(-1.75,-12.25,83.8));
#354=DIRECTION('',(-0.,-1.,0.));
#355=VECTOR('',#354,7.5);
#356=LINE('',#353,#355);
#357=EDGE_CURVE('',#344,#352,#356,.T.);
#358=ORIENTED_EDGE('',*,*,#357,.T.);
#359=CARTESIAN_POINT('',(5.75,-19.75,83.8));
#360=VERTEX_POINT('',#359);
#361=CARTESIAN_POINT('',(-1.75,-19.75,83.8));
#362=DIRECTION('',(1.,-0.,0.));
#363=VECTOR('',#362,7.5);
#364=LINE('',#361,#363);
#365=EDGE_CURVE('',#352,#360,#364,.T.);
#366=ORIENTED_EDGE('',*,*,#365,.T.);
#367=CARTESIAN_POINT('',(5.75,-16.2,83.8));
#368=VERTEX_POINT('',#367);
#369=CARTESIAN_POINT('',(5.75,-19.75,83.8));
#370=DIRECTION('',(0.,1.,0.));
#371=VECTOR('',#370,3.55);
#372=LINE('',#369,#371);
#373=EDGE_CURVE('',#360,#368,#372,.T.);
#374=ORIENTED_EDGE('',*,*,#373,.T.);
#375=CARTESIAN_POINT('',(13.789952166,-16.2,83.8));
#376=VERTEX_POINT('',#375);
#377=CARTESIAN_POINT('',(5.75,-16.2,83.8));
#378=DIRECTION('',(1.,0.,-0.));
#379=VECTOR('',#378,8.039952166);
#380=LINE('',#377,#379);
#381=EDGE_CURVE('',#368,#376,#380,.T.);
#382=ORIENTED_EDGE('',*,*,#381,.T.);
#383=CARTESIAN_POINT('',(15.000337196,-14.98961497,83.8));
#384=VERTEX_POINT('',#383);
#385=CARTESIAN_POINT('',(13.749976083,-14.949638887,83.8));
#386=DIRECTION('',(0.,0.,-1.));
#387=DIRECTION('',(0.999489299,-0.031955302,0.));
#388=AXIS2_PLACEMENT_3D('',#385,#386,#387);
#389=CIRCLE('',#388,1.251);
#390=EDGE_CURVE('',#384,#376,#389,.T.);
#391=ORIENTED_EDGE('',*,*,#390,.F.);
#392=CARTESIAN_POINT('',(15.000337196,7.75,83.8));
#393=DIRECTION('',(-0.,-1.,0.));
#394=VECTOR('',#393,22.73961497);
#395=LINE('',#392,#394);
#396=EDGE_CURVE('',#165,#384,#395,.T.);
#397=ORIENTED_EDGE('',*,*,#396,.F.);
#398=ORIENTED_EDGE('',*,*,#170,.T.);
#399=CARTESIAN_POINT('',(16.000337196,11.25,83.8));
#400=VERTEX_POINT('',#399);
#401=CARTESIAN_POINT('',(16.000337196,7.75,83.8));
#402=DIRECTION('',(0.,1.,0.));
#403=VECTOR('',#402,3.5);
#404=LINE('',#401,#403);
#405=EDGE_CURVE('',#157,#400,#404,.T.);
#406=ORIENTED_EDGE('',*,*,#405,.T.);
#407=CARTESIAN_POINT('',(15.000337196,11.25,83.8));
#408=VERTEX_POINT('',#407);
#409=CARTESIAN_POINT('',(16.000337196,11.25,83.8));
#410=DIRECTION('',(-1.,0.,0.));
#411=VECTOR('',#410,1.);
#412=LINE('',#409,#411);
#413=EDGE_CURVE('',#400,#408,#412,.T.);
#414=ORIENTED_EDGE('',*,*,#413,.T.);
#415=CARTESIAN_POINT('',(15.000337196,12.25,83.8));
#416=VERTEX_POINT('',#415);
#417=CARTESIAN_POINT('',(15.000337196,11.25,83.8));
#418=DIRECTION('',(0.,1.,0.));
#419=VECTOR('',#418,1.);
#420=LINE('',#417,#419);
#421=EDGE_CURVE('',#408,#416,#420,.T.);
#422=ORIENTED_EDGE('',*,*,#421,.T.);
#423=CARTESIAN_POINT('',(11.000337196,12.25,83.8));
#424=VERTEX_POINT('',#423);
#425=CARTESIAN_POINT('',(15.000337196,12.25,83.8));
#426=DIRECTION('',(-1.,0.,0.));
#427=VECTOR('',#426,4.);
#428=LINE('',#425,#427);
#429=EDGE_CURVE('',#416,#424,#428,.T.);
#430=ORIENTED_EDGE('',*,*,#429,.T.);
#431=CARTESIAN_POINT('',(11.000337196,11.25,83.8));
#432=VERTEX_POINT('',#431);
#433=CARTESIAN_POINT('',(11.000337196,11.25,83.8));
#434=DIRECTION('',(0.,1.,0.));
#435=VECTOR('',#434,1.);
#436=LINE('',#433,#435);
#437=EDGE_CURVE('',#432,#424,#436,.T.);
#438=ORIENTED_EDGE('',*,*,#437,.F.);
#439=CARTESIAN_POINT('',(10.000337196,11.25,83.8));
#440=VERTEX_POINT('',#439);
#441=CARTESIAN_POINT('',(10.000337196,11.25,83.8));
#442=DIRECTION('',(1.,0.,-0.));
#443=VECTOR('',#442,1.);
#444=LINE('',#441,#443);
#445=EDGE_CURVE('',#440,#432,#444,.T.);
#446=ORIENTED_EDGE('',*,*,#445,.F.);
#447=CARTESIAN_POINT('',(10.000337196,11.25,83.8));
#448=DIRECTION('',(0.,-1.,0.));
#449=VECTOR('',#448,3.5);
#450=LINE('',#447,#449);
#451=EDGE_CURVE('',#440,#133,#450,.T.);
#452=ORIENTED_EDGE('',*,*,#451,.T.);
#453=ORIENTED_EDGE('',*,*,#138,.T.);
#454=EDGE_LOOP('',(#317,#326,#334,#342,#350,#358,#366,#374,#382,#391,#397,#398,#406,#414,#422,#430,#438,#446,#452,#453));
#455=FACE_BOUND('',#454,.T.);
#456=ADVANCED_FACE('',(#220,#309,#455),#209,.T.);
#457=CARTESIAN_POINT('',(0.,0.,86.8));
#458=DIRECTION('',(0.,0.,-1.));
#459=DIRECTION('',(-1.,0.,0.));
#460=AXIS2_PLACEMENT_3D('',#457,#458,#459);
#461=CYLINDRICAL_SURFACE('',#460,24.75);
#462=CARTESIAN_POINT('',(-24.75,0.,85.3));
#463=VERTEX_POINT('',#462);
#464=CARTESIAN_POINT('',(-24.75,0.,85.4));
#465=VERTEX_POINT('',#464);
#466=CARTESIAN_POINT('',(-24.75,0.,85.3));
#467=DIRECTION('',(-0.,-0.,1.));
#468=VECTOR('',#467,0.1);
#469=LINE('',#466,#468);
#470=EDGE_CURVE('',#463,#465,#469,.T.);
#471=ORIENTED_EDGE('',*,*,#470,.T.);
#472=CARTESIAN_POINT('',(24.75,-0.,85.4));
#473=VERTEX_POINT('',#472);
#474=CARTESIAN_POINT('',(0.,0.,85.4));
#475=DIRECTION('',(-0.,-0.,-1.));
#476=DIRECTION('',(1.,0.,-0.));
#477=AXIS2_PLACEMENT_3D('',#474,#475,#476);
#478=CIRCLE('',#477,24.75);
#479=EDGE_CURVE('',#465,#473,#478,.T.);
#480=ORIENTED_EDGE('',*,*,#479,.T.);
#481=CARTESIAN_POINT('',(0.,0.,85.4));
#482=DIRECTION('',(-0.,-0.,-1.));
#483=DIRECTION('',(1.,0.,-0.));
#484=AXIS2_PLACEMENT_3D('',#481,#482,#483);
#485=CIRCLE('',#484,24.75);
#486=EDGE_CURVE('',#473,#465,#485,.T.);
#487=ORIENTED_EDGE('',*,*,#486,.T.);
#488=ORIENTED_EDGE('',*,*,#470,.F.);
#489=CARTESIAN_POINT('',(24.75,-0.,85.3));
#490=VERTEX_POINT('',#489);
#491=CARTESIAN_POINT('',(0.,0.,85.3));
#492=DIRECTION('',(0.,0.,1.));
#493=DIRECTION('',(1.,-0.,0.));
#494=AXIS2_PLACEMENT_3D('',#491,#492,#493);
#495=CIRCLE('',#494,24.75);
#496=EDGE_CURVE('',#463,#490,#495,.T.);
#497=ORIENTED_EDGE('',*,*,#496,.T.);
#498=CARTESIAN_POINT('',(0.,0.,85.3));
#499=DIRECTION('',(0.,0.,1.));
#500=DIRECTION('',(1.,-0.,0.));
#501=AXIS2_PLACEMENT_3D('',#498,#499,#500);
#502=CIRCLE('',#501,24.75);
#503=EDGE_CURVE('',#490,#463,#502,.T.);
#504=ORIENTED_EDGE('',*,*,#503,.T.);
#505=EDGE_LOOP('',(#471,#480,#487,#488,#497,#504));
#506=FACE_BOUND('',#505,.T.);
#507=ADVANCED_FACE('',(#506),#461,.T.);
#508=CARTESIAN_POINT('',(0.,0.,86.8));
#509=DIRECTION('',(0.,0.,1.));
#510=DIRECTION('',(1.,0.,0.));
#511=AXIS2_PLACEMENT_3D('',#508,#509,#510);
#512=PLANE('',#511);
#513=CARTESIAN_POINT('',(23.35,-0.,86.8));
#514=VERTEX_POINT('',#513);
#515=CARTESIAN_POINT('',(0.,0.,86.8));
#516=DIRECTION('',(0.,0.,1.));
#517=DIRECTION('',(1.,0.,-0.));
#518=AXIS2_PLACEMENT_3D('',#515,#516,#517);
#519=CIRCLE('',#518,23.35);
#520=EDGE_CURVE('',#514,#514,#519,.T.);
#521=ORIENTED_EDGE('',*,*,#520,.T.);
#522=EDGE_LOOP('',(#521));
#523=FACE_BOUND('',#522,.T.);
#524=ADVANCED_FACE('',(#523),#512,.T.);
#525=CARTESIAN_POINT('',(0.,0.,85.3));
#526=DIRECTION('',(0.,0.,1.));
#527=DIRECTION('',(1.,0.,0.));
#528=AXIS2_PLACEMENT_3D('',#525,#526,#527);
#529=PLANE('',#528);
#530=CARTESIAN_POINT('',(23.,0.,85.3));
#531=VERTEX_POINT('',#530);
#532=CARTESIAN_POINT('',(0.,-0.,85.3));
#533=DIRECTION('',(0.,0.,-1.));
#534=DIRECTION('',(1.,0.,0.));
#535=AXIS2_PLACEMENT_3D('',#532,#533,#534);
#536=CIRCLE('',#535,23.);
#537=EDGE_CURVE('',#531,#531,#536,.T.);
#538=ORIENTED_EDGE('',*,*,#537,.F.);
#539=EDGE_LOOP('',(#538));
#540=FACE_BOUND('',#539,.T.);
#541=ORIENTED_EDGE('',*,*,#496,.F.);
#542=ORIENTED_EDGE('',*,*,#503,.F.);
#543=EDGE_LOOP('',(#541,#542));
#544=FACE_BOUND('',#543,.T.);
#545=ADVANCED_FACE('',(#540,#544),#529,.F.);
#546=CARTESIAN_POINT('',(0.,-0.,83.8));
#547=DIRECTION('',(0.,0.,1.));
#548=DIRECTION('',(1.,0.,-0.));
#549=AXIS2_PLACEMENT_3D('',#546,#547,#548);
#550=CYLINDRICAL_SURFACE('',#549,23.);
#551=CARTESIAN_POINT('',(23.,-0.,85.3));
#552=DIRECTION('',(-0.,-0.,-1.));
#553=VECTOR('',#552,1.5);
#554=LINE('',#551,#553);
#555=EDGE_CURVE('',#531,#211,#554,.T.);
#556=ORIENTED_EDGE('',*,*,#555,.T.);
#557=ORIENTED_EDGE('',*,*,#217,.F.);
#558=ORIENTED_EDGE('',*,*,#555,.F.);
#559=ORIENTED_EDGE('',*,*,#537,.T.);
#560=EDGE_LOOP('',(#556,#557,#558,#559));
#561=FACE_BOUND('',#560,.T.);
#562=ADVANCED_FACE('',(#561),#550,.T.);
#563=CARTESIAN_POINT('',(0.,0.,85.4));
#564=DIRECTION('',(0.,0.,1.));
#565=DIRECTION('',(1.,0.,-0.));
#566=AXIS2_PLACEMENT_3D('',#563,#564,#565);
#567=TOROIDAL_SURFACE('',#566,23.35,1.4);
#568=CARTESIAN_POINT('',(23.35,0.,85.4));
#569=DIRECTION('',(-0.,1.,-0.));
#570=DIRECTION('',(1.,0.,0.));
#571=AXIS2_PLACEMENT_3D('',#568,#569,#570);
#572=CIRCLE('',#571,1.4);
#573=EDGE_CURVE('',#514,#473,#572,.T.);
#574=ORIENTED_EDGE('',*,*,#573,.T.);
#575=ORIENTED_EDGE('',*,*,#479,.F.);
#576=ORIENTED_EDGE('',*,*,#486,.F.);
#577=ORIENTED_EDGE('',*,*,#573,.F.);
#578=ORIENTED_EDGE('',*,*,#520,.F.);
#579=EDGE_LOOP('',(#574,#575,#576,#577,#578));
#580=FACE_BOUND('',#579,.T.);
#581=ADVANCED_FACE('',(#580),#567,.T.);
#582=CARTESIAN_POINT('',(10.000337196,9.5,82.3));
#583=DIRECTION('',(-1.,0.,0.));
#584=DIRECTION('',(0.,0.,1.));
#585=AXIS2_PLACEMENT_3D('',#582,#583,#584);
#586=PLANE('',#585);
#587=ORIENTED_EDGE('',*,*,#451,.F.);
#588=CARTESIAN_POINT('',(10.000337196,11.25,82.3));
#589=VERTEX_POINT('',#588);
#590=CARTESIAN_POINT('',(10.000337196,11.25,82.3));
#591=DIRECTION('',(0.,0.,1.));
#592=VECTOR('',#591,1.5);
#593=LINE('',#590,#592);
#594=EDGE_CURVE('',#589,#440,#593,.T.);
#595=ORIENTED_EDGE('',*,*,#594,.F.);
#596=CARTESIAN_POINT('',(10.000337196,11.25,82.3));
#597=DIRECTION('',(0.,-1.,0.));
#598=VECTOR('',#597,3.5);
#599=LINE('',#596,#598);
#600=EDGE_CURVE('',#589,#141,#599,.T.);
#601=ORIENTED_EDGE('',*,*,#600,.T.);
#602=ORIENTED_EDGE('',*,*,#146,.T.);
#603=EDGE_LOOP('',(#587,#595,#601,#602));
#604=FACE_BOUND('',#603,.T.);
#605=ADVANCED_FACE('',(#604),#586,.T.);
#606=CARTESIAN_POINT('',(10.500337196,11.25,82.3));
#607=DIRECTION('',(0.,-1.,0.));
#608=DIRECTION('',(0.,0.,-1.));
#609=AXIS2_PLACEMENT_3D('',#606,#607,#608);
#610=PLANE('',#609);
#611=ORIENTED_EDGE('',*,*,#445,.T.);
#612=CARTESIAN_POINT('',(11.000337196,11.25,82.3));
#613=VERTEX_POINT('',#612);
#614=CARTESIAN_POINT('',(11.000337196,11.25,82.3));
#615=DIRECTION('',(0.,0.,1.));
#616=VECTOR('',#615,1.5);
#617=LINE('',#614,#616);
#618=EDGE_CURVE('',#613,#432,#617,.T.);
#619=ORIENTED_EDGE('',*,*,#618,.F.);
#620=CARTESIAN_POINT('',(10.000337196,11.25,82.3));
#621=DIRECTION('',(1.,0.,-0.));
#622=VECTOR('',#621,1.);
#623=LINE('',#620,#622);
#624=EDGE_CURVE('',#589,#613,#623,.T.);
#625=ORIENTED_EDGE('',*,*,#624,.F.);
#626=ORIENTED_EDGE('',*,*,#594,.T.);
#627=EDGE_LOOP('',(#611,#619,#625,#626));
#628=FACE_BOUND('',#627,.T.);
#629=ADVANCED_FACE('',(#628),#610,.F.);
#630=CARTESIAN_POINT('',(11.000337196,11.75,82.3));
#631=DIRECTION('',(1.,0.,0.));
#632=DIRECTION('',(0.,0.,-1.));
#633=AXIS2_PLACEMENT_3D('',#630,#631,#632);
#634=PLANE('',#633);
#635=ORIENTED_EDGE('',*,*,#437,.T.);
#636=CARTESIAN_POINT('',(11.000337196,12.25,82.3));
#637=VERTEX_POINT('',#636);
#638=CARTESIAN_POINT('',(11.000337196,12.25,82.3));
#639=DIRECTION('',(0.,0.,1.));
#640=VECTOR('',#639,1.5);
#641=LINE('',#638,#640);
#642=EDGE_CURVE('',#637,#424,#641,.T.);
#643=ORIENTED_EDGE('',*,*,#642,.F.);
#644=CARTESIAN_POINT('',(11.000337196,11.25,82.3));
#645=DIRECTION('',(0.,1.,0.));
#646=VECTOR('',#645,1.);
#647=LINE('',#644,#646);
#648=EDGE_CURVE('',#613,#637,#647,.T.);
#649=ORIENTED_EDGE('',*,*,#648,.F.);
#650=ORIENTED_EDGE('',*,*,#618,.T.);
#651=EDGE_LOOP('',(#635,#643,#649,#650));
#652=FACE_BOUND('',#651,.T.);
#653=ADVANCED_FACE('',(#652),#634,.F.);
#654=CARTESIAN_POINT('',(13.000337196,12.25,82.3));
#655=DIRECTION('',(0.,1.,0.));
#656=DIRECTION('',(-1.,0.,0.));
#657=AXIS2_PLACEMENT_3D('',#654,#655,#656);
#658=PLANE('',#657);
#659=ORIENTED_EDGE('',*,*,#429,.F.);
#660=CARTESIAN_POINT('',(15.000337196,12.25,82.3));
#661=VERTEX_POINT('',#660);
#662=CARTESIAN_POINT('',(15.000337196,12.25,82.3));
#663=DIRECTION('',(0.,0.,1.));
#664=VECTOR('',#663,1.5);
#665=LINE('',#662,#664);
#666=EDGE_CURVE('',#661,#416,#665,.T.);
#667=ORIENTED_EDGE('',*,*,#666,.F.);
#668=CARTESIAN_POINT('',(15.000337196,12.25,82.3));
#669=DIRECTION('',(-1.,0.,0.));
#670=VECTOR('',#669,4.);
#671=LINE('',#668,#670);
#672=EDGE_CURVE('',#661,#637,#671,.T.);
#673=ORIENTED_EDGE('',*,*,#672,.T.);
#674=ORIENTED_EDGE('',*,*,#642,.T.);
#675=EDGE_LOOP('',(#659,#667,#673,#674));
#676=FACE_BOUND('',#675,.T.);
#677=ADVANCED_FACE('',(#676),#658,.T.);
#678=CARTESIAN_POINT('',(15.000337196,11.75,82.3));
#679=DIRECTION('',(1.,0.,0.));
#680=DIRECTION('',(0.,0.,-1.));
#681=AXIS2_PLACEMENT_3D('',#678,#679,#680);
#682=PLANE('',#681);
#683=ORIENTED_EDGE('',*,*,#421,.F.);
#684=CARTESIAN_POINT('',(15.000337196,11.25,82.3));
#685=VERTEX_POINT('',#684);
#686=CARTESIAN_POINT('',(15.000337196,11.25,82.3));
#687=DIRECTION('',(0.,0.,1.));
#688=VECTOR('',#687,1.5);
#689=LINE('',#686,#688);
#690=EDGE_CURVE('',#685,#408,#689,.T.);
#691=ORIENTED_EDGE('',*,*,#690,.F.);
#692=CARTESIAN_POINT('',(15.000337196,11.25,82.3));
#693=DIRECTION('',(0.,1.,0.));
#694=VECTOR('',#693,1.);
#695=LINE('',#692,#694);
#696=EDGE_CURVE('',#685,#661,#695,.T.);
#697=ORIENTED_EDGE('',*,*,#696,.T.);
#698=ORIENTED_EDGE('',*,*,#666,.T.);
#699=EDGE_LOOP('',(#683,#691,#697,#698));
#700=FACE_BOUND('',#699,.T.);
#701=ADVANCED_FACE('',(#700),#682,.T.);
#702=CARTESIAN_POINT('',(15.500337196,11.25,82.3));
#703=DIRECTION('',(0.,1.,0.));
#704=DIRECTION('',(0.,0.,1.));
#705=AXIS2_PLACEMENT_3D('',#702,#703,#704);
#706=PLANE('',#705);
#707=ORIENTED_EDGE('',*,*,#413,.F.);
#708=CARTESIAN_POINT('',(16.000337196,11.25,82.3));
#709=VERTEX_POINT('',#708);
#710=CARTESIAN_POINT('',(16.000337196,11.25,82.3));
#711=DIRECTION('',(0.,0.,1.));
#712=VECTOR('',#711,1.5);
#713=LINE('',#710,#712);
#714=EDGE_CURVE('',#709,#400,#713,.T.);
#715=ORIENTED_EDGE('',*,*,#714,.F.);
#716=CARTESIAN_POINT('',(16.000337196,11.25,82.3));
#717=DIRECTION('',(-1.,0.,0.));
#718=VECTOR('',#717,1.);
#719=LINE('',#716,#718);
#720=EDGE_CURVE('',#709,#685,#719,.T.);
#721=ORIENTED_EDGE('',*,*,#720,.T.);
#722=ORIENTED_EDGE('',*,*,#690,.T.);
#723=EDGE_LOOP('',(#707,#715,#721,#722));
#724=FACE_BOUND('',#723,.T.);
#725=ADVANCED_FACE('',(#724),#706,.T.);
#726=CARTESIAN_POINT('',(16.000337196,9.5,82.3));
#727=DIRECTION('',(1.,0.,0.));
#728=DIRECTION('',(0.,0.,-1.));
#729=AXIS2_PLACEMENT_3D('',#726,#727,#728);
#730=PLANE('',#729);
#731=ORIENTED_EDGE('',*,*,#405,.F.);
#732=ORIENTED_EDGE('',*,*,#162,.F.);
#733=CARTESIAN_POINT('',(16.000337196,7.75,82.3));
#734=DIRECTION('',(0.,1.,0.));
#735=VECTOR('',#734,3.5);
#736=LINE('',#733,#735);
#737=EDGE_CURVE('',#149,#709,#736,.T.);
#738=ORIENTED_EDGE('',*,*,#737,.T.);
#739=ORIENTED_EDGE('',*,*,#714,.T.);
#740=EDGE_LOOP('',(#731,#732,#738,#739));
#741=FACE_BOUND('',#740,.T.);
#742=ADVANCED_FACE('',(#741),#730,.T.);
#743=CARTESIAN_POINT('',(0.,0.,82.3));
#744=DIRECTION('',(0.,0.,-1.));
#745=DIRECTION('',(0.,-1.,0.));
#746=AXIS2_PLACEMENT_3D('',#743,#744,#745);
#747=PLANE('',#746);
#748=ORIENTED_EDGE('',*,*,#600,.F.);
#749=ORIENTED_EDGE('',*,*,#624,.T.);
#750=ORIENTED_EDGE('',*,*,#648,.T.);
#751=ORIENTED_EDGE('',*,*,#672,.F.);
#752=ORIENTED_EDGE('',*,*,#696,.F.);
#753=ORIENTED_EDGE('',*,*,#720,.F.);
#754=ORIENTED_EDGE('',*,*,#737,.F.);
#755=ORIENTED_EDGE('',*,*,#154,.F.);
#756=EDGE_LOOP('',(#748,#749,#750,#751,#752,#753,#754,#755));
#757=FACE_BOUND('',#756,.T.);
#758=ADVANCED_FACE('',(#757),#747,.T.);
#759=CARTESIAN_POINT('',(-15.,-2.5,82.3));
#760=DIRECTION('',(-1.,0.,0.));
#761=DIRECTION('',(0.,0.,1.));
#762=AXIS2_PLACEMENT_3D('',#759,#760,#761);
#763=PLANE('',#762);
#764=ORIENTED_EDGE('',*,*,#229,.F.);
#765=CARTESIAN_POINT('',(-15.,-2.,82.3));
#766=VERTEX_POINT('',#765);
#767=CARTESIAN_POINT('',(-15.,-2.,82.3));
#768=DIRECTION('',(0.,0.,1.));
#769=VECTOR('',#768,1.5);
#770=LINE('',#767,#769);
#771=EDGE_CURVE('',#766,#222,#770,.T.);
#772=ORIENTED_EDGE('',*,*,#771,.F.);
#773=CARTESIAN_POINT('',(-15.,-3.,82.3));
#774=VERTEX_POINT('',#773);
#775=CARTESIAN_POINT('',(-15.,-2.,82.3));
#776=DIRECTION('',(0.,-1.,0.));
#777=VECTOR('',#776,1.);
#778=LINE('',#775,#777);
#779=EDGE_CURVE('',#766,#774,#778,.T.);
#780=ORIENTED_EDGE('',*,*,#779,.T.);
#781=CARTESIAN_POINT('',(-15.,-3.,82.3));
#782=DIRECTION('',(0.,0.,1.));
#783=VECTOR('',#782,1.5);
#784=LINE('',#781,#783);
#785=EDGE_CURVE('',#774,#224,#784,.T.);
#786=ORIENTED_EDGE('',*,*,#785,.T.);
#787=EDGE_LOOP('',(#764,#772,#780,#786));
#788=FACE_BOUND('',#787,.T.);
#789=ADVANCED_FACE('',(#788),#763,.T.);
#790=CARTESIAN_POINT('',(-15.5,-2.,82.3));
#791=DIRECTION('',(0.,-1.,0.));
#792=DIRECTION('',(0.,0.,-1.));
#793=AXIS2_PLACEMENT_3D('',#790,#791,#792);
#794=PLANE('',#793);
#795=ORIENTED_EDGE('',*,*,#306,.F.);
#796=ORIENTED_EDGE('',*,*,#62,.F.);
#797=CARTESIAN_POINT('',(-16.,-2.,82.3));
#798=DIRECTION('',(1.,0.,-0.));
#799=VECTOR('',#798,1.);
#800=LINE('',#797,#799);
#801=EDGE_CURVE('',#51,#766,#800,.T.);
#802=ORIENTED_EDGE('',*,*,#801,.T.);
#803=ORIENTED_EDGE('',*,*,#771,.T.);
#804=EDGE_LOOP('',(#795,#796,#802,#803));
#805=FACE_BOUND('',#804,.T.);
#806=ADVANCED_FACE('',(#805),#794,.T.);
#807=CARTESIAN_POINT('',(-15.5,7.,82.3));
#808=DIRECTION('',(0.,-1.,0.));
#809=DIRECTION('',(0.,0.,-1.));
#810=AXIS2_PLACEMENT_3D('',#807,#808,#809);
#811=PLANE('',#810);
#812=ORIENTED_EDGE('',*,*,#299,.T.);
#813=CARTESIAN_POINT('',(-15.,7.,82.3));
#814=VERTEX_POINT('',#813);
#815=CARTESIAN_POINT('',(-15.,7.,82.3));
#816=DIRECTION('',(0.,0.,1.));
#817=VECTOR('',#816,1.5);
#818=LINE('',#815,#817);
#819=EDGE_CURVE('',#814,#288,#818,.T.);
#820=ORIENTED_EDGE('',*,*,#819,.F.);
#821=CARTESIAN_POINT('',(-16.,7.,82.3));
#822=DIRECTION('',(1.,0.,-0.));
#823=VECTOR('',#822,1.);
#824=LINE('',#821,#823);
#825=EDGE_CURVE('',#43,#814,#824,.T.);
#826=ORIENTED_EDGE('',*,*,#825,.F.);
#827=ORIENTED_EDGE('',*,*,#48,.T.);
#828=EDGE_LOOP('',(#812,#820,#826,#827));
#829=FACE_BOUND('',#828,.T.);
#830=ADVANCED_FACE('',(#829),#811,.F.);
#831=CARTESIAN_POINT('',(-15.,7.5,82.3));
#832=DIRECTION('',(1.,0.,0.));
#833=DIRECTION('',(0.,0.,-1.));
#834=AXIS2_PLACEMENT_3D('',#831,#832,#833);
#835=PLANE('',#834);
#836=ORIENTED_EDGE('',*,*,#293,.T.);
#837=CARTESIAN_POINT('',(-15.,8.,82.3));
#838=VERTEX_POINT('',#837);
#839=CARTESIAN_POINT('',(-15.,8.,82.3));
#840=DIRECTION('',(0.,0.,1.));
#841=VECTOR('',#840,1.5);
#842=LINE('',#839,#841);
#843=EDGE_CURVE('',#838,#280,#842,.T.);
#844=ORIENTED_EDGE('',*,*,#843,.F.);
#845=CARTESIAN_POINT('',(-15.,7.,82.3));
#846=DIRECTION('',(0.,1.,0.));
#847=VECTOR('',#846,1.);
#848=LINE('',#845,#847);
#849=EDGE_CURVE('',#814,#838,#848,.T.);
#850=ORIENTED_EDGE('',*,*,#849,.F.);
#851=ORIENTED_EDGE('',*,*,#819,.T.);
#852=EDGE_LOOP('',(#836,#844,#850,#851));
#853=FACE_BOUND('',#852,.T.);
#854=ADVANCED_FACE('',(#853),#835,.F.);
#855=CARTESIAN_POINT('',(-13.5,8.,82.3));
#856=DIRECTION('',(0.,1.,0.));
#857=DIRECTION('',(0.,0.,1.));
#858=AXIS2_PLACEMENT_3D('',#855,#856,#857);
#859=PLANE('',#858);
#860=ORIENTED_EDGE('',*,*,#285,.F.);
#861=CARTESIAN_POINT('',(-12.,8.,82.3));
#862=VERTEX_POINT('',#861);
#863=CARTESIAN_POINT('',(-12.,8.,82.3));
#864=DIRECTION('',(0.,0.,1.));
#865=VECTOR('',#864,1.5);
#866=LINE('',#863,#865);
#867=EDGE_CURVE('',#862,#272,#866,.T.);
#868=ORIENTED_EDGE('',*,*,#867,.F.);
#869=CARTESIAN_POINT('',(-12.,8.,82.3));
#870=DIRECTION('',(-1.,0.,0.));
#871=VECTOR('',#870,3.);
#872=LINE('',#869,#871);
#873=EDGE_CURVE('',#862,#838,#872,.T.);
#874=ORIENTED_EDGE('',*,*,#873,.T.);
#875=ORIENTED_EDGE('',*,*,#843,.T.);
#876=EDGE_LOOP('',(#860,#868,#874,#875));
#877=FACE_BOUND('',#876,.T.);
#878=ADVANCED_FACE('',(#877),#859,.T.);
#879=CARTESIAN_POINT('',(-12.,7.75,82.3));
#880=DIRECTION('',(1.,0.,0.));
#881=DIRECTION('',(0.,0.,-1.));
#882=AXIS2_PLACEMENT_3D('',#879,#880,#881);
#883=PLANE('',#882);
#884=ORIENTED_EDGE('',*,*,#277,.F.);
#885=CARTESIAN_POINT('',(-12.,7.5,82.3));
#886=VERTEX_POINT('',#885);
#887=CARTESIAN_POINT('',(-12.,7.5,82.3));
#888=DIRECTION('',(0.,0.,1.));
#889=VECTOR('',#888,1.5);
#890=LINE('',#887,#889);
#891=EDGE_CURVE('',#886,#264,#890,.T.);
#892=ORIENTED_EDGE('',*,*,#891,.F.);
#893=CARTESIAN_POINT('',(-12.,7.5,82.3));
#894=DIRECTION('',(0.,1.,0.));
#895=VECTOR('',#894,0.5);
#896=LINE('',#893,#895);
#897=EDGE_CURVE('',#886,#862,#896,.T.);
#898=ORIENTED_EDGE('',*,*,#897,.T.);
#899=ORIENTED_EDGE('',*,*,#867,.T.);
#900=EDGE_LOOP('',(#884,#892,#898,#899));
#901=FACE_BOUND('',#900,.T.);
#902=ADVANCED_FACE('',(#901),#883,.T.);
#903=CARTESIAN_POINT('',(-12.102465559,7.5,82.3));
#904=DIRECTION('',(0.,-1.,0.));
#905=DIRECTION('',(0.,0.,-1.));
#906=AXIS2_PLACEMENT_3D('',#903,#904,#905);
#907=PLANE('',#906);
#908=ORIENTED_EDGE('',*,*,#269,.F.);
#909=CARTESIAN_POINT('',(-12.204931118,7.5,82.3));
#910=VERTEX_POINT('',#909);
#911=CARTESIAN_POINT('',(-12.204931118,7.5,82.3));
#912=DIRECTION('',(0.,0.,1.));
#913=VECTOR('',#912,1.5);
#914=LINE('',#911,#913);
#915=EDGE_CURVE('',#910,#256,#914,.T.);
#916=ORIENTED_EDGE('',*,*,#915,.F.);
#917=CARTESIAN_POINT('',(-12.204931118,7.5,82.3));
#918=DIRECTION('',(1.,0.,-0.));
#919=VECTOR('',#918,0.204931118);
#920=LINE('',#917,#919);
#921=EDGE_CURVE('',#910,#886,#920,.T.);
#922=ORIENTED_EDGE('',*,*,#921,.T.);
#923=ORIENTED_EDGE('',*,*,#891,.T.);
#924=EDGE_LOOP('',(#908,#916,#922,#923));
#925=FACE_BOUND('',#924,.T.);
#926=ADVANCED_FACE('',(#925),#907,.T.);
#927=CARTESIAN_POINT('',(-12.204931118,2.5,82.3));
#928=DIRECTION('',(1.,-0.,0.));
#929=DIRECTION('',(0.,1.,0.));
#930=AXIS2_PLACEMENT_3D('',#927,#928,#929);
#931=PLANE('',#930);
#932=ORIENTED_EDGE('',*,*,#261,.F.);
#933=CARTESIAN_POINT('',(-12.204931118,-2.5,82.3));
#934=VERTEX_POINT('',#933);
#935=CARTESIAN_POINT('',(-12.204931118,-2.5,82.3));
#936=DIRECTION('',(0.,0.,1.));
#937=VECTOR('',#936,1.5);
#938=LINE('',#935,#937);
#939=EDGE_CURVE('',#934,#248,#938,.T.);
#940=ORIENTED_EDGE('',*,*,#939,.F.);
#941=CARTESIAN_POINT('',(-12.204931118,-2.5,82.3));
#942=DIRECTION('',(0.,1.,0.));
#943=VECTOR('',#942,10.);
#944=LINE('',#941,#943);
#945=EDGE_CURVE('',#934,#910,#944,.T.);
#946=ORIENTED_EDGE('',*,*,#945,.T.);
#947=ORIENTED_EDGE('',*,*,#915,.T.);
#948=EDGE_LOOP('',(#932,#940,#946,#947));
#949=FACE_BOUND('',#948,.T.);
#950=ADVANCED_FACE('',(#949),#931,.T.);
#951=CARTESIAN_POINT('',(-12.102465559,-2.5,82.3));
#952=DIRECTION('',(0.,1.,0.));
#953=DIRECTION('',(0.,0.,1.));
#954=AXIS2_PLACEMENT_3D('',#951,#952,#953);
#955=PLANE('',#954);
#956=ORIENTED_EDGE('',*,*,#253,.F.);
#957=CARTESIAN_POINT('',(-12.,-2.5,82.3));
#958=VERTEX_POINT('',#957);
#959=CARTESIAN_POINT('',(-12.,-2.5,82.3));
#960=DIRECTION('',(0.,0.,1.));
#961=VECTOR('',#960,1.5);
#962=LINE('',#959,#961);
#963=EDGE_CURVE('',#958,#240,#962,.T.);
#964=ORIENTED_EDGE('',*,*,#963,.F.);
#965=CARTESIAN_POINT('',(-12.,-2.5,82.3));
#966=DIRECTION('',(-1.,0.,0.));
#967=VECTOR('',#966,0.204931118);
#968=LINE('',#965,#967);
#969=EDGE_CURVE('',#958,#934,#968,.T.);
#970=ORIENTED_EDGE('',*,*,#969,.T.);
#971=ORIENTED_EDGE('',*,*,#939,.T.);
#972=EDGE_LOOP('',(#956,#964,#970,#971));
#973=FACE_BOUND('',#972,.T.);
#974=ADVANCED_FACE('',(#973),#955,.T.);
#975=CARTESIAN_POINT('',(-12.,-2.75,82.3));
#976=DIRECTION('',(1.,0.,0.));
#977=DIRECTION('',(0.,0.,-1.));
#978=AXIS2_PLACEMENT_3D('',#975,#976,#977);
#979=PLANE('',#978);
#980=ORIENTED_EDGE('',*,*,#245,.F.);
#981=CARTESIAN_POINT('',(-12.,-3.,82.3));
#982=VERTEX_POINT('',#981);
#983=CARTESIAN_POINT('',(-12.,-3.,82.3));
#984=DIRECTION('',(0.,0.,1.));
#985=VECTOR('',#984,1.5);
#986=LINE('',#983,#985);
#987=EDGE_CURVE('',#982,#232,#986,.T.);
#988=ORIENTED_EDGE('',*,*,#987,.F.);
#989=CARTESIAN_POINT('',(-12.,-3.,82.3));
#990=DIRECTION('',(0.,1.,0.));
#991=VECTOR('',#990,0.5);
#992=LINE('',#989,#991);
#993=EDGE_CURVE('',#982,#958,#992,.T.);
#994=ORIENTED_EDGE('',*,*,#993,.T.);
#995=ORIENTED_EDGE('',*,*,#963,.T.);
#996=EDGE_LOOP('',(#980,#988,#994,#995));
#997=FACE_BOUND('',#996,.T.);
#998=ADVANCED_FACE('',(#997),#979,.T.);
#999=CARTESIAN_POINT('',(-13.5,-3.,82.3));
#1000=DIRECTION('',(0.,-1.,0.));
#1001=DIRECTION('',(0.,0.,-1.));
#1002=AXIS2_PLACEMENT_3D('',#999,#1000,#1001);
#1003=PLANE('',#1002);
#1004=ORIENTED_EDGE('',*,*,#237,.F.);
#1005=ORIENTED_EDGE('',*,*,#785,.F.);
#1006=CARTESIAN_POINT('',(-15.,-3.,82.3));
#1007=DIRECTION('',(1.,0.,-0.));
#1008=VECTOR('',#1007,3.);
#1009=LINE('',#1006,#1008);
#1010=EDGE_CURVE('',#774,#982,#1009,.T.);
#1011=ORIENTED_EDGE('',*,*,#1010,.T.);
#1012=ORIENTED_EDGE('',*,*,#987,.T.);
#1013=EDGE_LOOP('',(#1004,#1005,#1011,#1012));
#1014=FACE_BOUND('',#1013,.T.);
#1015=ADVANCED_FACE('',(#1014),#1003,.T.);
#1016=CARTESIAN_POINT('',(0.,0.,82.3));
#1017=DIRECTION('',(0.,0.,-1.));
#1018=DIRECTION('',(0.,-1.,0.));
#1019=AXIS2_PLACEMENT_3D('',#1016,#1017,#1018);
#1020=PLANE('',#1019);
#1021=ORIENTED_EDGE('',*,*,#779,.F.);
#1022=ORIENTED_EDGE('',*,*,#801,.F.);
#1023=ORIENTED_EDGE('',*,*,#56,.F.);
#1024=ORIENTED_EDGE('',*,*,#825,.T.);
#1025=ORIENTED_EDGE('',*,*,#849,.T.);
#1026=ORIENTED_EDGE('',*,*,#873,.F.);
#1027=ORIENTED_EDGE('',*,*,#897,.F.);
#1028=ORIENTED_EDGE('',*,*,#921,.F.);
#1029=ORIENTED_EDGE('',*,*,#945,.F.);
#1030=ORIENTED_EDGE('',*,*,#969,.F.);
#1031=ORIENTED_EDGE('',*,*,#993,.F.);
#1032=ORIENTED_EDGE('',*,*,#1010,.F.);
#1033=EDGE_LOOP('',(#1021,#1022,#1023,#1024,#1025,#1026,#1027,#1028,#1029,#1030,#1031,#1032));
#1034=FACE_BOUND('',#1033,.T.);
#1035=ADVANCED_FACE('',(#1034),#1020,.T.);
#1036=CARTESIAN_POINT('',(5.75,-14.225,82.8));
#1037=DIRECTION('',(1.,-0.,0.));
#1038=DIRECTION('',(0.,1.,0.));
#1039=AXIS2_PLACEMENT_3D('',#1036,#1037,#1038);
#1040=PLANE('',#1039);
#1041=CARTESIAN_POINT('',(5.75,-16.2,83.6));
#1042=VERTEX_POINT('',#1041);
#1043=CARTESIAN_POINT('',(5.75,-12.25,83.6));
#1044=VERTEX_POINT('',#1043);
#1045=CARTESIAN_POINT('',(5.75,-16.2,83.6));
#1046=DIRECTION('',(0.,1.,0.));
#1047=VECTOR('',#1046,3.95);
#1048=LINE('',#1045,#1047);
#1049=EDGE_CURVE('',#1042,#1044,#1048,.T.);
#1050=ORIENTED_EDGE('',*,*,#1049,.F.);
#1051=CARTESIAN_POINT('',(5.75,-16.2,83.6));
#1052=DIRECTION('',(0.,0.,1.));
#1053=VECTOR('',#1052,0.2);
#1054=LINE('',#1051,#1053);
#1055=EDGE_CURVE('',#1042,#368,#1054,.T.);
#1056=ORIENTED_EDGE('',*,*,#1055,.T.);
#1057=ORIENTED_EDGE('',*,*,#373,.F.);
#1058=CARTESIAN_POINT('',(5.75,-19.75,82.8));
#1059=VERTEX_POINT('',#1058);
#1060=CARTESIAN_POINT('',(5.75,-19.75,82.8));
#1061=DIRECTION('',(0.,0.,1.));
#1062=VECTOR('',#1061,1.);
#1063=LINE('',#1060,#1062);
#1064=EDGE_CURVE('',#1059,#360,#1063,.T.);
#1065=ORIENTED_EDGE('',*,*,#1064,.F.);
#1066=CARTESIAN_POINT('',(5.75,-12.25,82.8));
#1067=VERTEX_POINT('',#1066);
#1068=CARTESIAN_POINT('',(5.75,-19.75,82.8));
#1069=DIRECTION('',(0.,1.,0.));
#1070=VECTOR('',#1069,7.5);
#1071=LINE('',#1068,#1070);
#1072=EDGE_CURVE('',#1059,#1067,#1071,.T.);
#1073=ORIENTED_EDGE('',*,*,#1072,.T.);
#1074=CARTESIAN_POINT('',(5.75,-12.25,82.8));
#1075=DIRECTION('',(0.,0.,1.));
#1076=VECTOR('',#1075,0.8);
#1077=LINE('',#1074,#1076);
#1078=EDGE_CURVE('',#1067,#1044,#1077,.T.);
#1079=ORIENTED_EDGE('',*,*,#1078,.T.);
#1080=EDGE_LOOP('',(#1050,#1056,#1057,#1065,#1073,#1079));
#1081=FACE_BOUND('',#1080,.T.);
#1082=ADVANCED_FACE('',(#1081),#1040,.T.);
#1083=CARTESIAN_POINT('',(2.,-19.75,82.8));
#1084=DIRECTION('',(-0.,-1.,0.));
#1085=DIRECTION('',(1.,-0.,0.));
#1086=AXIS2_PLACEMENT_3D('',#1083,#1084,#1085);
#1087=PLANE('',#1086);
#1088=ORIENTED_EDGE('',*,*,#365,.F.);
#1089=CARTESIAN_POINT('',(-1.75,-19.75,82.8));
#1090=VERTEX_POINT('',#1089);
#1091=CARTESIAN_POINT('',(-1.75,-19.75,82.8));
#1092=DIRECTION('',(0.,0.,1.));
#1093=VECTOR('',#1092,1.);
#1094=LINE('',#1091,#1093);
#1095=EDGE_CURVE('',#1090,#352,#1094,.T.);
#1096=ORIENTED_EDGE('',*,*,#1095,.F.);
#1097=CARTESIAN_POINT('',(-1.75,-19.75,82.8));
#1098=DIRECTION('',(1.,-0.,0.));
#1099=VECTOR('',#1098,7.5);
#1100=LINE('',#1097,#1099);
#1101=EDGE_CURVE('',#1090,#1059,#1100,.T.);
#1102=ORIENTED_EDGE('',*,*,#1101,.T.);
#1103=ORIENTED_EDGE('',*,*,#1064,.T.);
#1104=EDGE_LOOP('',(#1088,#1096,#1102,#1103));
#1105=FACE_BOUND('',#1104,.T.);
#1106=ADVANCED_FACE('',(#1105),#1087,.T.);
#1107=CARTESIAN_POINT('',(-1.75,-16.,82.8));
#1108=DIRECTION('',(-1.,0.,0.));
#1109=DIRECTION('',(-0.,-1.,0.));
#1110=AXIS2_PLACEMENT_3D('',#1107,#1108,#1109);
#1111=PLANE('',#1110);
#1112=ORIENTED_EDGE('',*,*,#357,.F.);
#1113=CARTESIAN_POINT('',(-1.75,-12.25,82.8));
#1114=VERTEX_POINT('',#1113);
#1115=CARTESIAN_POINT('',(-1.75,-12.25,82.8));
#1116=DIRECTION('',(0.,0.,1.));
#1117=VECTOR('',#1116,1.);
#1118=LINE('',#1115,#1117);
#1119=EDGE_CURVE('',#1114,#344,#1118,.T.);
#1120=ORIENTED_EDGE('',*,*,#1119,.F.);
#1121=CARTESIAN_POINT('',(-1.75,-12.25,82.8));
#1122=DIRECTION('',(-0.,-1.,0.));
#1123=VECTOR('',#1122,7.5);
#1124=LINE('',#1121,#1123);
#1125=EDGE_CURVE('',#1114,#1090,#1124,.T.);
#1126=ORIENTED_EDGE('',*,*,#1125,.T.);
#1127=ORIENTED_EDGE('',*,*,#1095,.T.);
#1128=EDGE_LOOP('',(#1112,#1120,#1126,#1127));
#1129=FACE_BOUND('',#1128,.T.);
#1130=ADVANCED_FACE('',(#1129),#1111,.T.);
#1131=CARTESIAN_POINT('',(2.,-12.25,82.8));
#1132=DIRECTION('',(0.,1.,0.));
#1133=DIRECTION('',(-1.,0.,0.));
#1134=AXIS2_PLACEMENT_3D('',#1131,#1132,#1133);
#1135=PLANE('',#1134);
#1136=ORIENTED_EDGE('',*,*,#349,.F.);
#1137=CARTESIAN_POINT('',(5.75,-12.25,83.6));
#1138=DIRECTION('',(0.,0.,1.));
#1139=VECTOR('',#1138,0.2);
#1140=LINE('',#1137,#1139);
#1141=EDGE_CURVE('',#1044,#336,#1140,.T.);
#1142=ORIENTED_EDGE('',*,*,#1141,.F.);
#1143=ORIENTED_EDGE('',*,*,#1078,.F.);
#1144=CARTESIAN_POINT('',(5.75,-12.25,82.8));
#1145=DIRECTION('',(-1.,0.,0.));
#1146=VECTOR('',#1145,7.5);
#1147=LINE('',#1144,#1146);
#1148=EDGE_CURVE('',#1067,#1114,#1147,.T.);
#1149=ORIENTED_EDGE('',*,*,#1148,.T.);
#1150=ORIENTED_EDGE('',*,*,#1119,.T.);
#1151=EDGE_LOOP('',(#1136,#1142,#1143,#1149,#1150));
#1152=FACE_BOUND('',#1151,.T.);
#1153=ADVANCED_FACE('',(#1152),#1135,.T.);
#1154=CARTESIAN_POINT('',(0.,0.,82.8));
#1155=DIRECTION('',(0.,0.,-1.));
#1156=DIRECTION('',(0.,-1.,0.));
#1157=AXIS2_PLACEMENT_3D('',#1154,#1155,#1156);
#1158=PLANE('',#1157);
#1159=ORIENTED_EDGE('',*,*,#1072,.F.);
#1160=ORIENTED_EDGE('',*,*,#1101,.F.);
#1161=ORIENTED_EDGE('',*,*,#1125,.F.);
#1162=ORIENTED_EDGE('',*,*,#1148,.F.);
#1163=EDGE_LOOP('',(#1159,#1160,#1161,#1162));
#1164=FACE_BOUND('',#1163,.T.);
#1165=CARTESIAN_POINT('',(1.,-15.,82.8));
#1166=VERTEX_POINT('',#1165);
#1167=CARTESIAN_POINT('',(1.,-17.,82.8));
#1168=VERTEX_POINT('',#1167);
#1169=CARTESIAN_POINT('',(1.,-15.,82.8));
#1170=DIRECTION('',(-0.,-1.,0.));
#1171=VECTOR('',#1170,2.);
#1172=LINE('',#1169,#1171);
#1173=EDGE_CURVE('',#1166,#1168,#1172,.T.);
#1174=ORIENTED_EDGE('',*,*,#1173,.T.);
#1175=CARTESIAN_POINT('',(3.,-17.,82.8));
#1176=VERTEX_POINT('',#1175);
#1177=CARTESIAN_POINT('',(1.,-17.,82.8));
#1178=DIRECTION('',(1.,0.,-0.));
#1179=VECTOR('',#1178,2.);
#1180=LINE('',#1177,#1179);
#1181=EDGE_CURVE('',#1168,#1176,#1180,.T.);
#1182=ORIENTED_EDGE('',*,*,#1181,.T.);
#1183=CARTESIAN_POINT('',(3.,-15.,82.8));
#1184=VERTEX_POINT('',#1183);
#1185=CARTESIAN_POINT('',(3.,-17.,82.8));
#1186=DIRECTION('',(0.,1.,0.));
#1187=VECTOR('',#1186,2.);
#1188=LINE('',#1185,#1187);
#1189=EDGE_CURVE('',#1176,#1184,#1188,.T.);
#1190=ORIENTED_EDGE('',*,*,#1189,.T.);
#1191=CARTESIAN_POINT('',(3.,-15.,82.8));
#1192=DIRECTION('',(-1.,0.,0.));
#1193=VECTOR('',#1192,2.);
#1194=LINE('',#1191,#1193);
#1195=EDGE_CURVE('',#1184,#1166,#1194,.T.);
#1196=ORIENTED_EDGE('',*,*,#1195,.T.);
#1197=EDGE_LOOP('',(#1174,#1182,#1190,#1196));
#1198=FACE_BOUND('',#1197,.T.);
#1199=ADVANCED_FACE('',(#1164,#1198),#1158,.T.);
#1200=CARTESIAN_POINT('',(2.,-17.,82.3));
#1201=DIRECTION('',(0.,-1.,0.));
#1202=DIRECTION('',(0.,0.,-1.));
#1203=AXIS2_PLACEMENT_3D('',#1200,#1201,#1202);
#1204=PLANE('',#1203);
#1205=CARTESIAN_POINT('',(3.,-17.,82.3));
#1206=VERTEX_POINT('',#1205);
#1207=CARTESIAN_POINT('',(3.,-17.,82.3));
#1208=DIRECTION('',(0.,0.,1.));
#1209=VECTOR('',#1208,0.5);
#1210=LINE('',#1207,#1209);
#1211=EDGE_CURVE('',#1206,#1176,#1210,.T.);
#1212=ORIENTED_EDGE('',*,*,#1211,.T.);
#1213=ORIENTED_EDGE('',*,*,#1181,.F.);
#1214=CARTESIAN_POINT('',(1.,-17.,82.3));
#1215=VERTEX_POINT('',#1214);
#1216=CARTESIAN_POINT('',(1.,-17.,82.3));
#1217=DIRECTION('',(0.,0.,1.));
#1218=VECTOR('',#1217,0.5);
#1219=LINE('',#1216,#1218);
#1220=EDGE_CURVE('',#1215,#1168,#1219,.T.);
#1221=ORIENTED_EDGE('',*,*,#1220,.F.);
#1222=CARTESIAN_POINT('',(1.,-17.,82.3));
#1223=DIRECTION('',(1.,0.,-0.));
#1224=VECTOR('',#1223,2.);
#1225=LINE('',#1222,#1224);
#1226=EDGE_CURVE('',#1215,#1206,#1225,.T.);
#1227=ORIENTED_EDGE('',*,*,#1226,.T.);
#1228=EDGE_LOOP('',(#1212,#1213,#1221,#1227));
#1229=FACE_BOUND('',#1228,.T.);
#1230=ADVANCED_FACE('',(#1229),#1204,.T.);
#1231=CARTESIAN_POINT('',(1.,-16.,82.3));
#1232=DIRECTION('',(-1.,0.,0.));
#1233=DIRECTION('',(-0.,-1.,0.));
#1234=AXIS2_PLACEMENT_3D('',#1231,#1232,#1233);
#1235=PLANE('',#1234);
#1236=ORIENTED_EDGE('',*,*,#1220,.T.);
#1237=ORIENTED_EDGE('',*,*,#1173,.F.);
#1238=CARTESIAN_POINT('',(1.,-15.,82.3));
#1239=VERTEX_POINT('',#1238);
#1240=CARTESIAN_POINT('',(1.,-15.,82.3));
#1241=DIRECTION('',(0.,0.,1.));
#1242=VECTOR('',#1241,0.5);
#1243=LINE('',#1240,#1242);
#1244=EDGE_CURVE('',#1239,#1166,#1243,.T.);
#1245=ORIENTED_EDGE('',*,*,#1244,.F.);
#1246=CARTESIAN_POINT('',(1.,-15.,82.3));
#1247=DIRECTION('',(-0.,-1.,0.));
#1248=VECTOR('',#1247,2.);
#1249=LINE('',#1246,#1248);
#1250=EDGE_CURVE('',#1239,#1215,#1249,.T.);
#1251=ORIENTED_EDGE('',*,*,#1250,.T.);
#1252=EDGE_LOOP('',(#1236,#1237,#1245,#1251));
#1253=FACE_BOUND('',#1252,.T.);
#1254=ADVANCED_FACE('',(#1253),#1235,.T.);
#1255=CARTESIAN_POINT('',(2.,-15.,82.3));
#1256=DIRECTION('',(0.,1.,0.));
#1257=DIRECTION('',(-1.,0.,0.));
#1258=AXIS2_PLACEMENT_3D('',#1255,#1256,#1257);
#1259=PLANE('',#1258);
#1260=ORIENTED_EDGE('',*,*,#1244,.T.);
#1261=ORIENTED_EDGE('',*,*,#1195,.F.);
#1262=CARTESIAN_POINT('',(3.,-15.,82.3));
#1263=VERTEX_POINT('',#1262);
#1264=CARTESIAN_POINT('',(3.,-15.,82.3));
#1265=DIRECTION('',(0.,0.,1.));
#1266=VECTOR('',#1265,0.5);
#1267=LINE('',#1264,#1266);
#1268=EDGE_CURVE('',#1263,#1184,#1267,.T.);
#1269=ORIENTED_EDGE('',*,*,#1268,.F.);
#1270=CARTESIAN_POINT('',(3.,-15.,82.3));
#1271=DIRECTION('',(-1.,0.,0.));
#1272=VECTOR('',#1271,2.);
#1273=LINE('',#1270,#1272);
#1274=EDGE_CURVE('',#1263,#1239,#1273,.T.);
#1275=ORIENTED_EDGE('',*,*,#1274,.T.);
#1276=EDGE_LOOP('',(#1260,#1261,#1269,#1275));
#1277=FACE_BOUND('',#1276,.T.);
#1278=ADVANCED_FACE('',(#1277),#1259,.T.);
#1279=CARTESIAN_POINT('',(3.,-16.,82.3));
#1280=DIRECTION('',(1.,-0.,0.));
#1281=DIRECTION('',(0.,1.,0.));
#1282=AXIS2_PLACEMENT_3D('',#1279,#1280,#1281);
#1283=PLANE('',#1282);
#1284=ORIENTED_EDGE('',*,*,#1268,.T.);
#1285=ORIENTED_EDGE('',*,*,#1189,.F.);
#1286=ORIENTED_EDGE('',*,*,#1211,.F.);
#1287=CARTESIAN_POINT('',(3.,-17.,82.3));
#1288=DIRECTION('',(0.,1.,0.));
#1289=VECTOR('',#1288,2.);
#1290=LINE('',#1287,#1289);
#1291=EDGE_CURVE('',#1206,#1263,#1290,.T.);
#1292=ORIENTED_EDGE('',*,*,#1291,.T.);
#1293=EDGE_LOOP('',(#1284,#1285,#1286,#1292));
#1294=FACE_BOUND('',#1293,.T.);
#1295=ADVANCED_FACE('',(#1294),#1283,.T.);
#1296=CARTESIAN_POINT('',(0.,0.,82.3));
#1297=DIRECTION('',(0.,0.,-1.));
#1298=DIRECTION('',(0.,-1.,0.));
#1299=AXIS2_PLACEMENT_3D('',#1296,#1297,#1298);
#1300=PLANE('',#1299);
#1301=ORIENTED_EDGE('',*,*,#1226,.F.);
#1302=ORIENTED_EDGE('',*,*,#1250,.F.);
#1303=ORIENTED_EDGE('',*,*,#1274,.F.);
#1304=ORIENTED_EDGE('',*,*,#1291,.F.);
#1305=EDGE_LOOP('',(#1301,#1302,#1303,#1304));
#1306=FACE_BOUND('',#1305,.T.);
#1307=ADVANCED_FACE('',(#1306),#1300,.T.);
#1308=CARTESIAN_POINT('',(5.75,-14.225,83.6));
#1309=DIRECTION('',(1.,-0.,0.));
#1310=DIRECTION('',(0.,1.,0.));
#1311=AXIS2_PLACEMENT_3D('',#1308,#1309,#1310);
#1312=PLANE('',#1311);
#1313=CARTESIAN_POINT('',(5.75,-12.200337196,83.6));
#1314=VERTEX_POINT('',#1313);
#1315=CARTESIAN_POINT('',(5.75,-12.25,83.6));
#1316=DIRECTION('',(0.,1.,0.));
#1317=VECTOR('',#1316,0.049662804);
#1318=LINE('',#1315,#1317);
#1319=EDGE_CURVE('',#1044,#1314,#1318,.T.);
#1320=ORIENTED_EDGE('',*,*,#1319,.F.);
#1321=ORIENTED_EDGE('',*,*,#1141,.T.);
#1322=ORIENTED_EDGE('',*,*,#341,.T.);
#1323=CARTESIAN_POINT('',(5.75,-12.200337196,83.6));
#1324=DIRECTION('',(0.,0.,1.));
#1325=VECTOR('',#1324,0.2);
#1326=LINE('',#1323,#1325);
#1327=EDGE_CURVE('',#1314,#328,#1326,.T.);
#1328=ORIENTED_EDGE('',*,*,#1327,.F.);
#1329=EDGE_LOOP('',(#1320,#1321,#1322,#1328));
#1330=FACE_BOUND('',#1329,.T.);
#1331=ADVANCED_FACE('',(#1330),#1312,.F.);
#1332=CARTESIAN_POINT('',(15.000337196,-2.225168598,83.6));
#1333=DIRECTION('',(-1.,0.,0.));
#1334=DIRECTION('',(-0.,-1.,0.));
#1335=AXIS2_PLACEMENT_3D('',#1332,#1333,#1334);
#1336=PLANE('',#1335);
#1337=ORIENTED_EDGE('',*,*,#396,.T.);
#1338=CARTESIAN_POINT('',(15.000337196,-14.98961497,83.6));
#1339=VERTEX_POINT('',#1338);
#1340=CARTESIAN_POINT('',(15.000337196,-14.98961497,83.6));
#1341=DIRECTION('',(0.,0.,1.));
#1342=VECTOR('',#1341,0.2);
#1343=LINE('',#1340,#1342);
#1344=EDGE_CURVE('',#1339,#384,#1343,.T.);
#1345=ORIENTED_EDGE('',*,*,#1344,.F.);
#1346=CARTESIAN_POINT('',(15.000337196,7.75,83.6));
#1347=DIRECTION('',(-0.,-1.,0.));
#1348=VECTOR('',#1347,22.73961497);
#1349=LINE('',#1346,#1348);
#1350=EDGE_CURVE('',#173,#1339,#1349,.T.);
#1351=ORIENTED_EDGE('',*,*,#1350,.F.);
#1352=ORIENTED_EDGE('',*,*,#178,.T.);
#1353=EDGE_LOOP('',(#1337,#1345,#1351,#1352));
#1354=FACE_BOUND('',#1353,.T.);
#1355=ADVANCED_FACE('',(#1354),#1336,.F.);
#1356=CARTESIAN_POINT('',(13.749976083,-14.949638887,83.6));
#1357=DIRECTION('',(0.,0.,1.));
#1358=DIRECTION('',(1.,0.,-0.));
#1359=AXIS2_PLACEMENT_3D('',#1356,#1357,#1358);
#1360=CYLINDRICAL_SURFACE('',#1359,1.251);
#1361=ORIENTED_EDGE('',*,*,#390,.T.);
#1362=CARTESIAN_POINT('',(13.789952166,-16.2,83.6));
#1363=VERTEX_POINT('',#1362);
#1364=CARTESIAN_POINT('',(13.789952166,-16.2,83.6));
#1365=DIRECTION('',(0.,0.,1.));
#1366=VECTOR('',#1365,0.2);
#1367=LINE('',#1364,#1366);
#1368=EDGE_CURVE('',#1363,#376,#1367,.T.);
#1369=ORIENTED_EDGE('',*,*,#1368,.F.);
#1370=CARTESIAN_POINT('',(13.749976083,-14.949638887,83.6));
#1371=DIRECTION('',(0.,0.,-1.));
#1372=DIRECTION('',(0.999489299,-0.031955302,0.));
#1373=AXIS2_PLACEMENT_3D('',#1370,#1371,#1372);
#1374=CIRCLE('',#1373,1.251);
#1375=EDGE_CURVE('',#1339,#1363,#1374,.T.);
#1376=ORIENTED_EDGE('',*,*,#1375,.F.);
#1377=ORIENTED_EDGE('',*,*,#1344,.T.);
#1378=EDGE_LOOP('',(#1361,#1369,#1376,#1377));
#1379=FACE_BOUND('',#1378,.T.);
#1380=ADVANCED_FACE('',(#1379),#1360,.T.);
#1381=CARTESIAN_POINT('',(8.375168598,-16.2,83.6));
#1382=DIRECTION('',(0.,-1.,0.));
#1383=DIRECTION('',(0.,0.,-1.));
#1384=AXIS2_PLACEMENT_3D('',#1381,#1382,#1383);
#1385=PLANE('',#1384);
#1386=ORIENTED_EDGE('',*,*,#381,.F.);
#1387=ORIENTED_EDGE('',*,*,#1055,.F.);
#1388=CARTESIAN_POINT('',(5.75,-16.2,83.6));
#1389=DIRECTION('',(1.,0.,-0.));
#1390=VECTOR('',#1389,8.039952166);
#1391=LINE('',#1388,#1390);
#1392=EDGE_CURVE('',#1042,#1363,#1391,.T.);
#1393=ORIENTED_EDGE('',*,*,#1392,.T.);
#1394=ORIENTED_EDGE('',*,*,#1368,.T.);
#1395=EDGE_LOOP('',(#1386,#1387,#1393,#1394));
#1396=FACE_BOUND('',#1395,.T.);
#1397=ADVANCED_FACE('',(#1396),#1385,.T.);
#1398=CARTESIAN_POINT('',(7.724993256,-12.200337196,83.6));
#1399=DIRECTION('',(0.,1.,0.));
#1400=DIRECTION('',(-1.,0.,0.));
#1401=AXIS2_PLACEMENT_3D('',#1398,#1399,#1400);
#1402=PLANE('',#1401);
#1403=ORIENTED_EDGE('',*,*,#333,.F.);
#1404=CARTESIAN_POINT('',(9.699986512,-12.200337196,83.6));
#1405=VERTEX_POINT('',#1404);
#1406=CARTESIAN_POINT('',(9.699986512,-12.200337196,83.6));
#1407=DIRECTION('',(0.,0.,1.));
#1408=VECTOR('',#1407,0.2);
#1409=LINE('',#1406,#1408);
#1410=EDGE_CURVE('',#1405,#319,#1409,.T.);
#1411=ORIENTED_EDGE('',*,*,#1410,.F.);
#1412=CARTESIAN_POINT('',(9.699986512,-12.200337196,83.6));
#1413=DIRECTION('',(-1.,0.,0.));
#1414=VECTOR('',#1413,3.949986512);
#1415=LINE('',#1412,#1414);
#1416=EDGE_CURVE('',#1405,#1314,#1415,.T.);
#1417=ORIENTED_EDGE('',*,*,#1416,.T.);
#1418=ORIENTED_EDGE('',*,*,#1327,.T.);
#1419=EDGE_LOOP('',(#1403,#1411,#1417,#1418));
#1420=FACE_BOUND('',#1419,.T.);
#1421=ADVANCED_FACE('',(#1420),#1402,.T.);
#1422=CARTESIAN_POINT('',(9.75,-10.95,83.6));
#1423=DIRECTION('',(0.,0.,1.));
#1424=DIRECTION('',(1.,0.,-0.));
#1425=AXIS2_PLACEMENT_3D('',#1422,#1423,#1424);
#1426=CYLINDRICAL_SURFACE('',#1425,1.251337066);
#1427=ORIENTED_EDGE('',*,*,#325,.F.);
#1428=CARTESIAN_POINT('',(11.000337196,-11.000013488,83.6));
#1429=VERTEX_POINT('',#1428);
#1430=CARTESIAN_POINT('',(11.000337196,-11.000013488,83.6));
#1431=DIRECTION('',(0.,0.,1.));
#1432=VECTOR('',#1431,0.2);
#1433=LINE('',#1430,#1432);
#1434=EDGE_CURVE('',#1429,#311,#1433,.T.);
#1435=ORIENTED_EDGE('',*,*,#1434,.F.);
#1436=CARTESIAN_POINT('',(9.75,-10.95,83.6));
#1437=DIRECTION('',(0.,0.,-1.));
#1438=DIRECTION('',(0.039968038,-0.999200959,0.));
#1439=AXIS2_PLACEMENT_3D('',#1436,#1437,#1438);
#1440=CIRCLE('',#1439,1.251337066);
#1441=EDGE_CURVE('',#1429,#1405,#1440,.T.);
#1442=ORIENTED_EDGE('',*,*,#1441,.T.);
#1443=ORIENTED_EDGE('',*,*,#1410,.T.);
#1444=EDGE_LOOP('',(#1427,#1435,#1442,#1443));
#1445=FACE_BOUND('',#1444,.T.);
#1446=ADVANCED_FACE('',(#1445),#1426,.F.);
#1447=CARTESIAN_POINT('',(11.000337196,-2.225168598,83.6));
#1448=DIRECTION('',(1.,-0.,0.));
#1449=DIRECTION('',(0.,1.,0.));
#1450=AXIS2_PLACEMENT_3D('',#1447,#1448,#1449);
#1451=PLANE('',#1450);
#1452=ORIENTED_EDGE('',*,*,#316,.T.);
#1453=ORIENTED_EDGE('',*,*,#130,.F.);
#1454=CARTESIAN_POINT('',(11.000337196,-11.000013488,83.6));
#1455=DIRECTION('',(0.,1.,0.));
#1456=VECTOR('',#1455,18.750013488);
#1457=LINE('',#1454,#1456);
#1458=EDGE_CURVE('',#1429,#117,#1457,.T.);
#1459=ORIENTED_EDGE('',*,*,#1458,.F.);
#1460=ORIENTED_EDGE('',*,*,#1434,.T.);
#1461=EDGE_LOOP('',(#1452,#1453,#1459,#1460));
#1462=FACE_BOUND('',#1461,.T.);
#1463=ADVANCED_FACE('',(#1462),#1451,.F.);
#1464=CARTESIAN_POINT('',(0.,0.,83.6));
#1465=DIRECTION('',(0.,0.,-1.));
#1466=DIRECTION('',(0.,-1.,0.));
#1467=AXIS2_PLACEMENT_3D('',#1464,#1465,#1466);
#1468=PLANE('',#1467);
#1469=ORIENTED_EDGE('',*,*,#1350,.T.);
#1470=ORIENTED_EDGE('',*,*,#1375,.T.);
#1471=ORIENTED_EDGE('',*,*,#1392,.F.);
#1472=ORIENTED_EDGE('',*,*,#1049,.T.);
#1473=ORIENTED_EDGE('',*,*,#1319,.T.);
#1474=ORIENTED_EDGE('',*,*,#1416,.F.);
#1475=ORIENTED_EDGE('',*,*,#1441,.F.);
#1476=ORIENTED_EDGE('',*,*,#1458,.T.);
#1477=ORIENTED_EDGE('',*,*,#122,.F.);
#1478=CARTESIAN_POINT('',(10.2,10.15,83.6));
#1479=VERTEX_POINT('',#1478);
#1480=CARTESIAN_POINT('',(10.2,10.15,83.6));
#1481=DIRECTION('',(0.,-1.,0.));
#1482=VECTOR('',#1481,2.4);
#1483=LINE('',#1480,#1482);
#1484=EDGE_CURVE('',#1479,#109,#1483,.T.);
#1485=ORIENTED_EDGE('',*,*,#1484,.F.);
#1486=CARTESIAN_POINT('',(15.8,10.15,83.6));
#1487=VERTEX_POINT('',#1486);
#1488=CARTESIAN_POINT('',(10.2,10.15,83.6));
#1489=DIRECTION('',(1.,0.,-0.));
#1490=VECTOR('',#1489,5.6);
#1491=LINE('',#1488,#1490);
#1492=EDGE_CURVE('',#1479,#1487,#1491,.T.);
#1493=ORIENTED_EDGE('',*,*,#1492,.T.);
#1494=CARTESIAN_POINT('',(15.8,10.15,83.6));
#1495=DIRECTION('',(0.,-1.,0.));
#1496=VECTOR('',#1495,2.4);
#1497=LINE('',#1494,#1496);
#1498=EDGE_CURVE('',#1487,#181,#1497,.T.);
#1499=ORIENTED_EDGE('',*,*,#1498,.T.);
#1500=ORIENTED_EDGE('',*,*,#186,.F.);
#1501=EDGE_LOOP('',(#1469,#1470,#1471,#1472,#1473,#1474,#1475,#1476,#1477,#1485,#1493,#1499,#1500));
#1502=FACE_BOUND('',#1501,.T.);
#1503=ADVANCED_FACE('',(#1502),#1468,.T.);
#1504=CARTESIAN_POINT('',(10.2,10.15,83.));
#1505=DIRECTION('',(1.,0.,0.));
#1506=DIRECTION('',(0.,0.,-1.));
#1507=AXIS2_PLACEMENT_3D('',#1504,#1505,#1506);
#1508=PLANE('',#1507);
#1509=ORIENTED_EDGE('',*,*,#114,.F.);
#1510=CARTESIAN_POINT('',(10.2,10.15,82.4));
#1511=VERTEX_POINT('',#1510);
#1512=CARTESIAN_POINT('',(10.2,10.15,82.4));
#1513=DIRECTION('',(0.,-1.,0.));
#1514=VECTOR('',#1513,2.4);
#1515=LINE('',#1512,#1514);
#1516=EDGE_CURVE('',#1511,#107,#1515,.T.);
#1517=ORIENTED_EDGE('',*,*,#1516,.F.);
#1518=CARTESIAN_POINT('',(10.2,10.15,82.4));
#1519=DIRECTION('',(0.,0.,1.));
#1520=VECTOR('',#1519,1.2);
#1521=LINE('',#1518,#1520);
#1522=EDGE_CURVE('',#1511,#1479,#1521,.T.);
#1523=ORIENTED_EDGE('',*,*,#1522,.T.);
#1524=ORIENTED_EDGE('',*,*,#1484,.T.);
#1525=EDGE_LOOP('',(#1509,#1517,#1523,#1524));
#1526=FACE_BOUND('',#1525,.T.);
#1527=ADVANCED_FACE('',(#1526),#1508,.T.);
#1528=CARTESIAN_POINT('',(13.,10.15,82.4));
#1529=DIRECTION('',(0.,0.,1.));
#1530=DIRECTION('',(1.,0.,0.));
#1531=AXIS2_PLACEMENT_3D('',#1528,#1529,#1530);
#1532=PLANE('',#1531);
#1533=ORIENTED_EDGE('',*,*,#200,.F.);
#1534=CARTESIAN_POINT('',(15.8,10.15,82.4));
#1535=VERTEX_POINT('',#1534);
#1536=CARTESIAN_POINT('',(15.8,10.15,82.4));
#1537=DIRECTION('',(0.,-1.,0.));
#1538=VECTOR('',#1537,2.4);
#1539=LINE('',#1536,#1538);
#1540=EDGE_CURVE('',#1535,#189,#1539,.T.);
#1541=ORIENTED_EDGE('',*,*,#1540,.F.);
#1542=CARTESIAN_POINT('',(15.8,10.15,82.4));
#1543=DIRECTION('',(-1.,0.,0.));
#1544=VECTOR('',#1543,5.6);
#1545=LINE('',#1542,#1544);
#1546=EDGE_CURVE('',#1535,#1511,#1545,.T.);
#1547=ORIENTED_EDGE('',*,*,#1546,.T.);
#1548=ORIENTED_EDGE('',*,*,#1516,.T.);
#1549=EDGE_LOOP('',(#1533,#1541,#1547,#1548));
#1550=FACE_BOUND('',#1549,.T.);
#1551=ADVANCED_FACE('',(#1550),#1532,.T.);
#1552=CARTESIAN_POINT('',(15.8,10.15,83.));
#1553=DIRECTION('',(-1.,0.,0.));
#1554=DIRECTION('',(0.,0.,1.));
#1555=AXIS2_PLACEMENT_3D('',#1552,#1553,#1554);
#1556=PLANE('',#1555);
#1557=ORIENTED_EDGE('',*,*,#194,.F.);
#1558=ORIENTED_EDGE('',*,*,#1498,.F.);
#1559=CARTESIAN_POINT('',(15.8,10.15,83.6));
#1560=DIRECTION('',(0.,0.,-1.));
#1561=VECTOR('',#1560,1.2);
#1562=LINE('',#1559,#1561);
#1563=EDGE_CURVE('',#1487,#1535,#1562,.T.);
#1564=ORIENTED_EDGE('',*,*,#1563,.T.);
#1565=ORIENTED_EDGE('',*,*,#1540,.T.);
#1566=EDGE_LOOP('',(#1557,#1558,#1564,#1565));
#1567=FACE_BOUND('',#1566,.T.);
#1568=ADVANCED_FACE('',(#1567),#1556,.T.);
#1569=CARTESIAN_POINT('',(0.,10.15,85.3));
#1570=DIRECTION('',(0.,-1.,0.));
#1571=DIRECTION('',(-1.,0.,0.));
#1572=AXIS2_PLACEMENT_3D('',#1569,#1570,#1571);
#1573=PLANE('',#1572);
#1574=ORIENTED_EDGE('',*,*,#1522,.F.);
#1575=ORIENTED_EDGE('',*,*,#1546,.F.);
#1576=ORIENTED_EDGE('',*,*,#1563,.F.);
#1577=ORIENTED_EDGE('',*,*,#1492,.F.);
#1578=EDGE_LOOP('',(#1574,#1575,#1576,#1577));
#1579=FACE_BOUND('',#1578,.T.);
#1580=ADVANCED_FACE('',(#1579),#1573,.T.);
#1581=CARTESIAN_POINT('',(-13.7,6.8,83.05));
#1582=DIRECTION('',(0.,-1.,0.));
#1583=DIRECTION('',(0.,0.,-1.));
#1584=AXIS2_PLACEMENT_3D('',#1581,#1582,#1583);
#1585=PLANE('',#1584);
#1586=ORIENTED_EDGE('',*,*,#82,.F.);
#1587=CARTESIAN_POINT('',(-13.7,6.8,82.45));
#1588=VERTEX_POINT('',#1587);
#1589=CARTESIAN_POINT('',(-13.7,6.8,82.45));
#1590=DIRECTION('',(-1.,0.,0.));
#1591=VECTOR('',#1590,2.3);
#1592=LINE('',#1589,#1591);
#1593=EDGE_CURVE('',#1588,#69,#1592,.T.);
#1594=ORIENTED_EDGE('',*,*,#1593,.F.);
#1595=CARTESIAN_POINT('',(-13.7,6.8,83.65));
#1596=VERTEX_POINT('',#1595);
#1597=CARTESIAN_POINT('',(-13.7,6.8,82.45));
#1598=DIRECTION('',(0.,0.,1.));
#1599=VECTOR('',#1598,1.2);
#1600=LINE('',#1597,#1599);
#1601=EDGE_CURVE('',#1588,#1596,#1600,.T.);
#1602=ORIENTED_EDGE('',*,*,#1601,.T.);
#1603=CARTESIAN_POINT('',(-13.7,6.8,83.65));
#1604=DIRECTION('',(-1.,0.,0.));
#1605=VECTOR('',#1604,2.3);
#1606=LINE('',#1603,#1605);
#1607=EDGE_CURVE('',#1596,#77,#1606,.T.);
#1608=ORIENTED_EDGE('',*,*,#1607,.T.);
#1609=EDGE_LOOP('',(#1586,#1594,#1602,#1608));
#1610=FACE_BOUND('',#1609,.T.);
#1611=ADVANCED_FACE('',(#1610),#1585,.T.);
#1612=CARTESIAN_POINT('',(-13.7,2.5,82.45));
#1613=DIRECTION('',(0.,0.,1.));
#1614=DIRECTION('',(1.,0.,0.));
#1615=AXIS2_PLACEMENT_3D('',#1612,#1613,#1614);
#1616=PLANE('',#1615);
#1617=ORIENTED_EDGE('',*,*,#74,.F.);
#1618=CARTESIAN_POINT('',(-13.7,-1.8,82.45));
#1619=VERTEX_POINT('',#1618);
#1620=CARTESIAN_POINT('',(-13.7,-1.8,82.45));
#1621=DIRECTION('',(-1.,0.,0.));
#1622=VECTOR('',#1621,2.3);
#1623=LINE('',#1620,#1622);
#1624=EDGE_CURVE('',#1619,#67,#1623,.T.);
#1625=ORIENTED_EDGE('',*,*,#1624,.F.);
#1626=CARTESIAN_POINT('',(-13.7,-1.8,82.45));
#1627=DIRECTION('',(0.,1.,0.));
#1628=VECTOR('',#1627,8.6);
#1629=LINE('',#1626,#1628);
#1630=EDGE_CURVE('',#1619,#1588,#1629,.T.);
#1631=ORIENTED_EDGE('',*,*,#1630,.T.);
#1632=ORIENTED_EDGE('',*,*,#1593,.T.);
#1633=EDGE_LOOP('',(#1617,#1625,#1631,#1632));
#1634=FACE_BOUND('',#1633,.T.);
#1635=ADVANCED_FACE('',(#1634),#1616,.T.);
#1636=CARTESIAN_POINT('',(-13.7,-1.8,83.05));
#1637=DIRECTION('',(0.,1.,0.));
#1638=DIRECTION('',(0.,0.,1.));
#1639=AXIS2_PLACEMENT_3D('',#1636,#1637,#1638);
#1640=PLANE('',#1639);
#1641=ORIENTED_EDGE('',*,*,#96,.F.);
#1642=CARTESIAN_POINT('',(-13.7,-1.8,83.65));
#1643=VERTEX_POINT('',#1642);
#1644=CARTESIAN_POINT('',(-13.7,-1.8,83.65));
#1645=DIRECTION('',(-1.,0.,0.));
#1646=VECTOR('',#1645,2.3);
#1647=LINE('',#1644,#1646);
#1648=EDGE_CURVE('',#1643,#85,#1647,.T.);
#1649=ORIENTED_EDGE('',*,*,#1648,.F.);
#1650=CARTESIAN_POINT('',(-13.7,-1.8,83.65));
#1651=DIRECTION('',(0.,0.,-1.));
#1652=VECTOR('',#1651,1.2);
#1653=LINE('',#1650,#1652);
#1654=EDGE_CURVE('',#1643,#1619,#1653,.T.);
#1655=ORIENTED_EDGE('',*,*,#1654,.T.);
#1656=ORIENTED_EDGE('',*,*,#1624,.T.);
#1657=EDGE_LOOP('',(#1641,#1649,#1655,#1656));
#1658=FACE_BOUND('',#1657,.T.);
#1659=ADVANCED_FACE('',(#1658),#1640,.T.);
#1660=CARTESIAN_POINT('',(-13.7,2.5,83.65));
#1661=DIRECTION('',(0.,0.,-1.));
#1662=DIRECTION('',(-1.,0.,0.));
#1663=AXIS2_PLACEMENT_3D('',#1660,#1661,#1662);
#1664=PLANE('',#1663);
#1665=ORIENTED_EDGE('',*,*,#90,.F.);
#1666=ORIENTED_EDGE('',*,*,#1607,.F.);
#1667=CARTESIAN_POINT('',(-13.7,6.8,83.65));
#1668=DIRECTION('',(0.,-1.,0.));
#1669=VECTOR('',#1668,8.6);
#1670=LINE('',#1667,#1669);
#1671=EDGE_CURVE('',#1596,#1643,#1670,.T.);
#1672=ORIENTED_EDGE('',*,*,#1671,.T.);
#1673=ORIENTED_EDGE('',*,*,#1648,.T.);
#1674=EDGE_LOOP('',(#1665,#1666,#1672,#1673));
#1675=FACE_BOUND('',#1674,.T.);
#1676=ADVANCED_FACE('',(#1675),#1664,.T.);
#1677=CARTESIAN_POINT('',(-13.7,0.,85.3));
#1678=DIRECTION('',(-1.,0.,0.));
#1679=DIRECTION('',(0.,1.,0.));
#1680=AXIS2_PLACEMENT_3D('',#1677,#1678,#1679);
#1681=PLANE('',#1680);
#1682=ORIENTED_EDGE('',*,*,#1601,.F.);
#1683=ORIENTED_EDGE('',*,*,#1630,.F.);
#1684=ORIENTED_EDGE('',*,*,#1654,.F.);
#1685=ORIENTED_EDGE('',*,*,#1671,.F.);
#1686=EDGE_LOOP('',(#1682,#1683,#1684,#1685));
#1687=FACE_BOUND('',#1686,.T.);
#1688=ADVANCED_FACE('',(#1687),#1681,.T.);
#1689=CLOSED_SHELL('',(#100,#204,#456,#507,#524,#545,#562,#581,#605,#629,#653,#677,#701,#725,#742,#758,#789,#806,#830,#854,#878,#902,#926,#950,#974,#998,
#1015,#1035,#1082,#1106,#1130,#1153,#1199,#1230,#1254,#1278,#1295,#1307,#1331,#1355,#1380,#1397,#1421,#1446,#1463,#1503,#1527,#1551,#1568,#1580,#1611,
#1635,#1659,#1676,#1688));
#1690=MANIFOLD_SOLID_BREP('Display',#1689);
#1691=COLOUR_RGB('',0.627451003,0.627451003,0.643137276);
#1692=FILL_AREA_STYLE_COLOUR('',#1691);
#1693=FILL_AREA_STYLE('',(#1692));
#1694=SURFACE_STYLE_FILL_AREA(#1693);
#1695=SURFACE_SIDE_STYLE('',(#1694));
#1696=SURFACE_STYLE_USAGE(.BOTH.,#1695);
#1697=PRESENTATION_STYLE_ASSIGNMENT((#1696));
#26=STYLED_ITEM('',(#1697),#1690);
#16=SHAPE_REPRESENTATION('root',(#15),#10);
#17=ADVANCED_BREP_SHAPE_REPRESENTATION('root',(#1690),#10);
#1705=SHAPE_REPRESENTATION_RELATIONSHIP('','',#16,#17);
#1706=CARTESIAN_POINT('',(0.,0.,0.));
#1707=DIRECTION('',(0.,0.,1.));
#1708=DIRECTION('',(1.,0.,0.));
#1709=AXIS2_PLACEMENT_3D('',#1706,#1707,#1708);
#1711=MAPPED_ITEM('',#1710,#1709);
#1710=REPRESENTATION_MAP(#1709,#16);
#1712=APPLICATION_CONTEXT('Managed model based 3d engineering');
#1713=APPLICATION_PROTOCOL_DEFINITION('international standard','ap242_managed_model_based_3d_engineering',2014,#1712);
#1714=PRODUCT_CONTEXT('',#1712,'mechanical');
#1715=PRODUCT_DEFINITION_CONTEXT('part definition',#1712,'design');
#24=PRODUCT('root','root','',(#1714));
#1716=PRODUCT_RELATED_PRODUCT_CATEGORY('part','',(#24));
#1717=PRODUCT_DEFINITION_FORMATION_WITH_SPECIFIED_SOURCE('','',#24,.NOT_KNOWN.);
#25=PRODUCT_DEFINITION('design','',#1717,#1715);
#23=PRODUCT_DEFINITION_SHAPE('','',#25);
#1718=SHAPE_DEFINITION_REPRESENTATION(#23,#16);
#11=DRAUGHTING_MODEL('',(#1711),#10);
#1719=DESCRIPTIVE_REPRESENTATION_ITEM('KEY','/Users/colinostermann/Library/Containers/com.shapr3d.shapr/Data/tmp/FFF6D1AF-122A-4290-A196-A334DA5214B5.tmp');
#1720=PROPERTY_DEFINITION('KEY','',#25);
#1721=REPRESENTATION('',(#1719),#10);
#1722=PROPERTY_DEFINITION_REPRESENTATION(#1720,#1721);
#1723=GENERAL_PROPERTY('','KEY','');
#1724=GENERAL_PROPERTY_ASSOCIATION('','',#1723,#1720);
#1=MECHANICAL_DESIGN_GEOMETRIC_PRESENTATION_REPRESENTATION('',(#26),#10);
ENDSEC;
END-ISO-10303-21;
