ISO-10303-21;
HEADER;

/* File generated by Shapr3D Version 26.100.0.11031 */

FILE_DESCRIPTION(('HOOPS Exchange Step'),'2;1');

FILE_NAME('/Users/colinostermann/Library/Containers/com.shapr3d.shapr/Data/tmp/export/temp_export',
'2026-07-13T01:07:08-22:00',
('colinostermann'),
('Shapr3D Limited'),
'HOOPS Exchange 2026.3',
'Shapr3D',
'Authorized');

FILE_SCHEMA( ('AP242_MANAGED_MODEL_BASED_3D_ENGINEERING_MIM_LF {1 0 10303 442 1 1 4}') );

ENDSEC;

DATA;
#3=(NAMED_UNIT(*)PLANE_ANGLE_UNIT()SI_UNIT($,.RADIAN.));
#4=PLANE_ANGLE_MEASURE_WITH_UNIT(PLANE_ANGLE_MEASURE(0.0174532925),#3);
#5=(CONVERSION_BASED_UNIT('DEGREE',#4)NAMED_UNIT(#6)PLANE_ANGLE_UNIT());
#6=DIMENSIONAL_EXPONENTS(0.,0.,0.,0.,0.,0.,0.);
#7=(NAMED_UNIT(*)SI_UNIT($,.STERADIAN.)SOLID_ANGLE_UNIT());
#8=(LENGTH_UNIT()NAMED_UNIT(*)SI_UNIT(.MILLI.,.METRE.));
#9=UNCERTAINTY_MEASURE_WITH_UNIT(LENGTH_MEASURE(1.000000E-05),#8,'DISTANCE_ACCURACY_VALUE','Maximum Tolerance applied to model');
#10=(GEOMETRIC_REPRESENTATION_CONTEXT(3)GLOBAL_UNCERTAINTY_ASSIGNED_CONTEXT((#9))GLOBAL_UNIT_ASSIGNED_CONTEXT((#8,#5,#7))REPRESENTATION_CONTEXT('','root'));
#12=CARTESIAN_POINT('',(0.,0.,0.));
#13=DIRECTION('',(0.,0.,1.));
#14=DIRECTION('',(1.,0.,0.));
#15=AXIS2_PLACEMENT_3D('TS3D_PRODUCT_CSYS',#12,#13,#14);
#27=CARTESIAN_POINT('',(-24.455473418,22.795645564,103.));
#28=DIRECTION('',(0.,0.,-1.));
#29=DIRECTION('',(-1.,0.,0.));
#30=AXIS2_PLACEMENT_3D('',#27,#28,#29);
#31=CYLINDRICAL_SURFACE('',#30,0.3235);
#32=CARTESIAN_POINT('',(-24.539158251,23.108134122,102.7));
#33=VERTEX_POINT('',#32);
#34=CARTESIAN_POINT('',(-24.539158251,23.108134122,98.));
#35=VERTEX_POINT('',#34);
#36=CARTESIAN_POINT('',(-24.539158251,23.108134122,102.7));
#37=DIRECTION('',(0.,0.,-1.));
#38=VECTOR('',#37,4.7);
#39=LINE('',#36,#38);
#40=EDGE_CURVE('',#33,#35,#39,.T.);
#41=ORIENTED_EDGE('',*,*,#40,.F.);
#42=CARTESIAN_POINT('',(-24.371788585,22.483157006,102.7));
#43=VERTEX_POINT('',#42);
#44=CARTESIAN_POINT('',(-24.455473418,22.795645564,102.7));
#45=DIRECTION('',(-0.,-0.,-1.));
#46=DIRECTION('',(1.,0.,-0.));
#47=AXIS2_PLACEMENT_3D('',#44,#45,#46);
#48=CIRCLE('',#47,0.3235);
#49=EDGE_CURVE('',#33,#43,#48,.T.);
#50=ORIENTED_EDGE('',*,*,#49,.T.);
#51=CARTESIAN_POINT('',(-24.371788585,22.483157006,98.));
#52=VERTEX_POINT('',#51);
#53=CARTESIAN_POINT('',(-24.371788585,22.483157006,102.7));
#54=DIRECTION('',(0.,0.,-1.));
#55=VECTOR('',#54,4.7);
#56=LINE('',#53,#55);
#57=EDGE_CURVE('',#43,#52,#56,.T.);
#58=ORIENTED_EDGE('',*,*,#57,.T.);
#59=CARTESIAN_POINT('',(-24.455473418,22.795645564,98.));
#60=DIRECTION('',(0.,0.,1.));
#61=DIRECTION('',(0.258685727,-0.965961539,0.));
#62=AXIS2_PLACEMENT_3D('',#59,#60,#61);
#63=CIRCLE('',#62,0.3235);
#64=EDGE_CURVE('',#52,#35,#63,.T.);
#65=ORIENTED_EDGE('',*,*,#64,.T.);
#66=EDGE_LOOP('',(#41,#50,#58,#65));
#67=FACE_BOUND('',#66,.T.);
#68=ADVANCED_FACE('',(#67),#31,.T.);
#69=CARTESIAN_POINT('',(-24.767866699,23.336923754,103.));
#70=DIRECTION('',(0.,0.,-1.));
#71=DIRECTION('',(-1.,0.,0.));
#72=AXIS2_PLACEMENT_3D('',#69,#70,#71);
#73=CYLINDRICAL_SURFACE('',#72,0.3235);
#74=CARTESIAN_POINT('',(-24.996575147,23.565713386,102.7));
#75=VERTEX_POINT('',#74);
#76=CARTESIAN_POINT('',(-24.996575147,23.565713386,98.));
#77=VERTEX_POINT('',#76);
#78=CARTESIAN_POINT('',(-24.996575147,23.565713386,102.7));
#79=DIRECTION('',(0.,0.,-1.));
#80=VECTOR('',#79,4.7);
#81=LINE('',#78,#80);
#82=EDGE_CURVE('',#75,#77,#81,.T.);
#83=ORIENTED_EDGE('',*,*,#82,.F.);
#84=CARTESIAN_POINT('',(-24.767866699,23.336923754,102.7));
#85=DIRECTION('',(-0.,-0.,-1.));
#86=DIRECTION('',(1.,0.,-0.));
#87=AXIS2_PLACEMENT_3D('',#84,#85,#86);
#88=CIRCLE('',#87,0.3235);
#89=EDGE_CURVE('',#75,#33,#88,.T.);
#90=ORIENTED_EDGE('',*,*,#89,.T.);
#91=ORIENTED_EDGE('',*,*,#40,.T.);
#92=CARTESIAN_POINT('',(-24.767866699,23.336923754,98.));
#93=DIRECTION('',(0.,0.,1.));
#94=DIRECTION('',(0.706981293,-0.707232248,0.));
#95=AXIS2_PLACEMENT_3D('',#92,#93,#94);
#96=CIRCLE('',#95,0.3235);
#97=EDGE_CURVE('',#35,#77,#96,.T.);
#98=ORIENTED_EDGE('',*,*,#97,.T.);
#99=EDGE_LOOP('',(#83,#90,#91,#98));
#100=FACE_BOUND('',#99,.T.);
#101=ADVANCED_FACE('',(#100),#73,.T.);
#102=CARTESIAN_POINT('',(-25.309181862,23.648955754,103.));
#103=DIRECTION('',(0.,0.,-1.));
#104=DIRECTION('',(-1.,0.,0.));
#105=AXIS2_PLACEMENT_3D('',#102,#103,#104);
#106=CYLINDRICAL_SURFACE('',#105,0.3235);
#107=CARTESIAN_POINT('',(-25.621491772,23.733304848,102.7));
#108=VERTEX_POINT('',#107);
#109=CARTESIAN_POINT('',(-25.621491772,23.733304848,98.));
#110=VERTEX_POINT('',#109);
#111=CARTESIAN_POINT('',(-25.621491772,23.733304848,102.7));
#112=DIRECTION('',(0.,0.,-1.));
#113=VECTOR('',#112,4.7);
#114=LINE('',#111,#113);
#115=EDGE_CURVE('',#108,#110,#114,.T.);
#116=ORIENTED_EDGE('',*,*,#115,.F.);
#117=CARTESIAN_POINT('',(-25.309181862,23.648955754,102.7));
#118=DIRECTION('',(-0.,-0.,-1.));
#119=DIRECTION('',(1.,0.,-0.));
#120=AXIS2_PLACEMENT_3D('',#117,#118,#119);
#121=CIRCLE('',#120,0.3235);
#122=EDGE_CURVE('',#108,#75,#121,.T.);
#123=ORIENTED_EDGE('',*,*,#122,.T.);
#124=ORIENTED_EDGE('',*,*,#82,.T.);
#125=CARTESIAN_POINT('',(-25.309181862,23.648955754,98.));
#126=DIRECTION('',(0.,0.,1.));
#127=DIRECTION('',(0.966326784,-0.257317986,0.));
#128=AXIS2_PLACEMENT_3D('',#125,#126,#127);
#129=CIRCLE('',#128,0.3235);
#130=EDGE_CURVE('',#77,#110,#129,.T.);
#131=ORIENTED_EDGE('',*,*,#130,.T.);
#132=EDGE_LOOP('',(#116,#123,#124,#131));
#133=FACE_BOUND('',#132,.T.);
#134=ADVANCED_FACE('',(#133),#106,.T.);
#135=CARTESIAN_POINT('',(-25.621640664,23.732751617,103.));
#136=DIRECTION('',(0.965409307,-0.260739082,0.));
#137=DIRECTION('',(0.260739082,0.965409307,0.));
#138=AXIS2_PLACEMENT_3D('',#135,#136,#137);
#139=PLANE('',#138);
#140=CARTESIAN_POINT('',(-25.621788576,23.732198123,103.65110676));
#141=VERTEX_POINT('',#140);
#142=CARTESIAN_POINT('',(-25.621788576,23.732198123,98.));
#143=VERTEX_POINT('',#142);
#144=CARTESIAN_POINT('',(-25.621788576,23.732198123,103.65110676));
#145=DIRECTION('',(0.,0.,-1.));
#146=VECTOR('',#145,5.65110676);
#147=LINE('',#144,#146);
#148=EDGE_CURVE('',#141,#143,#147,.T.);
#149=ORIENTED_EDGE('',*,*,#148,.F.);
#150=CARTESIAN_POINT('',(-25.621491247,23.733304847,103.65));
#151=VERTEX_POINT('',#150);
#152=CARTESIAN_POINT('',(-25.621790133,23.732198197,103.651106686));
#153=CARTESIAN_POINT('',(-25.621690503,23.732567086,103.650737797));
#154=CARTESIAN_POINT('',(-25.621590874,23.732935968,103.6503689));
#155=CARTESIAN_POINT('',(-25.621491246,23.733304851,103.650000004));
#156=B_SPLINE_CURVE_WITH_KNOTS('',3,(#152,#153,#154,#155),.UNSPECIFIED.,.F.,.F.,(4,4),(0.,0.000001593),.UNSPECIFIED.);
#157=EDGE_CURVE('',#141,#151,#156,.T.);
#158=ORIENTED_EDGE('',*,*,#157,.T.);
#159=CARTESIAN_POINT('',(-25.621491772,23.733304848,103.65));
#160=DIRECTION('',(0.,0.,-1.));
#161=VECTOR('',#160,0.95);
#162=LINE('',#159,#161);
#163=EDGE_CURVE('',#151,#108,#162,.T.);
#164=ORIENTED_EDGE('',*,*,#163,.T.);
#165=ORIENTED_EDGE('',*,*,#115,.T.);
#166=CARTESIAN_POINT('',(-25.621491283,23.733304715,98.));
#167=DIRECTION('',(-0.260739082,-0.965409307,0.));
#168=VECTOR('',#167,0.001145831);
#169=LINE('',#166,#168);
#170=EDGE_CURVE('',#110,#143,#169,.T.);
#171=ORIENTED_EDGE('',*,*,#170,.T.);
#172=EDGE_LOOP('',(#149,#158,#164,#165,#171));
#173=FACE_BOUND('',#172,.T.);
#174=ADVANCED_FACE('',(#173),#139,.F.);
#175=CARTESIAN_POINT('',(-25.621936488,23.732751617,103.));
#176=DIRECTION('',(-0.966326784,-0.257317986,0.));
#177=DIRECTION('',(0.257317986,-0.966326784,0.));
#178=AXIS2_PLACEMENT_3D('',#175,#176,#177);
#179=PLANE('',#178);
#180=CARTESIAN_POINT('',(-25.622083805,23.733304848,103.65));
#181=VERTEX_POINT('',#180);
#182=CARTESIAN_POINT('',(-25.622083805,23.733304848,102.7));
#183=VERTEX_POINT('',#182);
#184=CARTESIAN_POINT('',(-25.62208538,23.733304848,103.65));
#185=DIRECTION('',(0.,0.,-1.));
#186=VECTOR('',#185,0.95);
#187=LINE('',#184,#186);
#188=EDGE_CURVE('',#181,#183,#187,.T.);
#189=ORIENTED_EDGE('',*,*,#188,.F.);
#190=CARTESIAN_POINT('',(-25.622083805,23.733304848,103.65));
#191=CARTESIAN_POINT('',(-25.621985566,23.732935922,103.650368949));
#192=CARTESIAN_POINT('',(-25.621887325,23.732566991,103.650737892));
#193=CARTESIAN_POINT('',(-25.621789083,23.732198054,103.651106829));
#194=B_SPLINE_CURVE_WITH_KNOTS('',3,(#190,#191,#192,#193),.UNSPECIFIED.,.F.,.F.,(4,4),(0.,0.000001593),.UNSPECIFIED.);
#195=EDGE_CURVE('',#181,#141,#194,.T.);
#196=ORIENTED_EDGE('',*,*,#195,.T.);
#197=ORIENTED_EDGE('',*,*,#148,.T.);
#198=CARTESIAN_POINT('',(-25.62208538,23.733304848,98.));
#199=VERTEX_POINT('',#198);
#200=CARTESIAN_POINT('',(-25.621789066,23.732197992,98.));
#201=DIRECTION('',(-0.257317986,0.966326784,0.));
#202=VECTOR('',#201,0.001145831);
#203=LINE('',#200,#202);
#204=EDGE_CURVE('',#143,#199,#203,.T.);
#205=ORIENTED_EDGE('',*,*,#204,.T.);
#206=CARTESIAN_POINT('',(-25.62208538,23.733304848,102.7));
#207=DIRECTION('',(0.,0.,-1.));
#208=VECTOR('',#207,4.7);
#209=LINE('',#206,#208);
#210=EDGE_CURVE('',#183,#199,#209,.T.);
#211=ORIENTED_EDGE('',*,*,#210,.F.);
#212=EDGE_LOOP('',(#189,#196,#197,#205,#211));
#213=FACE_BOUND('',#212,.T.);
#214=ADVANCED_FACE('',(#213),#179,.F.);
#215=CARTESIAN_POINT('',(-25.934395291,23.648955754,103.));
#216=DIRECTION('',(0.,0.,-1.));
#217=DIRECTION('',(-1.,0.,0.));
#218=AXIS2_PLACEMENT_3D('',#215,#216,#217);
#219=CYLINDRICAL_SURFACE('',#218,0.3235);
#220=CARTESIAN_POINT('',(-26.257895291,23.648955754,98.));
#221=VERTEX_POINT('',#220);
#222=CARTESIAN_POINT('',(-26.257895291,23.648955754,102.7));
#223=VERTEX_POINT('',#222);
#224=CARTESIAN_POINT('',(-26.257895291,23.648955754,98.));
#225=DIRECTION('',(-0.,-0.,1.));
#226=VECTOR('',#225,4.7);
#227=LINE('',#224,#226);
#228=EDGE_CURVE('',#221,#223,#227,.T.);
#229=ORIENTED_EDGE('',*,*,#228,.T.);
#230=CARTESIAN_POINT('',(-25.934395291,23.648955754,102.7));
#231=DIRECTION('',(-0.,-0.,-1.));
#232=DIRECTION('',(1.,0.,-0.));
#233=AXIS2_PLACEMENT_3D('',#230,#231,#232);
#234=CIRCLE('',#233,0.3235);
#235=EDGE_CURVE('',#223,#183,#234,.T.);
#236=ORIENTED_EDGE('',*,*,#235,.T.);
#237=ORIENTED_EDGE('',*,*,#210,.T.);
#238=CARTESIAN_POINT('',(-25.934395291,23.648955754,98.));
#239=DIRECTION('',(0.,-0.,1.));
#240=DIRECTION('',(0.965409307,0.260739082,0.));
#241=AXIS2_PLACEMENT_3D('',#238,#239,#240);
#242=CIRCLE('',#241,0.3235);
#243=EDGE_CURVE('',#199,#221,#242,.T.);
#244=ORIENTED_EDGE('',*,*,#243,.T.);
#245=EDGE_LOOP('',(#229,#236,#237,#244));
#246=FACE_BOUND('',#245,.T.);
#247=ADVANCED_FACE('',(#246),#219,.T.);
#248=CARTESIAN_POINT('',(-26.475710454,23.336923754,103.));
#249=DIRECTION('',(0.,0.,-1.));
#250=DIRECTION('',(-1.,0.,0.));
#251=AXIS2_PLACEMENT_3D('',#248,#249,#250);
#252=CYLINDRICAL_SURFACE('',#251,0.3235);
#253=CARTESIAN_POINT('',(-26.799210454,23.336923754,98.));
#254=VERTEX_POINT('',#253);
#255=CARTESIAN_POINT('',(-26.799210454,23.336923754,102.7));
#256=VERTEX_POINT('',#255);
#257=CARTESIAN_POINT('',(-26.799210454,23.336923754,98.));
#258=DIRECTION('',(-0.,-0.,1.));
#259=VECTOR('',#258,4.7);
#260=LINE('',#257,#259);
#261=EDGE_CURVE('',#254,#256,#260,.T.);
#262=ORIENTED_EDGE('',*,*,#261,.T.);
#263=CARTESIAN_POINT('',(-26.247002006,23.565713386,102.7));
#264=VERTEX_POINT('',#263);
#265=CARTESIAN_POINT('',(-26.475710454,23.336923754,102.7));
#266=DIRECTION('',(-0.,-0.,-1.));
#267=DIRECTION('',(1.,0.,-0.));
#268=AXIS2_PLACEMENT_3D('',#265,#266,#267);
#269=CIRCLE('',#268,0.3235);
#270=EDGE_CURVE('',#256,#264,#269,.T.);
#271=ORIENTED_EDGE('',*,*,#270,.T.);
#272=CARTESIAN_POINT('',(-26.247002006,23.565713386,98.));
#273=VERTEX_POINT('',#272);
#274=CARTESIAN_POINT('',(-26.247002006,23.565713386,102.7));
#275=DIRECTION('',(0.,0.,-1.));
#276=VECTOR('',#275,4.7);
#277=LINE('',#274,#276);
#278=EDGE_CURVE('',#264,#273,#277,.T.);
#279=ORIENTED_EDGE('',*,*,#278,.T.);
#280=CARTESIAN_POINT('',(-26.475710454,23.336923754,98.));
#281=DIRECTION('',(0.,-0.,1.));
#282=DIRECTION('',(0.706981293,0.707232248,0.));
#283=AXIS2_PLACEMENT_3D('',#280,#281,#282);
#284=CIRCLE('',#283,0.3235);
#285=EDGE_CURVE('',#273,#254,#284,.T.);
#286=ORIENTED_EDGE('',*,*,#285,.T.);
#287=EDGE_LOOP('',(#262,#271,#279,#286));
#288=FACE_BOUND('',#287,.T.);
#289=ADVANCED_FACE('',(#288),#252,.T.);
#290=CARTESIAN_POINT('',(-26.788103735,22.795645564,103.));
#291=DIRECTION('',(0.,0.,-1.));
#292=DIRECTION('',(-1.,0.,0.));
#293=AXIS2_PLACEMENT_3D('',#290,#291,#292);
#294=CYLINDRICAL_SURFACE('',#293,0.3235);
#295=CARTESIAN_POINT('',(-27.111603735,22.795645564,98.));
#296=VERTEX_POINT('',#295);
#297=CARTESIAN_POINT('',(-27.111603735,22.795645564,102.7));
#298=VERTEX_POINT('',#297);
#299=CARTESIAN_POINT('',(-27.111603735,22.795645564,98.));
#300=DIRECTION('',(-0.,-0.,1.));
#301=VECTOR('',#300,4.7);
#302=LINE('',#299,#301);
#303=EDGE_CURVE('',#296,#298,#302,.T.);
#304=ORIENTED_EDGE('',*,*,#303,.T.);
#305=CARTESIAN_POINT('',(-26.704418902,23.108134122,102.7));
#306=VERTEX_POINT('',#305);
#307=CARTESIAN_POINT('',(-26.788103735,22.795645564,102.7));
#308=DIRECTION('',(-0.,-0.,-1.));
#309=DIRECTION('',(1.,0.,-0.));
#310=AXIS2_PLACEMENT_3D('',#307,#308,#309);
#311=CIRCLE('',#310,0.3235);
#312=EDGE_CURVE('',#298,#306,#311,.T.);
#313=ORIENTED_EDGE('',*,*,#312,.T.);
#314=CARTESIAN_POINT('',(-26.704418902,23.108134122,98.));
#315=VERTEX_POINT('',#314);
#316=CARTESIAN_POINT('',(-26.704418902,23.108134122,102.7));
#317=DIRECTION('',(0.,0.,-1.));
#318=VECTOR('',#317,4.7);
#319=LINE('',#316,#318);
#320=EDGE_CURVE('',#306,#315,#319,.T.);
#321=ORIENTED_EDGE('',*,*,#320,.T.);
#322=CARTESIAN_POINT('',(-26.788103735,22.795645564,98.));
#323=DIRECTION('',(0.,-0.,1.));
#324=DIRECTION('',(0.258685727,0.965961539,0.));
#325=AXIS2_PLACEMENT_3D('',#322,#323,#324);
#326=CIRCLE('',#325,0.3235);
#327=EDGE_CURVE('',#315,#296,#326,.T.);
#328=ORIENTED_EDGE('',*,*,#327,.T.);
#329=EDGE_LOOP('',(#304,#313,#321,#328));
#330=FACE_BOUND('',#329,.T.);
#331=ADVANCED_FACE('',(#330),#294,.T.);
#332=CARTESIAN_POINT('',(-26.788029801,22.170688257,103.));
#333=DIRECTION('',(0.,0.,-1.));
#334=DIRECTION('',(-1.,0.,0.));
#335=AXIS2_PLACEMENT_3D('',#332,#333,#334);
#336=CYLINDRICAL_SURFACE('',#335,0.3235);
#337=CARTESIAN_POINT('',(-27.111529801,22.170688257,98.));
#338=VERTEX_POINT('',#337);
#339=CARTESIAN_POINT('',(-27.111529801,22.170688257,102.7));
#340=VERTEX_POINT('',#339);
#341=CARTESIAN_POINT('',(-27.111529801,22.170688257,98.));
#342=DIRECTION('',(-0.,-0.,1.));
#343=VECTOR('',#342,4.7);
#344=LINE('',#341,#343);
#345=EDGE_CURVE('',#338,#340,#344,.T.);
#346=ORIENTED_EDGE('',*,*,#345,.T.);
#347=CARTESIAN_POINT('',(-26.871788567,22.483157006,102.7));
#348=VERTEX_POINT('',#347);
#349=CARTESIAN_POINT('',(-26.788029801,22.170688257,102.7));
#350=DIRECTION('',(-0.,-0.,-1.));
#351=DIRECTION('',(1.,0.,-0.));
#352=AXIS2_PLACEMENT_3D('',#349,#350,#351);
#353=CIRCLE('',#352,0.3235);
#354=EDGE_CURVE('',#340,#348,#353,.T.);
#355=ORIENTED_EDGE('',*,*,#354,.T.);
#356=CARTESIAN_POINT('',(-26.871788567,22.483157006,98.));
#357=VERTEX_POINT('',#356);
#358=CARTESIAN_POINT('',(-26.871788567,22.483157006,102.7));
#359=DIRECTION('',(0.,0.,-1.));
#360=VECTOR('',#359,4.7);
#361=LINE('',#358,#360);
#362=EDGE_CURVE('',#348,#357,#361,.T.);
#363=ORIENTED_EDGE('',*,*,#362,.T.);
#364=CARTESIAN_POINT('',(-26.788029801,22.170688257,98.));
#365=DIRECTION('',(0.,0.,1.));
#366=DIRECTION('',(-0.258914269,0.965900306,0.));
#367=AXIS2_PLACEMENT_3D('',#364,#365,#366);
#368=CIRCLE('',#367,0.3235);
#369=EDGE_CURVE('',#357,#338,#368,.T.);
#370=ORIENTED_EDGE('',*,*,#369,.T.);
#371=EDGE_LOOP('',(#346,#355,#363,#370));
#372=FACE_BOUND('',#371,.T.);
#373=ADVANCED_FACE('',(#372),#336,.T.);
#374=CARTESIAN_POINT('',(-26.475508461,21.629483995,103.));
#375=DIRECTION('',(0.,0.,-1.));
#376=DIRECTION('',(-1.,0.,0.));
#377=AXIS2_PLACEMENT_3D('',#374,#375,#376);
#378=CYLINDRICAL_SURFACE('',#377,0.3235);
#379=CARTESIAN_POINT('',(-26.799008461,21.629483995,98.));
#380=VERTEX_POINT('',#379);
#381=CARTESIAN_POINT('',(-26.799008461,21.629483995,102.7));
#382=VERTEX_POINT('',#381);
#383=CARTESIAN_POINT('',(-26.799008461,21.629483995,98.));
#384=DIRECTION('',(-0.,-0.,1.));
#385=VECTOR('',#384,4.7);
#386=LINE('',#383,#385);
#387=EDGE_CURVE('',#380,#382,#386,.T.);
#388=ORIENTED_EDGE('',*,*,#387,.T.);
#389=CARTESIAN_POINT('',(-26.704271035,21.858219508,102.7));
#390=VERTEX_POINT('',#389);
#391=CARTESIAN_POINT('',(-26.475508461,21.629483995,102.7));
#392=DIRECTION('',(-0.,-0.,-1.));
#393=DIRECTION('',(1.,0.,-0.));
#394=AXIS2_PLACEMENT_3D('',#391,#392,#393);
#395=CIRCLE('',#394,0.3235);
#396=EDGE_CURVE('',#382,#390,#395,.T.);
#397=ORIENTED_EDGE('',*,*,#396,.T.);
#398=CARTESIAN_POINT('',(-26.704271035,21.858219508,98.));
#399=VERTEX_POINT('',#398);
#400=CARTESIAN_POINT('',(-26.704271035,21.858219508,102.7));
#401=DIRECTION('',(0.,0.,-1.));
#402=VECTOR('',#401,4.7);
#403=LINE('',#400,#402);
#404=EDGE_CURVE('',#390,#399,#403,.T.);
#405=ORIENTED_EDGE('',*,*,#404,.T.);
#406=CARTESIAN_POINT('',(-26.475508461,21.629483995,98.));
#407=DIRECTION('',(0.,0.,1.));
#408=DIRECTION('',(-0.707148606,0.707064954,0.));
#409=AXIS2_PLACEMENT_3D('',#406,#407,#408);
#410=CIRCLE('',#409,0.3235);
#411=EDGE_CURVE('',#399,#380,#410,.T.);
#412=ORIENTED_EDGE('',*,*,#411,.T.);
#413=EDGE_LOOP('',(#388,#397,#405,#412));
#414=FACE_BOUND('',#413,.T.);
#415=ADVANCED_FACE('',(#414),#378,.T.);
#416=CARTESIAN_POINT('',(-25.934267232,21.317026683,103.));
#417=DIRECTION('',(0.,0.,-1.));
#418=DIRECTION('',(-1.,0.,0.));
#419=AXIS2_PLACEMENT_3D('',#416,#417,#418);
#420=CYLINDRICAL_SURFACE('',#419,0.3235);
#421=CARTESIAN_POINT('',(-26.257767232,21.317026683,98.));
#422=VERTEX_POINT('',#421);
#423=CARTESIAN_POINT('',(-26.257767232,21.317026683,102.7));
#424=VERTEX_POINT('',#423);
#425=CARTESIAN_POINT('',(-26.257767232,21.317026683,98.));
#426=DIRECTION('',(-0.,-0.,1.));
#427=VECTOR('',#426,4.7);
#428=LINE('',#425,#427);
#429=EDGE_CURVE('',#422,#424,#428,.T.);
#430=ORIENTED_EDGE('',*,*,#429,.T.);
#431=CARTESIAN_POINT('',(-26.246745887,21.400748483,102.7));
#432=VERTEX_POINT('',#431);
#433=CARTESIAN_POINT('',(-25.934267232,21.317026683,102.7));
#434=DIRECTION('',(-0.,-0.,-1.));
#435=DIRECTION('',(1.,0.,-0.));
#436=AXIS2_PLACEMENT_3D('',#433,#434,#435);
#437=CIRCLE('',#436,0.3235);
#438=EDGE_CURVE('',#424,#432,#437,.T.);
#439=ORIENTED_EDGE('',*,*,#438,.T.);
#440=CARTESIAN_POINT('',(-26.246745887,21.400748483,98.));
#441=VERTEX_POINT('',#440);
#442=CARTESIAN_POINT('',(-26.246745887,21.400748483,102.7));
#443=DIRECTION('',(0.,0.,-1.));
#444=VECTOR('',#443,4.7);
#445=LINE('',#442,#444);
#446=EDGE_CURVE('',#432,#441,#445,.T.);
#447=ORIENTED_EDGE('',*,*,#446,.T.);
#448=CARTESIAN_POINT('',(-25.934267232,21.317026683,98.));
#449=DIRECTION('',(0.,0.,1.));
#450=DIRECTION('',(-0.965930929,0.2588,0.));
#451=AXIS2_PLACEMENT_3D('',#448,#449,#450);
#452=CIRCLE('',#451,0.3235);
#453=EDGE_CURVE('',#441,#422,#452,.T.);
#454=ORIENTED_EDGE('',*,*,#453,.T.);
#455=EDGE_LOOP('',(#430,#439,#447,#454));
#456=FACE_BOUND('',#455,.T.);
#457=ADVANCED_FACE('',(#456),#420,.T.);
#458=CARTESIAN_POINT('',(-25.309309921,21.317026683,103.));
#459=DIRECTION('',(0.,0.,-1.));
#460=DIRECTION('',(-1.,0.,0.));
#461=AXIS2_PLACEMENT_3D('',#458,#459,#460);
#462=CYLINDRICAL_SURFACE('',#461,0.3235);
#463=CARTESIAN_POINT('',(-24.996831265,21.400748483,102.7));
#464=VERTEX_POINT('',#463);
#465=CARTESIAN_POINT('',(-24.996831265,21.400748483,98.));
#466=VERTEX_POINT('',#465);
#467=CARTESIAN_POINT('',(-24.996831265,21.400748483,102.7));
#468=DIRECTION('',(0.,0.,-1.));
#469=VECTOR('',#468,4.7);
#470=LINE('',#467,#469);
#471=EDGE_CURVE('',#464,#466,#470,.T.);
#472=ORIENTED_EDGE('',*,*,#471,.F.);
#473=CARTESIAN_POINT('',(-25.621788576,21.233304883,102.7));
#474=VERTEX_POINT('',#473);
#475=CARTESIAN_POINT('',(-25.309309921,21.317026683,102.7));
#476=DIRECTION('',(-0.,-0.,-1.));
#477=DIRECTION('',(1.,0.,-0.));
#478=AXIS2_PLACEMENT_3D('',#475,#476,#477);
#479=CIRCLE('',#478,0.3235);
#480=EDGE_CURVE('',#464,#474,#479,.T.);
#481=ORIENTED_EDGE('',*,*,#480,.T.);
#482=CARTESIAN_POINT('',(-25.621788576,21.233304883,98.));
#483=VERTEX_POINT('',#482);
#484=CARTESIAN_POINT('',(-25.621788576,21.233304883,102.7));
#485=DIRECTION('',(0.,0.,-1.));
#486=VECTOR('',#485,4.7);
#487=LINE('',#484,#486);
#488=EDGE_CURVE('',#474,#483,#487,.T.);
#489=ORIENTED_EDGE('',*,*,#488,.T.);
#490=CARTESIAN_POINT('',(-25.309309921,21.317026683,98.));
#491=DIRECTION('',(0.,0.,1.));
#492=DIRECTION('',(-0.965930929,-0.2588,0.));
#493=AXIS2_PLACEMENT_3D('',#490,#491,#492);
#494=CIRCLE('',#493,0.3235);
#495=EDGE_CURVE('',#483,#466,#494,.T.);
#496=ORIENTED_EDGE('',*,*,#495,.T.);
#497=EDGE_LOOP('',(#472,#481,#489,#496));
#498=FACE_BOUND('',#497,.T.);
#499=ADVANCED_FACE('',(#498),#462,.T.);
#500=CARTESIAN_POINT('',(-24.768068691,21.629483995,103.));
#501=DIRECTION('',(0.,0.,-1.));
#502=DIRECTION('',(-1.,0.,0.));
#503=AXIS2_PLACEMENT_3D('',#500,#501,#502);
#504=CYLINDRICAL_SURFACE('',#503,0.3235);
#505=CARTESIAN_POINT('',(-24.539306117,21.858219508,102.7));
#506=VERTEX_POINT('',#505);
#507=CARTESIAN_POINT('',(-24.539306117,21.858219508,98.));
#508=VERTEX_POINT('',#507);
#509=CARTESIAN_POINT('',(-24.539306117,21.858219508,102.7));
#510=DIRECTION('',(0.,0.,-1.));
#511=VECTOR('',#510,4.7);
#512=LINE('',#509,#511);
#513=EDGE_CURVE('',#506,#508,#512,.T.);
#514=ORIENTED_EDGE('',*,*,#513,.F.);
#515=CARTESIAN_POINT('',(-24.768068691,21.629483995,102.7));
#516=DIRECTION('',(-0.,-0.,-1.));
#517=DIRECTION('',(1.,0.,-0.));
#518=AXIS2_PLACEMENT_3D('',#515,#516,#517);
#519=CIRCLE('',#518,0.3235);
#520=EDGE_CURVE('',#506,#464,#519,.T.);
#521=ORIENTED_EDGE('',*,*,#520,.T.);
#522=ORIENTED_EDGE('',*,*,#471,.T.);
#523=CARTESIAN_POINT('',(-24.768068691,21.629483995,98.));
#524=DIRECTION('',(0.,0.,1.));
#525=DIRECTION('',(-0.707148606,-0.707064954,0.));
#526=AXIS2_PLACEMENT_3D('',#523,#524,#525);
#527=CIRCLE('',#526,0.3235);
#528=EDGE_CURVE('',#466,#508,#527,.T.);
#529=ORIENTED_EDGE('',*,*,#528,.T.);
#530=EDGE_LOOP('',(#514,#521,#522,#529));
#531=FACE_BOUND('',#530,.T.);
#532=ADVANCED_FACE('',(#531),#504,.T.);
#533=CARTESIAN_POINT('',(-24.455547351,22.170688257,103.));
#534=DIRECTION('',(0.,0.,-1.));
#535=DIRECTION('',(-1.,0.,0.));
#536=AXIS2_PLACEMENT_3D('',#533,#534,#535);
#537=CYLINDRICAL_SURFACE('',#536,0.3235);
#538=ORIENTED_EDGE('',*,*,#57,.F.);
#539=CARTESIAN_POINT('',(-24.455547351,22.170688257,102.7));
#540=DIRECTION('',(-0.,-0.,-1.));
#541=DIRECTION('',(1.,0.,-0.));
#542=AXIS2_PLACEMENT_3D('',#539,#540,#541);
#543=CIRCLE('',#542,0.3235);
#544=EDGE_CURVE('',#43,#506,#543,.T.);
#545=ORIENTED_EDGE('',*,*,#544,.T.);
#546=ORIENTED_EDGE('',*,*,#513,.T.);
#547=CARTESIAN_POINT('',(-24.455547351,22.170688257,98.));
#548=DIRECTION('',(0.,0.,1.));
#549=DIRECTION('',(-0.258914269,-0.965900306,0.));
#550=AXIS2_PLACEMENT_3D('',#547,#548,#549);
#551=CIRCLE('',#550,0.3235);
#552=EDGE_CURVE('',#508,#52,#551,.T.);
#553=ORIENTED_EDGE('',*,*,#552,.T.);
#554=EDGE_LOOP('',(#538,#545,#546,#553));
#555=FACE_BOUND('',#554,.T.);
#556=ADVANCED_FACE('',(#555),#537,.T.);
#557=CARTESIAN_POINT('',(-25.621788576,22.483304883,98.));
#558=DIRECTION('',(0.,0.,1.));
#559=DIRECTION('',(-1.,0.,0.));
#560=AXIS2_PLACEMENT_3D('',#557,#558,#559);
#561=PLANE('',#560);
#562=CARTESIAN_POINT('',(-26.821788576,22.483304883,98.));
#563=VERTEX_POINT('',#562);
#564=CARTESIAN_POINT('',(-26.821788576,22.483304883,98.));
#565=CARTESIAN_POINT('',(-26.821788576,22.244896239,98.));
#566=CARTESIAN_POINT('',(-26.730444015,22.024084764,98.));
#567=CARTESIAN_POINT('',(-26.63941079,21.804025896,98.));
#568=CARTESIAN_POINT('',(-26.470316714,21.634776745,98.));
#569=CARTESIAN_POINT('',(-26.302000098,21.466305768,98.));
#570=CARTESIAN_POINT('',(-26.081008695,21.374649444,98.));
#571=CARTESIAN_POINT('',(-25.861033367,21.283414537,98.));
#572=CARTESIAN_POINT('',(-25.621788576,21.283304883,98.));
#573=CARTESIAN_POINT('',(-25.383643785,21.283195733,98.));
#574=CARTESIAN_POINT('',(-25.162568457,21.374649444,98.));
#575=CARTESIAN_POINT('',(-24.94250959,21.465682668,98.));
#576=CARTESIAN_POINT('',(-24.773260439,21.634776745,98.));
#577=CARTESIAN_POINT('',(-24.604789462,21.803093361,98.));
#578=CARTESIAN_POINT('',(-24.513133137,22.024084764,98.));
#579=CARTESIAN_POINT('',(-24.42189823,22.244060092,98.));
#580=CARTESIAN_POINT('',(-24.421788576,22.483304883,98.));
#581=CARTESIAN_POINT('',(-24.421679427,22.721449674,98.));
#582=CARTESIAN_POINT('',(-24.513133137,22.942525002,98.));
#583=CARTESIAN_POINT('',(-24.604166362,23.162583869,98.));
#584=CARTESIAN_POINT('',(-24.773260439,23.33183302,98.));
#585=CARTESIAN_POINT('',(-24.941577055,23.500303997,98.));
#586=CARTESIAN_POINT('',(-25.162568457,23.591960322,98.));
#587=CARTESIAN_POINT('',(-25.382543786,23.683195229,98.));
#588=CARTESIAN_POINT('',(-25.621788576,23.683304883,98.));
#589=CARTESIAN_POINT('',(-25.859933367,23.683414032,98.));
#590=CARTESIAN_POINT('',(-26.081008695,23.591960322,98.));
#591=CARTESIAN_POINT('',(-26.301067563,23.500927097,98.));
#592=CARTESIAN_POINT('',(-26.470316714,23.33183302,98.));
#593=CARTESIAN_POINT('',(-26.638787691,23.163516404,98.));
#594=CARTESIAN_POINT('',(-26.730444015,22.942525002,98.));
#595=CARTESIAN_POINT('',(-26.821788576,22.722285288,98.));
#596=CARTESIAN_POINT('',(-26.821788576,22.483304883,98.));
#597=B_SPLINE_CURVE_WITH_KNOTS('',2,(#564,#565,#566,#567,#568,#569,#570,#571,#572,#573,#574,#575,#576,#577,#578,#579,#580,#581,#582,#583,#584,#585,#586,#587,#588,#589,
#590,#591,#592,#593,#594,#595,#596),.UNSPECIFIED.,.T.,.F.,(3,2,2,2,2,2,2,2,2,2,2,2,2,2,2,2,3),(0.,0.0625,0.125,0.1875,0.25,0.3125,0.375,0.4375,0.5,0.5625,0.625,0.6875,0.75,0.8125,0.875,0.9375,1.),.UNSPECIFIED.);
#598=EDGE_CURVE('',#563,#563,#597,.T.);
#599=ORIENTED_EDGE('',*,*,#598,.T.);
#600=EDGE_LOOP('',(#599));
#601=FACE_BOUND('',#600,.T.);
#602=ORIENTED_EDGE('',*,*,#64,.F.);
#603=ORIENTED_EDGE('',*,*,#552,.F.);
#604=ORIENTED_EDGE('',*,*,#528,.F.);
#605=ORIENTED_EDGE('',*,*,#495,.F.);
#606=CARTESIAN_POINT('',(-25.934267232,21.317026683,98.));
#607=DIRECTION('',(0.,0.,1.));
#608=DIRECTION('',(-0.965930929,0.2588,0.));
#609=AXIS2_PLACEMENT_3D('',#606,#607,#608);
#610=CIRCLE('',#609,0.3235);
#611=EDGE_CURVE('',#422,#483,#610,.T.);
#612=ORIENTED_EDGE('',*,*,#611,.F.);
#613=ORIENTED_EDGE('',*,*,#453,.F.);
#614=CARTESIAN_POINT('',(-26.475508461,21.629483995,98.));
#615=DIRECTION('',(0.,0.,1.));
#616=DIRECTION('',(-0.707148606,0.707064954,0.));
#617=AXIS2_PLACEMENT_3D('',#614,#615,#616);
#618=CIRCLE('',#617,0.3235);
#619=EDGE_CURVE('',#380,#441,#618,.T.);
#620=ORIENTED_EDGE('',*,*,#619,.F.);
#621=ORIENTED_EDGE('',*,*,#411,.F.);
#622=CARTESIAN_POINT('',(-26.788029801,22.170688257,98.));
#623=DIRECTION('',(0.,0.,1.));
#624=DIRECTION('',(-0.258914269,0.965900306,0.));
#625=AXIS2_PLACEMENT_3D('',#622,#623,#624);
#626=CIRCLE('',#625,0.3235);
#627=EDGE_CURVE('',#338,#399,#626,.T.);
#628=ORIENTED_EDGE('',*,*,#627,.F.);
#629=ORIENTED_EDGE('',*,*,#369,.F.);
#630=CARTESIAN_POINT('',(-26.788103735,22.795645564,98.));
#631=DIRECTION('',(0.,-0.,1.));
#632=DIRECTION('',(0.258685727,0.965961539,0.));
#633=AXIS2_PLACEMENT_3D('',#630,#631,#632);
#634=CIRCLE('',#633,0.3235);
#635=EDGE_CURVE('',#296,#357,#634,.T.);
#636=ORIENTED_EDGE('',*,*,#635,.F.);
#637=ORIENTED_EDGE('',*,*,#327,.F.);
#638=CARTESIAN_POINT('',(-26.475710454,23.336923754,98.));
#639=DIRECTION('',(0.,-0.,1.));
#640=DIRECTION('',(0.706981293,0.707232248,0.));
#641=AXIS2_PLACEMENT_3D('',#638,#639,#640);
#642=CIRCLE('',#641,0.3235);
#643=EDGE_CURVE('',#254,#315,#642,.T.);
#644=ORIENTED_EDGE('',*,*,#643,.F.);
#645=ORIENTED_EDGE('',*,*,#285,.F.);
#646=CARTESIAN_POINT('',(-25.934395291,23.648955754,98.));
#647=DIRECTION('',(0.,-0.,1.));
#648=DIRECTION('',(0.965409307,0.260739082,0.));
#649=AXIS2_PLACEMENT_3D('',#646,#647,#648);
#650=CIRCLE('',#649,0.3235);
#651=EDGE_CURVE('',#221,#273,#650,.T.);
#652=ORIENTED_EDGE('',*,*,#651,.F.);
#653=ORIENTED_EDGE('',*,*,#243,.F.);
#654=ORIENTED_EDGE('',*,*,#204,.F.);
#655=ORIENTED_EDGE('',*,*,#170,.F.);
#656=ORIENTED_EDGE('',*,*,#130,.F.);
#657=ORIENTED_EDGE('',*,*,#97,.F.);
#658=EDGE_LOOP('',(#602,#603,#604,#605,#612,#613,#620,#621,#628,#629,#636,#637,#644,#645,#652,#653,#654,#655,#656,#657));
#659=FACE_BOUND('',#658,.T.);
#660=ADVANCED_FACE('',(#601,#659),#561,.F.);
#661=CARTESIAN_POINT('',(-25.621788576,22.483304883,104.));
#662=DIRECTION('',(0.,0.,-1.));
#663=DIRECTION('',(-1.,0.,0.));
#664=AXIS2_PLACEMENT_3D('',#661,#662,#663);
#665=CYLINDRICAL_SURFACE('',#664,1.25);
#666=CARTESIAN_POINT('',(-26.871788576,22.483304883,103.65));
#667=VERTEX_POINT('',#666);
#668=CARTESIAN_POINT('',(-26.871788576,22.483304883,102.7));
#669=DIRECTION('',(-0.,-0.,1.));
#670=VECTOR('',#669,0.95);
#671=LINE('',#668,#670);
#672=EDGE_CURVE('',#348,#667,#671,.T.);
#673=ORIENTED_EDGE('',*,*,#672,.T.);
#674=CARTESIAN_POINT('',(-25.621788576,22.483304883,103.65));
#675=DIRECTION('',(-0.,-0.,-1.));
#676=DIRECTION('',(1.,0.,-0.));
#677=AXIS2_PLACEMENT_3D('',#674,#675,#676);
#678=CIRCLE('',#677,1.25);
#679=EDGE_CURVE('',#667,#181,#678,.T.);
#680=ORIENTED_EDGE('',*,*,#679,.T.);
#681=ORIENTED_EDGE('',*,*,#188,.T.);
#682=CARTESIAN_POINT('',(-26.073193188,23.648955687,102.884757495));
#683=VERTEX_POINT('',#682);
#684=CARTESIAN_POINT('',(-25.622083805,23.733304848,102.7));
#685=CARTESIAN_POINT('',(-25.67414863,23.733292551,102.75026709));
#686=CARTESIAN_POINT('',(-25.725945634,23.730055674,102.800433863));
#687=CARTESIAN_POINT('',(-25.777845127,23.723525167,102.850097142));
#688=CARTESIAN_POINT('',(-25.803794873,23.720259913,102.874928782));
#689=CARTESIAN_POINT('',(-25.829699633,23.716189625,102.899712047));
#690=CARTESIAN_POINT('',(-25.856271025,23.711115121,102.923664196));
#691=CARTESIAN_POINT('',(-25.869556722,23.708577869,102.935640271));
#692=CARTESIAN_POINT('',(-25.882950553,23.705806211,102.94747297));
#693=CARTESIAN_POINT('',(-25.897257689,23.702573831,102.958276541));
#694=CARTESIAN_POINT('',(-25.911564824,23.699341451,102.969080111));
#695=CARTESIAN_POINT('',(-25.927354298,23.695516602,102.980026739));
#696=CARTESIAN_POINT('',(-25.944840798,23.690838428,102.980334424));
#697=CARTESIAN_POINT('',(-25.962327297,23.686160253,102.98064211));
#698=CARTESIAN_POINT('',(-25.978165769,23.681516845,102.969877053));
#699=CARTESIAN_POINT('',(-25.99216574,23.677172865,102.959206689));
#700=CARTESIAN_POINT('',(-26.006165711,23.672828885,102.948536325));
#701=CARTESIAN_POINT('',(-26.019230307,23.668515987,102.936672942));
#702=CARTESIAN_POINT('',(-26.032079877,23.664050854,102.92465598));
#703=CARTESIAN_POINT('',(-26.057779016,23.655120587,102.900622055));
#704=CARTESIAN_POINT('',(-26.082365017,23.645655976,102.875724677));
#705=CARTESIAN_POINT('',(-26.106589444,23.635462909,102.850778017));
#706=CARTESIAN_POINT('',(-26.155038299,23.615076776,102.800884698));
#707=CARTESIAN_POINT('',(-26.201786955,23.591830195,102.750412839));
#708=CARTESIAN_POINT('',(-26.247002006,23.565713386,102.7));
#709=B_SPLINE_CURVE_WITH_KNOTS('',3,(#684,#685,#686,#687,#688,#689,#690,#691,#692,#693,#694,#695,#696,#697,#698,#699,#700,#701,#702,#703,#704,#705,#706,#707,#708),.UNSPECIFIED.,.F.,.F.,(4,3,3,3,3,3,3,3,4),(-0.00047128,-0.000253792,-0.000145048,-0.000090676,-0.000036304,0.000018068,0.00007244,0.000181184,0.000398672),.UNSPECIFIED.);
#710=EDGE_CURVE('',#183,#683,#709,.T.);
#711=ORIENTED_EDGE('',*,*,#710,.T.);
#712=CARTESIAN_POINT('',(-25.622083805,23.733304848,102.7));
#713=CARTESIAN_POINT('',(-25.67414863,23.733292551,102.75026709));
#714=CARTESIAN_POINT('',(-25.725945634,23.730055674,102.800433863));
#715=CARTESIAN_POINT('',(-25.777845127,23.723525167,102.850097142));
#716=CARTESIAN_POINT('',(-25.803794873,23.720259913,102.874928782));
#717=CARTESIAN_POINT('',(-25.829699633,23.716189625,102.899712047));
#718=CARTESIAN_POINT('',(-25.856271025,23.711115121,102.923664196));
#719=CARTESIAN_POINT('',(-25.869556722,23.708577869,102.935640271));
#720=CARTESIAN_POINT('',(-25.882950553,23.705806211,102.94747297));
#721=CARTESIAN_POINT('',(-25.897257689,23.702573831,102.958276541));
#722=CARTESIAN_POINT('',(-25.911564824,23.699341451,102.969080111));
#723=CARTESIAN_POINT('',(-25.927354298,23.695516602,102.980026739));
#724=CARTESIAN_POINT('',(-25.944840798,23.690838428,102.980334424));
#725=CARTESIAN_POINT('',(-25.962327297,23.686160253,102.98064211));
#726=CARTESIAN_POINT('',(-25.978165769,23.681516845,102.969877053));
#727=CARTESIAN_POINT('',(-25.99216574,23.677172865,102.959206689));
#728=CARTESIAN_POINT('',(-26.006165711,23.672828885,102.948536325));
#729=CARTESIAN_POINT('',(-26.019230307,23.668515987,102.936672942));
#730=CARTESIAN_POINT('',(-26.032079877,23.664050854,102.92465598));
#731=CARTESIAN_POINT('',(-26.057779016,23.655120587,102.900622055));
#732=CARTESIAN_POINT('',(-26.082365017,23.645655976,102.875724677));
#733=CARTESIAN_POINT('',(-26.106589444,23.635462909,102.850778017));
#734=CARTESIAN_POINT('',(-26.155038299,23.615076776,102.800884698));
#735=CARTESIAN_POINT('',(-26.201786955,23.591830195,102.750412839));
#736=CARTESIAN_POINT('',(-26.247002006,23.565713386,102.7));
#737=B_SPLINE_CURVE_WITH_KNOTS('',3,(#712,#713,#714,#715,#716,#717,#718,#719,#720,#721,#722,#723,#724,#725,#726,#727,#728,#729,#730,#731,#732,#733,#734,#735,#736),.UNSPECIFIED.,.F.,.F.,(4,3,3,3,3,3,3,3,4),(-0.00047128,-0.000253792,-0.000145048,-0.000090676,-0.000036304,0.000018068,0.00007244,0.000181184,0.000398672),.UNSPECIFIED.);
#738=EDGE_CURVE('',#683,#264,#737,.T.);
#739=ORIENTED_EDGE('',*,*,#738,.T.);
#740=CARTESIAN_POINT('',(-26.534934765,23.336923387,102.964323631));
#741=VERTEX_POINT('',#740);
#742=CARTESIAN_POINT('',(-26.247002006,23.565713386,102.7));
#743=CARTESIAN_POINT('',(-26.292141469,23.539640237,102.750352528));
#744=CARTESIAN_POINT('',(-26.335430737,23.510902328,102.800606599));
#745=CARTESIAN_POINT('',(-26.377149765,23.479261445,102.850369333));
#746=CARTESIAN_POINT('',(-26.398009279,23.463441004,102.8752507));
#747=CARTESIAN_POINT('',(-26.418424356,23.446945851,102.900086416));
#748=CARTESIAN_POINT('',(-26.438905538,23.429254073,102.924104378));
#749=CARTESIAN_POINT('',(-26.449146129,23.420408184,102.93611336));
#750=CARTESIAN_POINT('',(-26.459360224,23.411307483,102.947983197));
#751=CARTESIAN_POINT('',(-26.470132228,23.401353382,102.958829345));
#752=CARTESIAN_POINT('',(-26.480904232,23.391399282,102.969675492));
#753=CARTESIAN_POINT('',(-26.492667484,23.380187419,102.980710192));
#754=CARTESIAN_POINT('',(-26.505483414,23.367376958,102.980910955));
#755=CARTESIAN_POINT('',(-26.518299344,23.354566497,102.981111717));
#756=CARTESIAN_POINT('',(-26.529644389,23.342672281,102.970174347));
#757=CARTESIAN_POINT('',(-26.539568728,23.331938841,102.959447457));
#758=CARTESIAN_POINT('',(-26.549493066,23.3212054,102.948720568));
#759=CARTESIAN_POINT('',(-26.558659696,23.310925939,102.93679989));
#760=CARTESIAN_POINT('',(-26.567531998,23.300659995,102.924776871));
#761=CARTESIAN_POINT('',(-26.585276602,23.280128109,102.900730834));
#762=CARTESIAN_POINT('',(-26.601832073,23.259648287,102.875814406));
#763=CARTESIAN_POINT('',(-26.617719392,23.23870002,102.850831414));
#764=CARTESIAN_POINT('',(-26.649494031,23.196803485,102.80086543));
#765=CARTESIAN_POINT('',(-26.678329283,23.153339133,102.750415314));
#766=CARTESIAN_POINT('',(-26.704418902,23.108134122,102.7));
#767=B_SPLINE_CURVE_WITH_KNOTS('',3,(#742,#743,#744,#745,#746,#747,#748,#749,#750,#751,#752,#753,#754,#755,#756,#757,#758,#759,#760,#761,#762,#763,#764,#765,#766),.UNSPECIFIED.,.F.,.F.,(4,3,3,3,3,3,3,3,4),(-0.000456663,-0.000239449,-0.000130841,-0.000076538,-0.000022234,0.00003207,0.000086374,0.000194981,0.000412196),.UNSPECIFIED.);
#768=EDGE_CURVE('',#264,#741,#767,.T.);
#769=ORIENTED_EDGE('',*,*,#768,.T.);
#770=CARTESIAN_POINT('',(-26.247002006,23.565713386,102.7));
#771=CARTESIAN_POINT('',(-26.292141469,23.539640237,102.750352528));
#772=CARTESIAN_POINT('',(-26.335430737,23.510902328,102.800606599));
#773=CARTESIAN_POINT('',(-26.377149765,23.479261445,102.850369333));
#774=CARTESIAN_POINT('',(-26.398009279,23.463441004,102.8752507));
#775=CARTESIAN_POINT('',(-26.418424356,23.446945851,102.900086416));
#776=CARTESIAN_POINT('',(-26.438905538,23.429254073,102.924104378));
#777=CARTESIAN_POINT('',(-26.449146129,23.420408184,102.93611336));
#778=CARTESIAN_POINT('',(-26.459360224,23.411307483,102.947983197));
#779=CARTESIAN_POINT('',(-26.470132228,23.401353382,102.958829345));
#780=CARTESIAN_POINT('',(-26.480904232,23.391399282,102.969675492));
#781=CARTESIAN_POINT('',(-26.492667484,23.380187419,102.980710192));
#782=CARTESIAN_POINT('',(-26.505483414,23.367376958,102.980910955));
#783=CARTESIAN_POINT('',(-26.518299344,23.354566497,102.981111717));
#784=CARTESIAN_POINT('',(-26.529644389,23.342672281,102.970174347));
#785=CARTESIAN_POINT('',(-26.539568728,23.331938841,102.959447457));
#786=CARTESIAN_POINT('',(-26.549493066,23.3212054,102.948720568));
#787=CARTESIAN_POINT('',(-26.558659696,23.310925939,102.93679989));
#788=CARTESIAN_POINT('',(-26.567531998,23.300659995,102.924776871));
#789=CARTESIAN_POINT('',(-26.585276602,23.280128109,102.900730834));
#790=CARTESIAN_POINT('',(-26.601832073,23.259648287,102.875814406));
#791=CARTESIAN_POINT('',(-26.617719392,23.23870002,102.850831414));
#792=CARTESIAN_POINT('',(-26.649494031,23.196803485,102.80086543));
#793=CARTESIAN_POINT('',(-26.678329283,23.153339133,102.750415314));
#794=CARTESIAN_POINT('',(-26.704418902,23.108134122,102.7));
#795=B_SPLINE_CURVE_WITH_KNOTS('',3,(#770,#771,#772,#773,#774,#775,#776,#777,#778,#779,#780,#781,#782,#783,#784,#785,#786,#787,#788,#789,#790,#791,#792,#793,#794),.UNSPECIFIED.,.F.,.F.,(4,3,3,3,3,3,3,3,4),(-0.000456663,-0.000239449,-0.000130841,-0.000076538,-0.000022234,0.00003207,0.000086374,0.000194981,0.000412196),.UNSPECIFIED.);
#796=EDGE_CURVE('',#741,#306,#795,.T.);
#797=ORIENTED_EDGE('',*,*,#796,.T.);
#798=CARTESIAN_POINT('',(-26.832137172,22.795645724,102.979507057));
#799=VERTEX_POINT('',#798);
#800=CARTESIAN_POINT('',(-26.704418902,23.108134122,102.7));
#801=CARTESIAN_POINT('',(-26.730476029,23.062985408,102.750352528));
#802=CARTESIAN_POINT('',(-26.753598516,23.016453927,102.800606599));
#803=CARTESIAN_POINT('',(-26.773909716,22.968193405,102.850369333));
#804=CARTESIAN_POINT('',(-26.784065316,22.944063145,102.8752507));
#805=CARTESIAN_POINT('',(-26.793498681,22.919570757,102.900086416));
#806=CARTESIAN_POINT('',(-26.802391024,22.894008987,102.924104378));
#807=CARTESIAN_POINT('',(-26.806837195,22.881228102,102.93611336));
#808=CARTESIAN_POINT('',(-26.811133023,22.868239786,102.947983197));
#809=CARTESIAN_POINT('',(-26.815485354,22.854233452,102.958829345));
#810=CARTESIAN_POINT('',(-26.819837685,22.840227117,102.969675492));
#811=CARTESIAN_POINT('',(-26.824419643,22.824635914,102.980710192));
#812=CARTESIAN_POINT('',(-26.829114024,22.807133949,102.980910955));
#813=CARTESIAN_POINT('',(-26.833808404,22.789631985,102.981111717));
#814=CARTESIAN_POINT('',(-26.837687024,22.773658922,102.970174347));
#815=CARTESIAN_POINT('',(-26.840915595,22.759401448,102.959447457));
#816=CARTESIAN_POINT('',(-26.844144166,22.745143974,102.948720568));
#817=CARTESIAN_POINT('',(-26.846943501,22.731658495,102.93679989));
#818=CARTESIAN_POINT('',(-26.849494694,22.718331877,102.924776871));
#819=CARTESIAN_POINT('',(-26.85459708,22.691678641,102.900730834));
#820=CARTESIAN_POINT('',(-26.858695653,22.665665021,102.875814406));
#821=CARTESIAN_POINT('',(-26.86198137,22.639579759,102.850831414));
#822=CARTESIAN_POINT('',(-26.868552805,22.587409235,102.80086543));
#823=CARTESIAN_POINT('',(-26.871794742,22.535350504,102.750415314));
#824=CARTESIAN_POINT('',(-26.871788567,22.483157006,102.7));
#825=B_SPLINE_CURVE_WITH_KNOTS('',3,(#800,#801,#802,#803,#804,#805,#806,#807,#808,#809,#810,#811,#812,#813,#814,#815,#816,#817,#818,#819,#820,#821,#822,#823,#824),.UNSPECIFIED.,.F.,.F.,(4,3,3,3,3,3,3,3,4),(-0.000456663,-0.000239449,-0.000130841,-0.000076538,-0.000022234,0.00003207,0.000086374,0.000194981,0.000412196),.UNSPECIFIED.);
#826=EDGE_CURVE('',#306,#799,#825,.T.);
#827=ORIENTED_EDGE('',*,*,#826,.T.);
#828=CARTESIAN_POINT('',(-26.704418902,23.108134122,102.7));
#829=CARTESIAN_POINT('',(-26.730476029,23.062985408,102.750352528));
#830=CARTESIAN_POINT('',(-26.753598516,23.016453927,102.800606599));
#831=CARTESIAN_POINT('',(-26.773909716,22.968193405,102.850369333));
#832=CARTESIAN_POINT('',(-26.784065316,22.944063145,102.8752507));
#833=CARTESIAN_POINT('',(-26.793498681,22.919570757,102.900086416));
#834=CARTESIAN_POINT('',(-26.802391024,22.894008987,102.924104378));
#835=CARTESIAN_POINT('',(-26.806837195,22.881228102,102.93611336));
#836=CARTESIAN_POINT('',(-26.811133023,22.868239786,102.947983197));
#837=CARTESIAN_POINT('',(-26.815485354,22.854233452,102.958829345));
#838=CARTESIAN_POINT('',(-26.819837685,22.840227117,102.969675492));
#839=CARTESIAN_POINT('',(-26.824419643,22.824635914,102.980710192));
#840=CARTESIAN_POINT('',(-26.829114024,22.807133949,102.980910955));
#841=CARTESIAN_POINT('',(-26.833808404,22.789631985,102.981111717));
#842=CARTESIAN_POINT('',(-26.837687024,22.773658922,102.970174347));
#843=CARTESIAN_POINT('',(-26.840915595,22.759401448,102.959447457));
#844=CARTESIAN_POINT('',(-26.844144166,22.745143974,102.948720568));
#845=CARTESIAN_POINT('',(-26.846943501,22.731658495,102.93679989));
#846=CARTESIAN_POINT('',(-26.849494694,22.718331877,102.924776871));
#847=CARTESIAN_POINT('',(-26.85459708,22.691678641,102.900730834));
#848=CARTESIAN_POINT('',(-26.858695653,22.665665021,102.875814406));
#849=CARTESIAN_POINT('',(-26.86198137,22.639579759,102.850831414));
#850=CARTESIAN_POINT('',(-26.868552805,22.587409235,102.80086543));
#851=CARTESIAN_POINT('',(-26.871794742,22.535350504,102.750415314));
#852=CARTESIAN_POINT('',(-26.871788567,22.483157006,102.7));
#853=B_SPLINE_CURVE_WITH_KNOTS('',3,(#828,#829,#830,#831,#832,#833,#834,#835,#836,#837,#838,#839,#840,#841,#842,#843,#844,#845,#846,#847,#848,#849,#850,#851,#852),.UNSPECIFIED.,.F.,.F.,(4,3,3,3,3,3,3,3,4),(-0.000456663,-0.000239449,-0.000130841,-0.000076538,-0.000022234,0.00003207,0.000086374,0.000194981,0.000412196),.UNSPECIFIED.);
#854=EDGE_CURVE('',#799,#348,#853,.T.);
#855=ORIENTED_EDGE('',*,*,#854,.T.);
#856=EDGE_LOOP('',(#673,#680,#681,#711,#739,#769,#797,#827,#855));
#857=FACE_BOUND('',#856,.T.);
#858=ADVANCED_FACE('',(#857),#665,.T.);
#859=CARTESIAN_POINT('',(-25.621788576,22.483304883,104.));
#860=DIRECTION('',(0.,0.,1.));
#861=DIRECTION('',(-1.,0.,0.));
#862=AXIS2_PLACEMENT_3D('',#859,#860,#861);
#863=PLANE('',#862);
#864=CARTESIAN_POINT('',(-25.622001141,23.383304858,104.));
#865=VERTEX_POINT('',#864);
#866=CARTESIAN_POINT('',(-26.521788576,22.483304883,104.));
#867=VERTEX_POINT('',#866);
#868=CARTESIAN_POINT('',(-25.621788576,22.483304883,104.));
#869=DIRECTION('',(0.,0.,1.));
#870=DIRECTION('',(1.,0.,-0.));
#871=AXIS2_PLACEMENT_3D('',#868,#869,#870);
#872=CIRCLE('',#871,0.9);
#873=EDGE_CURVE('',#865,#867,#872,.T.);
#874=ORIENTED_EDGE('',*,*,#873,.T.);
#875=CARTESIAN_POINT('',(-25.621788576,22.483304883,104.));
#876=DIRECTION('',(0.,0.,1.));
#877=DIRECTION('',(1.,0.,-0.));
#878=AXIS2_PLACEMENT_3D('',#875,#876,#877);
#879=CIRCLE('',#878,0.9);
#880=EDGE_CURVE('',#867,#865,#879,.T.);
#881=ORIENTED_EDGE('',*,*,#880,.T.);
#882=EDGE_LOOP('',(#874,#881));
#883=FACE_BOUND('',#882,.T.);
#884=CARTESIAN_POINT('',(-24.733788576,22.483304883,104.));
#885=VERTEX_POINT('',#884);
#886=CARTESIAN_POINT('',(-26.509788576,22.483304883,104.));
#887=VERTEX_POINT('',#886);
#888=CARTESIAN_POINT('',(-24.733788576,22.483304883,104.));
#889=CARTESIAN_POINT('',(-24.733788576,22.367081596,104.));
#890=CARTESIAN_POINT('',(-24.780025074,22.134635024,104.));
#891=CARTESIAN_POINT('',(-24.977530684,21.83904699,104.));
#892=CARTESIAN_POINT('',(-25.273118717,21.641541381,104.));
#893=CARTESIAN_POINT('',(-25.621788576,21.572186634,104.));
#894=CARTESIAN_POINT('',(-25.970458435,21.641541381,104.));
#895=CARTESIAN_POINT('',(-26.266046469,21.83904699,104.));
#896=CARTESIAN_POINT('',(-26.463552078,22.134635024,104.));
#897=CARTESIAN_POINT('',(-26.532906825,22.483304883,104.));
#898=CARTESIAN_POINT('',(-26.463552078,22.831974742,104.));
#899=CARTESIAN_POINT('',(-26.266046469,23.127562775,104.));
#900=CARTESIAN_POINT('',(-25.970458435,23.325068385,104.));
#901=CARTESIAN_POINT('',(-25.621788576,23.394423132,104.));
#902=CARTESIAN_POINT('',(-25.273118717,23.325068385,104.));
#903=CARTESIAN_POINT('',(-24.977530684,23.127562775,104.));
#904=CARTESIAN_POINT('',(-24.780025074,22.831974742,104.));
#905=CARTESIAN_POINT('',(-24.733788576,22.599528169,104.));
#906=CARTESIAN_POINT('',(-24.733788576,22.483304883,104.));
#907=B_SPLINE_CURVE_WITH_KNOTS('',3,(#888,#889,#890,#891,#892,#893,#894,#895,#896,#897,#898,#899,#900,#901,#902,#903,#904,#905,#906),.UNSPECIFIED.,.T.,.F.,(4,1,1,1,1,1,1,1,1,1,1,1,1,1,1,1,4),(0.,0.392699082,0.785398163,1.178097245,1.570796327,1.963495408,2.35619449,2.748893572,3.141592654,3.534291735,3.926990817,4.319689899,4.71238898,5.105088062,5.497787144,5.890486225,6.283185307),.UNSPECIFIED.);
#908=EDGE_CURVE('',#885,#887,#907,.T.);
#909=ORIENTED_EDGE('',*,*,#908,.T.);
#910=CARTESIAN_POINT('',(-24.733788576,22.483304883,104.));
#911=CARTESIAN_POINT('',(-24.733788576,22.367081596,104.));
#912=CARTESIAN_POINT('',(-24.780025074,22.134635024,104.));
#913=CARTESIAN_POINT('',(-24.977530684,21.83904699,104.));
#914=CARTESIAN_POINT('',(-25.273118717,21.641541381,104.));
#915=CARTESIAN_POINT('',(-25.621788576,21.572186634,104.));
#916=CARTESIAN_POINT('',(-25.970458435,21.641541381,104.));
#917=CARTESIAN_POINT('',(-26.266046469,21.83904699,104.));
#918=CARTESIAN_POINT('',(-26.463552078,22.134635024,104.));
#919=CARTESIAN_POINT('',(-26.532906825,22.483304883,104.));
#920=CARTESIAN_POINT('',(-26.463552078,22.831974742,104.));
#921=CARTESIAN_POINT('',(-26.266046469,23.127562775,104.));
#922=CARTESIAN_POINT('',(-25.970458435,23.325068385,104.));
#923=CARTESIAN_POINT('',(-25.621788576,23.394423132,104.));
#924=CARTESIAN_POINT('',(-25.273118717,23.325068385,104.));
#925=CARTESIAN_POINT('',(-24.977530684,23.127562775,104.));
#926=CARTESIAN_POINT('',(-24.780025074,22.831974742,104.));
#927=CARTESIAN_POINT('',(-24.733788576,22.599528169,104.));
#928=CARTESIAN_POINT('',(-24.733788576,22.483304883,104.));
#929=B_SPLINE_CURVE_WITH_KNOTS('',3,(#910,#911,#912,#913,#914,#915,#916,#917,#918,#919,#920,#921,#922,#923,#924,#925,#926,#927,#928),.UNSPECIFIED.,.T.,.F.,(4,1,1,1,1,1,1,1,1,1,1,1,1,1,1,1,4),(0.,0.392699082,0.785398163,1.178097245,1.570796327,1.963495408,2.35619449,2.748893572,3.141592654,3.534291735,3.926990817,4.319689899,4.71238898,5.105088062,5.497787144,5.890486225,6.283185307),.UNSPECIFIED.);
#930=EDGE_CURVE('',#887,#885,#929,.T.);
#931=ORIENTED_EDGE('',*,*,#930,.T.);
#932=EDGE_LOOP('',(#909,#931));
#933=FACE_BOUND('',#932,.T.);
#934=ADVANCED_FACE('',(#883,#933),#863,.T.);
#935=CARTESIAN_POINT('',(-26.509788576,22.483304883,104.));
#936=CARTESIAN_POINT('',(-26.613788576,22.483304883,102.));
#937=CARTESIAN_POINT('',(-26.717788576,22.483304883,100.));
#938=CARTESIAN_POINT('',(-26.821788576,22.483304883,98.));
#939=CARTESIAN_POINT('',(-26.509788576,22.599528169,104.));
#940=CARTESIAN_POINT('',(-26.613788576,22.613139905,102.));
#941=CARTESIAN_POINT('',(-26.717788576,22.626751641,100.));
#942=CARTESIAN_POINT('',(-26.821788576,22.640363378,98.));
#943=CARTESIAN_POINT('',(-26.463552078,22.831974742,104.));
#944=CARTESIAN_POINT('',(-26.562136993,22.87280995,102.));
#945=CARTESIAN_POINT('',(-26.660721907,22.913645159,100.));
#946=CARTESIAN_POINT('',(-26.759306822,22.954480368,98.));
#947=CARTESIAN_POINT('',(-26.266046469,23.127562775,104.));
#948=CARTESIAN_POINT('',(-26.341500096,23.203016402,102.));
#949=CARTESIAN_POINT('',(-26.416953723,23.278470029,100.));
#950=CARTESIAN_POINT('',(-26.49240735,23.353923656,98.));
#951=CARTESIAN_POINT('',(-25.970458435,23.325068385,104.));
#952=CARTESIAN_POINT('',(-26.011293644,23.423653299,102.));
#953=CARTESIAN_POINT('',(-26.052128852,23.522238214,100.));
#954=CARTESIAN_POINT('',(-26.092964061,23.620823129,98.));
#955=CARTESIAN_POINT('',(-25.621788576,23.394423132,104.));
#956=CARTESIAN_POINT('',(-25.621788576,23.501130674,102.));
#957=CARTESIAN_POINT('',(-25.621788576,23.607838217,100.));
#958=CARTESIAN_POINT('',(-25.621788576,23.71454576,98.));
#959=CARTESIAN_POINT('',(-25.273118717,23.325068385,104.));
#960=CARTESIAN_POINT('',(-25.232283509,23.423653299,102.));
#961=CARTESIAN_POINT('',(-25.1914483,23.522238214,100.));
#962=CARTESIAN_POINT('',(-25.150613091,23.620823129,98.));
#963=CARTESIAN_POINT('',(-24.977530684,23.127562775,104.));
#964=CARTESIAN_POINT('',(-24.902077057,23.203016402,102.));
#965=CARTESIAN_POINT('',(-24.82662343,23.278470029,100.));
#966=CARTESIAN_POINT('',(-24.751169803,23.353923656,98.));
#967=CARTESIAN_POINT('',(-24.780025074,22.831974742,104.));
#968=CARTESIAN_POINT('',(-24.68144016,22.87280995,102.));
#969=CARTESIAN_POINT('',(-24.582855245,22.913645159,100.));
#970=CARTESIAN_POINT('',(-24.48427033,22.954480368,98.));
#971=CARTESIAN_POINT('',(-24.710670327,22.483304883,104.));
#972=CARTESIAN_POINT('',(-24.603962785,22.483304883,102.));
#973=CARTESIAN_POINT('',(-24.497255242,22.483304883,100.));
#974=CARTESIAN_POINT('',(-24.390547699,22.483304883,98.));
#975=CARTESIAN_POINT('',(-24.780025074,22.134635024,104.));
#976=CARTESIAN_POINT('',(-24.68144016,22.093799815,102.));
#977=CARTESIAN_POINT('',(-24.582855245,22.052964607,100.));
#978=CARTESIAN_POINT('',(-24.48427033,22.012129398,98.));
#979=CARTESIAN_POINT('',(-24.977530684,21.83904699,104.));
#980=CARTESIAN_POINT('',(-24.902077057,21.763593363,102.));
#981=CARTESIAN_POINT('',(-24.82662343,21.688139736,100.));
#982=CARTESIAN_POINT('',(-24.751169803,21.612686109,98.));
#983=CARTESIAN_POINT('',(-25.273118717,21.641541381,104.));
#984=CARTESIAN_POINT('',(-25.232283509,21.542956466,102.));
#985=CARTESIAN_POINT('',(-25.1914483,21.444371551,100.));
#986=CARTESIAN_POINT('',(-25.150613091,21.345786637,98.));
#987=CARTESIAN_POINT('',(-25.621788576,21.572186634,104.));
#988=CARTESIAN_POINT('',(-25.621788576,21.465479091,102.));
#989=CARTESIAN_POINT('',(-25.621788576,21.358771548,100.));
#990=CARTESIAN_POINT('',(-25.621788576,21.252064006,98.));
#991=CARTESIAN_POINT('',(-25.970458435,21.641541381,104.));
#992=CARTESIAN_POINT('',(-26.011293644,21.542956466,102.));
#993=CARTESIAN_POINT('',(-26.052128852,21.444371551,100.));
#994=CARTESIAN_POINT('',(-26.092964061,21.345786637,98.));
#995=CARTESIAN_POINT('',(-26.266046469,21.83904699,104.));
#996=CARTESIAN_POINT('',(-26.341500096,21.763593363,102.));
#997=CARTESIAN_POINT('',(-26.416953723,21.688139736,100.));
#998=CARTESIAN_POINT('',(-26.49240735,21.612686109,98.));
#999=CARTESIAN_POINT('',(-26.463552078,22.134635024,104.));
#1000=CARTESIAN_POINT('',(-26.562136993,22.093799815,102.));
#1001=CARTESIAN_POINT('',(-26.660721907,22.052964607,100.));
#1002=CARTESIAN_POINT('',(-26.759306822,22.012129398,98.));
#1003=CARTESIAN_POINT('',(-26.509788576,22.367081596,104.));
#1004=CARTESIAN_POINT('',(-26.613788576,22.35346986,102.));
#1005=CARTESIAN_POINT('',(-26.717788576,22.339858124,100.));
#1006=CARTESIAN_POINT('',(-26.821788576,22.326246388,98.));
#1007=CARTESIAN_POINT('',(-26.509788576,22.483304883,104.));
#1008=CARTESIAN_POINT('',(-26.613788576,22.483304883,102.));
#1009=CARTESIAN_POINT('',(-26.717788576,22.483304883,100.));
#1010=CARTESIAN_POINT('',(-26.821788576,22.483304883,98.));
#1011=B_SPLINE_SURFACE_WITH_KNOTS('',3,3,((#935,#936,#937,#938),(#939,#940,#941,#942),(#943,#944,#945,#946),(#947,#948,#949,#950),(#951,#952,#953,#954),(#955,#956,#957,#958),(#959,#960,#961,#962),(#963,#964,#965,#966),(#967,#968,#969,#970),(#971,#972,#973,#974),(#975,#976,#977,#978),(#979,#980,#981,#982),(#983,#984,#985,#986),(#987,#988,#989,#990),(#991,#992,#993,#994),(#995,#996,#997,#998),(#999,#1000,#1001,#1002),(#1003,#1004,#1005,#1006),(#1007,#1008,#1009,#1010)),.UNSPECIFIED.,.T.,.F.,.U.,(4,1,1,1,1,1,1,1,1,1,1,1,1,1,1,1,4),(4,4),(0.,0.0625,0.125,0.1875,0.25,0.3125,0.375,0.4375,0.5,0.5625,0.625,0.6875,0.75,0.8125,0.875,0.9375,1.),(0.,1.),.UNSPECIFIED.);
#1012=CARTESIAN_POINT('',(-26.821788576,22.483304883,98.));
#1013=CARTESIAN_POINT('',(-26.717788576,22.483304883,100.));
#1014=CARTESIAN_POINT('',(-26.613788576,22.483304883,102.));
#1015=CARTESIAN_POINT('',(-26.509788576,22.483304883,104.));
#1016=B_SPLINE_CURVE_WITH_KNOTS('',3,(#1012,#1013,#1014,#1015),.UNSPECIFIED.,.F.,.F.,(4,4),(0.,1.),.UNSPECIFIED.);
#1017=EDGE_CURVE('',#563,#887,#1016,.T.);
#1018=ORIENTED_EDGE('',*,*,#1017,.F.);
#1019=ORIENTED_EDGE('',*,*,#598,.F.);
#1020=ORIENTED_EDGE('',*,*,#1017,.T.);
#1021=ORIENTED_EDGE('',*,*,#908,.F.);
#1022=ORIENTED_EDGE('',*,*,#930,.F.);
#1023=EDGE_LOOP('',(#1018,#1019,#1020,#1021,#1022));
#1024=FACE_BOUND('',#1023,.T.);
#1025=ADVANCED_FACE('',(#1024),#1011,.F.);
#1026=CARTESIAN_POINT('',(-25.621788576,22.483304883,104.));
#1027=DIRECTION('',(0.,0.,-1.));
#1028=DIRECTION('',(-1.,0.,0.));
#1029=AXIS2_PLACEMENT_3D('',#1026,#1027,#1028);
#1030=CONICAL_SURFACE('',#1029,0.9,45.);
#1031=CARTESIAN_POINT('',(-26.871788576,22.483304883,103.65));
#1032=DIRECTION('',(0.707106781,-0.,0.707106781));
#1033=VECTOR('',#1032,0.494974747);
#1034=LINE('',#1031,#1033);
#1035=EDGE_CURVE('',#667,#867,#1034,.T.);
#1036=ORIENTED_EDGE('',*,*,#1035,.T.);
#1037=ORIENTED_EDGE('',*,*,#873,.F.);
#1038=ORIENTED_EDGE('',*,*,#880,.F.);
#1039=ORIENTED_EDGE('',*,*,#1035,.F.);
#1040=CARTESIAN_POINT('',(-25.621788576,22.483304883,103.65));
#1041=DIRECTION('',(-0.,-0.,-1.));
#1042=DIRECTION('',(1.,0.,-0.));
#1043=AXIS2_PLACEMENT_3D('',#1040,#1041,#1042);
#1044=CIRCLE('',#1043,1.25);
#1045=EDGE_CURVE('',#151,#667,#1044,.T.);
#1046=ORIENTED_EDGE('',*,*,#1045,.F.);
#1047=ORIENTED_EDGE('',*,*,#157,.F.);
#1048=ORIENTED_EDGE('',*,*,#195,.F.);
#1049=ORIENTED_EDGE('',*,*,#679,.F.);
#1050=EDGE_LOOP('',(#1036,#1037,#1038,#1039,#1046,#1047,#1048,#1049));
#1051=FACE_BOUND('',#1050,.T.);
#1052=ADVANCED_FACE('',(#1051),#1030,.T.);
#1053=CARTESIAN_POINT('',(-25.934395291,23.648955754,103.));
#1054=DIRECTION('',(0.,0.,-1.));
#1055=DIRECTION('',(-1.,0.,0.));
#1056=AXIS2_PLACEMENT_3D('',#1053,#1054,#1055);
#1057=CONICAL_SURFACE('',#1056,0.0235,45.);
#1058=CARTESIAN_POINT('',(-26.257895291,23.648955754,102.7));
#1059=DIRECTION('',(0.707106781,-0.,0.707106781));
#1060=VECTOR('',#1059,0.261247387);
#1061=LINE('',#1058,#1060);
#1062=EDGE_CURVE('',#223,#683,#1061,.T.);
#1063=ORIENTED_EDGE('',*,*,#1062,.T.);
#1064=ORIENTED_EDGE('',*,*,#710,.F.);
#1065=ORIENTED_EDGE('',*,*,#235,.F.);
#1066=EDGE_LOOP('',(#1063,#1064,#1065));
#1067=FACE_BOUND('',#1066,.T.);
#1068=ADVANCED_FACE('',(#1067),#1057,.T.);
#1069=CARTESIAN_POINT('',(-25.309181862,23.648955754,103.));
#1070=DIRECTION('',(0.,0.,-1.));
#1071=DIRECTION('',(-1.,0.,0.));
#1072=AXIS2_PLACEMENT_3D('',#1069,#1070,#1071);
#1073=CONICAL_SURFACE('',#1072,0.0235,45.);
#1074=CARTESIAN_POINT('',(-24.996575147,23.565713386,102.7));
#1075=CARTESIAN_POINT('',(-25.041659384,23.591754636,102.750266988));
#1076=CARTESIAN_POINT('',(-25.08812456,23.6148697,102.800434461));
#1077=CARTESIAN_POINT('',(-25.136327185,23.635184754,102.850097636));
#1078=CARTESIAN_POINT('',(-25.160428497,23.645342281,102.874929224));
#1079=CARTESIAN_POINT('',(-25.184893678,23.654780294,102.899712438));
#1080=CARTESIAN_POINT('',(-25.210438526,23.663682423,102.92366453));
#1081=CARTESIAN_POINT('',(-25.223210951,23.668133487,102.935640577));
#1082=CARTESIAN_POINT('',(-25.236194291,23.672435709,102.947473248));
#1083=CARTESIAN_POINT('',(-25.250198923,23.676796035,102.958276781));
#1084=CARTESIAN_POINT('',(-25.264203555,23.68115636,102.969080315));
#1085=CARTESIAN_POINT('',(-25.279788114,23.685745462,102.980026882));
#1086=CARTESIAN_POINT('',(-25.297268895,23.690444881,102.98033443));
#1087=CARTESIAN_POINT('',(-25.314749675,23.695144301,102.980641978));
#1088=CARTESIAN_POINT('',(-25.330786126,23.699049175,102.969876898));
#1089=CARTESIAN_POINT('',(-25.345081004,23.702293366,102.95920654));
#1090=CARTESIAN_POINT('',(-25.359375882,23.705537558,102.948536182));
#1091=CARTESIAN_POINT('',(-25.372845365,23.708340625,102.936672815));
#1092=CARTESIAN_POINT('',(-25.386204848,23.710904291,102.924655872));
#1093=CARTESIAN_POINT('',(-25.412923815,23.716031624,102.900621985));
#1094=CARTESIAN_POINT('',(-25.4389464,23.720139333,102.875724652));
#1095=CARTESIAN_POINT('',(-25.465020427,23.723435419,102.85077803));
#1096=CARTESIAN_POINT('',(-25.51716848,23.730027591,102.800884787));
#1097=CARTESIAN_POINT('',(-25.569275801,23.733292438,102.750413018));
#1098=CARTESIAN_POINT('',(-25.6214915,23.733304847,102.700000263));
#1099=B_SPLINE_CURVE_WITH_KNOTS('',3,(#1074,#1075,#1076,#1077,#1078,#1079,#1080,#1081,#1082,#1083,#1084,#1085,#1086,#1087,#1088,#1089,#1090,#1091,#1092,#1093,#1094,#1095,#1096,#1097,#1098),.UNSPECIFIED.,.F.,.F.,(4,3,3,3,3,3,3,3,4),(-0.000471279,-0.000253791,-0.000145047,-0.000090675,-0.000036303,0.000018069,0.00007244,0.000181184,0.000398672),.UNSPECIFIED.);
#1100=EDGE_CURVE('',#75,#108,#1099,.T.);
#1101=ORIENTED_EDGE('',*,*,#1100,.F.);
#1102=ORIENTED_EDGE('',*,*,#122,.F.);
#1103=EDGE_LOOP('',(#1101,#1102));
#1104=FACE_BOUND('',#1103,.T.);
#1105=ADVANCED_FACE('',(#1104),#1073,.T.);
#1106=CARTESIAN_POINT('',(-24.767866699,23.336923754,103.));
#1107=DIRECTION('',(0.,0.,-1.));
#1108=DIRECTION('',(-1.,0.,0.));
#1109=AXIS2_PLACEMENT_3D('',#1106,#1107,#1108);
#1110=CONICAL_SURFACE('',#1109,0.0235,45.);
#1111=CARTESIAN_POINT('',(-24.539158251,23.108134122,102.7));
#1112=CARTESIAN_POINT('',(-24.565215378,23.153282835,102.750352528));
#1113=CARTESIAN_POINT('',(-24.593937921,23.1965823,102.800606599));
#1114=CARTESIAN_POINT('',(-24.625563996,23.238312555,102.850369333));
#1115=CARTESIAN_POINT('',(-24.641377033,23.259177682,102.8752507));
#1116=CARTESIAN_POINT('',(-24.657864939,23.279598613,102.900086416));
#1117=CARTESIAN_POINT('',(-24.675549448,23.300086072,102.924104378));
#1118=CARTESIAN_POINT('',(-24.684391702,23.310329802,102.93611336));
#1119=CARTESIAN_POINT('',(-24.693488777,23.320547126,102.947983197));
#1120=CARTESIAN_POINT('',(-24.703439054,23.331322662,102.958829345));
#1121=CARTESIAN_POINT('',(-24.713389331,23.342098198,102.969675492));
#1122=CARTESIAN_POINT('',(-24.724597018,23.353865429,102.980710192));
#1123=CARTESIAN_POINT('',(-24.73740293,23.366685904,102.980910955));
#1124=CARTESIAN_POINT('',(-24.750208842,23.37950638,102.981111717));
#1125=CARTESIAN_POINT('',(-24.76209903,23.390855646,102.970174347));
#1126=CARTESIAN_POINT('',(-24.772828948,23.400783793,102.959447457));
#1127=CARTESIAN_POINT('',(-24.783558866,23.41071194,102.948720568));
#1128=CARTESIAN_POINT('',(-24.793835073,23.419882218,102.93679989));
#1129=CARTESIAN_POINT('',(-24.804097867,23.428758162,102.924776871));
#1130=CARTESIAN_POINT('',(-24.824623454,23.446510052,102.900730834));
#1131=CARTESIAN_POINT('',(-24.8450974,23.46307279,102.875814406));
#1132=CARTESIAN_POINT('',(-24.866040027,23.478967543,102.850831414));
#1133=CARTESIAN_POINT('',(-24.907925282,23.51075705,102.80086543));
#1134=CARTESIAN_POINT('',(-24.951379398,23.539607725,102.750415314));
#1135=CARTESIAN_POINT('',(-24.996575147,23.565713386,102.7));
#1136=B_SPLINE_CURVE_WITH_KNOTS('',3,(#1111,#1112,#1113,#1114,#1115,#1116,#1117,#1118,#1119,#1120,#1121,#1122,#1123,#1124,#1125,#1126,#1127,#1128,#1129,#1130,#1131,#1132,#1133,#1134,#1135),.UNSPECIFIED.,.F.,.F.,(4,3,3,3,3,3,3,3,4),(-0.000456663,-0.000239449,-0.000130841,-0.000076538,-0.000022234,0.00003207,0.000086374,0.000194981,0.000412196),.UNSPECIFIED.);
#1137=EDGE_CURVE('',#33,#75,#1136,.T.);
#1138=ORIENTED_EDGE('',*,*,#1137,.F.);
#1139=ORIENTED_EDGE('',*,*,#89,.F.);
#1140=EDGE_LOOP('',(#1138,#1139));
#1141=FACE_BOUND('',#1140,.T.);
#1142=ADVANCED_FACE('',(#1141),#1110,.T.);
#1143=CARTESIAN_POINT('',(-24.455473418,22.795645564,103.));
#1144=DIRECTION('',(0.,0.,-1.));
#1145=DIRECTION('',(-1.,0.,0.));
#1146=AXIS2_PLACEMENT_3D('',#1143,#1144,#1145);
#1147=CONICAL_SURFACE('',#1146,0.0235,45.);
#1148=CARTESIAN_POINT('',(-24.371788585,22.483157006,102.7));
#1149=CARTESIAN_POINT('',(-24.371782418,22.535285503,102.750352528));
#1150=CARTESIAN_POINT('',(-24.375009183,22.587145084,102.800606599));
#1151=CARTESIAN_POINT('',(-24.381535088,22.639097325,102.850369333));
#1152=CARTESIAN_POINT('',(-24.384798041,22.665073445,102.8752507));
#1153=CARTESIAN_POINT('',(-24.388867544,22.691002282,102.900086416));
#1154=CARTESIAN_POINT('',(-24.393940096,22.717586997,102.924104378));
#1155=CARTESIAN_POINT('',(-24.396476372,22.730879354,102.93611336));
#1156=CARTESIAN_POINT('',(-24.399246536,22.744276245,102.947983197));
#1157=CARTESIAN_POINT('',(-24.402476525,22.758583144,102.958829345));
#1158=CARTESIAN_POINT('',(-24.405706513,22.772890043,102.969675492));
#1159=CARTESIAN_POINT('',(-24.409529663,22.788684457,102.980710192));
#1160=CARTESIAN_POINT('',(-24.414210361,22.806190085,102.980910955));
#1161=CARTESIAN_POINT('',(-24.418891059,22.823695714,102.981111717));
#1162=CARTESIAN_POINT('',(-24.423514253,22.839469379,102.970174347));
#1163=CARTESIAN_POINT('',(-24.427843111,22.853432194,102.959447457));
#1164=CARTESIAN_POINT('',(-24.432171969,22.86739501,102.948720568));
#1165=CARTESIAN_POINT('',(-24.436486803,22.880474637,102.93679989));
#1166=CARTESIAN_POINT('',(-24.440937176,22.893292652,102.924776871));
#1167=CARTESIAN_POINT('',(-24.449837922,22.918928682,102.900730834));
#1168=CARTESIAN_POINT('',(-24.459288479,22.943509034,102.875814406));
#1169=CARTESIAN_POINT('',(-24.469478906,22.967745206,102.850831414));
#1170=CARTESIAN_POINT('',(-24.489859759,23.01621755,102.80086543));
#1171=CARTESIAN_POINT('',(-24.513068631,23.06292911,102.750415314));
#1172=CARTESIAN_POINT('',(-24.539158251,23.108134122,102.7));
#1173=B_SPLINE_CURVE_WITH_KNOTS('',3,(#1148,#1149,#1150,#1151,#1152,#1153,#1154,#1155,#1156,#1157,#1158,#1159,#1160,#1161,#1162,#1163,#1164,#1165,#1166,#1167,#1168,#1169,#1170,#1171,#1172),.UNSPECIFIED.,.F.,.F.,(4,3,3,3,3,3,3,3,4),(-0.000456663,-0.000239449,-0.000130841,-0.000076538,-0.000022234,0.00003207,0.000086374,0.000194981,0.000412196),.UNSPECIFIED.);
#1174=EDGE_CURVE('',#43,#33,#1173,.T.);
#1175=ORIENTED_EDGE('',*,*,#1174,.F.);
#1176=ORIENTED_EDGE('',*,*,#49,.F.);
#1177=EDGE_LOOP('',(#1175,#1176));
#1178=FACE_BOUND('',#1177,.T.);
#1179=ADVANCED_FACE('',(#1178),#1147,.T.);
#1180=CARTESIAN_POINT('',(-24.455547351,22.170688257,103.));
#1181=DIRECTION('',(0.,0.,-1.));
#1182=DIRECTION('',(-1.,0.,0.));
#1183=AXIS2_PLACEMENT_3D('',#1180,#1181,#1182);
#1184=CONICAL_SURFACE('',#1183,0.0235,45.);
#1185=CARTESIAN_POINT('',(-24.539306117,21.858219508,102.7));
#1186=CARTESIAN_POINT('',(-24.513238308,21.903362055,102.750352528));
#1187=CARTESIAN_POINT('',(-24.490104812,21.949888064,102.800606599));
#1188=CARTESIAN_POINT('',(-24.469782195,21.998143779,102.850369333));
#1189=CARTESIAN_POINT('',(-24.459620886,22.022271636,102.8752507));
#1190=CARTESIAN_POINT('',(-24.450181726,22.046761791,102.900086416));
#1191=CARTESIAN_POINT('',(-24.441283336,22.072321456,102.924104378));
#1192=CARTESIAN_POINT('',(-24.43683414,22.085101289,102.93611336));
#1193=CARTESIAN_POINT('',(-24.43253524,22.098088588,102.947983197));
#1194=CARTESIAN_POINT('',(-24.428179595,22.112093892,102.958829345));
#1195=CARTESIAN_POINT('',(-24.42382395,22.126099196,102.969675492));
#1196=CARTESIAN_POINT('',(-24.419238303,22.141689316,102.980710192));
#1197=CARTESIAN_POINT('',(-24.414539782,22.159190169,102.980910955));
#1198=CARTESIAN_POINT('',(-24.40984126,22.176691022,102.981111717));
#1199=CARTESIAN_POINT('',(-24.405958861,22.192663167,102.970174347));
#1200=CARTESIAN_POINT('',(-24.402726917,22.206919877,102.959447457));
#1201=CARTESIAN_POINT('',(-24.399494973,22.221176586,102.948720568));
#1202=CARTESIAN_POINT('',(-24.396692446,22.234661403,102.93679989));
#1203=CARTESIAN_POINT('',(-24.394138101,22.247987417,102.924776871));
#1204=CARTESIAN_POINT('',(-24.389029409,22.274639445,102.900730834));
#1205=CARTESIAN_POINT('',(-24.384924681,22.300652095,102.875814406));
#1206=CARTESIAN_POINT('',(-24.381632792,22.326736578,102.850831414));
#1207=CARTESIAN_POINT('',(-24.375049014,22.378905546,102.80086543));
#1208=CARTESIAN_POINT('',(-24.37179476,22.430963508,102.750415314));
#1209=CARTESIAN_POINT('',(-24.371788585,22.483157006,102.7));
#1210=B_SPLINE_CURVE_WITH_KNOTS('',3,(#1185,#1186,#1187,#1188,#1189,#1190,#1191,#1192,#1193,#1194,#1195,#1196,#1197,#1198,#1199,#1200,#1201,#1202,#1203,#1204,#1205,#1206,#1207,#1208,#1209),.UNSPECIFIED.,.F.,.F.,(4,3,3,3,3,3,3,3,4),(-0.000456663,-0.000239449,-0.000130841,-0.000076538,-0.000022234,0.00003207,0.000086374,0.000194981,0.000412196),.UNSPECIFIED.);
#1211=EDGE_CURVE('',#506,#43,#1210,.T.);
#1212=ORIENTED_EDGE('',*,*,#1211,.F.);
#1213=ORIENTED_EDGE('',*,*,#544,.F.);
#1214=EDGE_LOOP('',(#1212,#1213));
#1215=FACE_BOUND('',#1214,.T.);
#1216=ADVANCED_FACE('',(#1215),#1184,.T.);
#1217=CARTESIAN_POINT('',(-24.768068691,21.629483995,103.));
#1218=DIRECTION('',(0.,0.,-1.));
#1219=DIRECTION('',(-1.,0.,0.));
#1220=AXIS2_PLACEMENT_3D('',#1217,#1218,#1219);
#1221=CONICAL_SURFACE('',#1220,0.0235,45.);
#1222=CARTESIAN_POINT('',(-24.996831265,21.400748483,102.7));
#1223=CARTESIAN_POINT('',(-24.951685634,21.426810951,102.750352528));
#1224=CARTESIAN_POINT('',(-24.908389568,21.455538616,102.800606599));
#1225=CARTESIAN_POINT('',(-24.866663055,21.487169628,102.850369333));
#1226=CARTESIAN_POINT('',(-24.845799798,21.502985133,102.8752507));
#1227=CARTESIAN_POINT('',(-24.825380819,21.519475455,102.900086416));
#1228=CARTESIAN_POINT('',(-24.804895451,21.537162387,102.924104378));
#1229=CARTESIAN_POINT('',(-24.794652767,21.546005853,102.93611336));
#1230=CARTESIAN_POINT('',(-24.784436519,21.555104137,102.947983197));
#1231=CARTESIAN_POINT('',(-24.773662161,21.565055688,102.958829345));
#1232=CARTESIAN_POINT('',(-24.762887802,21.57500724,102.969675492));
#1233=CARTESIAN_POINT('',(-24.751121897,21.58621632,102.980710192));
#1234=CARTESIAN_POINT('',(-24.738302937,21.599023748,102.980910955));
#1235=CARTESIAN_POINT('',(-24.725483977,21.611831177,102.981111717));
#1236=CARTESIAN_POINT('',(-24.714136117,21.623722707,102.970174347));
#1237=CARTESIAN_POINT('',(-24.704209239,21.6344538,102.959447457));
#1238=CARTESIAN_POINT('',(-24.694282362,21.645184892,102.948720568));
#1239=CARTESIAN_POINT('',(-24.6851133,21.655462184,102.93679989));
#1240=CARTESIAN_POINT('',(-24.676238569,21.665726028,102.924776871));
#1241=CARTESIAN_POINT('',(-24.658489108,21.686253715,102.900730834));
#1242=CARTESIAN_POINT('',(-24.641928792,21.706729619,102.875814406));
#1243=CARTESIAN_POINT('',(-24.626036516,21.727674127,102.850831414));
#1244=CARTESIAN_POINT('',(-24.594251966,21.769563143,102.80086543));
#1245=CARTESIAN_POINT('',(-24.565406431,21.813020671,102.750415314));
#1246=CARTESIAN_POINT('',(-24.539306117,21.858219508,102.7));
#1247=B_SPLINE_CURVE_WITH_KNOTS('',3,(#1222,#1223,#1224,#1225,#1226,#1227,#1228,#1229,#1230,#1231,#1232,#1233,#1234,#1235,#1236,#1237,#1238,#1239,#1240,#1241,#1242,#1243,#1244,#1245,#1246),.UNSPECIFIED.,.F.,.F.,(4,3,3,3,3,3,3,3,4),(-0.000456663,-0.000239449,-0.000130841,-0.000076538,-0.000022234,0.00003207,0.000086374,0.000194981,0.000412196),.UNSPECIFIED.);
#1248=EDGE_CURVE('',#464,#506,#1247,.T.);
#1249=ORIENTED_EDGE('',*,*,#1248,.F.);
#1250=ORIENTED_EDGE('',*,*,#520,.F.);
#1251=EDGE_LOOP('',(#1249,#1250));
#1252=FACE_BOUND('',#1251,.T.);
#1253=ADVANCED_FACE('',(#1252),#1221,.T.);
#1254=CARTESIAN_POINT('',(-25.309309921,21.317026683,103.));
#1255=DIRECTION('',(0.,0.,-1.));
#1256=DIRECTION('',(-1.,0.,0.));
#1257=AXIS2_PLACEMENT_3D('',#1254,#1255,#1256);
#1258=CONICAL_SURFACE('',#1257,0.0235,45.);
#1259=CARTESIAN_POINT('',(-25.621788576,21.233304883,102.7));
#1260=CARTESIAN_POINT('',(-25.569660079,21.233304883,102.750352528));
#1261=CARTESIAN_POINT('',(-25.51780088,21.236537782,102.800606599));
#1262=CARTESIAN_POINT('',(-25.465849412,21.243069834,102.850369333));
#1263=CARTESIAN_POINT('',(-25.439873678,21.246335859,102.8752507));
#1264=CARTESIAN_POINT('',(-25.413945322,21.25040843,102.900086416));
#1265=CARTESIAN_POINT('',(-25.387361208,21.255484127,102.924104378));
#1266=CARTESIAN_POINT('',(-25.374069151,21.258021975,102.93611336));
#1267=CARTESIAN_POINT('',(-25.360672588,21.260793724,102.947983197));
#1268=CARTESIAN_POINT('',(-25.346366071,21.264025406,102.958829345));
#1269=CARTESIAN_POINT('',(-25.332059554,21.267257087,102.969675492));
#1270=CARTESIAN_POINT('',(-25.316265593,21.271082105,102.980710192));
#1271=CARTESIAN_POINT('',(-25.298760518,21.275764874,102.980910955));
#1272=CARTESIAN_POINT('',(-25.281255443,21.280447642,102.981111717));
#1273=CARTESIAN_POINT('',(-25.265482325,21.285072702,102.970174347));
#1274=CARTESIAN_POINT('',(-25.251520022,21.289403212,102.959447457));
#1275=CARTESIAN_POINT('',(-25.237557718,21.293733723,102.948720568));
#1276=CARTESIAN_POINT('',(-25.224478602,21.298050104,102.93679989));
#1277=CARTESIAN_POINT('',(-25.211661113,21.302501993,102.924776871));
#1278=CARTESIAN_POINT('',(-25.186026136,21.311405772,102.900730834));
#1279=CARTESIAN_POINT('',(-25.161446902,21.320859237,102.875814406));
#1280=CARTESIAN_POINT('',(-25.137211936,21.33105253,102.850831414));
#1281=CARTESIAN_POINT('',(-25.088742004,21.351439118,102.80086543));
#1282=CARTESIAN_POINT('',(-25.04203319,21.374653516,102.750415314));
#1283=CARTESIAN_POINT('',(-24.996831265,21.400748483,102.7));
#1284=B_SPLINE_CURVE_WITH_KNOTS('',3,(#1259,#1260,#1261,#1262,#1263,#1264,#1265,#1266,#1267,#1268,#1269,#1270,#1271,#1272,#1273,#1274,#1275,#1276,#1277,#1278,#1279,#1280,#1281,#1282,#1283),.UNSPECIFIED.,.F.,.F.,(4,3,3,3,3,3,3,3,4),(-0.000456663,-0.000239449,-0.000130841,-0.000076538,-0.000022234,0.00003207,0.000086374,0.000194981,0.000412196),.UNSPECIFIED.);
#1285=EDGE_CURVE('',#474,#464,#1284,.T.);
#1286=ORIENTED_EDGE('',*,*,#1285,.F.);
#1287=ORIENTED_EDGE('',*,*,#480,.F.);
#1288=EDGE_LOOP('',(#1286,#1287));
#1289=FACE_BOUND('',#1288,.T.);
#1290=ADVANCED_FACE('',(#1289),#1258,.T.);
#1291=CARTESIAN_POINT('',(-25.934267232,21.317026683,103.));
#1292=DIRECTION('',(0.,0.,-1.));
#1293=DIRECTION('',(-1.,0.,0.));
#1294=AXIS2_PLACEMENT_3D('',#1291,#1292,#1293);
#1295=CONICAL_SURFACE('',#1294,0.0235,45.);
#1296=CARTESIAN_POINT('',(-26.07156958,21.317026724,102.886251161));
#1297=VERTEX_POINT('',#1296);
#1298=CARTESIAN_POINT('',(-26.257767232,21.317026683,102.7));
#1299=DIRECTION('',(0.707106781,-0.,0.707106781));
#1300=VECTOR('',#1299,0.263361081);
#1301=LINE('',#1298,#1300);
#1302=EDGE_CURVE('',#424,#1297,#1301,.T.);
#1303=ORIENTED_EDGE('',*,*,#1302,.T.);
#1304=CARTESIAN_POINT('',(-26.246745887,21.400748483,102.7));
#1305=CARTESIAN_POINT('',(-26.201600257,21.374686014,102.750352528));
#1306=CARTESIAN_POINT('',(-26.155071291,21.351557945,102.800606349));
#1307=CARTESIAN_POINT('',(-26.106813393,21.331241114,102.850369333));
#1308=CARTESIAN_POINT('',(-26.082684444,21.321082699,102.875250825));
#1309=CARTESIAN_POINT('',(-26.058193062,21.311646397,102.900086416));
#1310=CARTESIAN_POINT('',(-26.032632344,21.30275103,102.924104378));
#1311=CARTESIAN_POINT('',(-26.019851986,21.298303347,102.93611336));
#1312=CARTESIAN_POINT('',(-26.006864178,21.294005983,102.947983197));
#1313=CARTESIAN_POINT('',(-25.992858358,21.289651995,102.958829345));
#1314=CARTESIAN_POINT('',(-25.978852539,21.285298007,102.969675492));
#1315=CARTESIAN_POINT('',(-25.963261877,21.280714204,102.980710192));
#1316=CARTESIAN_POINT('',(-25.945760469,21.276017753,102.980910955));
#1317=CARTESIAN_POINT('',(-25.92825906,21.271321302,102.981111717));
#1318=CARTESIAN_POINT('',(-25.912286456,21.267440793,102.970174347));
#1319=CARTESIAN_POINT('',(-25.898029364,21.264210535,102.959447457));
#1320=CARTESIAN_POINT('',(-25.883772272,21.260980278,102.948720568));
#1321=CARTESIAN_POINT('',(-25.870287124,21.258179347,102.93679989));
#1322=CARTESIAN_POINT('',(-25.856960808,21.255626577,102.924776871));
#1323=CARTESIAN_POINT('',(-25.830308176,21.250521039,102.900730834));
#1324=CARTESIAN_POINT('',(-25.80429504,21.246419388,102.875814406));
#1325=CARTESIAN_POINT('',(-25.778210168,21.243130585,102.850831414));
#1326=CARTESIAN_POINT('',(-25.726040422,21.236552979,102.80086543));
#1327=CARTESIAN_POINT('',(-25.673982075,21.233304883,102.750415314));
#1328=CARTESIAN_POINT('',(-25.621788576,21.233304883,102.7));
#1329=B_SPLINE_CURVE_WITH_KNOTS('',3,(#1304,#1305,#1306,#1307,#1308,#1309,#1310,#1311,#1312,#1313,#1314,#1315,#1316,#1317,#1318,#1319,#1320,#1321,#1322,#1323,#1324,#1325,#1326,#1327,#1328),.UNSPECIFIED.,.F.,.F.,(4,3,3,3,3,3,3,3,4),(-0.000456663,-0.000239449,-0.000130841,-0.000076538,-0.000022234,0.00003207,0.000086374,0.000194981,0.000412196),.UNSPECIFIED.);
#1330=EDGE_CURVE('',#432,#1297,#1329,.T.);
#1331=ORIENTED_EDGE('',*,*,#1330,.F.);
#1332=ORIENTED_EDGE('',*,*,#438,.F.);
#1333=EDGE_LOOP('',(#1303,#1331,#1332));
#1334=FACE_BOUND('',#1333,.T.);
#1335=ADVANCED_FACE('',(#1334),#1295,.T.);
#1336=CARTESIAN_POINT('',(-26.475508461,21.629483995,103.));
#1337=DIRECTION('',(0.,0.,-1.));
#1338=DIRECTION('',(-1.,0.,0.));
#1339=AXIS2_PLACEMENT_3D('',#1336,#1337,#1338);
#1340=CONICAL_SURFACE('',#1339,0.0235,45.);
#1341=CARTESIAN_POINT('',(-26.534746402,21.629484586,102.964327533));
#1342=VERTEX_POINT('',#1341);
#1343=CARTESIAN_POINT('',(-26.799008461,21.629483995,102.7));
#1344=DIRECTION('',(0.707106781,-0.,0.707106781));
#1345=VECTOR('',#1344,0.373769285);
#1346=LINE('',#1343,#1345);
#1347=EDGE_CURVE('',#382,#1342,#1346,.T.);
#1348=ORIENTED_EDGE('',*,*,#1347,.T.);
#1349=CARTESIAN_POINT('',(-26.704271035,21.858219508,102.7));
#1350=CARTESIAN_POINT('',(-26.678203226,21.813076961,102.750352528));
#1351=CARTESIAN_POINT('',(-26.649470439,21.769784293,102.800606599));
#1352=CARTESIAN_POINT('',(-26.617834492,21.728061522,102.850369333));
#1353=CARTESIAN_POINT('',(-26.602016518,21.707200137,102.8752507));
#1354=CARTESIAN_POINT('',(-26.585523781,21.686783108,102.900086416));
#1355=CARTESIAN_POINT('',(-26.567834426,21.666299833,102.924104378));
#1356=CARTESIAN_POINT('',(-26.558989748,21.656058196,102.93611336));
#1357=CARTESIAN_POINT('',(-26.549890256,21.645843024,102.947983197));
#1358=CARTESIAN_POINT('',(-26.53993743,21.635069843,102.958829345));
#1359=CARTESIAN_POINT('',(-26.529984604,21.624296661,102.969675492));
#1360=CARTESIAN_POINT('',(-26.518774132,21.612532083,102.980710192));
#1361=CARTESIAN_POINT('',(-26.505965187,21.599714638,102.980910955));
#1362=CARTESIAN_POINT('',(-26.493156242,21.586897193,102.981111717));
#1363=CARTESIAN_POINT('',(-26.481263369,21.57555074,102.970174347));
#1364=CARTESIAN_POINT('',(-26.470531103,21.565625132,102.959447457));
#1365=CARTESIAN_POINT('',(-26.459798836,21.555699524,102.948720568));
#1366=CARTESIAN_POINT('',(-26.449520459,21.546531678,102.93679989));
#1367=CARTESIAN_POINT('',(-26.439255566,21.537658162,102.924776871));
#1368=CARTESIAN_POINT('',(-26.418725779,21.519911129,102.900730834));
#1369=CARTESIAN_POINT('',(-26.398247915,21.503353235,102.875814406));
#1370=CARTESIAN_POINT('',(-26.377301528,21.487463438,102.850831414));
#1371=CARTESIAN_POINT('',(-26.335408752,21.455683843,102.80086543));
#1372=CARTESIAN_POINT('',(-26.291947812,21.426843449,102.750415314));
#1373=CARTESIAN_POINT('',(-26.246745887,21.400748483,102.7));
#1374=B_SPLINE_CURVE_WITH_KNOTS('',3,(#1349,#1350,#1351,#1352,#1353,#1354,#1355,#1356,#1357,#1358,#1359,#1360,#1361,#1362,#1363,#1364,#1365,#1366,#1367,#1368,#1369,#1370,#1371,#1372,#1373),.UNSPECIFIED.,.F.,.F.,(4,3,3,3,3,3,3,3,4),(-0.000456663,-0.000239449,-0.000130841,-0.000076538,-0.000022234,0.00003207,0.000086374,0.000194981,0.000412196),.UNSPECIFIED.);
#1375=EDGE_CURVE('',#390,#1342,#1374,.T.);
#1376=ORIENTED_EDGE('',*,*,#1375,.F.);
#1377=ORIENTED_EDGE('',*,*,#396,.F.);
#1378=EDGE_LOOP('',(#1348,#1376,#1377));
#1379=FACE_BOUND('',#1378,.T.);
#1380=ADVANCED_FACE('',(#1379),#1340,.T.);
#1381=CARTESIAN_POINT('',(-26.788029801,22.170688257,103.));
#1382=DIRECTION('',(0.,0.,-1.));
#1383=DIRECTION('',(-1.,0.,0.));
#1384=AXIS2_PLACEMENT_3D('',#1381,#1382,#1383);
#1385=CONICAL_SURFACE('',#1384,0.0235,45.);
#1386=CARTESIAN_POINT('',(-26.832066306,22.170688002,102.979515926));
#1387=VERTEX_POINT('',#1386);
#1388=CARTESIAN_POINT('',(-27.111529801,22.170688257,102.7));
#1389=DIRECTION('',(0.707106781,-0.,0.707106781));
#1390=VECTOR('',#1389,0.39525814);
#1391=LINE('',#1388,#1390);
#1392=EDGE_CURVE('',#340,#1387,#1391,.T.);
#1393=ORIENTED_EDGE('',*,*,#1392,.T.);
#1394=CARTESIAN_POINT('',(-26.871788567,22.483157006,102.7));
#1395=CARTESIAN_POINT('',(-26.871782401,22.431028509,102.750352528));
#1396=CARTESIAN_POINT('',(-26.868543366,22.379169693,102.800606599));
#1397=CARTESIAN_POINT('',(-26.862005169,22.327218998,102.850369333));
#1398=CARTESIAN_POINT('',(-26.85873607,22.30124365,102.8752507));
#1399=CARTESIAN_POINT('',(-26.854660432,22.275315777,102.900086416));
#1400=CARTESIAN_POINT('',(-26.849581591,22.248732263,102.924104378));
#1401=CARTESIAN_POINT('',(-26.84704217,22.235440506,102.93611336));
#1402=CARTESIAN_POINT('',(-26.844268836,22.222044271,102.947983197));
#1403=CARTESIAN_POINT('',(-26.841035462,22.207738137,102.958829345));
#1404=CARTESIAN_POINT('',(-26.837802088,22.193432003,102.969675492));
#1405=CARTESIAN_POINT('',(-26.833975202,22.177638494,102.980710192));
#1406=CARTESIAN_POINT('',(-26.829290362,22.160133973,102.980910955));
#1407=CARTESIAN_POINT('',(-26.824605523,22.142629452,102.981111717));
#1408=CARTESIAN_POINT('',(-26.819978597,22.126856882,102.970174347));
#1409=CARTESIAN_POINT('',(-26.815646435,22.112895091,102.959447457));
#1410=CARTESIAN_POINT('',(-26.811314273,22.0989333,102.948720568));
#1411=CARTESIAN_POINT('',(-26.806996345,22.085854694,102.93679989));
#1412=CARTESIAN_POINT('',(-26.802542939,22.073037732,102.924776871));
#1413=CARTESIAN_POINT('',(-26.793636127,22.047403809,102.900730834));
#1414=CARTESIAN_POINT('',(-26.784179755,22.022825693,102.875814406));
#1415=CARTESIAN_POINT('',(-26.773983594,21.998591933,102.850831414));
#1416=CARTESIAN_POINT('',(-26.753591273,21.950124413,102.80086543));
#1417=CARTESIAN_POINT('',(-26.730371349,21.903418345,102.750415314));
#1418=CARTESIAN_POINT('',(-26.704271035,21.858219508,102.7));
#1419=B_SPLINE_CURVE_WITH_KNOTS('',3,(#1394,#1395,#1396,#1397,#1398,#1399,#1400,#1401,#1402,#1403,#1404,#1405,#1406,#1407,#1408,#1409,#1410,#1411,#1412,#1413,#1414,#1415,#1416,#1417,#1418),.UNSPECIFIED.,.F.,.F.,(4,3,3,3,3,3,3,3,4),(-0.000456663,-0.000239449,-0.000130841,-0.000076538,-0.000022234,0.00003207,0.000086374,0.000194981,0.000412196),.UNSPECIFIED.);
#1420=EDGE_CURVE('',#348,#1387,#1419,.T.);
#1421=ORIENTED_EDGE('',*,*,#1420,.F.);
#1422=ORIENTED_EDGE('',*,*,#354,.F.);
#1423=EDGE_LOOP('',(#1393,#1421,#1422));
#1424=FACE_BOUND('',#1423,.T.);
#1425=ADVANCED_FACE('',(#1424),#1385,.T.);
#1426=CARTESIAN_POINT('',(-26.788103735,22.795645564,103.));
#1427=DIRECTION('',(0.,0.,-1.));
#1428=DIRECTION('',(-1.,0.,0.));
#1429=AXIS2_PLACEMENT_3D('',#1426,#1427,#1428);
#1430=CONICAL_SURFACE('',#1429,0.0235,45.);
#1431=CARTESIAN_POINT('',(-27.111603735,22.795645564,102.7));
#1432=DIRECTION('',(0.707106781,-0.,0.707106781));
#1433=VECTOR('',#1432,0.395254037);
#1434=LINE('',#1431,#1433);
#1435=EDGE_CURVE('',#298,#799,#1434,.T.);
#1436=ORIENTED_EDGE('',*,*,#1435,.T.);
#1437=ORIENTED_EDGE('',*,*,#826,.F.);
#1438=ORIENTED_EDGE('',*,*,#312,.F.);
#1439=EDGE_LOOP('',(#1436,#1437,#1438));
#1440=FACE_BOUND('',#1439,.T.);
#1441=ADVANCED_FACE('',(#1440),#1430,.T.);
#1442=CARTESIAN_POINT('',(-26.475710454,23.336923754,103.));
#1443=DIRECTION('',(0.,0.,-1.));
#1444=DIRECTION('',(-1.,0.,0.));
#1445=AXIS2_PLACEMENT_3D('',#1442,#1443,#1444);
#1446=CONICAL_SURFACE('',#1445,0.0235,45.);
#1447=CARTESIAN_POINT('',(-26.799210454,23.336923754,102.7));
#1448=DIRECTION('',(0.707106781,-0.,0.707106781));
#1449=VECTOR('',#1448,0.373776163);
#1450=LINE('',#1447,#1449);
#1451=EDGE_CURVE('',#256,#741,#1450,.T.);
#1452=ORIENTED_EDGE('',*,*,#1451,.T.);
#1453=ORIENTED_EDGE('',*,*,#768,.F.);
#1454=ORIENTED_EDGE('',*,*,#270,.F.);
#1455=EDGE_LOOP('',(#1452,#1453,#1454));
#1456=FACE_BOUND('',#1455,.T.);
#1457=ADVANCED_FACE('',(#1456),#1446,.T.);
#1458=CARTESIAN_POINT('',(-25.934395291,23.648955754,103.));
#1459=DIRECTION('',(0.,0.,-1.));
#1460=DIRECTION('',(-1.,0.,0.));
#1461=AXIS2_PLACEMENT_3D('',#1458,#1459,#1460);
#1462=CYLINDRICAL_SURFACE('',#1461,0.3235);
#1463=ORIENTED_EDGE('',*,*,#228,.F.);
#1464=ORIENTED_EDGE('',*,*,#651,.T.);
#1465=ORIENTED_EDGE('',*,*,#278,.F.);
#1466=CARTESIAN_POINT('',(-25.934395291,23.648955754,102.7));
#1467=DIRECTION('',(-0.,-0.,-1.));
#1468=DIRECTION('',(1.,0.,-0.));
#1469=AXIS2_PLACEMENT_3D('',#1466,#1467,#1468);
#1470=CIRCLE('',#1469,0.3235);
#1471=EDGE_CURVE('',#264,#223,#1470,.T.);
#1472=ORIENTED_EDGE('',*,*,#1471,.T.);
#1473=EDGE_LOOP('',(#1463,#1464,#1465,#1472));
#1474=FACE_BOUND('',#1473,.T.);
#1475=ADVANCED_FACE('',(#1474),#1462,.T.);
#1476=CARTESIAN_POINT('',(-26.475710454,23.336923754,103.));
#1477=DIRECTION('',(0.,0.,-1.));
#1478=DIRECTION('',(-1.,0.,0.));
#1479=AXIS2_PLACEMENT_3D('',#1476,#1477,#1478);
#1480=CYLINDRICAL_SURFACE('',#1479,0.3235);
#1481=ORIENTED_EDGE('',*,*,#261,.F.);
#1482=ORIENTED_EDGE('',*,*,#643,.T.);
#1483=ORIENTED_EDGE('',*,*,#320,.F.);
#1484=CARTESIAN_POINT('',(-26.475710454,23.336923754,102.7));
#1485=DIRECTION('',(-0.,-0.,-1.));
#1486=DIRECTION('',(1.,0.,-0.));
#1487=AXIS2_PLACEMENT_3D('',#1484,#1485,#1486);
#1488=CIRCLE('',#1487,0.3235);
#1489=EDGE_CURVE('',#306,#256,#1488,.T.);
#1490=ORIENTED_EDGE('',*,*,#1489,.T.);
#1491=EDGE_LOOP('',(#1481,#1482,#1483,#1490));
#1492=FACE_BOUND('',#1491,.T.);
#1493=ADVANCED_FACE('',(#1492),#1480,.T.);
#1494=CARTESIAN_POINT('',(-26.788103735,22.795645564,103.));
#1495=DIRECTION('',(0.,0.,-1.));
#1496=DIRECTION('',(-1.,0.,0.));
#1497=AXIS2_PLACEMENT_3D('',#1494,#1495,#1496);
#1498=CYLINDRICAL_SURFACE('',#1497,0.3235);
#1499=ORIENTED_EDGE('',*,*,#303,.F.);
#1500=ORIENTED_EDGE('',*,*,#635,.T.);
#1501=ORIENTED_EDGE('',*,*,#362,.F.);
#1502=CARTESIAN_POINT('',(-26.788103735,22.795645564,102.7));
#1503=DIRECTION('',(-0.,-0.,-1.));
#1504=DIRECTION('',(1.,0.,-0.));
#1505=AXIS2_PLACEMENT_3D('',#1502,#1503,#1504);
#1506=CIRCLE('',#1505,0.3235);
#1507=EDGE_CURVE('',#348,#298,#1506,.T.);
#1508=ORIENTED_EDGE('',*,*,#1507,.T.);
#1509=EDGE_LOOP('',(#1499,#1500,#1501,#1508));
#1510=FACE_BOUND('',#1509,.T.);
#1511=ADVANCED_FACE('',(#1510),#1498,.T.);
#1512=CARTESIAN_POINT('',(-26.788029801,22.170688257,103.));
#1513=DIRECTION('',(0.,0.,-1.));
#1514=DIRECTION('',(-1.,0.,0.));
#1515=AXIS2_PLACEMENT_3D('',#1512,#1513,#1514);
#1516=CYLINDRICAL_SURFACE('',#1515,0.3235);
#1517=ORIENTED_EDGE('',*,*,#345,.F.);
#1518=ORIENTED_EDGE('',*,*,#627,.T.);
#1519=ORIENTED_EDGE('',*,*,#404,.F.);
#1520=CARTESIAN_POINT('',(-26.788029801,22.170688257,102.7));
#1521=DIRECTION('',(-0.,-0.,-1.));
#1522=DIRECTION('',(1.,0.,-0.));
#1523=AXIS2_PLACEMENT_3D('',#1520,#1521,#1522);
#1524=CIRCLE('',#1523,0.3235);
#1525=EDGE_CURVE('',#390,#340,#1524,.T.);
#1526=ORIENTED_EDGE('',*,*,#1525,.T.);
#1527=EDGE_LOOP('',(#1517,#1518,#1519,#1526));
#1528=FACE_BOUND('',#1527,.T.);
#1529=ADVANCED_FACE('',(#1528),#1516,.T.);
#1530=CARTESIAN_POINT('',(-26.475508461,21.629483995,103.));
#1531=DIRECTION('',(0.,0.,-1.));
#1532=DIRECTION('',(-1.,0.,0.));
#1533=AXIS2_PLACEMENT_3D('',#1530,#1531,#1532);
#1534=CYLINDRICAL_SURFACE('',#1533,0.3235);
#1535=ORIENTED_EDGE('',*,*,#387,.F.);
#1536=ORIENTED_EDGE('',*,*,#619,.T.);
#1537=ORIENTED_EDGE('',*,*,#446,.F.);
#1538=CARTESIAN_POINT('',(-26.475508461,21.629483995,102.7));
#1539=DIRECTION('',(-0.,-0.,-1.));
#1540=DIRECTION('',(1.,0.,-0.));
#1541=AXIS2_PLACEMENT_3D('',#1538,#1539,#1540);
#1542=CIRCLE('',#1541,0.3235);
#1543=EDGE_CURVE('',#432,#382,#1542,.T.);
#1544=ORIENTED_EDGE('',*,*,#1543,.T.);
#1545=EDGE_LOOP('',(#1535,#1536,#1537,#1544));
#1546=FACE_BOUND('',#1545,.T.);
#1547=ADVANCED_FACE('',(#1546),#1534,.T.);
#1548=CARTESIAN_POINT('',(-25.934267232,21.317026683,103.));
#1549=DIRECTION('',(0.,0.,-1.));
#1550=DIRECTION('',(-1.,0.,0.));
#1551=AXIS2_PLACEMENT_3D('',#1548,#1549,#1550);
#1552=CYLINDRICAL_SURFACE('',#1551,0.3235);
#1553=ORIENTED_EDGE('',*,*,#429,.F.);
#1554=ORIENTED_EDGE('',*,*,#611,.T.);
#1555=ORIENTED_EDGE('',*,*,#488,.F.);
#1556=CARTESIAN_POINT('',(-25.934267232,21.317026683,102.7));
#1557=DIRECTION('',(-0.,-0.,-1.));
#1558=DIRECTION('',(1.,0.,-0.));
#1559=AXIS2_PLACEMENT_3D('',#1556,#1557,#1558);
#1560=CIRCLE('',#1559,0.3235);
#1561=EDGE_CURVE('',#474,#424,#1560,.T.);
#1562=ORIENTED_EDGE('',*,*,#1561,.T.);
#1563=EDGE_LOOP('',(#1553,#1554,#1555,#1562));
#1564=FACE_BOUND('',#1563,.T.);
#1565=ADVANCED_FACE('',(#1564),#1552,.T.);
#1566=CARTESIAN_POINT('',(-25.621788576,22.483304883,104.));
#1567=DIRECTION('',(0.,0.,-1.));
#1568=DIRECTION('',(-1.,0.,0.));
#1569=AXIS2_PLACEMENT_3D('',#1566,#1567,#1568);
#1570=CYLINDRICAL_SURFACE('',#1569,1.25);
#1571=ORIENTED_EDGE('',*,*,#672,.F.);
#1572=ORIENTED_EDGE('',*,*,#1420,.T.);
#1573=CARTESIAN_POINT('',(-26.871788567,22.483157006,102.7));
#1574=CARTESIAN_POINT('',(-26.871782401,22.431028509,102.750352528));
#1575=CARTESIAN_POINT('',(-26.868543366,22.379169693,102.800606599));
#1576=CARTESIAN_POINT('',(-26.862005169,22.327218998,102.850369333));
#1577=CARTESIAN_POINT('',(-26.85873607,22.30124365,102.8752507));
#1578=CARTESIAN_POINT('',(-26.854660432,22.275315777,102.900086416));
#1579=CARTESIAN_POINT('',(-26.849581591,22.248732263,102.924104378));
#1580=CARTESIAN_POINT('',(-26.84704217,22.235440506,102.93611336));
#1581=CARTESIAN_POINT('',(-26.844268836,22.222044271,102.947983197));
#1582=CARTESIAN_POINT('',(-26.841035462,22.207738137,102.958829345));
#1583=CARTESIAN_POINT('',(-26.837802088,22.193432003,102.969675492));
#1584=CARTESIAN_POINT('',(-26.833975202,22.177638494,102.980710192));
#1585=CARTESIAN_POINT('',(-26.829290362,22.160133973,102.980910955));
#1586=CARTESIAN_POINT('',(-26.824605523,22.142629452,102.981111717));
#1587=CARTESIAN_POINT('',(-26.819978597,22.126856882,102.970174347));
#1588=CARTESIAN_POINT('',(-26.815646435,22.112895091,102.959447457));
#1589=CARTESIAN_POINT('',(-26.811314273,22.0989333,102.948720568));
#1590=CARTESIAN_POINT('',(-26.806996345,22.085854694,102.93679989));
#1591=CARTESIAN_POINT('',(-26.802542939,22.073037732,102.924776871));
#1592=CARTESIAN_POINT('',(-26.793636127,22.047403809,102.900730834));
#1593=CARTESIAN_POINT('',(-26.784179755,22.022825693,102.875814406));
#1594=CARTESIAN_POINT('',(-26.773983594,21.998591933,102.850831414));
#1595=CARTESIAN_POINT('',(-26.753591273,21.950124413,102.80086543));
#1596=CARTESIAN_POINT('',(-26.730371349,21.903418345,102.750415314));
#1597=CARTESIAN_POINT('',(-26.704271035,21.858219508,102.7));
#1598=B_SPLINE_CURVE_WITH_KNOTS('',3,(#1573,#1574,#1575,#1576,#1577,#1578,#1579,#1580,#1581,#1582,#1583,#1584,#1585,#1586,#1587,#1588,#1589,#1590,#1591,#1592,#1593,#1594,#1595,#1596,#1597),.UNSPECIFIED.,.F.,.F.,(4,3,3,3,3,3,3,3,4),(-0.000456663,-0.000239449,-0.000130841,-0.000076538,-0.000022234,0.00003207,0.000086374,0.000194981,0.000412196),.UNSPECIFIED.);
#1599=EDGE_CURVE('',#1387,#390,#1598,.T.);
#1600=ORIENTED_EDGE('',*,*,#1599,.T.);
#1601=ORIENTED_EDGE('',*,*,#1375,.T.);
#1602=CARTESIAN_POINT('',(-26.704271035,21.858219508,102.7));
#1603=CARTESIAN_POINT('',(-26.678203226,21.813076961,102.750352528));
#1604=CARTESIAN_POINT('',(-26.649470439,21.769784293,102.800606599));
#1605=CARTESIAN_POINT('',(-26.617834492,21.728061522,102.850369333));
#1606=CARTESIAN_POINT('',(-26.602016518,21.707200137,102.8752507));
#1607=CARTESIAN_POINT('',(-26.585523781,21.686783108,102.900086416));
#1608=CARTESIAN_POINT('',(-26.567834426,21.666299833,102.924104378));
#1609=CARTESIAN_POINT('',(-26.558989748,21.656058196,102.93611336));
#1610=CARTESIAN_POINT('',(-26.549890256,21.645843024,102.947983197));
#1611=CARTESIAN_POINT('',(-26.53993743,21.635069843,102.958829345));
#1612=CARTESIAN_POINT('',(-26.529984604,21.624296661,102.969675492));
#1613=CARTESIAN_POINT('',(-26.518774132,21.612532083,102.980710192));
#1614=CARTESIAN_POINT('',(-26.505965187,21.599714638,102.980910955));
#1615=CARTESIAN_POINT('',(-26.493156242,21.586897193,102.981111717));
#1616=CARTESIAN_POINT('',(-26.481263369,21.57555074,102.970174347));
#1617=CARTESIAN_POINT('',(-26.470531103,21.565625132,102.959447457));
#1618=CARTESIAN_POINT('',(-26.459798836,21.555699524,102.948720568));
#1619=CARTESIAN_POINT('',(-26.449520459,21.546531678,102.93679989));
#1620=CARTESIAN_POINT('',(-26.439255566,21.537658162,102.924776871));
#1621=CARTESIAN_POINT('',(-26.418725779,21.519911129,102.900730834));
#1622=CARTESIAN_POINT('',(-26.398247915,21.503353235,102.875814406));
#1623=CARTESIAN_POINT('',(-26.377301528,21.487463438,102.850831414));
#1624=CARTESIAN_POINT('',(-26.335408752,21.455683843,102.80086543));
#1625=CARTESIAN_POINT('',(-26.291947812,21.426843449,102.750415314));
#1626=CARTESIAN_POINT('',(-26.246745887,21.400748483,102.7));
#1627=B_SPLINE_CURVE_WITH_KNOTS('',3,(#1602,#1603,#1604,#1605,#1606,#1607,#1608,#1609,#1610,#1611,#1612,#1613,#1614,#1615,#1616,#1617,#1618,#1619,#1620,#1621,#1622,#1623,#1624,#1625,#1626),.UNSPECIFIED.,.F.,.F.,(4,3,3,3,3,3,3,3,4),(-0.000456663,-0.000239449,-0.000130841,-0.000076538,-0.000022234,0.00003207,0.000086374,0.000194981,0.000412196),.UNSPECIFIED.);
#1628=EDGE_CURVE('',#1342,#432,#1627,.T.);
#1629=ORIENTED_EDGE('',*,*,#1628,.T.);
#1630=ORIENTED_EDGE('',*,*,#1330,.T.);
#1631=CARTESIAN_POINT('',(-26.246745887,21.400748483,102.7));
#1632=CARTESIAN_POINT('',(-26.201600257,21.374686014,102.750352528));
#1633=CARTESIAN_POINT('',(-26.155071291,21.351557945,102.800606349));
#1634=CARTESIAN_POINT('',(-26.106813393,21.331241114,102.850369333));
#1635=CARTESIAN_POINT('',(-26.082684444,21.321082699,102.875250825));
#1636=CARTESIAN_POINT('',(-26.058193062,21.311646397,102.900086416));
#1637=CARTESIAN_POINT('',(-26.032632344,21.30275103,102.924104378));
#1638=CARTESIAN_POINT('',(-26.019851986,21.298303347,102.93611336));
#1639=CARTESIAN_POINT('',(-26.006864178,21.294005983,102.947983197));
#1640=CARTESIAN_POINT('',(-25.992858358,21.289651995,102.958829345));
#1641=CARTESIAN_POINT('',(-25.978852539,21.285298007,102.969675492));
#1642=CARTESIAN_POINT('',(-25.963261877,21.280714204,102.980710192));
#1643=CARTESIAN_POINT('',(-25.945760469,21.276017753,102.980910955));
#1644=CARTESIAN_POINT('',(-25.92825906,21.271321302,102.981111717));
#1645=CARTESIAN_POINT('',(-25.912286456,21.267440793,102.970174347));
#1646=CARTESIAN_POINT('',(-25.898029364,21.264210535,102.959447457));
#1647=CARTESIAN_POINT('',(-25.883772272,21.260980278,102.948720568));
#1648=CARTESIAN_POINT('',(-25.870287124,21.258179347,102.93679989));
#1649=CARTESIAN_POINT('',(-25.856960808,21.255626577,102.924776871));
#1650=CARTESIAN_POINT('',(-25.830308176,21.250521039,102.900730834));
#1651=CARTESIAN_POINT('',(-25.80429504,21.246419388,102.875814406));
#1652=CARTESIAN_POINT('',(-25.778210168,21.243130585,102.850831414));
#1653=CARTESIAN_POINT('',(-25.726040422,21.236552979,102.80086543));
#1654=CARTESIAN_POINT('',(-25.673982075,21.233304883,102.750415314));
#1655=CARTESIAN_POINT('',(-25.621788576,21.233304883,102.7));
#1656=B_SPLINE_CURVE_WITH_KNOTS('',3,(#1631,#1632,#1633,#1634,#1635,#1636,#1637,#1638,#1639,#1640,#1641,#1642,#1643,#1644,#1645,#1646,#1647,#1648,#1649,#1650,#1651,#1652,#1653,#1654,#1655),.UNSPECIFIED.,.F.,.F.,(4,3,3,3,3,3,3,3,4),(-0.000456663,-0.000239449,-0.000130841,-0.000076538,-0.000022234,0.00003207,0.000086374,0.000194981,0.000412196),.UNSPECIFIED.);
#1657=EDGE_CURVE('',#1297,#474,#1656,.T.);
#1658=ORIENTED_EDGE('',*,*,#1657,.T.);
#1659=ORIENTED_EDGE('',*,*,#1285,.T.);
#1660=ORIENTED_EDGE('',*,*,#1248,.T.);
#1661=ORIENTED_EDGE('',*,*,#1211,.T.);
#1662=ORIENTED_EDGE('',*,*,#1174,.T.);
#1663=ORIENTED_EDGE('',*,*,#1137,.T.);
#1664=ORIENTED_EDGE('',*,*,#1100,.T.);
#1665=ORIENTED_EDGE('',*,*,#163,.F.);
#1666=ORIENTED_EDGE('',*,*,#1045,.T.);
#1667=EDGE_LOOP('',(#1571,#1572,#1600,#1601,#1629,#1630,#1658,#1659,#1660,#1661,#1662,#1663,#1664,#1665,#1666));
#1668=FACE_BOUND('',#1667,.T.);
#1669=ADVANCED_FACE('',(#1668),#1570,.T.);
#1670=CARTESIAN_POINT('',(-25.934395291,23.648955754,103.));
#1671=DIRECTION('',(0.,0.,-1.));
#1672=DIRECTION('',(-1.,0.,0.));
#1673=AXIS2_PLACEMENT_3D('',#1670,#1671,#1672);
#1674=CONICAL_SURFACE('',#1673,0.0235,45.);
#1675=ORIENTED_EDGE('',*,*,#1062,.F.);
#1676=ORIENTED_EDGE('',*,*,#1471,.F.);
#1677=ORIENTED_EDGE('',*,*,#738,.F.);
#1678=EDGE_LOOP('',(#1675,#1676,#1677));
#1679=FACE_BOUND('',#1678,.T.);
#1680=ADVANCED_FACE('',(#1679),#1674,.T.);
#1681=CARTESIAN_POINT('',(-25.934267232,21.317026683,103.));
#1682=DIRECTION('',(0.,0.,-1.));
#1683=DIRECTION('',(-1.,0.,0.));
#1684=AXIS2_PLACEMENT_3D('',#1681,#1682,#1683);
#1685=CONICAL_SURFACE('',#1684,0.0235,45.);
#1686=ORIENTED_EDGE('',*,*,#1302,.F.);
#1687=ORIENTED_EDGE('',*,*,#1561,.F.);
#1688=ORIENTED_EDGE('',*,*,#1657,.F.);
#1689=EDGE_LOOP('',(#1686,#1687,#1688));
#1690=FACE_BOUND('',#1689,.T.);
#1691=ADVANCED_FACE('',(#1690),#1685,.T.);
#1692=CARTESIAN_POINT('',(-26.475508461,21.629483995,103.));
#1693=DIRECTION('',(0.,0.,-1.));
#1694=DIRECTION('',(-1.,0.,0.));
#1695=AXIS2_PLACEMENT_3D('',#1692,#1693,#1694);
#1696=CONICAL_SURFACE('',#1695,0.0235,45.);
#1697=ORIENTED_EDGE('',*,*,#1347,.F.);
#1698=ORIENTED_EDGE('',*,*,#1543,.F.);
#1699=ORIENTED_EDGE('',*,*,#1628,.F.);
#1700=EDGE_LOOP('',(#1697,#1698,#1699));
#1701=FACE_BOUND('',#1700,.T.);
#1702=ADVANCED_FACE('',(#1701),#1696,.T.);
#1703=CARTESIAN_POINT('',(-26.788029801,22.170688257,103.));
#1704=DIRECTION('',(0.,0.,-1.));
#1705=DIRECTION('',(-1.,0.,0.));
#1706=AXIS2_PLACEMENT_3D('',#1703,#1704,#1705);
#1707=CONICAL_SURFACE('',#1706,0.0235,45.);
#1708=ORIENTED_EDGE('',*,*,#1392,.F.);
#1709=ORIENTED_EDGE('',*,*,#1525,.F.);
#1710=ORIENTED_EDGE('',*,*,#1599,.F.);
#1711=EDGE_LOOP('',(#1708,#1709,#1710));
#1712=FACE_BOUND('',#1711,.T.);
#1713=ADVANCED_FACE('',(#1712),#1707,.T.);
#1714=CARTESIAN_POINT('',(-26.788103735,22.795645564,103.));
#1715=DIRECTION('',(0.,0.,-1.));
#1716=DIRECTION('',(-1.,0.,0.));
#1717=AXIS2_PLACEMENT_3D('',#1714,#1715,#1716);
#1718=CONICAL_SURFACE('',#1717,0.0235,45.);
#1719=ORIENTED_EDGE('',*,*,#1435,.F.);
#1720=ORIENTED_EDGE('',*,*,#1507,.F.);
#1721=ORIENTED_EDGE('',*,*,#854,.F.);
#1722=EDGE_LOOP('',(#1719,#1720,#1721));
#1723=FACE_BOUND('',#1722,.T.);
#1724=ADVANCED_FACE('',(#1723),#1718,.T.);
#1725=CARTESIAN_POINT('',(-26.475710454,23.336923754,103.));
#1726=DIRECTION('',(0.,0.,-1.));
#1727=DIRECTION('',(-1.,0.,0.));
#1728=AXIS2_PLACEMENT_3D('',#1725,#1726,#1727);
#1729=CONICAL_SURFACE('',#1728,0.0235,45.);
#1730=ORIENTED_EDGE('',*,*,#1451,.F.);
#1731=ORIENTED_EDGE('',*,*,#1489,.F.);
#1732=ORIENTED_EDGE('',*,*,#796,.F.);
#1733=EDGE_LOOP('',(#1730,#1731,#1732));
#1734=FACE_BOUND('',#1733,.T.);
#1735=ADVANCED_FACE('',(#1734),#1729,.T.);
#1736=CLOSED_SHELL('',(#68,#101,#134,#174,#214,#247,#289,#331,#373,#415,#457,#499,#532,#556,#660,#858,#934,#1025,#1052,#1068,#1105,#1142,#1179,#1216,#1253,#1290,
#1335,#1380,#1425,#1441,#1457,#1475,#1493,#1511,#1529,#1547,#1565,#1669,#1680,#1691,#1702,#1713,#1724,#1735));
#1737=MANIFOLD_SOLID_BREP('Gewindeinset',#1736);
#1738=COLOUR_RGB('',0.627451003,0.627451003,0.643137276);
#1739=FILL_AREA_STYLE_COLOUR('',#1738);
#1740=FILL_AREA_STYLE('',(#1739));
#1741=SURFACE_STYLE_FILL_AREA(#1740);
#1742=SURFACE_SIDE_STYLE('',(#1741));
#1743=SURFACE_STYLE_USAGE(.BOTH.,#1742);
#1744=PRESENTATION_STYLE_ASSIGNMENT((#1743));
#26=STYLED_ITEM('',(#1744),#1737);
#16=SHAPE_REPRESENTATION('root',(#15),#10);
#17=ADVANCED_BREP_SHAPE_REPRESENTATION('root',(#1737),#10);
#1752=SHAPE_REPRESENTATION_RELATIONSHIP('','',#16,#17);
#1753=CARTESIAN_POINT('',(0.,0.,0.));
#1754=DIRECTION('',(0.,0.,1.));
#1755=DIRECTION('',(1.,0.,0.));
#1756=AXIS2_PLACEMENT_3D('',#1753,#1754,#1755);
#1758=MAPPED_ITEM('',#1757,#1756);
#1757=REPRESENTATION_MAP(#1756,#16);
#1759=APPLICATION_CONTEXT('Managed model based 3d engineering');
#1760=APPLICATION_PROTOCOL_DEFINITION('international standard','ap242_managed_model_based_3d_engineering',2014,#1759);
#1761=PRODUCT_CONTEXT('',#1759,'mechanical');
#1762=PRODUCT_DEFINITION_CONTEXT('part definition',#1759,'design');
#24=PRODUCT('root','root','',(#1761));
#1763=PRODUCT_RELATED_PRODUCT_CATEGORY('part','',(#24));
#1764=PRODUCT_DEFINITION_FORMATION_WITH_SPECIFIED_SOURCE('','',#24,.NOT_KNOWN.);
#25=PRODUCT_DEFINITION('design','',#1764,#1762);
#23=PRODUCT_DEFINITION_SHAPE('','',#25);
#1765=SHAPE_DEFINITION_REPRESENTATION(#23,#16);
#11=DRAUGHTING_MODEL('',(#1758),#10);
#1766=DESCRIPTIVE_REPRESENTATION_ITEM('KEY','/Users/colinostermann/Library/Containers/com.shapr3d.shapr/Data/tmp/3D645F00-B840-43A4-8D78-4847DC33CBBA.tmp');
#1767=PROPERTY_DEFINITION('KEY','',#25);
#1768=REPRESENTATION('',(#1766),#10);
#1769=PROPERTY_DEFINITION_REPRESENTATION(#1767,#1768);
#1770=GENERAL_PROPERTY('','KEY','');
#1771=GENERAL_PROPERTY_ASSOCIATION('','',#1770,#1767);
#1=MECHANICAL_DESIGN_GEOMETRIC_PRESENTATION_REPRESENTATION('',(#26),#10);
ENDSEC;
END-ISO-10303-21;
