ISO-10303-21;
HEADER;

/* File generated by Shapr3D Version 26.100.0.11031 */

FILE_DESCRIPTION(('HOOPS Exchange Step'),'2;1');

FILE_NAME('/Users/colinostermann/Library/Containers/com.shapr3d.shapr/Data/tmp/export/temp_export',
'2026-07-13T01:08:31-22:00',
('colinostermann'),
('Shapr3D Limited'),
'HOOPS Exchange 2026.3',
'Shapr3D',
'Authorized');

FILE_SCHEMA( ('AP242_MANAGED_MODEL_BASED_3D_ENGINEERING_MIM_LF {1 0 10303 442 1 1 4}') );

ENDSEC;

DATA;
#3=(NAMED_UNIT(*)PLANE_ANGLE_UNIT()SI_UNIT($,.RADIAN.));
#4=PLANE_ANGLE_MEASURE_WITH_UNIT(PLANE_ANGLE_MEASURE(0.0174532925),#3);
#5=(CONVERSION_BASED_UNIT('DEGREE',#4)NAMED_UNIT(#6)PLANE_ANGLE_UNIT());
#6=DIMENSIONAL_EXPONENTS(0.,0.,0.,0.,0.,0.,0.);
#7=(NAMED_UNIT(*)SI_UNIT($,.STERADIAN.)SOLID_ANGLE_UNIT());
#8=(LENGTH_UNIT()NAMED_UNIT(*)SI_UNIT(.MILLI.,.METRE.));
#9=UNCERTAINTY_MEASURE_WITH_UNIT(LENGTH_MEASURE(1.000000E-05),#8,'DISTANCE_ACCURACY_VALUE','Maximum Tolerance applied to model');
#10=(GEOMETRIC_REPRESENTATION_CONTEXT(3)GLOBAL_UNCERTAINTY_ASSIGNED_CONTEXT((#9))GLOBAL_UNIT_ASSIGNED_CONTEXT((#8,#5,#7))REPRESENTATION_CONTEXT('','root'));
#12=CARTESIAN_POINT('',(0.,0.,0.));
#13=DIRECTION('',(0.,0.,1.));
#14=DIRECTION('',(1.,0.,0.));
#15=AXIS2_PLACEMENT_3D('TS3D_PRODUCT_CSYS',#12,#13,#14);
#27=CARTESIAN_POINT('',(0.,-50.2,36.7));
#28=DIRECTION('',(0.,0.,1.));
#29=DIRECTION('',(1.,0.,0.));
#30=AXIS2_PLACEMENT_3D('',#27,#28,#29);
#31=PLANE('',#30);
#32=CARTESIAN_POINT('',(4.75,-41.8,36.7));
#33=VERTEX_POINT('',#32);
#34=CARTESIAN_POINT('',(13.15,-50.2,36.7));
#35=VERTEX_POINT('',#34);
#36=CARTESIAN_POINT('',(4.75,-50.2,36.7));
#37=DIRECTION('',(-0.,-0.,-1.));
#38=DIRECTION('',(1.,0.,-0.));
#39=AXIS2_PLACEMENT_3D('',#36,#37,#38);
#40=CIRCLE('',#39,8.4);
#41=EDGE_CURVE('',#33,#35,#40,.T.);
#42=ORIENTED_EDGE('',*,*,#41,.T.);
#43=CARTESIAN_POINT('',(4.75,-58.6,36.7));
#44=VERTEX_POINT('',#43);
#45=CARTESIAN_POINT('',(4.75,-50.2,36.7));
#46=DIRECTION('',(-0.,-0.,-1.));
#47=DIRECTION('',(1.,0.,-0.));
#48=AXIS2_PLACEMENT_3D('',#45,#46,#47);
#49=CIRCLE('',#48,8.4);
#50=EDGE_CURVE('',#35,#44,#49,.T.);
#51=ORIENTED_EDGE('',*,*,#50,.T.);
#52=CARTESIAN_POINT('',(-4.75,-58.6,36.7));
#53=VERTEX_POINT('',#52);
#54=CARTESIAN_POINT('',(4.75,-58.6,36.7));
#55=DIRECTION('',(-1.,-0.,-0.));
#56=VECTOR('',#55,9.5);
#57=LINE('',#54,#56);
#58=EDGE_CURVE('',#44,#53,#57,.T.);
#59=ORIENTED_EDGE('',*,*,#58,.T.);
#60=CARTESIAN_POINT('',(-4.75,-41.8,36.7));
#61=VERTEX_POINT('',#60);
#62=CARTESIAN_POINT('',(-4.75,-50.2,36.7));
#63=DIRECTION('',(-0.,-0.,-1.));
#64=DIRECTION('',(1.,0.,-0.));
#65=AXIS2_PLACEMENT_3D('',#62,#63,#64);
#66=CIRCLE('',#65,8.4);
#67=EDGE_CURVE('',#53,#61,#66,.T.);
#68=ORIENTED_EDGE('',*,*,#67,.T.);
#69=CARTESIAN_POINT('',(-4.75,-41.8,36.7));
#70=DIRECTION('',(1.,0.,0.));
#71=VECTOR('',#70,9.5);
#72=LINE('',#69,#71);
#73=EDGE_CURVE('',#61,#33,#72,.T.);
#74=ORIENTED_EDGE('',*,*,#73,.T.);
#75=EDGE_LOOP('',(#42,#51,#59,#68,#74));
#76=FACE_BOUND('',#75,.T.);
#77=CARTESIAN_POINT('',(-4.75,-58.7,36.7));
#78=VERTEX_POINT('',#77);
#79=CARTESIAN_POINT('',(4.75,-58.7,36.7));
#80=VERTEX_POINT('',#79);
#81=CARTESIAN_POINT('',(-4.75,-58.7,36.7));
#82=DIRECTION('',(1.,0.,-0.));
#83=VECTOR('',#82,9.5);
#84=LINE('',#81,#83);
#85=EDGE_CURVE('',#78,#80,#84,.T.);
#86=ORIENTED_EDGE('',*,*,#85,.T.);
#87=CARTESIAN_POINT('',(13.25,-50.2,36.7));
#88=VERTEX_POINT('',#87);
#89=CARTESIAN_POINT('',(4.75,-50.2,36.7));
#90=DIRECTION('',(0.,0.,1.));
#91=DIRECTION('',(1.,0.,-0.));
#92=AXIS2_PLACEMENT_3D('',#89,#90,#91);
#93=CIRCLE('',#92,8.5);
#94=EDGE_CURVE('',#80,#88,#93,.T.);
#95=ORIENTED_EDGE('',*,*,#94,.T.);
#96=CARTESIAN_POINT('',(4.75,-41.7,36.7));
#97=VERTEX_POINT('',#96);
#98=CARTESIAN_POINT('',(4.75,-50.2,36.7));
#99=DIRECTION('',(0.,0.,1.));
#100=DIRECTION('',(1.,0.,-0.));
#101=AXIS2_PLACEMENT_3D('',#98,#99,#100);
#102=CIRCLE('',#101,8.5);
#103=EDGE_CURVE('',#88,#97,#102,.T.);
#104=ORIENTED_EDGE('',*,*,#103,.T.);
#105=CARTESIAN_POINT('',(-4.75,-41.7,36.7));
#106=VERTEX_POINT('',#105);
#107=CARTESIAN_POINT('',(4.75,-41.7,36.7));
#108=DIRECTION('',(-1.,-0.,-0.));
#109=VECTOR('',#108,9.5);
#110=LINE('',#107,#109);
#111=EDGE_CURVE('',#97,#106,#110,.T.);
#112=ORIENTED_EDGE('',*,*,#111,.T.);
#113=CARTESIAN_POINT('',(-4.75,-50.2,36.7));
#114=DIRECTION('',(0.,0.,1.));
#115=DIRECTION('',(1.,0.,-0.));
#116=AXIS2_PLACEMENT_3D('',#113,#114,#115);
#117=CIRCLE('',#116,8.5);
#118=EDGE_CURVE('',#106,#78,#117,.T.);
#119=ORIENTED_EDGE('',*,*,#118,.T.);
#120=EDGE_LOOP('',(#86,#95,#104,#112,#119));
#121=FACE_BOUND('',#120,.T.);
#122=ADVANCED_FACE('',(#76,#121),#31,.T.);
#123=CARTESIAN_POINT('',(0.,-50.2,37.7));
#124=DIRECTION('',(0.,0.,1.));
#125=DIRECTION('',(1.,0.,0.));
#126=AXIS2_PLACEMENT_3D('',#123,#124,#125);
#127=PLANE('',#126);
#128=CARTESIAN_POINT('',(-14.9,-54.9,37.7));
#129=VERTEX_POINT('',#128);
#130=CARTESIAN_POINT('',(-9.7,-60.1,37.7));
#131=VERTEX_POINT('',#130);
#132=CARTESIAN_POINT('',(-9.7,-54.9,37.7));
#133=DIRECTION('',(0.,0.,1.));
#134=DIRECTION('',(1.,0.,-0.));
#135=AXIS2_PLACEMENT_3D('',#132,#133,#134);
#136=CIRCLE('',#135,5.2);
#137=EDGE_CURVE('',#129,#131,#136,.T.);
#138=ORIENTED_EDGE('',*,*,#137,.T.);
#139=CARTESIAN_POINT('',(9.7,-60.1,37.7));
#140=VERTEX_POINT('',#139);
#141=CARTESIAN_POINT('',(-9.7,-60.1,37.7));
#142=DIRECTION('',(1.,0.,-0.));
#143=VECTOR('',#142,19.4);
#144=LINE('',#141,#143);
#145=EDGE_CURVE('',#131,#140,#144,.T.);
#146=ORIENTED_EDGE('',*,*,#145,.T.);
#147=CARTESIAN_POINT('',(14.9,-54.9,37.7));
#148=VERTEX_POINT('',#147);
#149=CARTESIAN_POINT('',(9.7,-54.9,37.7));
#150=DIRECTION('',(0.,0.,1.));
#151=DIRECTION('',(1.,0.,-0.));
#152=AXIS2_PLACEMENT_3D('',#149,#150,#151);
#153=CIRCLE('',#152,5.2);
#154=EDGE_CURVE('',#140,#148,#153,.T.);
#155=ORIENTED_EDGE('',*,*,#154,.T.);
#156=CARTESIAN_POINT('',(14.9,-45.5,37.7));
#157=VERTEX_POINT('',#156);
#158=CARTESIAN_POINT('',(14.9,-54.9,37.7));
#159=DIRECTION('',(0.,1.,0.));
#160=VECTOR('',#159,9.4);
#161=LINE('',#158,#160);
#162=EDGE_CURVE('',#148,#157,#161,.T.);
#163=ORIENTED_EDGE('',*,*,#162,.T.);
#164=CARTESIAN_POINT('',(9.7,-40.3,37.7));
#165=VERTEX_POINT('',#164);
#166=CARTESIAN_POINT('',(9.7,-45.5,37.7));
#167=DIRECTION('',(0.,0.,1.));
#168=DIRECTION('',(1.,0.,-0.));
#169=AXIS2_PLACEMENT_3D('',#166,#167,#168);
#170=CIRCLE('',#169,5.2);
#171=EDGE_CURVE('',#157,#165,#170,.T.);
#172=ORIENTED_EDGE('',*,*,#171,.T.);
#173=CARTESIAN_POINT('',(-9.7,-40.3,37.7));
#174=VERTEX_POINT('',#173);
#175=CARTESIAN_POINT('',(9.7,-40.3,37.7));
#176=DIRECTION('',(-1.,0.,0.));
#177=VECTOR('',#176,19.4);
#178=LINE('',#175,#177);
#179=EDGE_CURVE('',#165,#174,#178,.T.);
#180=ORIENTED_EDGE('',*,*,#179,.T.);
#181=CARTESIAN_POINT('',(-14.9,-45.5,37.7));
#182=VERTEX_POINT('',#181);
#183=CARTESIAN_POINT('',(-9.7,-45.5,37.7));
#184=DIRECTION('',(0.,0.,1.));
#185=DIRECTION('',(1.,0.,-0.));
#186=AXIS2_PLACEMENT_3D('',#183,#184,#185);
#187=CIRCLE('',#186,5.2);
#188=EDGE_CURVE('',#174,#182,#187,.T.);
#189=ORIENTED_EDGE('',*,*,#188,.T.);
#190=CARTESIAN_POINT('',(-14.9,-45.5,37.7));
#191=DIRECTION('',(0.,-1.,0.));
#192=VECTOR('',#191,9.4);
#193=LINE('',#190,#192);
#194=EDGE_CURVE('',#182,#129,#193,.T.);
#195=ORIENTED_EDGE('',*,*,#194,.T.);
#196=EDGE_LOOP('',(#138,#146,#155,#163,#172,#180,#189,#195));
#197=FACE_BOUND('',#196,.T.);
#198=CARTESIAN_POINT('',(-4.75,-40.7,37.7));
#199=VERTEX_POINT('',#198);
#200=CARTESIAN_POINT('',(-4.75,-59.7,37.7));
#201=VERTEX_POINT('',#200);
#202=CARTESIAN_POINT('',(-4.75,-50.2,37.7));
#203=DIRECTION('',(0.,0.,1.));
#204=DIRECTION('',(-0.25,-0.968245837,0.));
#205=AXIS2_PLACEMENT_3D('',#202,#203,#204);
#206=CIRCLE('',#205,9.5);
#207=EDGE_CURVE('',#199,#201,#206,.T.);
#208=ORIENTED_EDGE('',*,*,#207,.F.);
#209=CARTESIAN_POINT('',(4.75,-40.7,37.7));
#210=VERTEX_POINT('',#209);
#211=CARTESIAN_POINT('',(-4.75,-40.7,37.7));
#212=DIRECTION('',(1.,0.,0.));
#213=VECTOR('',#212,9.5);
#214=LINE('',#211,#213);
#215=EDGE_CURVE('',#199,#210,#214,.T.);
#216=ORIENTED_EDGE('',*,*,#215,.T.);
#217=CARTESIAN_POINT('',(14.25,-50.2,37.7));
#218=VERTEX_POINT('',#217);
#219=CARTESIAN_POINT('',(4.75,-50.2,37.7));
#220=DIRECTION('',(0.,0.,1.));
#221=DIRECTION('',(-0.25,-0.968245837,0.));
#222=AXIS2_PLACEMENT_3D('',#219,#220,#221);
#223=CIRCLE('',#222,9.5);
#224=EDGE_CURVE('',#218,#210,#223,.T.);
#225=ORIENTED_EDGE('',*,*,#224,.F.);
#226=CARTESIAN_POINT('',(4.75,-59.7,37.7));
#227=VERTEX_POINT('',#226);
#228=CARTESIAN_POINT('',(4.75,-50.2,37.7));
#229=DIRECTION('',(0.,0.,1.));
#230=DIRECTION('',(-0.25,-0.968245837,0.));
#231=AXIS2_PLACEMENT_3D('',#228,#229,#230);
#232=CIRCLE('',#231,9.5);
#233=EDGE_CURVE('',#227,#218,#232,.T.);
#234=ORIENTED_EDGE('',*,*,#233,.F.);
#235=CARTESIAN_POINT('',(4.75,-59.7,37.7));
#236=DIRECTION('',(-1.,-0.,0.));
#237=VECTOR('',#236,9.5);
#238=LINE('',#235,#237);
#239=EDGE_CURVE('',#227,#201,#238,.T.);
#240=ORIENTED_EDGE('',*,*,#239,.T.);
#241=EDGE_LOOP('',(#208,#216,#225,#234,#240));
#242=FACE_BOUND('',#241,.T.);
#243=ADVANCED_FACE('',(#197,#242),#127,.T.);
#244=CARTESIAN_POINT('',(15.,-50.2,37.7));
#245=DIRECTION('',(1.,0.,0.));
#246=DIRECTION('',(0.,0.,-1.));
#247=AXIS2_PLACEMENT_3D('',#244,#245,#246);
#248=PLANE('',#247);
#249=CARTESIAN_POINT('',(15.,-54.9,37.6));
#250=VERTEX_POINT('',#249);
#251=CARTESIAN_POINT('',(15.,-54.9,30.8));
#252=VERTEX_POINT('',#251);
#253=CARTESIAN_POINT('',(15.,-54.9,37.6));
#254=DIRECTION('',(0.,0.,-1.));
#255=VECTOR('',#254,6.8);
#256=LINE('',#253,#255);
#257=EDGE_CURVE('',#250,#252,#256,.T.);
#258=ORIENTED_EDGE('',*,*,#257,.T.);
#259=CARTESIAN_POINT('',(15.,-45.5,30.8));
#260=VERTEX_POINT('',#259);
#261=CARTESIAN_POINT('',(15.,-54.9,30.8));
#262=DIRECTION('',(0.,1.,0.));
#263=VECTOR('',#262,9.4);
#264=LINE('',#261,#263);
#265=EDGE_CURVE('',#252,#260,#264,.T.);
#266=ORIENTED_EDGE('',*,*,#265,.T.);
#267=CARTESIAN_POINT('',(15.,-45.5,37.6));
#268=VERTEX_POINT('',#267);
#269=CARTESIAN_POINT('',(15.,-45.5,30.8));
#270=DIRECTION('',(-0.,-0.,1.));
#271=VECTOR('',#270,6.8);
#272=LINE('',#269,#271);
#273=EDGE_CURVE('',#260,#268,#272,.T.);
#274=ORIENTED_EDGE('',*,*,#273,.T.);
#275=CARTESIAN_POINT('',(15.,-45.5,37.6));
#276=DIRECTION('',(0.,-1.,0.));
#277=VECTOR('',#276,9.4);
#278=LINE('',#275,#277);
#279=EDGE_CURVE('',#268,#250,#278,.T.);
#280=ORIENTED_EDGE('',*,*,#279,.T.);
#281=EDGE_LOOP('',(#258,#266,#274,#280));
#282=FACE_BOUND('',#281,.T.);
#283=ADVANCED_FACE('',(#282),#248,.T.);
#284=CARTESIAN_POINT('',(0.,-40.2,37.7));
#285=DIRECTION('',(0.,1.,0.));
#286=DIRECTION('',(0.,0.,1.));
#287=AXIS2_PLACEMENT_3D('',#284,#285,#286);
#288=PLANE('',#287);
#289=CARTESIAN_POINT('',(9.7,-40.2,37.6));
#290=VERTEX_POINT('',#289);
#291=CARTESIAN_POINT('',(9.7,-40.2,30.8));
#292=VERTEX_POINT('',#291);
#293=CARTESIAN_POINT('',(9.7,-40.2,37.6));
#294=DIRECTION('',(0.,0.,-1.));
#295=VECTOR('',#294,6.8);
#296=LINE('',#293,#295);
#297=EDGE_CURVE('',#290,#292,#296,.T.);
#298=ORIENTED_EDGE('',*,*,#297,.T.);
#299=CARTESIAN_POINT('',(-9.7,-40.2,30.8));
#300=VERTEX_POINT('',#299);
#301=CARTESIAN_POINT('',(9.7,-40.2,30.8));
#302=DIRECTION('',(-1.,0.,0.));
#303=VECTOR('',#302,19.4);
#304=LINE('',#301,#303);
#305=EDGE_CURVE('',#292,#300,#304,.T.);
#306=ORIENTED_EDGE('',*,*,#305,.T.);
#307=CARTESIAN_POINT('',(-9.7,-40.2,37.6));
#308=VERTEX_POINT('',#307);
#309=CARTESIAN_POINT('',(-9.7,-40.2,30.8));
#310=DIRECTION('',(-0.,-0.,1.));
#311=VECTOR('',#310,6.8);
#312=LINE('',#309,#311);
#313=EDGE_CURVE('',#300,#308,#312,.T.);
#314=ORIENTED_EDGE('',*,*,#313,.T.);
#315=CARTESIAN_POINT('',(-9.7,-40.2,37.6));
#316=DIRECTION('',(1.,0.,-0.));
#317=VECTOR('',#316,19.4);
#318=LINE('',#315,#317);
#319=EDGE_CURVE('',#308,#290,#318,.T.);
#320=ORIENTED_EDGE('',*,*,#319,.T.);
#321=EDGE_LOOP('',(#298,#306,#314,#320));
#322=FACE_BOUND('',#321,.T.);
#323=ADVANCED_FACE('',(#322),#288,.T.);
#324=CARTESIAN_POINT('',(-15.,-50.2,37.7));
#325=DIRECTION('',(-1.,0.,0.));
#326=DIRECTION('',(0.,0.,1.));
#327=AXIS2_PLACEMENT_3D('',#324,#325,#326);
#328=PLANE('',#327);
#329=CARTESIAN_POINT('',(-15.,-45.5,37.6));
#330=VERTEX_POINT('',#329);
#331=CARTESIAN_POINT('',(-15.,-45.5,30.8));
#332=VERTEX_POINT('',#331);
#333=CARTESIAN_POINT('',(-15.,-45.5,37.6));
#334=DIRECTION('',(0.,0.,-1.));
#335=VECTOR('',#334,6.8);
#336=LINE('',#333,#335);
#337=EDGE_CURVE('',#330,#332,#336,.T.);
#338=ORIENTED_EDGE('',*,*,#337,.T.);
#339=CARTESIAN_POINT('',(-15.,-54.9,30.8));
#340=VERTEX_POINT('',#339);
#341=CARTESIAN_POINT('',(-15.,-45.5,30.8));
#342=DIRECTION('',(0.,-1.,0.));
#343=VECTOR('',#342,9.4);
#344=LINE('',#341,#343);
#345=EDGE_CURVE('',#332,#340,#344,.T.);
#346=ORIENTED_EDGE('',*,*,#345,.T.);
#347=CARTESIAN_POINT('',(-15.,-54.9,37.6));
#348=VERTEX_POINT('',#347);
#349=CARTESIAN_POINT('',(-15.,-54.9,30.8));
#350=DIRECTION('',(-0.,-0.,1.));
#351=VECTOR('',#350,6.8);
#352=LINE('',#349,#351);
#353=EDGE_CURVE('',#340,#348,#352,.T.);
#354=ORIENTED_EDGE('',*,*,#353,.T.);
#355=CARTESIAN_POINT('',(-15.,-54.9,37.6));
#356=DIRECTION('',(0.,1.,0.));
#357=VECTOR('',#356,9.4);
#358=LINE('',#355,#357);
#359=EDGE_CURVE('',#348,#330,#358,.T.);
#360=ORIENTED_EDGE('',*,*,#359,.T.);
#361=EDGE_LOOP('',(#338,#346,#354,#360));
#362=FACE_BOUND('',#361,.T.);
#363=ADVANCED_FACE('',(#362),#328,.T.);
#364=CARTESIAN_POINT('',(0.,-60.2,37.7));
#365=DIRECTION('',(0.,-1.,0.));
#366=DIRECTION('',(0.,0.,-1.));
#367=AXIS2_PLACEMENT_3D('',#364,#365,#366);
#368=PLANE('',#367);
#369=CARTESIAN_POINT('',(-9.7,-60.2,37.6));
#370=VERTEX_POINT('',#369);
#371=CARTESIAN_POINT('',(-9.7,-60.2,30.8));
#372=VERTEX_POINT('',#371);
#373=CARTESIAN_POINT('',(-9.7,-60.2,37.6));
#374=DIRECTION('',(0.,0.,-1.));
#375=VECTOR('',#374,6.8);
#376=LINE('',#373,#375);
#377=EDGE_CURVE('',#370,#372,#376,.T.);
#378=ORIENTED_EDGE('',*,*,#377,.T.);
#379=CARTESIAN_POINT('',(9.7,-60.2,30.8));
#380=VERTEX_POINT('',#379);
#381=CARTESIAN_POINT('',(-9.7,-60.2,30.8));
#382=DIRECTION('',(1.,0.,-0.));
#383=VECTOR('',#382,19.4);
#384=LINE('',#381,#383);
#385=EDGE_CURVE('',#372,#380,#384,.T.);
#386=ORIENTED_EDGE('',*,*,#385,.T.);
#387=CARTESIAN_POINT('',(9.7,-60.2,37.6));
#388=VERTEX_POINT('',#387);
#389=CARTESIAN_POINT('',(9.7,-60.2,30.8));
#390=DIRECTION('',(-0.,-0.,1.));
#391=VECTOR('',#390,6.8);
#392=LINE('',#389,#391);
#393=EDGE_CURVE('',#380,#388,#392,.T.);
#394=ORIENTED_EDGE('',*,*,#393,.T.);
#395=CARTESIAN_POINT('',(9.7,-60.2,37.6));
#396=DIRECTION('',(-1.,0.,0.));
#397=VECTOR('',#396,19.4);
#398=LINE('',#395,#397);
#399=EDGE_CURVE('',#388,#370,#398,.T.);
#400=ORIENTED_EDGE('',*,*,#399,.T.);
#401=EDGE_LOOP('',(#378,#386,#394,#400));
#402=FACE_BOUND('',#401,.T.);
#403=ADVANCED_FACE('',(#402),#368,.T.);
#404=CARTESIAN_POINT('',(0.,-50.2,30.7));
#405=DIRECTION('',(0.,0.,1.));
#406=DIRECTION('',(1.,0.,0.));
#407=AXIS2_PLACEMENT_3D('',#404,#405,#406);
#408=PLANE('',#407);
#409=CARTESIAN_POINT('',(9.7,-40.3,30.7));
#410=VERTEX_POINT('',#409);
#411=CARTESIAN_POINT('',(14.9,-45.5,30.7));
#412=VERTEX_POINT('',#411);
#413=CARTESIAN_POINT('',(9.7,-45.5,30.7));
#414=DIRECTION('',(-0.,-0.,-1.));
#415=DIRECTION('',(1.,0.,-0.));
#416=AXIS2_PLACEMENT_3D('',#413,#414,#415);
#417=CIRCLE('',#416,5.2);
#418=EDGE_CURVE('',#410,#412,#417,.T.);
#419=ORIENTED_EDGE('',*,*,#418,.T.);
#420=CARTESIAN_POINT('',(14.9,-54.9,30.7));
#421=VERTEX_POINT('',#420);
#422=CARTESIAN_POINT('',(14.9,-45.5,30.7));
#423=DIRECTION('',(0.,-1.,0.));
#424=VECTOR('',#423,9.4);
#425=LINE('',#422,#424);
#426=EDGE_CURVE('',#412,#421,#425,.T.);
#427=ORIENTED_EDGE('',*,*,#426,.T.);
#428=CARTESIAN_POINT('',(9.7,-60.1,30.7));
#429=VERTEX_POINT('',#428);
#430=CARTESIAN_POINT('',(9.7,-54.9,30.7));
#431=DIRECTION('',(-0.,-0.,-1.));
#432=DIRECTION('',(1.,0.,-0.));
#433=AXIS2_PLACEMENT_3D('',#430,#431,#432);
#434=CIRCLE('',#433,5.2);
#435=EDGE_CURVE('',#421,#429,#434,.T.);
#436=ORIENTED_EDGE('',*,*,#435,.T.);
#437=CARTESIAN_POINT('',(-9.7,-60.1,30.7));
#438=VERTEX_POINT('',#437);
#439=CARTESIAN_POINT('',(9.7,-60.1,30.7));
#440=DIRECTION('',(-1.,0.,0.));
#441=VECTOR('',#440,19.4);
#442=LINE('',#439,#441);
#443=EDGE_CURVE('',#429,#438,#442,.T.);
#444=ORIENTED_EDGE('',*,*,#443,.T.);
#445=CARTESIAN_POINT('',(-14.9,-54.9,30.7));
#446=VERTEX_POINT('',#445);
#447=CARTESIAN_POINT('',(-9.7,-54.9,30.7));
#448=DIRECTION('',(-0.,-0.,-1.));
#449=DIRECTION('',(1.,0.,-0.));
#450=AXIS2_PLACEMENT_3D('',#447,#448,#449);
#451=CIRCLE('',#450,5.2);
#452=EDGE_CURVE('',#438,#446,#451,.T.);
#453=ORIENTED_EDGE('',*,*,#452,.T.);
#454=CARTESIAN_POINT('',(-14.9,-45.5,30.7));
#455=VERTEX_POINT('',#454);
#456=CARTESIAN_POINT('',(-14.9,-54.9,30.7));
#457=DIRECTION('',(0.,1.,0.));
#458=VECTOR('',#457,9.4);
#459=LINE('',#456,#458);
#460=EDGE_CURVE('',#446,#455,#459,.T.);
#461=ORIENTED_EDGE('',*,*,#460,.T.);
#462=CARTESIAN_POINT('',(-9.7,-40.3,30.7));
#463=VERTEX_POINT('',#462);
#464=CARTESIAN_POINT('',(-9.7,-45.5,30.7));
#465=DIRECTION('',(-0.,-0.,-1.));
#466=DIRECTION('',(1.,0.,-0.));
#467=AXIS2_PLACEMENT_3D('',#464,#465,#466);
#468=CIRCLE('',#467,5.2);
#469=EDGE_CURVE('',#455,#463,#468,.T.);
#470=ORIENTED_EDGE('',*,*,#469,.T.);
#471=CARTESIAN_POINT('',(-9.7,-40.3,30.7));
#472=DIRECTION('',(1.,0.,-0.));
#473=VECTOR('',#472,19.4);
#474=LINE('',#471,#473);
#475=EDGE_CURVE('',#463,#410,#474,.T.);
#476=ORIENTED_EDGE('',*,*,#475,.T.);
#477=EDGE_LOOP('',(#419,#427,#436,#444,#453,#461,#470,#476));
#478=FACE_BOUND('',#477,.T.);
#479=ADVANCED_FACE('',(#478),#408,.F.);
#480=CARTESIAN_POINT('',(0.,-50.2,37.6));
#481=DIRECTION('',(0.,0.,1.));
#482=DIRECTION('',(1.,0.,0.));
#483=AXIS2_PLACEMENT_3D('',#480,#481,#482);
#484=PLANE('',#483);
#485=CARTESIAN_POINT('',(-6.5,-50.2,37.6));
#486=VERTEX_POINT('',#485);
#487=CARTESIAN_POINT('',(6.5,-50.2,37.6));
#488=VERTEX_POINT('',#487);
#489=CARTESIAN_POINT('',(0.,-50.2,37.6));
#490=DIRECTION('',(0.,0.,1.));
#491=DIRECTION('',(1.,-0.,0.));
#492=AXIS2_PLACEMENT_3D('',#489,#490,#491);
#493=CIRCLE('',#492,6.5);
#494=EDGE_CURVE('',#486,#488,#493,.T.);
#495=ORIENTED_EDGE('',*,*,#494,.F.);
#496=CARTESIAN_POINT('',(0.,-50.2,37.6));
#497=DIRECTION('',(0.,0.,1.));
#498=DIRECTION('',(1.,-0.,0.));
#499=AXIS2_PLACEMENT_3D('',#496,#497,#498);
#500=CIRCLE('',#499,6.5);
#501=EDGE_CURVE('',#488,#486,#500,.T.);
#502=ORIENTED_EDGE('',*,*,#501,.F.);
#503=EDGE_LOOP('',(#495,#502));
#504=FACE_BOUND('',#503,.T.);
#505=CARTESIAN_POINT('',(-4.75,-42.7,37.6));
#506=VERTEX_POINT('',#505);
#507=CARTESIAN_POINT('',(4.75,-42.7,37.6));
#508=VERTEX_POINT('',#507);
#509=CARTESIAN_POINT('',(-4.75,-42.7,37.6));
#510=DIRECTION('',(1.,0.,0.));
#511=VECTOR('',#510,9.5);
#512=LINE('',#509,#511);
#513=EDGE_CURVE('',#506,#508,#512,.T.);
#514=ORIENTED_EDGE('',*,*,#513,.F.);
#515=CARTESIAN_POINT('',(-4.75,-57.7,37.6));
#516=VERTEX_POINT('',#515);
#517=CARTESIAN_POINT('',(-4.75,-50.2,37.6));
#518=DIRECTION('',(0.,0.,1.));
#519=DIRECTION('',(-0.,1.,0.));
#520=AXIS2_PLACEMENT_3D('',#517,#518,#519);
#521=CIRCLE('',#520,7.5);
#522=EDGE_CURVE('',#506,#516,#521,.T.);
#523=ORIENTED_EDGE('',*,*,#522,.T.);
#524=CARTESIAN_POINT('',(4.75,-57.7,37.6));
#525=VERTEX_POINT('',#524);
#526=CARTESIAN_POINT('',(-4.75,-57.7,37.6));
#527=DIRECTION('',(1.,0.,0.));
#528=VECTOR('',#527,9.5);
#529=LINE('',#526,#528);
#530=EDGE_CURVE('',#516,#525,#529,.T.);
#531=ORIENTED_EDGE('',*,*,#530,.T.);
#532=CARTESIAN_POINT('',(12.25,-50.2,37.6));
#533=VERTEX_POINT('',#532);
#534=CARTESIAN_POINT('',(4.75,-50.2,37.6));
#535=DIRECTION('',(0.,0.,1.));
#536=DIRECTION('',(-0.,-1.,0.));
#537=AXIS2_PLACEMENT_3D('',#534,#535,#536);
#538=CIRCLE('',#537,7.5);
#539=EDGE_CURVE('',#525,#533,#538,.T.);
#540=ORIENTED_EDGE('',*,*,#539,.T.);
#541=CARTESIAN_POINT('',(4.75,-50.2,37.6));
#542=DIRECTION('',(0.,0.,1.));
#543=DIRECTION('',(-0.,-1.,0.));
#544=AXIS2_PLACEMENT_3D('',#541,#542,#543);
#545=CIRCLE('',#544,7.5);
#546=EDGE_CURVE('',#533,#508,#545,.T.);
#547=ORIENTED_EDGE('',*,*,#546,.T.);
#548=EDGE_LOOP('',(#514,#523,#531,#540,#547));
#549=FACE_BOUND('',#548,.T.);
#550=ADVANCED_FACE('',(#504,#549),#484,.T.);
#551=CARTESIAN_POINT('',(-4.75,-50.2,37.7));
#552=DIRECTION('',(0.,0.,1.));
#553=DIRECTION('',(1.,0.,-0.));
#554=AXIS2_PLACEMENT_3D('',#551,#552,#553);
#555=TOROIDAL_SURFACE('',#554,8.5,1.);
#556=CARTESIAN_POINT('',(-4.75,-41.7,37.7));
#557=DIRECTION('',(-1.,-0.,0.));
#558=DIRECTION('',(0.,-1.,0.));
#559=AXIS2_PLACEMENT_3D('',#556,#557,#558);
#560=CIRCLE('',#559,1.);
#561=EDGE_CURVE('',#199,#106,#560,.T.);
#562=ORIENTED_EDGE('',*,*,#561,.F.);
#563=ORIENTED_EDGE('',*,*,#207,.T.);
#564=CARTESIAN_POINT('',(-4.75,-58.7,37.7));
#565=DIRECTION('',(-1.,0.,0.));
#566=DIRECTION('',(0.,0.,1.));
#567=AXIS2_PLACEMENT_3D('',#564,#565,#566);
#568=CIRCLE('',#567,1.);
#569=EDGE_CURVE('',#78,#201,#568,.T.);
#570=ORIENTED_EDGE('',*,*,#569,.F.);
#571=ORIENTED_EDGE('',*,*,#118,.F.);
#572=EDGE_LOOP('',(#562,#563,#570,#571));
#573=FACE_BOUND('',#572,.T.);
#574=ADVANCED_FACE('',(#573),#555,.F.);
#575=CARTESIAN_POINT('',(2.375,-58.7,37.7));
#576=DIRECTION('',(1.,0.,0.));
#577=DIRECTION('',(-0.,1.,0.));
#578=AXIS2_PLACEMENT_3D('',#575,#576,#577);
#579=CYLINDRICAL_SURFACE('',#578,1.);
#580=ORIENTED_EDGE('',*,*,#569,.T.);
#581=ORIENTED_EDGE('',*,*,#239,.F.);
#582=CARTESIAN_POINT('',(4.75,-58.7,37.7));
#583=DIRECTION('',(-1.,0.,0.));
#584=DIRECTION('',(0.,0.,1.));
#585=AXIS2_PLACEMENT_3D('',#582,#583,#584);
#586=CIRCLE('',#585,1.);
#587=EDGE_CURVE('',#80,#227,#586,.T.);
#588=ORIENTED_EDGE('',*,*,#587,.F.);
#589=ORIENTED_EDGE('',*,*,#85,.F.);
#590=EDGE_LOOP('',(#580,#581,#588,#589));
#591=FACE_BOUND('',#590,.T.);
#592=ADVANCED_FACE('',(#591),#579,.F.);
#593=CARTESIAN_POINT('',(-2.375,-41.7,37.7));
#594=DIRECTION('',(-1.,-0.,0.));
#595=DIRECTION('',(0.,-1.,0.));
#596=AXIS2_PLACEMENT_3D('',#593,#594,#595);
#597=CYLINDRICAL_SURFACE('',#596,1.);
#598=ORIENTED_EDGE('',*,*,#561,.T.);
#599=ORIENTED_EDGE('',*,*,#111,.F.);
#600=CARTESIAN_POINT('',(4.75,-41.7,37.7));
#601=DIRECTION('',(-1.,-0.,-0.));
#602=DIRECTION('',(0.,-1.,0.));
#603=AXIS2_PLACEMENT_3D('',#600,#601,#602);
#604=CIRCLE('',#603,1.);
#605=EDGE_CURVE('',#210,#97,#604,.T.);
#606=ORIENTED_EDGE('',*,*,#605,.F.);
#607=ORIENTED_EDGE('',*,*,#215,.F.);
#608=EDGE_LOOP('',(#598,#599,#606,#607));
#609=FACE_BOUND('',#608,.T.);
#610=ADVANCED_FACE('',(#609),#597,.F.);
#611=CARTESIAN_POINT('',(4.75,-50.2,37.7));
#612=DIRECTION('',(0.,0.,1.));
#613=DIRECTION('',(1.,0.,-0.));
#614=AXIS2_PLACEMENT_3D('',#611,#612,#613);
#615=TOROIDAL_SURFACE('',#614,8.5,1.);
#616=CARTESIAN_POINT('',(13.25,-50.2,37.7));
#617=DIRECTION('',(-0.,1.,-0.));
#618=DIRECTION('',(1.,0.,0.));
#619=AXIS2_PLACEMENT_3D('',#616,#617,#618);
#620=CIRCLE('',#619,1.);
#621=EDGE_CURVE('',#218,#88,#620,.T.);
#622=ORIENTED_EDGE('',*,*,#621,.F.);
#623=ORIENTED_EDGE('',*,*,#224,.T.);
#624=ORIENTED_EDGE('',*,*,#605,.T.);
#625=ORIENTED_EDGE('',*,*,#103,.F.);
#626=EDGE_LOOP('',(#622,#623,#624,#625));
#627=FACE_BOUND('',#626,.T.);
#628=ADVANCED_FACE('',(#627),#615,.F.);
#629=CARTESIAN_POINT('',(-0.,-41.8,37.6));
#630=DIRECTION('',(-1.,-0.,0.));
#631=DIRECTION('',(0.,-1.,0.));
#632=AXIS2_PLACEMENT_3D('',#629,#630,#631);
#633=CYLINDRICAL_SURFACE('',#632,0.9);
#634=CARTESIAN_POINT('',(4.75,-41.8,37.6));
#635=DIRECTION('',(-1.,-0.,0.));
#636=DIRECTION('',(0.,-1.,0.));
#637=AXIS2_PLACEMENT_3D('',#634,#635,#636);
#638=CIRCLE('',#637,0.9);
#639=EDGE_CURVE('',#33,#508,#638,.T.);
#640=ORIENTED_EDGE('',*,*,#639,.F.);
#641=ORIENTED_EDGE('',*,*,#73,.F.);
#642=CARTESIAN_POINT('',(-4.75,-41.8,37.6));
#643=DIRECTION('',(1.,0.,0.));
#644=DIRECTION('',(0.,0.,-1.));
#645=AXIS2_PLACEMENT_3D('',#642,#643,#644);
#646=CIRCLE('',#645,0.9);
#647=EDGE_CURVE('',#506,#61,#646,.T.);
#648=ORIENTED_EDGE('',*,*,#647,.F.);
#649=ORIENTED_EDGE('',*,*,#513,.T.);
#650=EDGE_LOOP('',(#640,#641,#648,#649));
#651=FACE_BOUND('',#650,.T.);
#652=ADVANCED_FACE('',(#651),#633,.F.);
#653=CARTESIAN_POINT('',(-4.75,-50.2,37.6));
#654=DIRECTION('',(0.,0.,1.));
#655=DIRECTION('',(1.,0.,-0.));
#656=AXIS2_PLACEMENT_3D('',#653,#654,#655);
#657=TOROIDAL_SURFACE('',#656,8.4,0.9);
#658=ORIENTED_EDGE('',*,*,#647,.T.);
#659=ORIENTED_EDGE('',*,*,#67,.F.);
#660=CARTESIAN_POINT('',(-4.75,-58.6,37.6));
#661=DIRECTION('',(-1.,0.,0.));
#662=DIRECTION('',(0.,0.,1.));
#663=AXIS2_PLACEMENT_3D('',#660,#661,#662);
#664=CIRCLE('',#663,0.9);
#665=EDGE_CURVE('',#516,#53,#664,.T.);
#666=ORIENTED_EDGE('',*,*,#665,.F.);
#667=ORIENTED_EDGE('',*,*,#522,.F.);
#668=EDGE_LOOP('',(#658,#659,#666,#667));
#669=FACE_BOUND('',#668,.T.);
#670=ADVANCED_FACE('',(#669),#657,.F.);
#671=CARTESIAN_POINT('',(4.75,-50.2,37.6));
#672=DIRECTION('',(0.,0.,1.));
#673=DIRECTION('',(1.,0.,-0.));
#674=AXIS2_PLACEMENT_3D('',#671,#672,#673);
#675=TOROIDAL_SURFACE('',#674,8.4,0.9);
#676=CARTESIAN_POINT('',(13.15,-50.2,37.6));
#677=DIRECTION('',(-0.,1.,-0.));
#678=DIRECTION('',(1.,0.,0.));
#679=AXIS2_PLACEMENT_3D('',#676,#677,#678);
#680=CIRCLE('',#679,0.9);
#681=EDGE_CURVE('',#35,#533,#680,.T.);
#682=ORIENTED_EDGE('',*,*,#681,.F.);
#683=ORIENTED_EDGE('',*,*,#41,.F.);
#684=ORIENTED_EDGE('',*,*,#639,.T.);
#685=ORIENTED_EDGE('',*,*,#546,.F.);
#686=EDGE_LOOP('',(#682,#683,#684,#685));
#687=FACE_BOUND('',#686,.T.);
#688=ADVANCED_FACE('',(#687),#675,.F.);
#689=CARTESIAN_POINT('',(0.,-58.6,37.6));
#690=DIRECTION('',(1.,0.,0.));
#691=DIRECTION('',(-0.,1.,0.));
#692=AXIS2_PLACEMENT_3D('',#689,#690,#691);
#693=CYLINDRICAL_SURFACE('',#692,0.9);
#694=ORIENTED_EDGE('',*,*,#665,.T.);
#695=ORIENTED_EDGE('',*,*,#58,.F.);
#696=CARTESIAN_POINT('',(4.75,-58.6,37.6));
#697=DIRECTION('',(1.,0.,0.));
#698=DIRECTION('',(0.,0.,-1.));
#699=AXIS2_PLACEMENT_3D('',#696,#697,#698);
#700=CIRCLE('',#699,0.9);
#701=EDGE_CURVE('',#44,#525,#700,.T.);
#702=ORIENTED_EDGE('',*,*,#701,.T.);
#703=ORIENTED_EDGE('',*,*,#530,.F.);
#704=EDGE_LOOP('',(#694,#695,#702,#703));
#705=FACE_BOUND('',#704,.T.);
#706=ADVANCED_FACE('',(#705),#693,.F.);
#707=CARTESIAN_POINT('',(-0.000000006,-50.2,37.8));
#708=DIRECTION('',(0.,0.,1.));
#709=DIRECTION('',(1.,0.,0.));
#710=AXIS2_PLACEMENT_3D('',#707,#708,#709);
#711=PLANE('',#710);
#712=CARTESIAN_POINT('',(5.628220211,-50.2,37.8));
#713=VERTEX_POINT('',#712);
#714=CARTESIAN_POINT('',(-5.628220211,-50.2,37.8));
#715=VERTEX_POINT('',#714);
#716=CARTESIAN_POINT('',(0.,-50.2,37.8));
#717=DIRECTION('',(0.,0.,1.));
#718=DIRECTION('',(1.,0.,-0.));
#719=AXIS2_PLACEMENT_3D('',#716,#717,#718);
#720=CIRCLE('',#719,5.628220211);
#721=EDGE_CURVE('',#713,#715,#720,.T.);
#722=ORIENTED_EDGE('',*,*,#721,.T.);
#723=CARTESIAN_POINT('',(0.,-50.2,37.8));
#724=DIRECTION('',(0.,0.,1.));
#725=DIRECTION('',(1.,0.,-0.));
#726=AXIS2_PLACEMENT_3D('',#723,#724,#725);
#727=CIRCLE('',#726,5.628220211);
#728=EDGE_CURVE('',#715,#713,#727,.T.);
#729=ORIENTED_EDGE('',*,*,#728,.T.);
#730=EDGE_LOOP('',(#722,#729));
#731=FACE_BOUND('',#730,.T.);
#732=ADVANCED_FACE('',(#731),#711,.T.);
#733=CARTESIAN_POINT('',(0.,-50.2,35.8));
#734=DIRECTION('',(0.,0.,-1.));
#735=DIRECTION('',(-1.,0.,0.));
#736=AXIS2_PLACEMENT_3D('',#733,#734,#735);
#737=TOROIDAL_SURFACE('',#736,5.628220211,2.);
#738=CARTESIAN_POINT('',(-5.628220211,-50.2,35.8));
#739=DIRECTION('',(-0.,1.,-0.));
#740=DIRECTION('',(-1.,0.,0.));
#741=AXIS2_PLACEMENT_3D('',#738,#739,#740);
#742=CIRCLE('',#741,2.);
#743=EDGE_CURVE('',#486,#715,#742,.T.);
#744=ORIENTED_EDGE('',*,*,#743,.T.);
#745=ORIENTED_EDGE('',*,*,#721,.F.);
#746=ORIENTED_EDGE('',*,*,#728,.F.);
#747=ORIENTED_EDGE('',*,*,#743,.F.);
#748=ORIENTED_EDGE('',*,*,#494,.T.);
#749=ORIENTED_EDGE('',*,*,#501,.T.);
#750=EDGE_LOOP('',(#744,#745,#746,#747,#748,#749));
#751=FACE_BOUND('',#750,.T.);
#752=ADVANCED_FACE('',(#751),#737,.T.);
#753=CARTESIAN_POINT('',(9.7,-54.9,37.7));
#754=DIRECTION('',(0.,0.,-1.));
#755=DIRECTION('',(-1.,0.,0.));
#756=AXIS2_PLACEMENT_3D('',#753,#754,#755);
#757=CYLINDRICAL_SURFACE('',#756,5.3);
#758=ORIENTED_EDGE('',*,*,#393,.F.);
#759=CARTESIAN_POINT('',(9.7,-54.9,30.8));
#760=DIRECTION('',(0.,0.,1.));
#761=DIRECTION('',(1.,0.,-0.));
#762=AXIS2_PLACEMENT_3D('',#759,#760,#761);
#763=CIRCLE('',#762,5.3);
#764=EDGE_CURVE('',#380,#252,#763,.T.);
#765=ORIENTED_EDGE('',*,*,#764,.T.);
#766=ORIENTED_EDGE('',*,*,#257,.F.);
#767=CARTESIAN_POINT('',(9.7,-54.9,37.6));
#768=DIRECTION('',(-0.,-0.,-1.));
#769=DIRECTION('',(1.,0.,-0.));
#770=AXIS2_PLACEMENT_3D('',#767,#768,#769);
#771=CIRCLE('',#770,5.3);
#772=EDGE_CURVE('',#250,#388,#771,.T.);
#773=ORIENTED_EDGE('',*,*,#772,.T.);
#774=EDGE_LOOP('',(#758,#765,#766,#773));
#775=FACE_BOUND('',#774,.T.);
#776=ADVANCED_FACE('',(#775),#757,.T.);
#777=CARTESIAN_POINT('',(-9.7,-45.5,37.7));
#778=DIRECTION('',(0.,0.,-1.));
#779=DIRECTION('',(-1.,0.,0.));
#780=AXIS2_PLACEMENT_3D('',#777,#778,#779);
#781=CYLINDRICAL_SURFACE('',#780,5.3);
#782=ORIENTED_EDGE('',*,*,#313,.F.);
#783=CARTESIAN_POINT('',(-9.7,-45.5,30.8));
#784=DIRECTION('',(0.,0.,1.));
#785=DIRECTION('',(1.,0.,-0.));
#786=AXIS2_PLACEMENT_3D('',#783,#784,#785);
#787=CIRCLE('',#786,5.3);
#788=EDGE_CURVE('',#300,#332,#787,.T.);
#789=ORIENTED_EDGE('',*,*,#788,.T.);
#790=ORIENTED_EDGE('',*,*,#337,.F.);
#791=CARTESIAN_POINT('',(-9.7,-45.5,37.6));
#792=DIRECTION('',(-0.,-0.,-1.));
#793=DIRECTION('',(1.,0.,-0.));
#794=AXIS2_PLACEMENT_3D('',#791,#792,#793);
#795=CIRCLE('',#794,5.3);
#796=EDGE_CURVE('',#330,#308,#795,.T.);
#797=ORIENTED_EDGE('',*,*,#796,.T.);
#798=EDGE_LOOP('',(#782,#789,#790,#797));
#799=FACE_BOUND('',#798,.T.);
#800=ADVANCED_FACE('',(#799),#781,.T.);
#801=CARTESIAN_POINT('',(-9.7,-54.9,37.7));
#802=DIRECTION('',(0.,0.,-1.));
#803=DIRECTION('',(-1.,0.,0.));
#804=AXIS2_PLACEMENT_3D('',#801,#802,#803);
#805=CYLINDRICAL_SURFACE('',#804,5.3);
#806=ORIENTED_EDGE('',*,*,#353,.F.);
#807=CARTESIAN_POINT('',(-9.7,-54.9,30.8));
#808=DIRECTION('',(0.,0.,1.));
#809=DIRECTION('',(1.,0.,-0.));
#810=AXIS2_PLACEMENT_3D('',#807,#808,#809);
#811=CIRCLE('',#810,5.3);
#812=EDGE_CURVE('',#340,#372,#811,.T.);
#813=ORIENTED_EDGE('',*,*,#812,.T.);
#814=ORIENTED_EDGE('',*,*,#377,.F.);
#815=CARTESIAN_POINT('',(-9.7,-54.9,37.6));
#816=DIRECTION('',(-0.,-0.,-1.));
#817=DIRECTION('',(1.,0.,-0.));
#818=AXIS2_PLACEMENT_3D('',#815,#816,#817);
#819=CIRCLE('',#818,5.3);
#820=EDGE_CURVE('',#370,#348,#819,.T.);
#821=ORIENTED_EDGE('',*,*,#820,.T.);
#822=EDGE_LOOP('',(#806,#813,#814,#821));
#823=FACE_BOUND('',#822,.T.);
#824=ADVANCED_FACE('',(#823),#805,.T.);
#825=CARTESIAN_POINT('',(9.7,-45.5,37.7));
#826=DIRECTION('',(0.,0.,-1.));
#827=DIRECTION('',(-1.,0.,0.));
#828=AXIS2_PLACEMENT_3D('',#825,#826,#827);
#829=CYLINDRICAL_SURFACE('',#828,5.3);
#830=ORIENTED_EDGE('',*,*,#273,.F.);
#831=CARTESIAN_POINT('',(9.7,-45.5,30.8));
#832=DIRECTION('',(0.,0.,1.));
#833=DIRECTION('',(1.,0.,-0.));
#834=AXIS2_PLACEMENT_3D('',#831,#832,#833);
#835=CIRCLE('',#834,5.3);
#836=EDGE_CURVE('',#260,#292,#835,.T.);
#837=ORIENTED_EDGE('',*,*,#836,.T.);
#838=ORIENTED_EDGE('',*,*,#297,.F.);
#839=CARTESIAN_POINT('',(9.7,-45.5,37.6));
#840=DIRECTION('',(-0.,-0.,-1.));
#841=DIRECTION('',(1.,0.,-0.));
#842=AXIS2_PLACEMENT_3D('',#839,#840,#841);
#843=CIRCLE('',#842,5.3);
#844=EDGE_CURVE('',#290,#268,#843,.T.);
#845=ORIENTED_EDGE('',*,*,#844,.T.);
#846=EDGE_LOOP('',(#830,#837,#838,#845));
#847=FACE_BOUND('',#846,.T.);
#848=ADVANCED_FACE('',(#847),#829,.T.);
#849=CARTESIAN_POINT('',(-14.9,-50.2,30.7));
#850=DIRECTION('',(-0.707106781,0.,-0.707106781));
#851=DIRECTION('',(0.,-1.,0.));
#852=AXIS2_PLACEMENT_3D('',#849,#850,#851);
#853=PLANE('',#852);
#854=CARTESIAN_POINT('',(-15.,-54.9,30.8));
#855=DIRECTION('',(0.707106781,0.,-0.707106781));
#856=VECTOR('',#855,0.141421356);
#857=LINE('',#854,#856);
#858=EDGE_CURVE('',#340,#446,#857,.T.);
#859=ORIENTED_EDGE('',*,*,#858,.F.);
#860=ORIENTED_EDGE('',*,*,#345,.F.);
#861=CARTESIAN_POINT('',(-14.9,-45.5,30.7));
#862=DIRECTION('',(-0.707106781,0.,0.707106781));
#863=VECTOR('',#862,0.141421356);
#864=LINE('',#861,#863);
#865=EDGE_CURVE('',#455,#332,#864,.T.);
#866=ORIENTED_EDGE('',*,*,#865,.F.);
#867=ORIENTED_EDGE('',*,*,#460,.F.);
#868=EDGE_LOOP('',(#859,#860,#866,#867));
#869=FACE_BOUND('',#868,.T.);
#870=ADVANCED_FACE('',(#869),#853,.T.);
#871=CARTESIAN_POINT('',(-9.7,-45.5,30.7));
#872=DIRECTION('',(0.,0.,1.));
#873=DIRECTION('',(1.,0.,-0.));
#874=AXIS2_PLACEMENT_3D('',#871,#872,#873);
#875=CONICAL_SURFACE('',#874,5.2,45.);
#876=ORIENTED_EDGE('',*,*,#865,.T.);
#877=ORIENTED_EDGE('',*,*,#788,.F.);
#878=CARTESIAN_POINT('',(-9.7,-40.3,30.7));
#879=DIRECTION('',(0.,0.707106781,0.707106781));
#880=VECTOR('',#879,0.141421356);
#881=LINE('',#878,#880);
#882=EDGE_CURVE('',#463,#300,#881,.T.);
#883=ORIENTED_EDGE('',*,*,#882,.F.);
#884=ORIENTED_EDGE('',*,*,#469,.F.);
#885=EDGE_LOOP('',(#876,#877,#883,#884));
#886=FACE_BOUND('',#885,.T.);
#887=ADVANCED_FACE('',(#886),#875,.T.);
#888=CARTESIAN_POINT('',(-9.7,-54.9,30.7));
#889=DIRECTION('',(0.,0.,1.));
#890=DIRECTION('',(1.,0.,-0.));
#891=AXIS2_PLACEMENT_3D('',#888,#889,#890);
#892=CONICAL_SURFACE('',#891,5.2,45.);
#893=ORIENTED_EDGE('',*,*,#858,.T.);
#894=ORIENTED_EDGE('',*,*,#452,.F.);
#895=CARTESIAN_POINT('',(-9.7,-60.2,30.8));
#896=DIRECTION('',(0.,0.707106781,-0.707106781));
#897=VECTOR('',#896,0.141421356);
#898=LINE('',#895,#897);
#899=EDGE_CURVE('',#372,#438,#898,.T.);
#900=ORIENTED_EDGE('',*,*,#899,.F.);
#901=ORIENTED_EDGE('',*,*,#812,.F.);
#902=EDGE_LOOP('',(#893,#894,#900,#901));
#903=FACE_BOUND('',#902,.T.);
#904=ADVANCED_FACE('',(#903),#892,.T.);
#905=CARTESIAN_POINT('',(0.,-40.3,30.7));
#906=DIRECTION('',(0.,0.707106781,-0.707106781));
#907=DIRECTION('',(-1.,0.,0.));
#908=AXIS2_PLACEMENT_3D('',#905,#906,#907);
#909=PLANE('',#908);
#910=ORIENTED_EDGE('',*,*,#882,.T.);
#911=ORIENTED_EDGE('',*,*,#305,.F.);
#912=CARTESIAN_POINT('',(9.7,-40.3,30.7));
#913=DIRECTION('',(0.,0.707106781,0.707106781));
#914=VECTOR('',#913,0.141421356);
#915=LINE('',#912,#914);
#916=EDGE_CURVE('',#410,#292,#915,.T.);
#917=ORIENTED_EDGE('',*,*,#916,.F.);
#918=ORIENTED_EDGE('',*,*,#475,.F.);
#919=EDGE_LOOP('',(#910,#911,#917,#918));
#920=FACE_BOUND('',#919,.T.);
#921=ADVANCED_FACE('',(#920),#909,.T.);
#922=CARTESIAN_POINT('',(0.,-60.1,30.7));
#923=DIRECTION('',(0.,-0.707106781,-0.707106781));
#924=DIRECTION('',(1.,0.,0.));
#925=AXIS2_PLACEMENT_3D('',#922,#923,#924);
#926=PLANE('',#925);
#927=ORIENTED_EDGE('',*,*,#899,.T.);
#928=ORIENTED_EDGE('',*,*,#443,.F.);
#929=CARTESIAN_POINT('',(9.7,-60.2,30.8));
#930=DIRECTION('',(0.,0.707106781,-0.707106781));
#931=VECTOR('',#930,0.141421356);
#932=LINE('',#929,#931);
#933=EDGE_CURVE('',#380,#429,#932,.T.);
#934=ORIENTED_EDGE('',*,*,#933,.F.);
#935=ORIENTED_EDGE('',*,*,#385,.F.);
#936=EDGE_LOOP('',(#927,#928,#934,#935));
#937=FACE_BOUND('',#936,.T.);
#938=ADVANCED_FACE('',(#937),#926,.T.);
#939=CARTESIAN_POINT('',(9.7,-45.5,30.7));
#940=DIRECTION('',(0.,0.,1.));
#941=DIRECTION('',(1.,0.,-0.));
#942=AXIS2_PLACEMENT_3D('',#939,#940,#941);
#943=CONICAL_SURFACE('',#942,5.2,45.);
#944=ORIENTED_EDGE('',*,*,#916,.T.);
#945=ORIENTED_EDGE('',*,*,#836,.F.);
#946=CARTESIAN_POINT('',(14.9,-45.5,30.7));
#947=DIRECTION('',(0.707106781,0.,0.707106781));
#948=VECTOR('',#947,0.141421356);
#949=LINE('',#946,#948);
#950=EDGE_CURVE('',#412,#260,#949,.T.);
#951=ORIENTED_EDGE('',*,*,#950,.F.);
#952=ORIENTED_EDGE('',*,*,#418,.F.);
#953=EDGE_LOOP('',(#944,#945,#951,#952));
#954=FACE_BOUND('',#953,.T.);
#955=ADVANCED_FACE('',(#954),#943,.T.);
#956=CARTESIAN_POINT('',(9.7,-54.9,30.7));
#957=DIRECTION('',(0.,0.,1.));
#958=DIRECTION('',(1.,0.,-0.));
#959=AXIS2_PLACEMENT_3D('',#956,#957,#958);
#960=CONICAL_SURFACE('',#959,5.2,45.);
#961=ORIENTED_EDGE('',*,*,#933,.T.);
#962=ORIENTED_EDGE('',*,*,#435,.F.);
#963=CARTESIAN_POINT('',(15.,-54.9,30.8));
#964=DIRECTION('',(-0.707106781,0.,-0.707106781));
#965=VECTOR('',#964,0.141421356);
#966=LINE('',#963,#965);
#967=EDGE_CURVE('',#252,#421,#966,.T.);
#968=ORIENTED_EDGE('',*,*,#967,.F.);
#969=ORIENTED_EDGE('',*,*,#764,.F.);
#970=EDGE_LOOP('',(#961,#962,#968,#969));
#971=FACE_BOUND('',#970,.T.);
#972=ADVANCED_FACE('',(#971),#960,.T.);
#973=CARTESIAN_POINT('',(14.9,-50.2,30.7));
#974=DIRECTION('',(0.707106781,0.,-0.707106781));
#975=DIRECTION('',(0.,1.,0.));
#976=AXIS2_PLACEMENT_3D('',#973,#974,#975);
#977=PLANE('',#976);
#978=ORIENTED_EDGE('',*,*,#950,.T.);
#979=ORIENTED_EDGE('',*,*,#265,.F.);
#980=ORIENTED_EDGE('',*,*,#967,.T.);
#981=ORIENTED_EDGE('',*,*,#426,.F.);
#982=EDGE_LOOP('',(#978,#979,#980,#981));
#983=FACE_BOUND('',#982,.T.);
#984=ADVANCED_FACE('',(#983),#977,.T.);
#985=CARTESIAN_POINT('',(0.,-40.2,37.6));
#986=DIRECTION('',(0.,-0.707106781,-0.707106781));
#987=DIRECTION('',(1.,0.,0.));
#988=AXIS2_PLACEMENT_3D('',#985,#986,#987);
#989=PLANE('',#988);
#990=CARTESIAN_POINT('',(-9.7,-40.3,37.7));
#991=DIRECTION('',(0.,0.707106781,-0.707106781));
#992=VECTOR('',#991,0.141421356);
#993=LINE('',#990,#992);
#994=EDGE_CURVE('',#174,#308,#993,.T.);
#995=ORIENTED_EDGE('',*,*,#994,.F.);
#996=ORIENTED_EDGE('',*,*,#179,.F.);
#997=CARTESIAN_POINT('',(9.7,-40.2,37.6));
#998=DIRECTION('',(0.,-0.707106781,0.707106781));
#999=VECTOR('',#998,0.141421356);
#1000=LINE('',#997,#999);
#1001=EDGE_CURVE('',#290,#165,#1000,.T.);
#1002=ORIENTED_EDGE('',*,*,#1001,.F.);
#1003=ORIENTED_EDGE('',*,*,#319,.F.);
#1004=EDGE_LOOP('',(#995,#996,#1002,#1003));
#1005=FACE_BOUND('',#1004,.T.);
#1006=ADVANCED_FACE('',(#1005),#989,.F.);
#1007=CARTESIAN_POINT('',(9.7,-45.5,37.7));
#1008=DIRECTION('',(0.,0.,-1.));
#1009=DIRECTION('',(-1.,0.,0.));
#1010=AXIS2_PLACEMENT_3D('',#1007,#1008,#1009);
#1011=CONICAL_SURFACE('',#1010,5.2,45.);
#1012=ORIENTED_EDGE('',*,*,#1001,.T.);
#1013=ORIENTED_EDGE('',*,*,#171,.F.);
#1014=CARTESIAN_POINT('',(15.,-45.5,37.6));
#1015=DIRECTION('',(-0.707106781,0.,0.707106781));
#1016=VECTOR('',#1015,0.141421356);
#1017=LINE('',#1014,#1016);
#1018=EDGE_CURVE('',#268,#157,#1017,.T.);
#1019=ORIENTED_EDGE('',*,*,#1018,.F.);
#1020=ORIENTED_EDGE('',*,*,#844,.F.);
#1021=EDGE_LOOP('',(#1012,#1013,#1019,#1020));
#1022=FACE_BOUND('',#1021,.T.);
#1023=ADVANCED_FACE('',(#1022),#1011,.T.);
#1024=CARTESIAN_POINT('',(-9.7,-45.5,37.7));
#1025=DIRECTION('',(0.,0.,-1.));
#1026=DIRECTION('',(-1.,0.,0.));
#1027=AXIS2_PLACEMENT_3D('',#1024,#1025,#1026);
#1028=CONICAL_SURFACE('',#1027,5.2,45.);
#1029=ORIENTED_EDGE('',*,*,#994,.T.);
#1030=ORIENTED_EDGE('',*,*,#796,.F.);
#1031=CARTESIAN_POINT('',(-14.9,-45.5,37.7));
#1032=DIRECTION('',(-0.707106781,0.,-0.707106781));
#1033=VECTOR('',#1032,0.141421356);
#1034=LINE('',#1031,#1033);
#1035=EDGE_CURVE('',#182,#330,#1034,.T.);
#1036=ORIENTED_EDGE('',*,*,#1035,.F.);
#1037=ORIENTED_EDGE('',*,*,#188,.F.);
#1038=EDGE_LOOP('',(#1029,#1030,#1036,#1037));
#1039=FACE_BOUND('',#1038,.T.);
#1040=ADVANCED_FACE('',(#1039),#1028,.T.);
#1041=CARTESIAN_POINT('',(15.,-50.2,37.6));
#1042=DIRECTION('',(-0.707106781,0.,-0.707106781));
#1043=DIRECTION('',(0.,-1.,0.));
#1044=AXIS2_PLACEMENT_3D('',#1041,#1042,#1043);
#1045=PLANE('',#1044);
#1046=ORIENTED_EDGE('',*,*,#1018,.T.);
#1047=ORIENTED_EDGE('',*,*,#162,.F.);
#1048=CARTESIAN_POINT('',(15.,-54.9,37.6));
#1049=DIRECTION('',(-0.707106781,0.,0.707106781));
#1050=VECTOR('',#1049,0.141421356);
#1051=LINE('',#1048,#1050);
#1052=EDGE_CURVE('',#250,#148,#1051,.T.);
#1053=ORIENTED_EDGE('',*,*,#1052,.F.);
#1054=ORIENTED_EDGE('',*,*,#279,.F.);
#1055=EDGE_LOOP('',(#1046,#1047,#1053,#1054));
#1056=FACE_BOUND('',#1055,.T.);
#1057=ADVANCED_FACE('',(#1056),#1045,.F.);
#1058=CARTESIAN_POINT('',(-15.,-50.2,37.6));
#1059=DIRECTION('',(0.707106781,0.,-0.707106781));
#1060=DIRECTION('',(0.,1.,0.));
#1061=AXIS2_PLACEMENT_3D('',#1058,#1059,#1060);
#1062=PLANE('',#1061);
#1063=ORIENTED_EDGE('',*,*,#1035,.T.);
#1064=ORIENTED_EDGE('',*,*,#359,.F.);
#1065=CARTESIAN_POINT('',(-14.9,-54.9,37.7));
#1066=DIRECTION('',(-0.707106781,0.,-0.707106781));
#1067=VECTOR('',#1066,0.141421356);
#1068=LINE('',#1065,#1067);
#1069=EDGE_CURVE('',#129,#348,#1068,.T.);
#1070=ORIENTED_EDGE('',*,*,#1069,.F.);
#1071=ORIENTED_EDGE('',*,*,#194,.F.);
#1072=EDGE_LOOP('',(#1063,#1064,#1070,#1071));
#1073=FACE_BOUND('',#1072,.T.);
#1074=ADVANCED_FACE('',(#1073),#1062,.F.);
#1075=CARTESIAN_POINT('',(9.7,-54.9,37.7));
#1076=DIRECTION('',(0.,0.,-1.));
#1077=DIRECTION('',(-1.,0.,0.));
#1078=AXIS2_PLACEMENT_3D('',#1075,#1076,#1077);
#1079=CONICAL_SURFACE('',#1078,5.2,45.);
#1080=ORIENTED_EDGE('',*,*,#1052,.T.);
#1081=ORIENTED_EDGE('',*,*,#154,.F.);
#1082=CARTESIAN_POINT('',(9.7,-60.2,37.6));
#1083=DIRECTION('',(0.,0.707106781,0.707106781));
#1084=VECTOR('',#1083,0.141421356);
#1085=LINE('',#1082,#1084);
#1086=EDGE_CURVE('',#388,#140,#1085,.T.);
#1087=ORIENTED_EDGE('',*,*,#1086,.F.);
#1088=ORIENTED_EDGE('',*,*,#772,.F.);
#1089=EDGE_LOOP('',(#1080,#1081,#1087,#1088));
#1090=FACE_BOUND('',#1089,.T.);
#1091=ADVANCED_FACE('',(#1090),#1079,.T.);
#1092=CARTESIAN_POINT('',(-9.7,-54.9,37.7));
#1093=DIRECTION('',(0.,0.,-1.));
#1094=DIRECTION('',(-1.,0.,0.));
#1095=AXIS2_PLACEMENT_3D('',#1092,#1093,#1094);
#1096=CONICAL_SURFACE('',#1095,5.2,45.);
#1097=ORIENTED_EDGE('',*,*,#1069,.T.);
#1098=ORIENTED_EDGE('',*,*,#820,.F.);
#1099=CARTESIAN_POINT('',(-9.7,-60.1,37.7));
#1100=DIRECTION('',(0.,-0.707106781,-0.707106781));
#1101=VECTOR('',#1100,0.141421356);
#1102=LINE('',#1099,#1101);
#1103=EDGE_CURVE('',#131,#370,#1102,.T.);
#1104=ORIENTED_EDGE('',*,*,#1103,.F.);
#1105=ORIENTED_EDGE('',*,*,#137,.F.);
#1106=EDGE_LOOP('',(#1097,#1098,#1104,#1105));
#1107=FACE_BOUND('',#1106,.T.);
#1108=ADVANCED_FACE('',(#1107),#1096,.T.);
#1109=CARTESIAN_POINT('',(0.,-60.2,37.6));
#1110=DIRECTION('',(0.,0.707106781,-0.707106781));
#1111=DIRECTION('',(-1.,0.,0.));
#1112=AXIS2_PLACEMENT_3D('',#1109,#1110,#1111);
#1113=PLANE('',#1112);
#1114=ORIENTED_EDGE('',*,*,#1086,.T.);
#1115=ORIENTED_EDGE('',*,*,#145,.F.);
#1116=ORIENTED_EDGE('',*,*,#1103,.T.);
#1117=ORIENTED_EDGE('',*,*,#399,.F.);
#1118=EDGE_LOOP('',(#1114,#1115,#1116,#1117));
#1119=FACE_BOUND('',#1118,.T.);
#1120=ADVANCED_FACE('',(#1119),#1113,.F.);
#1121=CARTESIAN_POINT('',(4.75,-50.2,37.7));
#1122=DIRECTION('',(0.,0.,1.));
#1123=DIRECTION('',(1.,0.,-0.));
#1124=AXIS2_PLACEMENT_3D('',#1121,#1122,#1123);
#1125=TOROIDAL_SURFACE('',#1124,8.5,1.);
#1126=ORIENTED_EDGE('',*,*,#621,.T.);
#1127=ORIENTED_EDGE('',*,*,#94,.F.);
#1128=ORIENTED_EDGE('',*,*,#587,.T.);
#1129=ORIENTED_EDGE('',*,*,#233,.T.);
#1130=EDGE_LOOP('',(#1126,#1127,#1128,#1129));
#1131=FACE_BOUND('',#1130,.T.);
#1132=ADVANCED_FACE('',(#1131),#1125,.F.);
#1133=CARTESIAN_POINT('',(4.75,-50.2,37.6));
#1134=DIRECTION('',(0.,0.,1.));
#1135=DIRECTION('',(1.,0.,-0.));
#1136=AXIS2_PLACEMENT_3D('',#1133,#1134,#1135);
#1137=TOROIDAL_SURFACE('',#1136,8.4,0.9);
#1138=ORIENTED_EDGE('',*,*,#681,.T.);
#1139=ORIENTED_EDGE('',*,*,#539,.F.);
#1140=ORIENTED_EDGE('',*,*,#701,.F.);
#1141=ORIENTED_EDGE('',*,*,#50,.F.);
#1142=EDGE_LOOP('',(#1138,#1139,#1140,#1141));
#1143=FACE_BOUND('',#1142,.T.);
#1144=ADVANCED_FACE('',(#1143),#1137,.F.);
#1145=CLOSED_SHELL('',(#122,#243,#283,#323,#363,#403,#479,#550,#574,#592,#610,#628,#652,#670,#688,#706,#732,#752,#776,#800,#824,#848,#870,#887,#904,#921,
#938,#955,#972,#984,#1006,#1023,#1040,#1057,#1074,#1091,#1108,#1120,#1132,#1144));
#1146=MANIFOLD_SOLID_BREP('Lautsprecher',#1145);
#1147=COLOUR_RGB('',0.627451003,0.627451003,0.643137276);
#1148=FILL_AREA_STYLE_COLOUR('',#1147);
#1149=FILL_AREA_STYLE('',(#1148));
#1150=SURFACE_STYLE_FILL_AREA(#1149);
#1151=SURFACE_SIDE_STYLE('',(#1150));
#1152=SURFACE_STYLE_USAGE(.BOTH.,#1151);
#1153=PRESENTATION_STYLE_ASSIGNMENT((#1152));
#26=STYLED_ITEM('',(#1153),#1146);
#16=SHAPE_REPRESENTATION('root',(#15),#10);
#17=ADVANCED_BREP_SHAPE_REPRESENTATION('root',(#1146),#10);
#1161=SHAPE_REPRESENTATION_RELATIONSHIP('','',#16,#17);
#1162=CARTESIAN_POINT('',(0.,0.,0.));
#1163=DIRECTION('',(0.,0.,1.));
#1164=DIRECTION('',(1.,0.,0.));
#1165=AXIS2_PLACEMENT_3D('',#1162,#1163,#1164);
#1167=MAPPED_ITEM('',#1166,#1165);
#1166=REPRESENTATION_MAP(#1165,#16);
#1168=APPLICATION_CONTEXT('Managed model based 3d engineering');
#1169=APPLICATION_PROTOCOL_DEFINITION('international standard','ap242_managed_model_based_3d_engineering',2014,#1168);
#1170=PRODUCT_CONTEXT('',#1168,'mechanical');
#1171=PRODUCT_DEFINITION_CONTEXT('part definition',#1168,'design');
#24=PRODUCT('root','root','',(#1170));
#1172=PRODUCT_RELATED_PRODUCT_CATEGORY('part','',(#24));
#1173=PRODUCT_DEFINITION_FORMATION_WITH_SPECIFIED_SOURCE('','',#24,.NOT_KNOWN.);
#25=PRODUCT_DEFINITION('design','',#1173,#1171);
#23=PRODUCT_DEFINITION_SHAPE('','',#25);
#1174=SHAPE_DEFINITION_REPRESENTATION(#23,#16);
#11=DRAUGHTING_MODEL('',(#1167),#10);
#1175=DESCRIPTIVE_REPRESENTATION_ITEM('KEY','/Users/colinostermann/Library/Containers/com.shapr3d.shapr/Data/tmp/3DA2C6A9-724E-4727-89E6-EF5C31E5DFD0.tmp');
#1176=PROPERTY_DEFINITION('KEY','',#25);
#1177=REPRESENTATION('',(#1175),#10);
#1178=PROPERTY_DEFINITION_REPRESENTATION(#1176,#1177);
#1179=GENERAL_PROPERTY('','KEY','');
#1180=GENERAL_PROPERTY_ASSOCIATION('','',#1179,#1176);
#1=MECHANICAL_DESIGN_GEOMETRIC_PRESENTATION_REPRESENTATION('',(#26),#10);
ENDSEC;
END-ISO-10303-21;
