ISO-10303-21;
HEADER;

/* File generated by Shapr3D Version 26.100.0.11031 */

FILE_DESCRIPTION(('HOOPS Exchange Step'),'2;1');

FILE_NAME('/Users/colinostermann/Library/Containers/com.shapr3d.shapr/Data/tmp/export/temp_export',
'2026-07-13T01:09:25-22:00',
('colinostermann'),
('Shapr3D Limited'),
'HOOPS Exchange 2026.3',
'Shapr3D',
'Authorized');

FILE_SCHEMA( ('AP242_MANAGED_MODEL_BASED_3D_ENGINEERING_MIM_LF {1 0 10303 442 1 1 4}') );

ENDSEC;

DATA;
#3=(NAMED_UNIT(*)PLANE_ANGLE_UNIT()SI_UNIT($,.RADIAN.));
#4=PLANE_ANGLE_MEASURE_WITH_UNIT(PLANE_ANGLE_MEASURE(0.0174532925),#3);
#5=(CONVERSION_BASED_UNIT('DEGREE',#4)NAMED_UNIT(#6)PLANE_ANGLE_UNIT());
#6=DIMENSIONAL_EXPONENTS(0.,0.,0.,0.,0.,0.,0.);
#7=(NAMED_UNIT(*)SI_UNIT($,.STERADIAN.)SOLID_ANGLE_UNIT());
#8=(LENGTH_UNIT()NAMED_UNIT(*)SI_UNIT(.MILLI.,.METRE.));
#9=UNCERTAINTY_MEASURE_WITH_UNIT(LENGTH_MEASURE(1.000000E-05),#8,'DISTANCE_ACCURACY_VALUE','Maximum Tolerance applied to model');
#10=(GEOMETRIC_REPRESENTATION_CONTEXT(3)GLOBAL_UNCERTAINTY_ASSIGNED_CONTEXT((#9))GLOBAL_UNIT_ASSIGNED_CONTEXT((#8,#5,#7))REPRESENTATION_CONTEXT('','root'));
#12=CARTESIAN_POINT('',(0.,0.,0.));
#13=DIRECTION('',(0.,0.,1.));
#14=DIRECTION('',(1.,0.,0.));
#15=AXIS2_PLACEMENT_3D('TS3D_PRODUCT_CSYS',#12,#13,#14);
#27=CARTESIAN_POINT('',(25.657005608,22.463876754,2.));
#28=DIRECTION('',(0.,0.,1.));
#29=DIRECTION('',(0.,1.,0.));
#30=AXIS2_PLACEMENT_3D('',#27,#28,#29);
#31=PLANE('',#30);
#32=CARTESIAN_POINT('',(25.707005608,21.217007834,2.));
#33=VERTEX_POINT('',#32);
#34=CARTESIAN_POINT('',(25.707005608,22.413876754,2.));
#35=VERTEX_POINT('',#34);
#36=CARTESIAN_POINT('',(25.707005608,21.217007834,2.));
#37=DIRECTION('',(0.,1.,0.));
#38=VECTOR('',#37,1.19686892);
#39=LINE('',#36,#38);
#40=EDGE_CURVE('',#33,#35,#39,.T.);
#41=ORIENTED_EDGE('',*,*,#40,.T.);
#42=CARTESIAN_POINT('',(26.906005208,22.413876754,2.));
#43=VERTEX_POINT('',#42);
#44=CARTESIAN_POINT('',(25.707005608,22.413876754,2.));
#45=DIRECTION('',(1.,0.,-0.));
#46=VECTOR('',#45,1.1989996);
#47=LINE('',#44,#46);
#48=EDGE_CURVE('',#35,#43,#47,.T.);
#49=ORIENTED_EDGE('',*,*,#48,.T.);
#50=CARTESIAN_POINT('',(24.408006008,22.413876754,2.));
#51=VERTEX_POINT('',#50);
#52=CARTESIAN_POINT('',(25.657005608,22.463876754,2.));
#53=DIRECTION('',(-0.,-0.,-1.));
#54=DIRECTION('',(1.,0.,-0.));
#55=AXIS2_PLACEMENT_3D('',#52,#53,#54);
#56=CIRCLE('',#55,1.25);
#57=EDGE_CURVE('',#43,#51,#56,.T.);
#58=ORIENTED_EDGE('',*,*,#57,.T.);
#59=CARTESIAN_POINT('',(25.607005608,22.413876754,2.));
#60=VERTEX_POINT('',#59);
#61=CARTESIAN_POINT('',(24.408006008,22.413876754,2.));
#62=DIRECTION('',(1.,0.,-0.));
#63=VECTOR('',#62,1.1989996);
#64=LINE('',#61,#63);
#65=EDGE_CURVE('',#51,#60,#64,.T.);
#66=ORIENTED_EDGE('',*,*,#65,.T.);
#67=CARTESIAN_POINT('',(25.607005608,21.217007834,2.));
#68=VERTEX_POINT('',#67);
#69=CARTESIAN_POINT('',(25.607005608,22.413876754,2.));
#70=DIRECTION('',(0.,-1.,0.));
#71=VECTOR('',#70,1.19686892);
#72=LINE('',#69,#71);
#73=EDGE_CURVE('',#60,#68,#72,.T.);
#74=ORIENTED_EDGE('',*,*,#73,.T.);
#75=CARTESIAN_POINT('',(25.607005608,21.217007834,2.));
#76=DIRECTION('',(1.,0.,-0.));
#77=VECTOR('',#76,0.1);
#78=LINE('',#75,#77);
#79=EDGE_CURVE('',#68,#33,#78,.T.);
#80=ORIENTED_EDGE('',*,*,#79,.T.);
#81=EDGE_LOOP('',(#41,#49,#58,#66,#74,#80));
#82=FACE_BOUND('',#81,.T.);
#83=ADVANCED_FACE('',(#82),#31,.F.);
#84=CARTESIAN_POINT('',(25.657005608,22.463876754,4.5));
#85=DIRECTION('',(0.,0.,-1.));
#86=DIRECTION('',(-1.,0.,0.));
#87=AXIS2_PLACEMENT_3D('',#84,#85,#86);
#88=CYLINDRICAL_SURFACE('',#87,2.25);
#89=CARTESIAN_POINT('',(23.407005608,22.463876754,3.));
#90=VERTEX_POINT('',#89);
#91=CARTESIAN_POINT('',(23.407005608,22.463876754,4.5));
#92=VERTEX_POINT('',#91);
#93=CARTESIAN_POINT('',(23.407005608,22.463876754,3.));
#94=DIRECTION('',(-0.,-0.,1.));
#95=VECTOR('',#94,1.5);
#96=LINE('',#93,#95);
#97=EDGE_CURVE('',#90,#92,#96,.T.);
#98=ORIENTED_EDGE('',*,*,#97,.T.);
#99=CARTESIAN_POINT('',(25.657005608,24.713876754,4.5));
#100=VERTEX_POINT('',#99);
#101=CARTESIAN_POINT('',(25.657005608,22.463876754,4.5));
#102=DIRECTION('',(0.,-0.,1.));
#103=DIRECTION('',(0.,1.,0.));
#104=AXIS2_PLACEMENT_3D('',#101,#102,#103);
#105=CIRCLE('',#104,2.25);
#106=EDGE_CURVE('',#100,#92,#105,.T.);
#107=ORIENTED_EDGE('',*,*,#106,.F.);
#108=CARTESIAN_POINT('',(25.657005608,22.463876754,4.5));
#109=DIRECTION('',(0.,-0.,1.));
#110=DIRECTION('',(0.,1.,0.));
#111=AXIS2_PLACEMENT_3D('',#108,#109,#110);
#112=CIRCLE('',#111,2.25);
#113=EDGE_CURVE('',#92,#100,#112,.T.);
#114=ORIENTED_EDGE('',*,*,#113,.F.);
#115=ORIENTED_EDGE('',*,*,#97,.F.);
#116=CARTESIAN_POINT('',(27.907005608,22.463876754,3.));
#117=VERTEX_POINT('',#116);
#118=CARTESIAN_POINT('',(25.657005608,22.463876754,3.));
#119=DIRECTION('',(0.,0.,1.));
#120=DIRECTION('',(1.,0.,-0.));
#121=AXIS2_PLACEMENT_3D('',#118,#119,#120);
#122=CIRCLE('',#121,2.25);
#123=EDGE_CURVE('',#90,#117,#122,.T.);
#124=ORIENTED_EDGE('',*,*,#123,.T.);
#125=CARTESIAN_POINT('',(25.657005608,22.463876754,3.));
#126=DIRECTION('',(0.,0.,1.));
#127=DIRECTION('',(1.,0.,-0.));
#128=AXIS2_PLACEMENT_3D('',#125,#126,#127);
#129=CIRCLE('',#128,2.25);
#130=EDGE_CURVE('',#117,#90,#129,.T.);
#131=ORIENTED_EDGE('',*,*,#130,.T.);
#132=EDGE_LOOP('',(#98,#107,#114,#115,#124,#131));
#133=FACE_BOUND('',#132,.T.);
#134=ADVANCED_FACE('',(#133),#88,.T.);
#135=CARTESIAN_POINT('',(25.657005608,22.463876754,4.5));
#136=DIRECTION('',(0.,0.,1.));
#137=DIRECTION('',(0.,1.,0.));
#138=AXIS2_PLACEMENT_3D('',#135,#136,#137);
#139=PLANE('',#138);
#140=CARTESIAN_POINT('',(24.407005608,22.463876754,4.5));
#141=VERTEX_POINT('',#140);
#142=CARTESIAN_POINT('',(25.657005608,22.463876754,4.5));
#143=DIRECTION('',(0.,0.,1.));
#144=DIRECTION('',(-1.,0.,0.));
#145=AXIS2_PLACEMENT_3D('',#142,#143,#144);
#146=CIRCLE('',#145,1.25);
#147=EDGE_CURVE('',#141,#141,#146,.T.);
#148=ORIENTED_EDGE('',*,*,#147,.F.);
#149=EDGE_LOOP('',(#148));
#150=FACE_BOUND('',#149,.T.);
#151=ORIENTED_EDGE('',*,*,#106,.T.);
#152=ORIENTED_EDGE('',*,*,#113,.T.);
#153=EDGE_LOOP('',(#151,#152));
#154=FACE_BOUND('',#153,.T.);
#155=ADVANCED_FACE('',(#150,#154),#139,.T.);
#156=CARTESIAN_POINT('',(25.657005608,22.463876754,2.));
#157=DIRECTION('',(0.,0.,1.));
#158=DIRECTION('',(0.,1.,0.));
#159=AXIS2_PLACEMENT_3D('',#156,#157,#158);
#160=PLANE('',#159);
#161=CARTESIAN_POINT('',(25.607005608,23.710745674,2.));
#162=VERTEX_POINT('',#161);
#163=CARTESIAN_POINT('',(25.607005608,22.513876754,2.));
#164=VERTEX_POINT('',#163);
#165=CARTESIAN_POINT('',(25.607005608,23.710745674,2.));
#166=DIRECTION('',(0.,-1.,0.));
#167=VECTOR('',#166,1.19686892);
#168=LINE('',#165,#167);
#169=EDGE_CURVE('',#162,#164,#168,.T.);
#170=ORIENTED_EDGE('',*,*,#169,.T.);
#171=CARTESIAN_POINT('',(24.408006008,22.513876754,2.));
#172=VERTEX_POINT('',#171);
#173=CARTESIAN_POINT('',(25.607005608,22.513876754,2.));
#174=DIRECTION('',(-1.,0.,0.));
#175=VECTOR('',#174,1.1989996);
#176=LINE('',#173,#175);
#177=EDGE_CURVE('',#164,#172,#176,.T.);
#178=ORIENTED_EDGE('',*,*,#177,.T.);
#179=CARTESIAN_POINT('',(26.906005208,22.513876754,2.));
#180=VERTEX_POINT('',#179);
#181=CARTESIAN_POINT('',(25.657005608,22.463876754,2.));
#182=DIRECTION('',(-0.,-0.,-1.));
#183=DIRECTION('',(1.,0.,-0.));
#184=AXIS2_PLACEMENT_3D('',#181,#182,#183);
#185=CIRCLE('',#184,1.25);
#186=EDGE_CURVE('',#172,#180,#185,.T.);
#187=ORIENTED_EDGE('',*,*,#186,.T.);
#188=CARTESIAN_POINT('',(25.707005608,22.513876754,2.));
#189=VERTEX_POINT('',#188);
#190=CARTESIAN_POINT('',(26.906005208,22.513876754,2.));
#191=DIRECTION('',(-1.,0.,0.));
#192=VECTOR('',#191,1.1989996);
#193=LINE('',#190,#192);
#194=EDGE_CURVE('',#180,#189,#193,.T.);
#195=ORIENTED_EDGE('',*,*,#194,.T.);
#196=CARTESIAN_POINT('',(25.707005608,23.710745674,2.));
#197=VERTEX_POINT('',#196);
#198=CARTESIAN_POINT('',(25.707005608,22.513876754,2.));
#199=DIRECTION('',(0.,1.,0.));
#200=VECTOR('',#199,1.19686892);
#201=LINE('',#198,#200);
#202=EDGE_CURVE('',#189,#197,#201,.T.);
#203=ORIENTED_EDGE('',*,*,#202,.T.);
#204=CARTESIAN_POINT('',(25.707005608,23.710745674,2.));
#205=DIRECTION('',(-1.,0.,0.));
#206=VECTOR('',#205,0.1);
#207=LINE('',#204,#206);
#208=EDGE_CURVE('',#197,#162,#207,.T.);
#209=ORIENTED_EDGE('',*,*,#208,.T.);
#210=EDGE_LOOP('',(#170,#178,#187,#195,#203,#209));
#211=FACE_BOUND('',#210,.T.);
#212=ADVANCED_FACE('',(#211),#160,.F.);
#213=CARTESIAN_POINT('',(25.657005608,22.463876754,11.5));
#214=DIRECTION('',(0.,0.,-1.));
#215=DIRECTION('',(-1.,0.,0.));
#216=AXIS2_PLACEMENT_3D('',#213,#214,#215);
#217=CYLINDRICAL_SURFACE('',#216,1.25);
#218=CARTESIAN_POINT('',(24.407005608,22.463876754,11.31));
#219=VERTEX_POINT('',#218);
#220=CARTESIAN_POINT('',(24.407005608,22.463876754,4.5));
#221=DIRECTION('',(-0.,-0.,1.));
#222=VECTOR('',#221,6.81);
#223=LINE('',#220,#222);
#224=EDGE_CURVE('',#141,#219,#223,.T.);
#225=ORIENTED_EDGE('',*,*,#224,.T.);
#226=CARTESIAN_POINT('',(26.907005608,22.463876754,11.31));
#227=VERTEX_POINT('',#226);
#228=CARTESIAN_POINT('',(25.657005608,22.463876754,11.31));
#229=DIRECTION('',(-0.,-0.,-1.));
#230=DIRECTION('',(1.,0.,-0.));
#231=AXIS2_PLACEMENT_3D('',#228,#229,#230);
#232=CIRCLE('',#231,1.25);
#233=EDGE_CURVE('',#219,#227,#232,.T.);
#234=ORIENTED_EDGE('',*,*,#233,.T.);
#235=CARTESIAN_POINT('',(25.657005608,22.463876754,11.31));
#236=DIRECTION('',(-0.,-0.,-1.));
#237=DIRECTION('',(1.,0.,-0.));
#238=AXIS2_PLACEMENT_3D('',#235,#236,#237);
#239=CIRCLE('',#238,1.25);
#240=EDGE_CURVE('',#227,#219,#239,.T.);
#241=ORIENTED_EDGE('',*,*,#240,.T.);
#242=ORIENTED_EDGE('',*,*,#224,.F.);
#243=ORIENTED_EDGE('',*,*,#147,.T.);
#244=EDGE_LOOP('',(#225,#234,#241,#242,#243));
#245=FACE_BOUND('',#244,.T.);
#246=ADVANCED_FACE('',(#245),#217,.T.);
#247=CARTESIAN_POINT('',(25.657005608,22.463876754,11.5));
#248=DIRECTION('',(0.,0.,1.));
#249=DIRECTION('',(-1.,0.,0.));
#250=AXIS2_PLACEMENT_3D('',#247,#248,#249);
#251=PLANE('',#250);
#252=CARTESIAN_POINT('',(26.717005608,22.463876754,11.5));
#253=VERTEX_POINT('',#252);
#254=CARTESIAN_POINT('',(24.597005608,22.463876754,11.5));
#255=VERTEX_POINT('',#254);
#256=CARTESIAN_POINT('',(25.657005608,22.463876754,11.5));
#257=DIRECTION('',(0.,0.,1.));
#258=DIRECTION('',(1.,0.,-0.));
#259=AXIS2_PLACEMENT_3D('',#256,#257,#258);
#260=CIRCLE('',#259,1.06);
#261=EDGE_CURVE('',#253,#255,#260,.T.);
#262=ORIENTED_EDGE('',*,*,#261,.T.);
#263=CARTESIAN_POINT('',(25.657005608,22.463876754,11.5));
#264=DIRECTION('',(0.,0.,1.));
#265=DIRECTION('',(1.,0.,-0.));
#266=AXIS2_PLACEMENT_3D('',#263,#264,#265);
#267=CIRCLE('',#266,1.06);
#268=EDGE_CURVE('',#255,#253,#267,.T.);
#269=ORIENTED_EDGE('',*,*,#268,.T.);
#270=EDGE_LOOP('',(#262,#269));
#271=FACE_BOUND('',#270,.T.);
#272=ADVANCED_FACE('',(#271),#251,.T.);
#273=CARTESIAN_POINT('',(25.657005608,22.463876754,11.5));
#274=DIRECTION('',(0.,0.,-1.));
#275=DIRECTION('',(-1.,0.,0.));
#276=AXIS2_PLACEMENT_3D('',#273,#274,#275);
#277=CONICAL_SURFACE('',#276,1.06,45.);
#278=CARTESIAN_POINT('',(24.407005608,22.463876754,11.31));
#279=DIRECTION('',(0.707106781,-0.,0.707106781));
#280=VECTOR('',#279,0.268700577);
#281=LINE('',#278,#280);
#282=EDGE_CURVE('',#219,#255,#281,.T.);
#283=ORIENTED_EDGE('',*,*,#282,.T.);
#284=ORIENTED_EDGE('',*,*,#261,.F.);
#285=ORIENTED_EDGE('',*,*,#268,.F.);
#286=ORIENTED_EDGE('',*,*,#282,.F.);
#287=ORIENTED_EDGE('',*,*,#240,.F.);
#288=ORIENTED_EDGE('',*,*,#233,.F.);
#289=EDGE_LOOP('',(#283,#284,#285,#286,#287,#288));
#290=FACE_BOUND('',#289,.T.);
#291=ADVANCED_FACE('',(#290),#277,.T.);
#292=CARTESIAN_POINT('',(25.657005608,22.463876754,3.));
#293=DIRECTION('',(0.,0.,1.));
#294=DIRECTION('',(1.,0.,-0.));
#295=AXIS2_PLACEMENT_3D('',#292,#293,#294);
#296=TOROIDAL_SURFACE('',#295,1.25,1.);
#297=CARTESIAN_POINT('',(26.907005608,22.463876754,2.));
#298=VERTEX_POINT('',#297);
#299=CARTESIAN_POINT('',(26.907005608,22.463876754,3.));
#300=DIRECTION('',(-0.,1.,-0.));
#301=DIRECTION('',(1.,0.,0.));
#302=AXIS2_PLACEMENT_3D('',#299,#300,#301);
#303=CIRCLE('',#302,1.);
#304=EDGE_CURVE('',#117,#298,#303,.T.);
#305=ORIENTED_EDGE('',*,*,#304,.T.);
#306=CARTESIAN_POINT('',(25.657005608,22.463876754,2.));
#307=DIRECTION('',(0.,0.,-1.));
#308=DIRECTION('',(1.,-0.,0.));
#309=AXIS2_PLACEMENT_3D('',#306,#307,#308);
#310=CIRCLE('',#309,1.25);
#311=EDGE_CURVE('',#180,#298,#310,.T.);
#312=ORIENTED_EDGE('',*,*,#311,.F.);
#313=ORIENTED_EDGE('',*,*,#186,.F.);
#314=CARTESIAN_POINT('',(24.407005608,22.463876754,2.));
#315=VERTEX_POINT('',#314);
#316=CARTESIAN_POINT('',(25.657005608,22.463876754,2.));
#317=DIRECTION('',(0.,0.,-1.));
#318=DIRECTION('',(1.,-0.,0.));
#319=AXIS2_PLACEMENT_3D('',#316,#317,#318);
#320=CIRCLE('',#319,1.25);
#321=EDGE_CURVE('',#315,#172,#320,.T.);
#322=ORIENTED_EDGE('',*,*,#321,.F.);
#323=CARTESIAN_POINT('',(25.657005608,22.463876754,2.));
#324=DIRECTION('',(0.,0.,-1.));
#325=DIRECTION('',(1.,-0.,0.));
#326=AXIS2_PLACEMENT_3D('',#323,#324,#325);
#327=CIRCLE('',#326,1.25);
#328=EDGE_CURVE('',#51,#315,#327,.T.);
#329=ORIENTED_EDGE('',*,*,#328,.F.);
#330=ORIENTED_EDGE('',*,*,#57,.F.);
#331=CARTESIAN_POINT('',(25.657005608,22.463876754,2.));
#332=DIRECTION('',(0.,0.,-1.));
#333=DIRECTION('',(1.,-0.,0.));
#334=AXIS2_PLACEMENT_3D('',#331,#332,#333);
#335=CIRCLE('',#334,1.25);
#336=EDGE_CURVE('',#298,#43,#335,.T.);
#337=ORIENTED_EDGE('',*,*,#336,.F.);
#338=ORIENTED_EDGE('',*,*,#304,.F.);
#339=ORIENTED_EDGE('',*,*,#123,.F.);
#340=ORIENTED_EDGE('',*,*,#130,.F.);
#341=EDGE_LOOP('',(#305,#312,#313,#322,#329,#330,#337,#338,#339,#340));
#342=FACE_BOUND('',#341,.T.);
#343=ADVANCED_FACE('',(#342),#296,.T.);
#344=CARTESIAN_POINT('',(25.707005608,23.112311214,2.2));
#345=DIRECTION('',(-1.,0.,0.));
#346=DIRECTION('',(0.,0.,1.));
#347=AXIS2_PLACEMENT_3D('',#344,#345,#346);
#348=PLANE('',#347);
#349=ORIENTED_EDGE('',*,*,#202,.F.);
#350=CARTESIAN_POINT('',(25.707005608,22.513876754,2.2));
#351=VERTEX_POINT('',#350);
#352=CARTESIAN_POINT('',(25.707005608,22.513876754,2.2));
#353=DIRECTION('',(0.,0.,-1.));
#354=VECTOR('',#353,0.2);
#355=LINE('',#352,#354);
#356=EDGE_CURVE('',#351,#189,#355,.T.);
#357=ORIENTED_EDGE('',*,*,#356,.F.);
#358=CARTESIAN_POINT('',(25.707005608,23.710745674,2.2));
#359=VERTEX_POINT('',#358);
#360=CARTESIAN_POINT('',(25.707005608,22.513876754,2.2));
#361=DIRECTION('',(0.,1.,0.));
#362=VECTOR('',#361,1.19686892);
#363=LINE('',#360,#362);
#364=EDGE_CURVE('',#351,#359,#363,.T.);
#365=ORIENTED_EDGE('',*,*,#364,.T.);
#366=CARTESIAN_POINT('',(25.707005608,23.710745674,2.2));
#367=DIRECTION('',(0.,0.,-1.));
#368=VECTOR('',#367,0.2);
#369=LINE('',#366,#368);
#370=EDGE_CURVE('',#359,#197,#369,.T.);
#371=ORIENTED_EDGE('',*,*,#370,.T.);
#372=EDGE_LOOP('',(#349,#357,#365,#371));
#373=FACE_BOUND('',#372,.T.);
#374=ADVANCED_FACE('',(#373),#348,.T.);
#375=CARTESIAN_POINT('',(26.307005608,22.513876754,2.2));
#376=DIRECTION('',(0.,-1.,0.));
#377=DIRECTION('',(0.,0.,-1.));
#378=AXIS2_PLACEMENT_3D('',#375,#376,#377);
#379=PLANE('',#378);
#380=ORIENTED_EDGE('',*,*,#194,.F.);
#381=CARTESIAN_POINT('',(26.906005208,22.513876754,2.2));
#382=VERTEX_POINT('',#381);
#383=CARTESIAN_POINT('',(26.906005208,22.513876754,2.2));
#384=DIRECTION('',(0.,0.,-1.));
#385=VECTOR('',#384,0.2);
#386=LINE('',#383,#385);
#387=EDGE_CURVE('',#382,#180,#386,.T.);
#388=ORIENTED_EDGE('',*,*,#387,.F.);
#389=CARTESIAN_POINT('',(26.906005208,22.513876754,2.2));
#390=DIRECTION('',(-1.,0.,0.));
#391=VECTOR('',#390,1.1989996);
#392=LINE('',#389,#391);
#393=EDGE_CURVE('',#382,#351,#392,.T.);
#394=ORIENTED_EDGE('',*,*,#393,.T.);
#395=ORIENTED_EDGE('',*,*,#356,.T.);
#396=EDGE_LOOP('',(#380,#388,#394,#395));
#397=FACE_BOUND('',#396,.T.);
#398=ADVANCED_FACE('',(#397),#379,.T.);
#399=CARTESIAN_POINT('',(25.657005608,22.463876754,2.2));
#400=DIRECTION('',(0.,0.,-1.));
#401=DIRECTION('',(-1.,0.,0.));
#402=AXIS2_PLACEMENT_3D('',#399,#400,#401);
#403=CYLINDRICAL_SURFACE('',#402,1.25);
#404=ORIENTED_EDGE('',*,*,#311,.T.);
#405=ORIENTED_EDGE('',*,*,#336,.T.);
#406=CARTESIAN_POINT('',(26.906005208,22.413876754,2.2));
#407=VERTEX_POINT('',#406);
#408=CARTESIAN_POINT('',(26.906005208,22.413876754,2.2));
#409=DIRECTION('',(0.,0.,-1.));
#410=VECTOR('',#409,0.2);
#411=LINE('',#408,#410);
#412=EDGE_CURVE('',#407,#43,#411,.T.);
#413=ORIENTED_EDGE('',*,*,#412,.F.);
#414=CARTESIAN_POINT('',(25.657005608,22.463876754,2.2));
#415=DIRECTION('',(0.,0.,-1.));
#416=DIRECTION('',(1.,-0.,0.));
#417=AXIS2_PLACEMENT_3D('',#414,#415,#416);
#418=CIRCLE('',#417,1.25);
#419=EDGE_CURVE('',#382,#407,#418,.T.);
#420=ORIENTED_EDGE('',*,*,#419,.F.);
#421=ORIENTED_EDGE('',*,*,#387,.T.);
#422=EDGE_LOOP('',(#404,#405,#413,#420,#421));
#423=FACE_BOUND('',#422,.T.);
#424=ADVANCED_FACE('',(#423),#403,.F.);
#425=CARTESIAN_POINT('',(26.307005608,22.413876754,2.2));
#426=DIRECTION('',(0.,1.,0.));
#427=DIRECTION('',(0.,0.,1.));
#428=AXIS2_PLACEMENT_3D('',#425,#426,#427);
#429=PLANE('',#428);
#430=ORIENTED_EDGE('',*,*,#48,.F.);
#431=CARTESIAN_POINT('',(25.707005608,22.413876754,2.2));
#432=VERTEX_POINT('',#431);
#433=CARTESIAN_POINT('',(25.707005608,22.413876754,2.2));
#434=DIRECTION('',(0.,0.,-1.));
#435=VECTOR('',#434,0.2);
#436=LINE('',#433,#435);
#437=EDGE_CURVE('',#432,#35,#436,.T.);
#438=ORIENTED_EDGE('',*,*,#437,.F.);
#439=CARTESIAN_POINT('',(25.707005608,22.413876754,2.2));
#440=DIRECTION('',(1.,0.,-0.));
#441=VECTOR('',#440,1.1989996);
#442=LINE('',#439,#441);
#443=EDGE_CURVE('',#432,#407,#442,.T.);
#444=ORIENTED_EDGE('',*,*,#443,.T.);
#445=ORIENTED_EDGE('',*,*,#412,.T.);
#446=EDGE_LOOP('',(#430,#438,#444,#445));
#447=FACE_BOUND('',#446,.T.);
#448=ADVANCED_FACE('',(#447),#429,.T.);
#449=CARTESIAN_POINT('',(25.707005608,21.815442294,2.2));
#450=DIRECTION('',(-1.,0.,0.));
#451=DIRECTION('',(0.,0.,1.));
#452=AXIS2_PLACEMENT_3D('',#449,#450,#451);
#453=PLANE('',#452);
#454=ORIENTED_EDGE('',*,*,#40,.F.);
#455=CARTESIAN_POINT('',(25.707005608,21.217007834,2.2));
#456=VERTEX_POINT('',#455);
#457=CARTESIAN_POINT('',(25.707005608,21.217007834,2.2));
#458=DIRECTION('',(0.,0.,-1.));
#459=VECTOR('',#458,0.2);
#460=LINE('',#457,#459);
#461=EDGE_CURVE('',#456,#33,#460,.T.);
#462=ORIENTED_EDGE('',*,*,#461,.F.);
#463=CARTESIAN_POINT('',(25.707005608,21.217007834,2.2));
#464=DIRECTION('',(0.,1.,0.));
#465=VECTOR('',#464,1.19686892);
#466=LINE('',#463,#465);
#467=EDGE_CURVE('',#456,#432,#466,.T.);
#468=ORIENTED_EDGE('',*,*,#467,.T.);
#469=ORIENTED_EDGE('',*,*,#437,.T.);
#470=EDGE_LOOP('',(#454,#462,#468,#469));
#471=FACE_BOUND('',#470,.T.);
#472=ADVANCED_FACE('',(#471),#453,.T.);
#473=CARTESIAN_POINT('',(25.657005608,21.217007834,2.2));
#474=DIRECTION('',(0.,1.,0.));
#475=DIRECTION('',(0.,0.,1.));
#476=AXIS2_PLACEMENT_3D('',#473,#474,#475);
#477=PLANE('',#476);
#478=ORIENTED_EDGE('',*,*,#79,.F.);
#479=CARTESIAN_POINT('',(25.607005608,21.217007834,2.2));
#480=VERTEX_POINT('',#479);
#481=CARTESIAN_POINT('',(25.607005608,21.217007834,2.2));
#482=DIRECTION('',(0.,0.,-1.));
#483=VECTOR('',#482,0.2);
#484=LINE('',#481,#483);
#485=EDGE_CURVE('',#480,#68,#484,.T.);
#486=ORIENTED_EDGE('',*,*,#485,.F.);
#487=CARTESIAN_POINT('',(25.607005608,21.217007834,2.2));
#488=DIRECTION('',(1.,0.,-0.));
#489=VECTOR('',#488,0.1);
#490=LINE('',#487,#489);
#491=EDGE_CURVE('',#480,#456,#490,.T.);
#492=ORIENTED_EDGE('',*,*,#491,.T.);
#493=ORIENTED_EDGE('',*,*,#461,.T.);
#494=EDGE_LOOP('',(#478,#486,#492,#493));
#495=FACE_BOUND('',#494,.T.);
#496=ADVANCED_FACE('',(#495),#477,.T.);
#497=CARTESIAN_POINT('',(25.607005608,21.815442294,2.2));
#498=DIRECTION('',(1.,0.,0.));
#499=DIRECTION('',(0.,0.,-1.));
#500=AXIS2_PLACEMENT_3D('',#497,#498,#499);
#501=PLANE('',#500);
#502=ORIENTED_EDGE('',*,*,#73,.F.);
#503=CARTESIAN_POINT('',(25.607005608,22.413876754,2.2));
#504=VERTEX_POINT('',#503);
#505=CARTESIAN_POINT('',(25.607005608,22.413876754,2.2));
#506=DIRECTION('',(0.,0.,-1.));
#507=VECTOR('',#506,0.2);
#508=LINE('',#505,#507);
#509=EDGE_CURVE('',#504,#60,#508,.T.);
#510=ORIENTED_EDGE('',*,*,#509,.F.);
#511=CARTESIAN_POINT('',(25.607005608,22.413876754,2.2));
#512=DIRECTION('',(0.,-1.,0.));
#513=VECTOR('',#512,1.19686892);
#514=LINE('',#511,#513);
#515=EDGE_CURVE('',#504,#480,#514,.T.);
#516=ORIENTED_EDGE('',*,*,#515,.T.);
#517=ORIENTED_EDGE('',*,*,#485,.T.);
#518=EDGE_LOOP('',(#502,#510,#516,#517));
#519=FACE_BOUND('',#518,.T.);
#520=ADVANCED_FACE('',(#519),#501,.T.);
#521=CARTESIAN_POINT('',(25.007005608,22.413876754,2.2));
#522=DIRECTION('',(0.,1.,0.));
#523=DIRECTION('',(0.,0.,1.));
#524=AXIS2_PLACEMENT_3D('',#521,#522,#523);
#525=PLANE('',#524);
#526=ORIENTED_EDGE('',*,*,#65,.F.);
#527=CARTESIAN_POINT('',(24.408006008,22.413876754,2.2));
#528=VERTEX_POINT('',#527);
#529=CARTESIAN_POINT('',(24.408006008,22.413876754,2.2));
#530=DIRECTION('',(0.,0.,-1.));
#531=VECTOR('',#530,0.2);
#532=LINE('',#529,#531);
#533=EDGE_CURVE('',#528,#51,#532,.T.);
#534=ORIENTED_EDGE('',*,*,#533,.F.);
#535=CARTESIAN_POINT('',(24.408006008,22.413876754,2.2));
#536=DIRECTION('',(1.,0.,-0.));
#537=VECTOR('',#536,1.1989996);
#538=LINE('',#535,#537);
#539=EDGE_CURVE('',#528,#504,#538,.T.);
#540=ORIENTED_EDGE('',*,*,#539,.T.);
#541=ORIENTED_EDGE('',*,*,#509,.T.);
#542=EDGE_LOOP('',(#526,#534,#540,#541));
#543=FACE_BOUND('',#542,.T.);
#544=ADVANCED_FACE('',(#543),#525,.T.);
#545=CARTESIAN_POINT('',(25.657005608,22.463876754,2.2));
#546=DIRECTION('',(0.,0.,-1.));
#547=DIRECTION('',(-1.,0.,0.));
#548=AXIS2_PLACEMENT_3D('',#545,#546,#547);
#549=CYLINDRICAL_SURFACE('',#548,1.25);
#550=CARTESIAN_POINT('',(24.407005608,22.463876754,2.2));
#551=VERTEX_POINT('',#550);
#552=CARTESIAN_POINT('',(24.407005608,22.463876754,2.));
#553=DIRECTION('',(-0.,-0.,1.));
#554=VECTOR('',#553,0.2);
#555=LINE('',#552,#554);
#556=EDGE_CURVE('',#315,#551,#555,.T.);
#557=ORIENTED_EDGE('',*,*,#556,.F.);
#558=ORIENTED_EDGE('',*,*,#321,.T.);
#559=CARTESIAN_POINT('',(24.408006008,22.513876754,2.2));
#560=VERTEX_POINT('',#559);
#561=CARTESIAN_POINT('',(24.408006008,22.513876754,2.2));
#562=DIRECTION('',(0.,0.,-1.));
#563=VECTOR('',#562,0.2);
#564=LINE('',#561,#563);
#565=EDGE_CURVE('',#560,#172,#564,.T.);
#566=ORIENTED_EDGE('',*,*,#565,.F.);
#567=CARTESIAN_POINT('',(25.657005608,22.463876754,2.2));
#568=DIRECTION('',(0.,0.,-1.));
#569=DIRECTION('',(1.,-0.,0.));
#570=AXIS2_PLACEMENT_3D('',#567,#568,#569);
#571=CIRCLE('',#570,1.25);
#572=EDGE_CURVE('',#551,#560,#571,.T.);
#573=ORIENTED_EDGE('',*,*,#572,.F.);
#574=EDGE_LOOP('',(#557,#558,#566,#573));
#575=FACE_BOUND('',#574,.T.);
#576=ADVANCED_FACE('',(#575),#549,.F.);
#577=CARTESIAN_POINT('',(25.007005608,22.513876754,2.2));
#578=DIRECTION('',(0.,-1.,0.));
#579=DIRECTION('',(0.,0.,-1.));
#580=AXIS2_PLACEMENT_3D('',#577,#578,#579);
#581=PLANE('',#580);
#582=ORIENTED_EDGE('',*,*,#177,.F.);
#583=CARTESIAN_POINT('',(25.607005608,22.513876754,2.2));
#584=VERTEX_POINT('',#583);
#585=CARTESIAN_POINT('',(25.607005608,22.513876754,2.2));
#586=DIRECTION('',(0.,0.,-1.));
#587=VECTOR('',#586,0.2);
#588=LINE('',#585,#587);
#589=EDGE_CURVE('',#584,#164,#588,.T.);
#590=ORIENTED_EDGE('',*,*,#589,.F.);
#591=CARTESIAN_POINT('',(25.607005608,22.513876754,2.2));
#592=DIRECTION('',(-1.,0.,0.));
#593=VECTOR('',#592,1.1989996);
#594=LINE('',#591,#593);
#595=EDGE_CURVE('',#584,#560,#594,.T.);
#596=ORIENTED_EDGE('',*,*,#595,.T.);
#597=ORIENTED_EDGE('',*,*,#565,.T.);
#598=EDGE_LOOP('',(#582,#590,#596,#597));
#599=FACE_BOUND('',#598,.T.);
#600=ADVANCED_FACE('',(#599),#581,.T.);
#601=CARTESIAN_POINT('',(25.607005608,23.112311214,2.2));
#602=DIRECTION('',(1.,0.,0.));
#603=DIRECTION('',(0.,0.,-1.));
#604=AXIS2_PLACEMENT_3D('',#601,#602,#603);
#605=PLANE('',#604);
#606=ORIENTED_EDGE('',*,*,#169,.F.);
#607=CARTESIAN_POINT('',(25.607005608,23.710745674,2.2));
#608=VERTEX_POINT('',#607);
#609=CARTESIAN_POINT('',(25.607005608,23.710745674,2.2));
#610=DIRECTION('',(0.,0.,-1.));
#611=VECTOR('',#610,0.2);
#612=LINE('',#609,#611);
#613=EDGE_CURVE('',#608,#162,#612,.T.);
#614=ORIENTED_EDGE('',*,*,#613,.F.);
#615=CARTESIAN_POINT('',(25.607005608,23.710745674,2.2));
#616=DIRECTION('',(0.,-1.,0.));
#617=VECTOR('',#616,1.19686892);
#618=LINE('',#615,#617);
#619=EDGE_CURVE('',#608,#584,#618,.T.);
#620=ORIENTED_EDGE('',*,*,#619,.T.);
#621=ORIENTED_EDGE('',*,*,#589,.T.);
#622=EDGE_LOOP('',(#606,#614,#620,#621));
#623=FACE_BOUND('',#622,.T.);
#624=ADVANCED_FACE('',(#623),#605,.T.);
#625=CARTESIAN_POINT('',(25.657005608,23.710745674,2.2));
#626=DIRECTION('',(0.,-1.,0.));
#627=DIRECTION('',(0.,0.,-1.));
#628=AXIS2_PLACEMENT_3D('',#625,#626,#627);
#629=PLANE('',#628);
#630=ORIENTED_EDGE('',*,*,#208,.F.);
#631=ORIENTED_EDGE('',*,*,#370,.F.);
#632=CARTESIAN_POINT('',(25.707005608,23.710745674,2.2));
#633=DIRECTION('',(-1.,0.,0.));
#634=VECTOR('',#633,0.1);
#635=LINE('',#632,#634);
#636=EDGE_CURVE('',#359,#608,#635,.T.);
#637=ORIENTED_EDGE('',*,*,#636,.T.);
#638=ORIENTED_EDGE('',*,*,#613,.T.);
#639=EDGE_LOOP('',(#630,#631,#637,#638));
#640=FACE_BOUND('',#639,.T.);
#641=ADVANCED_FACE('',(#640),#629,.T.);
#642=CARTESIAN_POINT('',(25.657005608,22.463876754,2.2));
#643=DIRECTION('',(0.,0.,-1.));
#644=DIRECTION('',(0.,1.,0.));
#645=AXIS2_PLACEMENT_3D('',#642,#643,#644);
#646=PLANE('',#645);
#647=ORIENTED_EDGE('',*,*,#364,.F.);
#648=ORIENTED_EDGE('',*,*,#393,.F.);
#649=ORIENTED_EDGE('',*,*,#419,.T.);
#650=ORIENTED_EDGE('',*,*,#443,.F.);
#651=ORIENTED_EDGE('',*,*,#467,.F.);
#652=ORIENTED_EDGE('',*,*,#491,.F.);
#653=ORIENTED_EDGE('',*,*,#515,.F.);
#654=ORIENTED_EDGE('',*,*,#539,.F.);
#655=CARTESIAN_POINT('',(25.657005608,22.463876754,2.2));
#656=DIRECTION('',(0.,0.,-1.));
#657=DIRECTION('',(1.,-0.,0.));
#658=AXIS2_PLACEMENT_3D('',#655,#656,#657);
#659=CIRCLE('',#658,1.25);
#660=EDGE_CURVE('',#528,#551,#659,.T.);
#661=ORIENTED_EDGE('',*,*,#660,.T.);
#662=ORIENTED_EDGE('',*,*,#572,.T.);
#663=ORIENTED_EDGE('',*,*,#595,.F.);
#664=ORIENTED_EDGE('',*,*,#619,.F.);
#665=ORIENTED_EDGE('',*,*,#636,.F.);
#666=EDGE_LOOP('',(#647,#648,#649,#650,#651,#652,#653,#654,#661,#662,#663,#664,#665));
#667=FACE_BOUND('',#666,.T.);
#668=ADVANCED_FACE('',(#667),#646,.T.);
#669=CARTESIAN_POINT('',(25.657005608,22.463876754,2.2));
#670=DIRECTION('',(0.,0.,-1.));
#671=DIRECTION('',(-1.,0.,0.));
#672=AXIS2_PLACEMENT_3D('',#669,#670,#671);
#673=CYLINDRICAL_SURFACE('',#672,1.25);
#674=ORIENTED_EDGE('',*,*,#556,.T.);
#675=ORIENTED_EDGE('',*,*,#660,.F.);
#676=ORIENTED_EDGE('',*,*,#533,.T.);
#677=ORIENTED_EDGE('',*,*,#328,.T.);
#678=EDGE_LOOP('',(#674,#675,#676,#677));
#679=FACE_BOUND('',#678,.T.);
#680=ADVANCED_FACE('',(#679),#673,.F.);
#681=CLOSED_SHELL('',(#83,#134,#155,#212,#246,#272,#291,#343,#374,#398,#424,#448,#472,#496,#520,#544,#576,#600,#624,#641,#668,#680));
#682=MANIFOLD_SOLID_BREP('Schraube',#681);
#683=COLOUR_RGB('',0.627451003,0.627451003,0.643137276);
#684=FILL_AREA_STYLE_COLOUR('',#683);
#685=FILL_AREA_STYLE('',(#684));
#686=SURFACE_STYLE_FILL_AREA(#685);
#687=SURFACE_SIDE_STYLE('',(#686));
#688=SURFACE_STYLE_USAGE(.BOTH.,#687);
#689=PRESENTATION_STYLE_ASSIGNMENT((#688));
#26=STYLED_ITEM('',(#689),#682);
#16=SHAPE_REPRESENTATION('root',(#15),#10);
#17=ADVANCED_BREP_SHAPE_REPRESENTATION('root',(#682),#10);
#697=SHAPE_REPRESENTATION_RELATIONSHIP('','',#16,#17);
#698=CARTESIAN_POINT('',(0.,0.,0.));
#699=DIRECTION('',(0.,0.,1.));
#700=DIRECTION('',(1.,0.,0.));
#701=AXIS2_PLACEMENT_3D('',#698,#699,#700);
#703=MAPPED_ITEM('',#702,#701);
#702=REPRESENTATION_MAP(#701,#16);
#704=APPLICATION_CONTEXT('Managed model based 3d engineering');
#705=APPLICATION_PROTOCOL_DEFINITION('international standard','ap242_managed_model_based_3d_engineering',2014,#704);
#706=PRODUCT_CONTEXT('',#704,'mechanical');
#707=PRODUCT_DEFINITION_CONTEXT('part definition',#704,'design');
#24=PRODUCT('root','root','',(#706));
#708=PRODUCT_RELATED_PRODUCT_CATEGORY('part','',(#24));
#709=PRODUCT_DEFINITION_FORMATION_WITH_SPECIFIED_SOURCE('','',#24,.NOT_KNOWN.);
#25=PRODUCT_DEFINITION('design','',#709,#707);
#23=PRODUCT_DEFINITION_SHAPE('','',#25);
#710=SHAPE_DEFINITION_REPRESENTATION(#23,#16);
#11=DRAUGHTING_MODEL('',(#703),#10);
#711=DESCRIPTIVE_REPRESENTATION_ITEM('KEY','/Users/colinostermann/Library/Containers/com.shapr3d.shapr/Data/tmp/A0AF1318-F25F-42B9-85F8-AE9DC6CD70DD.tmp');
#712=PROPERTY_DEFINITION('KEY','',#25);
#713=REPRESENTATION('',(#711),#10);
#714=PROPERTY_DEFINITION_REPRESENTATION(#712,#713);
#715=GENERAL_PROPERTY('','KEY','');
#716=GENERAL_PROPERTY_ASSOCIATION('','',#715,#712);
#1=MECHANICAL_DESIGN_GEOMETRIC_PRESENTATION_REPRESENTATION('',(#26),#10);
ENDSEC;
END-ISO-10303-21;
